%FSLAX35Y35*%
%MOIN*%
G04 EasyPC Gerber Version 18.0.8 Build 3632 *
%ADD24C,0.01500*%
%ADD92C,0.04800*%
%ADD70C,0.06000*%
%ADD77C,0.07000*%
X0Y0D02*
D02*
D70*
X15250Y37750D03*
Y47750D03*
Y57750D03*
Y67750D03*
Y77750D03*
X27750Y82750D03*
Y92750D03*
Y102750D03*
Y112750D03*
Y122750D03*
Y132750D03*
Y142750D03*
Y152750D03*
X30250Y67750D03*
X37750Y82750D03*
Y92750D03*
Y102750D03*
Y112750D03*
Y122750D03*
Y132750D03*
Y142750D03*
Y152750D03*
X40250Y67750D03*
X50250D03*
Y82750D03*
Y92750D03*
Y102750D03*
Y112750D03*
Y122750D03*
Y132750D03*
Y142750D03*
Y152750D03*
Y162750D03*
X60250Y172750D03*
Y182750D03*
Y192750D03*
Y202750D03*
X70250Y172750D03*
Y182750D03*
Y192750D03*
Y202750D03*
Y217750D03*
X80250Y82750D03*
Y92750D03*
Y102750D03*
Y112750D03*
Y122750D03*
Y132750D03*
Y142750D03*
Y152750D03*
Y162750D03*
Y172750D03*
Y182750D03*
Y192750D03*
Y202750D03*
Y217750D03*
X90250Y82750D03*
Y92750D03*
Y102750D03*
Y112750D03*
Y122750D03*
Y132750D03*
Y142750D03*
Y152750D03*
Y162750D03*
Y172750D03*
Y182750D03*
Y192750D03*
Y202750D03*
Y217750D03*
X100250Y82750D03*
Y92750D03*
Y102750D03*
Y112750D03*
Y122750D03*
Y132750D03*
Y142750D03*
Y152750D03*
Y162750D03*
Y172750D03*
Y182750D03*
Y192750D03*
Y202750D03*
X125250Y17750D03*
Y27750D03*
Y42750D03*
Y52750D03*
Y62750D03*
Y72750D03*
Y82750D03*
Y92750D03*
Y102750D03*
Y112750D03*
Y122750D03*
Y132750D03*
Y142750D03*
Y152750D03*
Y162750D03*
Y172750D03*
Y182750D03*
Y192750D03*
Y202750D03*
Y212750D03*
Y222750D03*
X135250Y42750D03*
Y52750D03*
Y62750D03*
Y72750D03*
Y82750D03*
Y92750D03*
Y102750D03*
Y112750D03*
Y122750D03*
Y132750D03*
Y142750D03*
Y152750D03*
Y162750D03*
Y172750D03*
Y182750D03*
Y192750D03*
Y202750D03*
Y212750D03*
Y222750D03*
X155250Y82750D03*
Y172750D03*
X165250Y82750D03*
Y172750D03*
X170250Y212750D03*
X175250Y82750D03*
Y172750D03*
X180250Y185250D03*
Y202750D03*
Y212750D03*
X185250Y82750D03*
Y172750D03*
X195250Y82750D03*
Y172750D03*
X205250Y82750D03*
Y172750D03*
X215250Y185250D03*
Y202750D03*
X217750Y17750D03*
X225250Y42750D03*
Y52750D03*
Y62750D03*
Y72750D03*
Y82750D03*
Y92750D03*
Y102750D03*
Y112750D03*
Y122750D03*
Y132750D03*
Y142750D03*
Y152750D03*
Y162750D03*
Y172750D03*
Y182750D03*
Y192750D03*
Y202750D03*
Y212750D03*
Y222750D03*
X227750Y17750D03*
X237750D03*
X247750D03*
X250250Y72750D03*
Y82750D03*
Y92750D03*
Y102750D03*
Y112750D03*
Y122750D03*
Y155250D03*
Y170250D03*
Y212750D03*
X257750Y17750D03*
X260250Y72750D03*
Y82750D03*
Y92750D03*
Y102750D03*
Y112750D03*
Y122750D03*
Y137750D03*
Y155250D03*
Y170250D03*
Y212750D03*
X267750Y17750D03*
X270250Y72750D03*
Y82750D03*
Y92750D03*
Y102750D03*
Y112750D03*
Y122750D03*
Y137750D03*
Y155250D03*
Y170250D03*
Y185250D03*
Y197750D03*
Y212750D03*
X277750Y17750D03*
X280250Y72750D03*
Y82750D03*
Y92750D03*
Y102750D03*
Y112750D03*
Y122750D03*
Y137750D03*
Y155250D03*
Y170250D03*
Y185250D03*
Y197750D03*
Y212750D03*
X287750Y17750D03*
X290250Y72750D03*
Y82750D03*
Y92750D03*
Y102750D03*
Y112750D03*
Y122750D03*
Y155250D03*
Y170250D03*
Y185250D03*
Y197750D03*
Y212750D03*
X300250Y82750D03*
Y92750D03*
Y102750D03*
Y112750D03*
Y122750D03*
Y155250D03*
Y170250D03*
Y185250D03*
Y197750D03*
Y212750D03*
D02*
D24*
X25250Y182750D02*
Y207750D01*
Y182750D02*
Y172750D01*
X60250*
X27750Y82750D02*
Y87750D01*
X57750*
X27750Y92750D02*
Y82750D01*
Y102750D02*
Y92750D01*
Y112750D02*
Y102750D01*
Y122750D02*
Y112750D01*
Y132750D02*
Y122750D01*
Y142750D02*
Y132750D01*
Y152750D02*
Y142750D01*
X40250Y67750D02*
Y75250D01*
X32750*
Y87750*
X57750*
X45250Y182750D02*
Y207750D01*
X47750Y55250D02*
Y45250D01*
X20250*
Y67750*
X15250*
X50250Y82750D02*
X37750D01*
X50250Y92750D02*
X37750D01*
X50250Y102750D02*
X37750D01*
X50250Y112750D02*
X37750D01*
X50250Y122750D02*
X37750D01*
X50250Y132750D02*
X37750D01*
X50250Y142750D02*
X37750D01*
X50250Y152750D02*
X37750D01*
X57750Y87750D02*
Y162750D01*
X50250*
X80250Y82750D02*
Y75250D01*
X57750*
Y62750*
X25250*
Y77750*
X15250*
X80250Y92750D02*
Y97750D01*
X100250*
Y82750D02*
Y87750D01*
X80250*
Y82750*
X100250Y97750D02*
X125250D01*
Y102750*
X100250D02*
Y97750D01*
Y107750D02*
X80250D01*
Y102750*
X100250Y112750D02*
Y107750D01*
Y117750D02*
X80250D01*
Y112750*
X100250Y122750D02*
Y117750D01*
Y127750D02*
X80250D01*
Y122750*
X100250Y132750D02*
Y127750D01*
Y137750D02*
X80250D01*
Y132750*
X100250Y142750D02*
Y137750D01*
Y147750D02*
X80250D01*
Y142750*
X100250Y152750D02*
Y147750D01*
Y157750D02*
X80250D01*
Y152750*
X100250Y162750D02*
Y157750D01*
X125250Y27750D02*
X117750D01*
Y12750*
X90250*
Y37750*
X15250*
X125250Y27750D02*
Y42750D01*
Y82750D02*
Y87750D01*
X100250*
X125250Y92750D02*
X100250D01*
X125250D02*
X130250D01*
Y77750*
X117750*
Y32750*
X110250*
X125250Y112750D02*
Y107750D01*
X100250*
X125250Y122750D02*
Y117750D01*
X100250*
X125250Y132750D02*
Y127750D01*
X100250*
X125250Y142750D02*
Y137750D01*
X100250*
X125250Y152750D02*
Y147750D01*
X100250*
X125250Y162750D02*
Y157750D01*
X100250*
X125250Y172750D02*
Y167750D01*
X80250*
Y172750*
X125250Y182750D02*
Y177750D01*
X80250*
Y182750*
X125250Y192750D02*
Y187750D01*
X80250*
Y192750*
X125250Y202750D02*
Y197750D01*
X80250*
Y202750*
X125250Y212750D02*
X45250D01*
Y207750*
X135250Y82750D02*
X140250D01*
Y17750*
X217750*
X135250Y102750D02*
Y97750D01*
X142750*
Y22750*
X227750*
Y17750*
X135250Y112750D02*
Y107750D01*
X145250*
Y27750*
X237750*
Y17750*
X135250Y122750D02*
Y117750D01*
X147750*
Y32750*
X240250*
Y22750*
X247750*
Y17750*
X135250Y222750D02*
X165250D01*
Y202750*
X155250*
Y172750*
X165250Y202750D02*
X180250D01*
Y185250*
Y212750D02*
Y222750D01*
X225250*
X195250Y172750D02*
X200250D01*
Y167750*
X212750*
Y162750*
X220250*
Y152750*
X225250*
X215250Y185250D02*
Y175250D01*
X217750*
Y172750*
X225250*
Y72750D02*
Y77750D01*
X270250*
Y72750*
X225250Y82750D02*
Y87750D01*
X270250*
Y82750*
X225250Y92750D02*
Y97750D01*
X270250*
Y92750*
X225250Y102750D02*
Y107750D01*
X270250*
Y102750*
X225250Y112750D02*
Y117750D01*
X270250*
X225250Y122750D02*
X220250D01*
Y67750*
X240250*
Y55250*
X257750*
X225250Y122750D02*
Y127750D01*
X270250*
X225250Y132750D02*
X215250D01*
Y157750*
X207750*
Y162750*
X170250*
Y172750*
X165250*
X225250Y132750D02*
Y137750D01*
X247750*
Y152750*
X250250*
Y155250*
X225250Y142750D02*
X217750D01*
Y160250*
X210250*
Y165250*
X190250*
Y172750*
X185250*
X225250Y142750D02*
Y147750D01*
X242750*
X225250Y152750D02*
Y157750D01*
X240250*
Y160250*
X280250*
Y155250*
X225250Y162750D02*
Y167750D01*
X215250*
Y172750*
X205250*
X225250Y202750D02*
X235250D01*
Y192750*
X245250*
Y185250*
X270250*
X225250Y202750D02*
X215250D01*
X225250Y212750D02*
X195250D01*
Y177750*
X175250*
Y172750*
X225250Y212750D02*
X240250D01*
Y195250*
X255250*
Y190250*
X275250*
Y175250*
X270250*
Y170250*
X225250Y222750D02*
X245250D01*
Y217750*
X295250*
Y212750*
X300250*
X257750Y17750D02*
Y27750D01*
X242750*
Y35250*
X150250*
Y152750*
X135250*
X257750Y35250D02*
X265250D01*
Y62750*
X250250*
Y72750*
X270250Y117750D02*
Y112750D01*
Y127750D02*
X300250D01*
Y122750*
X270250Y127750D02*
Y122750D01*
X282750Y35250D02*
X265250D01*
X290250Y185250D02*
Y192750D01*
X280250*
Y197750*
X300250Y82750D02*
Y65250D01*
X295250*
Y45250*
X290250*
Y25250*
X272750*
Y12750*
X132750*
Y27750*
X125250*
X300250Y102750D02*
X305250D01*
Y140250*
X285250*
Y165250*
X240250*
Y162750*
X225250*
X300250Y102750D02*
Y97750D01*
X285250*
Y102750*
X280250*
X300250Y112750D02*
X295250D01*
Y117750*
X270250*
D02*
D77*
X25250Y182750D03*
Y207750D03*
X27750Y30250D03*
Y55250D03*
X45250Y182750D03*
Y207750D03*
X47750Y30250D03*
Y55250D03*
X77750Y45250D03*
Y65250D03*
X97750Y55250D03*
X110250Y22750D03*
Y32750D03*
Y42750D03*
X257750Y35250D03*
Y55250D03*
X282750Y35250D03*
Y55250D03*
D02*
D92*
X242750Y147750D03*
X0Y0D02*
M02*
