%FSLAX35Y35*%
%MOIN*%
G04 EasyPC Gerber Version 18.0.8 Build 3632 *
%ADD11C,0.00500*%
%ADD15C,0.00600*%
%ADD91C,0.02000*%
X0Y0D02*
D02*
D11*
X4687Y65250D02*
X2437D01*
Y66563*
X2625Y66937*
X3000Y67125*
X3375Y66937*
X3563Y66563*
Y65250*
Y66563D02*
X4687Y67125D01*
Y68250D02*
X2437Y70125D01*
Y68250D02*
X4687Y70125D01*
Y71625D02*
Y72375D01*
Y72000D02*
X2437D01*
X2813Y71625*
X4687Y76187D02*
X2437D01*
Y75250D02*
Y77125D01*
X4687Y78250D02*
X2437Y80125D01*
Y78250D02*
X4687Y80125D01*
Y81625D02*
Y82375D01*
Y82000D02*
X2437D01*
X2813Y81625*
X7750Y17750D02*
G75*
G03X17750Y7750I5000J-5000D01*
G01*
G75*
G03X7750Y17750I-5000J5000*
G01*
Y235250D02*
G75*
G03X17750Y225250I5000J-5000D01*
G01*
G75*
G03X7750Y235250I-5000J5000*
G01*
X10250Y32750D02*
X20250D01*
Y82750*
X10250*
Y32750*
X9500Y35250D02*
X9687Y35625D01*
Y36187*
X9500Y36563*
X9125Y36750*
X8937*
X8563Y36563*
X8375Y36187*
Y35250*
X7437*
Y36750*
Y38250D02*
X9687Y39187D01*
X7437Y40125*
X9500Y45437D02*
X9687Y45813D01*
Y46187*
X9500Y46563*
X9125Y46750*
X8750Y46563*
X8563Y46187*
Y45813*
Y46187D02*
X8375Y46563D01*
X8000Y46750*
X7625Y46563*
X7437Y46187*
Y45813*
X7625Y45437*
X7437Y48250D02*
X9687Y49187D01*
X7437Y50125*
X8750Y59063D02*
Y59625D01*
X8937*
X9313Y59437*
X9500Y59250*
X9687Y58875*
Y58500*
X9500Y58125*
X9313Y57937*
X8937Y57750*
X8187*
X7813Y57937*
X7625Y58125*
X7437Y58500*
Y58875*
X7625Y59250*
X7813Y59437*
X8187Y59625*
X9687Y65625D02*
Y66375D01*
Y66000D02*
X7437D01*
X7813Y65625*
X9687Y69187D02*
X7437D01*
X8937Y68250*
Y69750*
X9687Y75625D02*
Y76375D01*
Y76000D02*
X7437D01*
X7813Y75625*
X9500Y78437D02*
X9687Y78813D01*
Y79187*
X9500Y79563*
X9125Y79750*
X8750Y79563*
X8563Y79187*
Y78813*
Y79187D02*
X8375Y79563D01*
X8000Y79750*
X7625Y79563*
X7437Y79187*
Y78813*
X7625Y78437*
X22750Y77750D02*
X42750D01*
Y157750*
X22750*
Y77750*
X23000Y65250D02*
X23187Y65625D01*
Y66187*
X23000Y66563*
X22625Y66750*
X22437*
X22063Y66563*
X21875Y66187*
Y65250*
X20937*
Y66750*
Y68250D02*
X23187Y69187D01*
X20937Y70125*
X25250Y62750D02*
X55250D01*
Y72750*
X25250*
Y62750*
X27750Y75563D02*
X29250D01*
X28500Y74813D02*
Y76313D01*
X27750Y160563D02*
X29250D01*
X28500Y159813D02*
Y161313D01*
X37750Y74813D02*
Y77063D01*
X38875*
X39250Y76875*
X39437Y76687*
X39625Y76313*
Y75563*
X39437Y75187*
X39250Y75000*
X38875Y74813*
X37750*
Y159813D02*
Y162063D01*
X38875*
X39250Y161875*
X39437Y161687*
X39625Y161313*
Y160563*
X39437Y160187*
X39250Y160000*
X38875Y159813*
X37750*
X45250Y77750D02*
X85250D01*
Y167750*
X45250*
Y77750*
X50250Y212750D02*
X20250D01*
Y178250*
X50250*
Y212750*
X52750Y60250D02*
X22750D01*
Y25750*
X52750*
Y60250*
X61000Y209750D02*
X61750D01*
Y209500*
X61500Y209000*
X61250Y208750*
X60750Y208500*
X60250*
X59750Y208750*
X59500Y209000*
X59250Y209500*
Y210500*
X59500Y211000*
X59750Y211250*
X60250Y211500*
X60750*
X61250Y211250*
X61500Y211000*
X61750Y210500*
X60250Y10250D02*
X102750D01*
Y70250*
X60250*
Y10250*
X59687Y63125D02*
Y63875D01*
Y63500D02*
X57437D01*
X57813Y63125*
X59687Y67250D02*
Y65750D01*
X58375Y67063*
X58000Y67250*
X57625Y67063*
X57437Y66687*
Y66125*
X57625Y65750*
X57437Y68750D02*
X59687Y69687D01*
X57437Y70625*
X60250Y87750D02*
G75*
G03X70250Y82750I5000J-2500D01*
G01*
G75*
G03X60250Y87750I-5000J2500*
G01*
X65250Y212750D02*
X95250D01*
Y222750*
X65250*
Y212750*
X69250Y209500D02*
X71250D01*
X70250Y208500D02*
Y210500D01*
X85250Y77750D02*
X105250D01*
Y167750*
X85250*
Y77750*
X89937Y75250D02*
X90875D01*
Y74937*
X90563Y74313*
X90250Y74000*
X89625Y73687*
X89000*
X88375Y74000*
X88063Y74313*
X87750Y74937*
Y76187*
X88063Y76813*
X88375Y77125*
X89000Y77437*
X89625*
X90250Y77125*
X90563Y76813*
X90875Y76187*
X91000Y209750D02*
X91750D01*
Y209500*
X91500Y209000*
X91250Y208750*
X90750Y208500*
X90250*
X89750Y208750*
X89500Y209000*
X89250Y209500*
Y210500*
X89500Y211000*
X89750Y211250*
X90250Y211500*
X90750*
X91250Y211250*
X91500Y211000*
X91750Y210500*
X99250Y209500D02*
X101250D01*
X100250Y208500D02*
Y210500D01*
Y73687D02*
Y77437D01*
X102125*
X102750Y77125*
X103063Y76813*
X103375Y76187*
Y74937*
X103063Y74313*
X102750Y74000*
X102125Y73687*
X100250*
X105250Y17750D02*
X115250D01*
Y47750*
X105250*
Y17750*
X105750Y49500D02*
X106750D01*
X106250D02*
Y52500D01*
X105750Y52000*
X111250Y49500D02*
X109250D01*
X111000Y51250*
X111250Y51750*
X111000Y52250*
X110500Y52500*
X109750*
X109250Y52250*
X113250Y52500D02*
X114500Y49500D01*
X115750Y52500*
X106750Y131313D02*
X105250D01*
X106563Y132625*
X106750Y133000*
X106563Y133375*
X106187Y133563*
X105625*
X105250Y133375*
X108250Y131875D02*
X108437Y132250D01*
X108813Y132437*
X109187*
X109563Y132250*
X109750Y131875*
X109563Y131500*
X109187Y131313*
X108813*
X108437Y131500*
X108250Y131875*
Y132437*
X108437Y133000*
X108813Y133375*
X109187Y133563*
X111250Y131313D02*
X113125Y133563D01*
X114250Y131313D02*
Y133563D01*
X115375*
X115750Y133375*
X115937Y133187*
X116125Y132813*
Y132063*
X115937Y131687*
X115750Y131500*
X115375Y131313*
X114250*
X117250D02*
X118187Y133563D01*
X119125Y131313*
X117625Y132250D02*
X118750D01*
X121750Y131313D02*
X120250D01*
X121563Y132625*
X121750Y133000*
X121563Y133375*
X121187Y133563*
X120625*
X120250Y133375*
X106750Y141313D02*
X105250D01*
X106563Y142625*
X106750Y143000*
X106563Y143375*
X106187Y143563*
X105625*
X105250Y143375*
X108250Y141500D02*
X108625Y141313D01*
X109187*
X109563Y141500*
X109750Y141875*
Y142063*
X109563Y142437*
X109187Y142625*
X108250*
Y143563*
X109750*
X111250Y141313D02*
X113125Y143563D01*
X114250Y141313D02*
Y143563D01*
X115375*
X115750Y143375*
X115937Y143187*
X116125Y142813*
Y142063*
X115937Y141687*
X115750Y141500*
X115375Y141313*
X114250*
X117250D02*
X118187Y143563D01*
X119125Y141313*
X117625Y142250D02*
X118750D01*
X120625Y141313D02*
X121375D01*
X121000D02*
Y143563D01*
X120625Y143187*
X105250Y207750D02*
X55250D01*
Y167750*
X105250*
Y207750*
X106625Y81313D02*
X107375D01*
X107000D02*
Y83563D01*
X106625Y83187*
X109437Y81500D02*
X109813Y81313D01*
X110187*
X110563Y81500*
X110750Y81875*
X110563Y82250*
X110187Y82437*
X109813*
X110187D02*
X110563Y82625D01*
X110750Y83000*
X110563Y83375*
X110187Y83563*
X109813*
X109437Y83375*
X112250Y81313D02*
X114125Y83563D01*
X116187Y81313D02*
Y83563D01*
X115250D02*
X117125D01*
X119187Y81313D02*
Y83563D01*
X118250Y82063*
X119750*
X106625Y101313D02*
X107375D01*
X107000D02*
Y103563D01*
X106625Y103187*
X110750Y101313D02*
X109250D01*
X110563Y102625*
X110750Y103000*
X110563Y103375*
X110187Y103563*
X109625*
X109250Y103375*
X112250Y101313D02*
X114125Y103563D01*
X116187Y101313D02*
Y103563D01*
X115250D02*
X117125D01*
X118250Y101500D02*
X118625Y101313D01*
X119187*
X119563Y101500*
X119750Y101875*
Y102063*
X119563Y102437*
X119187Y102625*
X118250*
Y103563*
X119750*
X106625Y111313D02*
X107375D01*
X107000D02*
Y113563D01*
X106625Y113187*
X110187Y111313D02*
Y113563D01*
X109250Y112063*
X110750*
X112250Y111313D02*
X114125Y113563D01*
X116187Y111313D02*
Y113563D01*
X115250D02*
X117125D01*
X118250Y111875D02*
X118437Y112250D01*
X118813Y112437*
X119187*
X119563Y112250*
X119750Y111875*
X119563Y111500*
X119187Y111313*
X118813*
X118437Y111500*
X118250Y111875*
Y112437*
X118437Y113000*
X118813Y113375*
X119187Y113563*
X107750Y121313D02*
X106250D01*
X107563Y122625*
X107750Y123000*
X107563Y123375*
X107187Y123563*
X106625*
X106250Y123375*
X109250Y121313D02*
X110750Y123563D01*
X109250*
X112250Y121313D02*
X114125Y123563D01*
X116187Y121313D02*
Y123563D01*
X115250D02*
X117125D01*
X118250Y121313D02*
X119750Y123563D01*
X118250*
X106437Y151500D02*
X106813Y151313D01*
X107187*
X107563Y151500*
X107750Y151875*
X107563Y152250*
X107187Y152437*
X106813*
X107187D02*
X107563Y152625D01*
X107750Y153000*
X107563Y153375*
X107187Y153563*
X106813*
X106437Y153375*
X109437Y151500D02*
X109813Y151313D01*
X110187*
X110563Y151500*
X110750Y151875*
X110563Y152250*
X110187Y152437*
X109813*
X110187D02*
X110563Y152625D01*
X110750Y153000*
X110563Y153375*
X110187Y153563*
X109813*
X109437Y153375*
X112250Y151313D02*
X114125Y153563D01*
X116187Y151313D02*
Y153563D01*
X115250D02*
X117125D01*
X118813Y152437D02*
X119187D01*
X119563Y152625*
X119750Y153000*
X119563Y153375*
X119187Y153563*
X118813*
X118437Y153375*
X118250Y153000*
X118437Y152625*
X118813Y152437*
X118437Y152250*
X118250Y151875*
X118437Y151500*
X118813Y151313*
X119187*
X119563Y151500*
X119750Y151875*
X119563Y152250*
X119187Y152437*
X106437Y161500D02*
X106813Y161313D01*
X107187*
X107563Y161500*
X107750Y161875*
X107563Y162250*
X107187Y162437*
X106813*
X107187D02*
X107563Y162625D01*
X107750Y163000*
X107563Y163375*
X107187Y163563*
X106813*
X106437Y163375*
X110750Y161313D02*
X109250D01*
X110563Y162625*
X110750Y163000*
X110563Y163375*
X110187Y163563*
X109625*
X109250Y163375*
X112250Y161313D02*
X114125Y163563D01*
X116187Y161313D02*
Y163563D01*
X115250D02*
X117125D01*
X118813Y161313D02*
X119187Y161500D01*
X119563Y161875*
X119750Y162437*
Y163000*
X119563Y163375*
X119187Y163563*
X118813*
X118437Y163375*
X118250Y163000*
X118437Y162625*
X118813Y162437*
X119187*
X119563Y162625*
X119750Y163000*
X107250Y13750D02*
X107750Y13500D01*
X108500*
X109000Y13750*
X109250Y14250*
Y14500*
X109000Y15000*
X108500Y15250*
X107250*
Y16500*
X109250*
X111250D02*
X112500Y13500D01*
X113750Y16500*
X112563Y92250D02*
X113125D01*
Y92063*
X112937Y91687*
X112750Y91500*
X112375Y91313*
X112000*
X111625Y91500*
X111437Y91687*
X111250Y92063*
Y92813*
X111437Y93187*
X111625Y93375*
X112000Y93563*
X112375*
X112750Y93375*
X112937Y93187*
X113125Y92813*
X114250Y91313D02*
Y93563D01*
X116125Y91313*
Y93563*
X117250Y91313D02*
Y93563D01*
X118375*
X118750Y93375*
X118937Y93187*
X119125Y92813*
Y92063*
X118937Y91687*
X118750Y91500*
X118375Y91313*
X117250*
X115437Y191500D02*
X115813Y191313D01*
X116187*
X116563Y191500*
X116750Y191875*
X116563Y192250*
X116187Y192437*
X115813*
X116187D02*
X116563Y192625D01*
X116750Y193000*
X116563Y193375*
X116187Y193563*
X115813*
X115437Y193375*
X118813Y191313D02*
X119187Y191500D01*
X119563Y191875*
X119750Y192437*
Y193000*
X119563Y193375*
X119187Y193563*
X118813*
X118437Y193375*
X118250Y193000*
X118437Y192625*
X118813Y192437*
X119187*
X119563Y192625*
X119750Y193000*
X115437Y201500D02*
X115813Y201313D01*
X116187*
X116563Y201500*
X116750Y201875*
X116563Y202250*
X116187Y202437*
X115813*
X116187D02*
X116563Y202625D01*
X116750Y203000*
X116563Y203375*
X116187Y203563*
X115813*
X115437Y203375*
X118250Y201875D02*
X118437Y202250D01*
X118813Y202437*
X119187*
X119563Y202250*
X119750Y201875*
X119563Y201500*
X119187Y201313*
X118813*
X118437Y201500*
X118250Y201875*
Y202437*
X118437Y203000*
X118813Y203375*
X119187Y203563*
X115250Y211313D02*
Y213563D01*
X117125*
X116750Y212437D02*
X115250D01*
Y211313D02*
X117125D01*
X118250D02*
Y213563D01*
X120125Y211313*
Y213563*
X115437Y222500D02*
X115813Y222313D01*
X116187*
X116563Y222500*
X116750Y222875*
X116563Y223250*
X116187Y223437*
X115813*
X116187D02*
X116563Y223625D01*
X116750Y224000*
X116563Y224375*
X116187Y224563*
X115813*
X115437Y224375*
X118250Y224563D02*
X119187Y222313D01*
X120125Y224563*
X116437Y171500D02*
X116813Y171313D01*
X117187*
X117563Y171500*
X117750Y171875*
X117563Y172250*
X117187Y172437*
X116813*
X117187D02*
X117563Y172625D01*
X117750Y173000*
X117563Y173375*
X117187Y173563*
X116813*
X116437Y173375*
X119250Y171500D02*
X119625Y171313D01*
X120187*
X120563Y171500*
X120750Y171875*
Y172063*
X120563Y172437*
X120187Y172625*
X119250*
Y173563*
X120750*
X116437Y181500D02*
X116813Y181313D01*
X117187*
X117563Y181500*
X117750Y181875*
X117563Y182250*
X117187Y182437*
X116813*
X117187D02*
X117563Y182625D01*
X117750Y183000*
X117563Y183375*
X117187Y183563*
X116813*
X116437Y183375*
X120187Y181313D02*
Y183563D01*
X119250Y182063*
X120750*
X120250Y12750D02*
X130250D01*
Y32750*
X120250*
Y12750*
X122250Y34000D02*
X122625Y33813D01*
X123187*
X123563Y34000*
X123750Y34375*
Y34563*
X123563Y34937*
X123187Y35125*
X122250*
Y36063*
X123750*
X125250D02*
X126187Y33813D01*
X127125Y36063*
X122750Y8500D02*
X123125Y8313D01*
X123687*
X124063Y8500*
X124250Y8875*
Y9063*
X124063Y9437*
X123687Y9625*
X122750*
Y10563*
X124250*
X125750D02*
X126687Y8313D01*
X127625Y10563*
X133250Y8500D02*
X133063Y8313D01*
X132687*
X132313*
X131937Y8500*
X131750Y8875*
Y9437*
X131937Y9625*
X132313Y9813*
X132687*
X133063Y9625*
X133250Y9437*
Y9250*
X133063Y9063*
X132687Y8875*
X132313*
X131937Y9063*
X131750Y9250*
X134750Y8313D02*
X136250Y9813D01*
Y8313D02*
X134750Y9813D01*
X138125D02*
X138875D01*
X138500Y10187D02*
Y8500D01*
X138687Y8313*
X138875*
X139063Y8500*
X140937Y8313D02*
X141125Y8500D01*
X140937Y8687*
X140750Y8500*
X140937Y8313*
X130250Y32750D02*
X220250D01*
Y237750*
X130250*
Y32750*
X150250Y77750D02*
X210250D01*
Y87750*
X150250*
Y77750*
Y167750D02*
X210250D01*
Y177750*
X150250*
Y167750*
X152937Y163500D02*
X153313Y163313D01*
X153687*
X154063Y163500*
X154250Y163875*
X154063Y164250*
X153687Y164437*
X153313*
X153687D02*
X154063Y164625D01*
X154250Y165000*
X154063Y165375*
X153687Y165563*
X153313*
X152937Y165375*
X155750Y165563D02*
X156687Y163313D01*
X157625Y165563*
X155250Y2750D02*
X195250D01*
Y22750*
X155250*
Y2750*
X156563Y89250D02*
X157125D01*
Y89063*
X156937Y88687*
X156750Y88500*
X156375Y88313*
X156000*
X155625Y88500*
X155437Y88687*
X155250Y89063*
Y89813*
X155437Y90187*
X155625Y90375*
X156000Y90563*
X156375*
X156750Y90375*
X156937Y90187*
X157125Y89813*
X160250Y163500D02*
X160625Y163313D01*
X161187*
X161563Y163500*
X161750Y163875*
Y164063*
X161563Y164437*
X161187Y164625*
X160250*
Y165563*
X161750*
X163250Y163313D02*
X165125Y165563D01*
X166250Y163875D02*
X166437Y163500D01*
X166813Y163313*
X167563*
X167937Y163500*
X168125Y163875*
X167937Y164250*
X167563Y164437*
X166813*
X166437Y164625*
X166250Y165000*
X166437Y165375*
X166813Y165563*
X167563*
X167937Y165375*
X168125Y165000*
X169250Y163875D02*
X169437Y163500D01*
X169813Y163313*
X170563*
X170937Y163500*
X171125Y163875*
X170937Y164250*
X170563Y164437*
X169813*
X169437Y164625*
X169250Y165000*
X169437Y165375*
X169813Y165563*
X170563*
X170937Y165375*
X171125Y165000*
X160250Y220813D02*
Y223063D01*
X162125*
X161750Y221937D02*
X160250D01*
Y220813D02*
X162125D01*
X163250D02*
Y223063D01*
X165125Y220813*
Y223063*
X167187Y220813D02*
X167375Y221000D01*
X167187Y221187*
X167000Y221000*
X167187Y220813*
Y221750D02*
X167375Y221937D01*
X167187Y222125*
X167000Y221937*
X167187Y221750*
X172625Y220813D02*
X173375D01*
X173000D02*
Y223063D01*
X172625Y222687*
X175437Y221000D02*
X175813Y220813D01*
X176187*
X176563Y221000*
X176750Y221375*
Y222500*
X176563Y222875*
X176187Y223063*
X175813*
X175437Y222875*
X175250Y222500*
Y221375*
X175437Y221000*
X176563Y222875*
X178250Y222313D02*
Y221375D01*
X178437Y221000*
X178813Y220813*
X179187*
X179563Y221000*
X179750Y221375*
Y222313D02*
Y220813D01*
X181250D02*
Y223063D01*
X183125*
X182750Y221937D02*
X181250D01*
X188750Y222125D02*
X188375Y222313D01*
X187813*
X187437Y222125*
X187250Y221750*
Y221375*
X187437Y221000*
X187813Y220813*
X188375*
X188750Y221000*
X190250Y222125D02*
X190625Y222313D01*
X191187*
X191563Y222125*
X191750Y221750*
Y221187*
X191563Y221000*
X191187Y220813*
X190813*
X190437Y221000*
X190250Y221187*
Y221375*
X190437Y221563*
X190813Y221750*
X191187*
X191563Y221563*
X191750Y221375*
Y221187D02*
Y220813D01*
X193250Y222313D02*
Y220250D01*
Y221375D02*
X193437Y221000D01*
X193813Y220813*
X194187*
X194563Y221000*
X194750Y221375*
Y221750*
X194563Y222125*
X194187Y222313*
X193813*
X193437Y222125*
X193250Y221750*
Y221375*
X162937Y88500D02*
X163313Y88313D01*
X163687*
X164063Y88500*
X164250Y88875*
X164063Y89250*
X163687Y89437*
X163313*
X163687D02*
X164063Y89625D01*
X164250Y90000*
X164063Y90375*
X163687Y90563*
X163313*
X162937Y90375*
X165750Y90563D02*
X166687Y88313D01*
X167625Y90563*
X165250Y207750D02*
X185250D01*
Y217750*
X165250*
Y207750*
X167750Y206563D02*
X169250D01*
X168500Y205813D02*
Y207313D01*
X172750Y88313D02*
Y90563D01*
X173687Y89437*
X174625Y90563*
Y88313*
X176313D02*
X177063D01*
X176687D02*
Y90563D01*
X176313D02*
X177063D01*
X175250Y163313D02*
Y165563D01*
X176187Y164437*
X177125Y165563*
Y163313*
X178250Y164063D02*
Y164813D01*
X178437Y165187*
X178625Y165375*
X179000Y165563*
X179375*
X179750Y165375*
X179937Y165187*
X180125Y164813*
Y164063*
X179937Y163687*
X179750Y163500*
X179375Y163313*
X179000*
X178625Y163500*
X178437Y163687*
X178250Y164063*
X182750Y88313D02*
Y90563D01*
X183687Y89437*
X184625Y90563*
Y88313*
X185750Y89063D02*
Y89813D01*
X185937Y90187*
X186125Y90375*
X186500Y90563*
X186875*
X187250Y90375*
X187437Y90187*
X187625Y89813*
Y89063*
X187437Y88687*
X187250Y88500*
X186875Y88313*
X186500*
X186125Y88500*
X185937Y88687*
X185750Y89063*
X183313Y190813D02*
X184063D01*
X183687D02*
Y193063D01*
X183313D02*
X184063D01*
X187250Y190813D02*
X185750D01*
X187063Y192125*
X187250Y192500*
X187063Y192875*
X186687Y193063*
X186125*
X185750Y192875*
X190625Y191187D02*
X190437Y191000D01*
X190063Y190813*
X189500*
X189125Y191000*
X188937Y191187*
X188750Y191563*
Y192313*
X188937Y192687*
X189125Y192875*
X189500Y193063*
X190063*
X190437Y192875*
X190625Y192687*
X194750Y192313D02*
Y190250D01*
Y191375D02*
X194937Y191000D01*
X195313Y190813*
X195687*
X196063Y191000*
X196250Y191375*
Y191750*
X196063Y192125*
X195687Y192313*
X195313*
X194937Y192125*
X194750Y191750*
Y191375*
X197750Y192313D02*
Y191375D01*
X197937Y191000*
X198313Y190813*
X198687*
X199063Y191000*
X199250Y191375*
Y192313D02*
Y190813D01*
X201687D02*
X201500D01*
Y193063*
X204687Y190813D02*
X204500D01*
Y193063*
X206750Y192313D02*
Y191375D01*
X206937Y191000*
X207313Y190813*
X207687*
X208063Y191000*
X208250Y191375*
Y192313D02*
Y190813D01*
X209750Y192313D02*
Y190250D01*
Y191375D02*
X209937Y191000D01*
X210313Y190813*
X210687*
X211063Y191000*
X211250Y191375*
Y191750*
X211063Y192125*
X210687Y192313*
X210313*
X209937Y192125*
X209750Y191750*
Y191375*
X187125Y163687D02*
X186937Y163500D01*
X186563Y163313*
X186000*
X185625Y163500*
X185437Y163687*
X185250Y164063*
Y164813*
X185437Y165187*
X185625Y165375*
X186000Y165563*
X186563*
X186937Y165375*
X187125Y165187*
X188250Y163313D02*
Y165563D01*
Y164437D02*
X188813D01*
X190125Y165563*
X188813Y164437D02*
X190125Y163313D01*
X189063Y203313D02*
X188687Y203875D01*
Y205187*
X189063Y205563*
X191125Y203313D02*
X191875D01*
X191500D02*
Y205563D01*
X191125Y205187*
X193937Y203500D02*
X194313Y203313D01*
X194687*
X195063Y203500*
X195250Y203875*
Y205000*
X195063Y205375*
X194687Y205563*
X194313*
X193937Y205375*
X193750Y205000*
Y203875*
X193937Y203500*
X195063Y205375*
X196750Y203313D02*
Y205563D01*
Y204063D02*
X197313D01*
X198250Y204813*
X197313Y204063D02*
X198250Y203313D01*
X200313D02*
X200687Y203875D01*
Y205187*
X200313Y205563*
X188313Y208313D02*
X189063D01*
X188687D02*
Y210563D01*
X188313D02*
X189063D01*
X192250Y208313D02*
X190750D01*
X192063Y209625*
X192250Y210000*
X192063Y210375*
X191687Y210563*
X191125*
X190750Y210375*
X195625Y208687D02*
X195437Y208500D01*
X195063Y208313*
X194500*
X194125Y208500*
X193937Y208687*
X193750Y209063*
Y209813*
X193937Y210187*
X194125Y210375*
X194500Y210563*
X195063*
X195437Y210375*
X195625Y210187*
X199750Y209813D02*
Y207750D01*
Y208875D02*
X199937Y208500D01*
X200313Y208313*
X200687*
X201063Y208500*
X201250Y208875*
Y209250*
X201063Y209625*
X200687Y209813*
X200313*
X199937Y209625*
X199750Y209250*
Y208875*
X202750Y209813D02*
Y208875D01*
X202937Y208500*
X203313Y208313*
X203687*
X204063Y208500*
X204250Y208875*
Y209813D02*
Y208313D01*
X206687D02*
X206500D01*
Y210563*
X209687Y208313D02*
X209500D01*
Y210563*
X211750Y209813D02*
Y208875D01*
X211937Y208500*
X212313Y208313*
X212687*
X213063Y208500*
X213250Y208875*
Y209813D02*
Y208313D01*
X214750Y209813D02*
Y207750D01*
Y208875D02*
X214937Y208500D01*
X215313Y208313*
X215687*
X216063Y208500*
X216250Y208875*
Y209250*
X216063Y209625*
X215687Y209813*
X215313*
X214937Y209625*
X214750Y209250*
Y208875*
X194625Y88687D02*
X194437Y88500D01*
X194063Y88313*
X193500*
X193125Y88500*
X192937Y88687*
X192750Y89063*
Y89813*
X192937Y90187*
X193125Y90375*
X193500Y90563*
X194063*
X194437Y90375*
X194625Y90187*
X195750Y88313D02*
Y90563D01*
Y89437D02*
X196313D01*
X197625Y90563*
X196313Y89437D02*
X197625Y88313D01*
X195250Y163313D02*
Y165563D01*
X196187Y164437*
X197125Y165563*
Y163313*
X198813D02*
X199563D01*
X199187D02*
Y165563D01*
X198813D02*
X199563D01*
X196563Y185813D02*
X196187Y186375D01*
Y187687*
X196563Y188063*
X198625Y185813D02*
X199375D01*
X199000D02*
Y188063D01*
X198625Y187687*
X201437Y186000D02*
X201813Y185813D01*
X202187*
X202563Y186000*
X202750Y186375*
Y187500*
X202563Y187875*
X202187Y188063*
X201813*
X201437Y187875*
X201250Y187500*
Y186375*
X201437Y186000*
X202563Y187875*
X204250Y185813D02*
Y188063D01*
Y186563D02*
X204813D01*
X205750Y187313*
X204813Y186563D02*
X205750Y185813D01*
X207813D02*
X208187Y186375D01*
Y187687*
X207813Y188063*
X202750Y88500D02*
X203125Y88313D01*
X203687*
X204063Y88500*
X204250Y88875*
Y89063*
X204063Y89437*
X203687Y89625*
X202750*
Y90563*
X204250*
X205750Y88313D02*
X207625Y90563D01*
X208750Y88875D02*
X208937Y88500D01*
X209313Y88313*
X210063*
X210437Y88500*
X210625Y88875*
X210437Y89250*
X210063Y89437*
X209313*
X208937Y89625*
X208750Y90000*
X208937Y90375*
X209313Y90563*
X210063*
X210437Y90375*
X210625Y90000*
X211750Y88875D02*
X211937Y88500D01*
X212313Y88313*
X213063*
X213437Y88500*
X213625Y88875*
X213437Y89250*
X213063Y89437*
X212313*
X211937Y89625*
X211750Y90000*
X211937Y90375*
X212313Y90563*
X213063*
X213437Y90375*
X213625Y90000*
X206563Y164250D02*
X207125D01*
Y164063*
X206937Y163687*
X206750Y163500*
X206375Y163313*
X206000*
X205625Y163500*
X205437Y163687*
X205250Y164063*
Y164813*
X205437Y165187*
X205625Y165375*
X206000Y165563*
X206375*
X206750Y165375*
X206937Y165187*
X207125Y164813*
X212750Y12750D02*
X292750D01*
Y22750*
X212750*
Y12750*
X214000Y24500D02*
Y27500D01*
X212750D02*
X215250D01*
X218000Y24500D02*
Y27500D01*
X216750Y25500*
X218750*
X224000Y24500D02*
Y27500D01*
X222750D02*
X225250D01*
X226750Y24750D02*
X227250Y24500D01*
X228000*
X228500Y24750*
X228750Y25250*
Y25500*
X228500Y26000*
X228000Y26250*
X226750*
Y27500*
X228750*
X229250Y175813D02*
X227750D01*
X229063Y177125*
X229250Y177500*
X229063Y177875*
X228687Y178063*
X228125*
X227750Y177875*
X231125Y175813D02*
X231875D01*
X231500D02*
Y178063D01*
X231125Y177687*
X233750Y175813D02*
X235625Y178063D01*
X236750Y176375D02*
X236937Y176000D01*
X237313Y175813*
X238063*
X238437Y176000*
X238625Y176375*
X238437Y176750*
X238063Y176937*
X237313*
X236937Y177125*
X236750Y177500*
X236937Y177875*
X237313Y178063*
X238063*
X238437Y177875*
X238625Y177500*
X239750Y175813D02*
Y178063D01*
X240875*
X241250Y177875*
X241437Y177687*
X241625Y177313*
Y176563*
X241437Y176187*
X241250Y176000*
X240875Y175813*
X239750*
X242750D02*
X243687Y178063D01*
X244625Y175813*
X243125Y176750D02*
X244250D01*
X228625Y112313D02*
X229375D01*
X229000D02*
Y114563D01*
X228625Y114187*
X231250Y112875D02*
X231437Y113250D01*
X231813Y113437*
X232187*
X232563Y113250*
X232750Y112875*
X232563Y112500*
X232187Y112313*
X231813*
X231437Y112500*
X231250Y112875*
Y113437*
X231437Y114000*
X231813Y114375*
X232187Y114563*
X234250Y112313D02*
X236125Y114563D01*
X237250Y112313D02*
Y114563D01*
X238563*
X238937Y114375*
X239125Y114000*
X238937Y113625*
X238563Y113437*
X237250*
X238563D02*
X239125Y112313D01*
X240250D02*
X242125Y114563D01*
X240250D02*
X242125Y112313D01*
X244750D02*
X243250D01*
X244563Y113625*
X244750Y114000*
X244563Y114375*
X244187Y114563*
X243625*
X243250Y114375*
X228625Y122313D02*
X229375D01*
X229000D02*
Y124563D01*
X228625Y124187*
X231250Y122313D02*
X232750Y124563D01*
X231250*
X234250Y122313D02*
X236125Y124563D01*
X238187Y122313D02*
Y124563D01*
X237250D02*
X239125D01*
X240250Y122313D02*
X242125Y124563D01*
X240250D02*
X242125Y122313D01*
X244750D02*
X243250D01*
X244563Y123625*
X244750Y124000*
X244563Y124375*
X244187Y124563*
X243625*
X243250Y124375*
X228625Y142313D02*
X229375D01*
X229000D02*
Y144563D01*
X228625Y144187*
X231813Y143437D02*
X232187D01*
X232563Y143625*
X232750Y144000*
X232563Y144375*
X232187Y144563*
X231813*
X231437Y144375*
X231250Y144000*
X231437Y143625*
X231813Y143437*
X231437Y143250*
X231250Y142875*
X231437Y142500*
X231813Y142313*
X232187*
X232563Y142500*
X232750Y142875*
X232563Y143250*
X232187Y143437*
X234250Y142313D02*
X236125Y144563D01*
X237250Y142875D02*
X237437Y142500D01*
X237813Y142313*
X238563*
X238937Y142500*
X239125Y142875*
X238937Y143250*
X238563Y143437*
X237813*
X237437Y143625*
X237250Y144000*
X237437Y144375*
X237813Y144563*
X238563*
X238937Y144375*
X239125Y144000*
X242125Y142687D02*
X241937Y142500D01*
X241563Y142313*
X241000*
X240625Y142500*
X240437Y142687*
X240250Y143063*
Y143813*
X240437Y144187*
X240625Y144375*
X241000Y144563*
X241563*
X241937Y144375*
X242125Y144187*
X243250Y142313D02*
Y144563D01*
Y143437D02*
X243813D01*
X245125Y144563*
X243813Y143437D02*
X245125Y142313D01*
X228625Y152313D02*
X229375D01*
X229000D02*
Y154563D01*
X228625Y154187*
X231813Y152313D02*
X232187Y152500D01*
X232563Y152875*
X232750Y153437*
Y154000*
X232563Y154375*
X232187Y154563*
X231813*
X231437Y154375*
X231250Y154000*
X231437Y153625*
X231813Y153437*
X232187*
X232563Y153625*
X232750Y154000*
X234250Y152313D02*
X236125Y154563D01*
X237250Y152313D02*
Y154563D01*
X238187Y153437*
X239125Y154563*
Y152313*
X240813D02*
X241563D01*
X241187D02*
Y154563D01*
X240813D02*
X241563D01*
X230625Y72313D02*
X231375D01*
X231000D02*
Y74563D01*
X230625Y74187*
X233250Y72500D02*
X233625Y72313D01*
X234187*
X234563Y72500*
X234750Y72875*
Y73063*
X234563Y73437*
X234187Y73625*
X233250*
Y74563*
X234750*
X236250Y72313D02*
X238125Y74563D01*
X240187Y72313D02*
Y74563D01*
X239250D02*
X241125D01*
X242437Y72500D02*
X242813Y72313D01*
X243187*
X243563Y72500*
X243750Y72875*
X243563Y73250*
X243187Y73437*
X242813*
X243187D02*
X243563Y73625D01*
X243750Y74000*
X243563Y74375*
X243187Y74563*
X242813*
X242437Y74375*
X231750Y82313D02*
X230250D01*
X231563Y83625*
X231750Y84000*
X231563Y84375*
X231187Y84563*
X230625*
X230250Y84375*
X233250Y82313D02*
X235125Y84563D01*
X237187Y82313D02*
Y84563D01*
X236250D02*
X238125D01*
X240750Y82313D02*
X239250D01*
X240563Y83625*
X240750Y84000*
X240563Y84375*
X240187Y84563*
X239625*
X239250Y84375*
X230437Y92500D02*
X230813Y92313D01*
X231187*
X231563Y92500*
X231750Y92875*
Y94000*
X231563Y94375*
X231187Y94563*
X230813*
X230437Y94375*
X230250Y94000*
Y92875*
X230437Y92500*
X231563Y94375*
X233250Y92313D02*
X235125Y94563D01*
X237187Y92313D02*
Y94563D01*
X236250D02*
X238125D01*
X239625Y92313D02*
X240375D01*
X240000D02*
Y94563D01*
X239625Y94187*
X231187Y102313D02*
Y104563D01*
X230250Y103063*
X231750*
X233250Y102313D02*
X235125Y104563D01*
X237187Y102313D02*
Y104563D01*
X236250D02*
X238125D01*
X239437Y102500D02*
X239813Y102313D01*
X240187*
X240563Y102500*
X240750Y102875*
Y104000*
X240563Y104375*
X240187Y104563*
X239813*
X239437Y104375*
X239250Y104000*
Y102875*
X239437Y102500*
X240563Y104375*
X230250Y132500D02*
X230625Y132313D01*
X231187*
X231563Y132500*
X231750Y132875*
Y133063*
X231563Y133437*
X231187Y133625*
X230250*
Y134563*
X231750*
X233250Y132313D02*
X235125Y134563D01*
X236250Y132875D02*
X236437Y132500D01*
X236813Y132313*
X237563*
X237937Y132500*
X238125Y132875*
X237937Y133250*
X237563Y133437*
X236813*
X236437Y133625*
X236250Y134000*
X236437Y134375*
X236813Y134563*
X237563*
X237937Y134375*
X238125Y134000*
X239250Y132875D02*
X239437Y132500D01*
X239813Y132313*
X240563*
X240937Y132500*
X241125Y132875*
X240937Y133250*
X240563Y133437*
X239813*
X239437Y133625*
X239250Y134000*
X239437Y134375*
X239813Y134563*
X240563*
X240937Y134375*
X241125Y134000*
X231563Y163250D02*
X232125D01*
Y163063*
X231937Y162687*
X231750Y162500*
X231375Y162313*
X231000*
X230625Y162500*
X230437Y162687*
X230250Y163063*
Y163813*
X230437Y164187*
X230625Y164375*
X231000Y164563*
X231375*
X231750Y164375*
X231937Y164187*
X232125Y163813*
X233250Y162313D02*
Y164563D01*
X235125Y162313*
Y164563*
X236250Y162313D02*
Y164563D01*
X237375*
X237750Y164375*
X237937Y164187*
X238125Y163813*
Y163063*
X237937Y162687*
X237750Y162500*
X237375Y162313*
X236250*
X230250Y182313D02*
Y184563D01*
X231563*
X231937Y184375*
X232125Y184000*
X231937Y183625*
X231563Y183437*
X230250*
X231563D02*
X232125Y182313D01*
X233250D02*
X235125Y184563D01*
X233250D02*
X235125Y182313D01*
X236250Y183063D02*
X237750D01*
X236625Y182313D02*
X237375Y183813D01*
X236625D02*
X237375Y182313D01*
X231187Y192313D02*
Y194563D01*
X230250D02*
X232125D01*
X233250Y192313D02*
X235125Y194563D01*
X233250D02*
X235125Y192313D01*
X236250Y193063D02*
X237750D01*
X236625Y192313D02*
X237375Y193813D01*
X236625D02*
X237375Y192313D01*
X231750Y202313D02*
X230250D01*
X231563Y203625*
X231750Y204000*
X231563Y204375*
X231187Y204563*
X230625*
X230250Y204375*
X234750Y202313D02*
X233250D01*
X234563Y203625*
X234750Y204000*
X234563Y204375*
X234187Y204563*
X233625*
X233250Y204375*
X236250Y202313D02*
X238125Y204563D01*
X239250Y202875D02*
X239437Y202500D01*
X239813Y202313*
X240563*
X240937Y202500*
X241125Y202875*
X240937Y203250*
X240563Y203437*
X239813*
X239437Y203625*
X239250Y204000*
X239437Y204375*
X239813Y204563*
X240563*
X240937Y204375*
X241125Y204000*
X244125Y202687D02*
X243937Y202500D01*
X243563Y202313*
X243000*
X242625Y202500*
X242437Y202687*
X242250Y203063*
Y203813*
X242437Y204187*
X242625Y204375*
X243000Y204563*
X243563*
X243937Y204375*
X244125Y204187*
X245250Y204563D02*
Y202313D01*
X247125*
X231750Y212313D02*
X230250D01*
X231563Y213625*
X231750Y214000*
X231563Y214375*
X231187Y214563*
X230625*
X230250Y214375*
X233437Y212500D02*
X233813Y212313D01*
X234187*
X234563Y212500*
X234750Y212875*
X234563Y213250*
X234187Y213437*
X233813*
X234187D02*
X234563Y213625D01*
X234750Y214000*
X234563Y214375*
X234187Y214563*
X233813*
X233437Y214375*
X236250Y212313D02*
X238125Y214563D01*
X239250Y212313D02*
Y214563D01*
X240187Y213437*
X241125Y214563*
Y212313*
X242250Y213063D02*
Y213813D01*
X242437Y214187*
X242625Y214375*
X243000Y214563*
X243375*
X243750Y214375*
X243937Y214187*
X244125Y213813*
Y213063*
X243937Y212687*
X243750Y212500*
X243375Y212313*
X243000*
X242625Y212500*
X242437Y212687*
X242250Y213063*
X231563Y222250D02*
X232125D01*
Y222063*
X231937Y221687*
X231750Y221500*
X231375Y221313*
X231000*
X230625Y221500*
X230437Y221687*
X230250Y222063*
Y222813*
X230437Y223187*
X230625Y223375*
X231000Y223563*
X231375*
X231750Y223375*
X231937Y223187*
X232125Y222813*
X233250Y221313D02*
Y223563D01*
X235125Y221313*
Y223563*
X236250Y221313D02*
Y223563D01*
X237375*
X237750Y223375*
X237937Y223187*
X238125Y222813*
Y222063*
X237937Y221687*
X237750Y221500*
X237375Y221313*
X236250*
X235000Y24500D02*
Y27500D01*
X233750D02*
X236250D01*
X237750Y25250D02*
X238000Y25750D01*
X238500Y26000*
X239000*
X239500Y25750*
X239750Y25250*
X239500Y24750*
X239000Y24500*
X238500*
X238000Y24750*
X237750Y25250*
Y26000*
X238000Y26750*
X238500Y27250*
X239000Y27500*
X242750Y156250D02*
X243250Y156000D01*
X244000*
X244500Y156250*
X244750Y156750*
Y157000*
X244500Y157500*
X244000Y157750*
X242750*
Y159000*
X244750*
X244000Y168500D02*
Y171500D01*
X242750Y169500*
X244750*
X245000Y24500D02*
Y27500D01*
X243750D02*
X246250D01*
X247750Y24500D02*
X249750Y27500D01*
X247750*
X245250Y67750D02*
X295250D01*
Y127750*
X245250*
Y67750*
Y150250D02*
X305250D01*
Y160250*
X245250*
Y150250*
Y165250D02*
X305250D01*
Y175250*
X245250*
Y165250*
Y207750D02*
X305250D01*
Y217750*
X245250*
Y207750*
X247750Y161875D02*
X247937Y161500D01*
X248313Y161313*
X249063*
X249437Y161500*
X249625Y161875*
X249437Y162250*
X249063Y162437*
X248313*
X247937Y162625*
X247750Y163000*
X247937Y163375*
X248313Y163563*
X249063*
X249437Y163375*
X249625Y163000*
X250750Y161875D02*
X250937Y161500D01*
X251313Y161313*
X252063*
X252437Y161500*
X252625Y161875*
X252437Y162250*
X252063Y162437*
X251313*
X250937Y162625*
X250750Y163000*
X250937Y163375*
X251313Y163563*
X252063*
X252437Y163375*
X252625Y163000*
X247937Y218500D02*
X248313Y218313D01*
X248687*
X249063Y218500*
X249250Y218875*
X249063Y219250*
X248687Y219437*
X248313*
X248687D02*
X249063Y219625D01*
X249250Y220000*
X249063Y220375*
X248687Y220563*
X248313*
X247937Y220375*
X250750Y220563D02*
X251687Y218313D01*
X252625Y220563*
X251000Y64750D02*
X251750D01*
Y64500*
X251500Y64000*
X251250Y63750*
X250750Y63500*
X250250*
X249750Y63750*
X249500Y64000*
X249250Y64500*
Y65500*
X249500Y66000*
X249750Y66250*
X250250Y66500*
X250750*
X251250Y66250*
X251500Y66000*
X251750Y65500*
X250563Y129250D02*
X251125D01*
Y129063*
X250937Y128687*
X250750Y128500*
X250375Y128313*
X250000*
X249625Y128500*
X249437Y128687*
X249250Y129063*
Y129813*
X249437Y130187*
X249625Y130375*
X250000Y130563*
X250375*
X250750Y130375*
X250937Y130187*
X251125Y129813*
X255500Y24500D02*
Y27500D01*
X254250D02*
X256750D01*
X259000Y26000D02*
X259500D01*
X260000Y26250*
X260250Y26750*
X260000Y27250*
X259500Y27500*
X259000*
X258500Y27250*
X258250Y26750*
X258500Y26250*
X259000Y26000*
X258500Y25750*
X258250Y25250*
X258500Y24750*
X259000Y24500*
X259500*
X260000Y24750*
X260250Y25250*
X260000Y25750*
X259500Y26000*
X255250Y132750D02*
X285250D01*
Y142750*
X255250*
Y132750*
X259625Y161687D02*
X259437Y161500D01*
X259063Y161313*
X258500*
X258125Y161500*
X257937Y161687*
X257750Y162063*
Y162813*
X257937Y163187*
X258125Y163375*
X258500Y163563*
X259063*
X259437Y163375*
X259625Y163187*
X260750Y161313D02*
Y163563D01*
Y162437D02*
X261313D01*
X262625Y163563*
X261313Y162437D02*
X262625Y161313D01*
X257937Y218500D02*
X258313Y218313D01*
X258687*
X259063Y218500*
X259250Y218875*
X259063Y219250*
X258687Y219437*
X258313*
X258687D02*
X259063Y219625D01*
X259250Y220000*
X259063Y220375*
X258687Y220563*
X258313*
X257937Y220375*
X262250Y218313D02*
X260750D01*
X262063Y219625*
X262250Y220000*
X262063Y220375*
X261687Y220563*
X261125*
X260750Y220375*
X259250Y64500D02*
X261250D01*
X260250Y63500D02*
Y65500D01*
X259250Y129063D02*
X260750D01*
X260000Y128313D02*
Y129813D01*
X265000Y24500D02*
Y27500D01*
X263750D02*
X266250D01*
X268000Y24750D02*
X268500Y24500D01*
X269000*
X269500Y24750*
X269750Y25250*
X269500Y25750*
X269000Y26000*
X268500*
X269000D02*
X269500Y26250D01*
X269750Y26750*
X269500Y27250*
X269000Y27500*
X268500*
X268000Y27250*
X265250Y177875D02*
X265437Y177500D01*
X265813Y177313*
X266563*
X266937Y177500*
X267125Y177875*
X266937Y178250*
X266563Y178437*
X265813*
X265437Y178625*
X265250Y179000*
X265437Y179375*
X265813Y179563*
X266563*
X266937Y179375*
X267125Y179000*
X270125Y177687D02*
X269937Y177500D01*
X269563Y177313*
X269000*
X268625Y177500*
X268437Y177687*
X268250Y178063*
Y178813*
X268437Y179187*
X268625Y179375*
X269000Y179563*
X269563*
X269937Y179375*
X270125Y179187*
X271250Y179563D02*
Y177313D01*
X273125*
X265250Y180250D02*
X305250D01*
Y190250*
X265250*
Y180250*
Y192750D02*
X305250D01*
Y202750*
X265250*
Y192750*
X267250Y218875D02*
X267437Y218500D01*
X267813Y218313*
X268563*
X268937Y218500*
X269125Y218875*
X268937Y219250*
X268563Y219437*
X267813*
X267437Y219625*
X267250Y220000*
X267437Y220375*
X267813Y220563*
X268563*
X268937Y220375*
X269125Y220000*
X272125Y218687D02*
X271937Y218500D01*
X271563Y218313*
X271000*
X270625Y218500*
X270437Y218687*
X270250Y219063*
Y219813*
X270437Y220187*
X270625Y220375*
X271000Y220563*
X271563*
X271937Y220375*
X272125Y220187*
X273250Y220563D02*
Y218313D01*
X275125*
X267750Y161313D02*
Y163563D01*
X268687Y162437*
X269625Y163563*
Y161313*
X270750Y162063D02*
Y162813D01*
X270937Y163187*
X271125Y163375*
X271500Y163563*
X271875*
X272250Y163375*
X272437Y163187*
X272625Y162813*
Y162063*
X272437Y161687*
X272250Y161500*
X271875Y161313*
X271500*
X271125Y161500*
X270937Y161687*
X270750Y162063*
X269063Y204750D02*
X269625D01*
Y204563*
X269437Y204187*
X269250Y204000*
X268875Y203813*
X268500*
X268125Y204000*
X267937Y204187*
X267750Y204563*
Y205313*
X267937Y205687*
X268125Y205875*
X268500Y206063*
X268875*
X269250Y205875*
X269437Y205687*
X269625Y205313*
X276500Y24500D02*
Y27500D01*
X275250D02*
X277750D01*
X281250Y24500D02*
X279250D01*
X281000Y26250*
X281250Y26750*
X281000Y27250*
X280500Y27500*
X279750*
X279250Y27250*
X276250Y177875D02*
X276437Y177500D01*
X276813Y177313*
X277563*
X277937Y177500*
X278125Y177875*
X277937Y178250*
X277563Y178437*
X276813*
X276437Y178625*
X276250Y179000*
X276437Y179375*
X276813Y179563*
X277563*
X277937Y179375*
X278125Y179000*
X279250Y177313D02*
Y179563D01*
X280375*
X280750Y179375*
X280937Y179187*
X281125Y178813*
Y178063*
X280937Y177687*
X280750Y177500*
X280375Y177313*
X279250*
X282250D02*
X283187Y179563D01*
X284125Y177313*
X282625Y178250D02*
X283750D01*
X276937Y204000D02*
X277313Y203813D01*
X277687*
X278063Y204000*
X278250Y204375*
X278063Y204750*
X277687Y204937*
X277313*
X277687D02*
X278063Y205125D01*
X278250Y205500*
X278063Y205875*
X277687Y206063*
X277313*
X276937Y205875*
X279750Y206063D02*
X280687Y203813D01*
X281625Y206063*
X277750Y161313D02*
Y163563D01*
X278687Y162437*
X279625Y163563*
Y161313*
X281313D02*
X282063D01*
X281687D02*
Y163563D01*
X281313D02*
X282063D01*
X277750Y218875D02*
X277937Y218500D01*
X278313Y218313*
X279063*
X279437Y218500*
X279625Y218875*
X279437Y219250*
X279063Y219437*
X278313*
X277937Y219625*
X277750Y220000*
X277937Y220375*
X278313Y220563*
X279063*
X279437Y220375*
X279625Y220000*
X280750Y218313D02*
Y220563D01*
X281875*
X282250Y220375*
X282437Y220187*
X282625Y219813*
Y219063*
X282437Y218687*
X282250Y218500*
X281875Y218313*
X280750*
X283750D02*
X284687Y220563D01*
X285625Y218313*
X284125Y219250D02*
X285250D01*
X281000Y64750D02*
X281750D01*
Y64500*
X281500Y64000*
X281250Y63750*
X280750Y63500*
X280250*
X279750Y63750*
X279500Y64000*
X279250Y64500*
Y65500*
X279500Y66000*
X279750Y66250*
X280250Y66500*
X280750*
X281250Y66250*
X281500Y66000*
X281750Y65500*
X280563Y129250D02*
X281125D01*
Y129063*
X280937Y128687*
X280750Y128500*
X280375Y128313*
X280000*
X279625Y128500*
X279437Y128687*
X279250Y129063*
Y129813*
X279437Y130187*
X279625Y130375*
X280000Y130563*
X280375*
X280750Y130375*
X280937Y130187*
X281125Y129813*
X286500Y24500D02*
Y27500D01*
X285250D02*
X287750D01*
X289500Y24750D02*
X290000Y24500D01*
X290500*
X291000Y24750*
X291250Y25250*
Y26750*
X291000Y27250*
X290500Y27500*
X290000*
X289500Y27250*
X289250Y26750*
Y25250*
X289500Y24750*
X291000Y27250*
X286250Y204375D02*
X286437Y204000D01*
X286813Y203813*
X287563*
X287937Y204000*
X288125Y204375*
X287937Y204750*
X287563Y204937*
X286813*
X286437Y205125*
X286250Y205500*
X286437Y205875*
X286813Y206063*
X287563*
X287937Y205875*
X288125Y205500*
X291125Y204187D02*
X290937Y204000D01*
X290563Y203813*
X290000*
X289625Y204000*
X289437Y204187*
X289250Y204563*
Y205313*
X289437Y205687*
X289625Y205875*
X290000Y206063*
X290563*
X290937Y205875*
X291125Y205687*
X292250Y206063D02*
Y203813D01*
X294125*
X287750Y59750D02*
X252750D01*
Y30750*
X287750*
Y59750*
X287937Y161500D02*
X288313Y161313D01*
X288687*
X289063Y161500*
X289250Y161875*
X289063Y162250*
X288687Y162437*
X288313*
X288687D02*
X289063Y162625D01*
X289250Y163000*
X289063Y163375*
X288687Y163563*
X288313*
X287937Y163375*
X290750Y163563D02*
X291687Y161313D01*
X292625Y163563*
X287937Y177000D02*
X288313Y176813D01*
X288687*
X289063Y177000*
X289250Y177375*
X289063Y177750*
X288687Y177937*
X288313*
X288687D02*
X289063Y178125D01*
X289250Y178500*
X289063Y178875*
X288687Y179063*
X288313*
X287937Y178875*
X290750Y179063D02*
X291687Y176813D01*
X292625Y179063*
X288250Y218313D02*
Y219813D01*
Y219250D02*
X288437Y219625D01*
X288813Y219813*
X289187*
X289563Y219625*
X289750Y219250*
Y218313*
X292750Y219625D02*
X292375Y219813D01*
X291813*
X291437Y219625*
X291250Y219250*
Y218875*
X291437Y218500*
X291813Y218313*
X292375*
X292750Y218500*
X289250Y64500D02*
X291250D01*
X290250Y63500D02*
Y65500D01*
X289250Y129063D02*
X290750D01*
X290000Y128313D02*
Y129813D01*
X295250Y87750D02*
X305250D01*
Y127750*
X295250*
Y87750*
X296750Y204375D02*
X296937Y204000D01*
X297313Y203813*
X298063*
X298437Y204000*
X298625Y204375*
X298437Y204750*
X298063Y204937*
X297313*
X296937Y205125*
X296750Y205500*
X296937Y205875*
X297313Y206063*
X298063*
X298437Y205875*
X298625Y205500*
X299750Y203813D02*
Y206063D01*
X300875*
X301250Y205875*
X301437Y205687*
X301625Y205313*
Y204563*
X301437Y204187*
X301250Y204000*
X300875Y203813*
X299750*
X302750D02*
X303687Y206063D01*
X304625Y203813*
X303125Y204750D02*
X304250D01*
X297750Y17750D02*
G75*
G03X307750Y7750I5000J-5000D01*
G01*
G75*
G03X297750Y17750I-5000J5000*
G01*
Y235250D02*
G75*
G03X307750Y225250I5000J-5000D01*
G01*
G75*
G03X297750Y235250I-5000J5000*
G01*
X300563Y178250D02*
X301125D01*
Y178063*
X300937Y177687*
X300750Y177500*
X300375Y177313*
X300000*
X299625Y177500*
X299437Y177687*
X299250Y178063*
Y178813*
X299437Y179187*
X299625Y179375*
X300000Y179563*
X300375*
X300750Y179375*
X300937Y179187*
X301125Y178813*
X301563Y162250D02*
X302125D01*
Y162063*
X301937Y161687*
X301750Y161500*
X301375Y161313*
X301000*
X300625Y161500*
X300437Y161687*
X300250Y162063*
Y162813*
X300437Y163187*
X300625Y163375*
X301000Y163563*
X301375*
X301750Y163375*
X301937Y163187*
X302125Y162813*
X301563Y219250D02*
X302125D01*
Y219063*
X301937Y218687*
X301750Y218500*
X301375Y218313*
X301000*
X300625Y218500*
X300437Y218687*
X300250Y219063*
Y219813*
X300437Y220187*
X300625Y220375*
X301000Y220563*
X301375*
X301750Y220375*
X301937Y220187*
X302125Y219813*
X306000Y85250D02*
X305813Y84875D01*
Y84313*
X306000Y83937*
X306375Y83750*
X306563*
X306937Y83937*
X307125Y84313*
Y85250*
X308063*
Y83750*
Y82250D02*
X305813Y81313D01*
X308063Y80375*
X306000Y96063D02*
X305813Y95687D01*
Y95313*
X306000Y94937*
X306375Y94750*
X306750Y94937*
X306937Y95313*
Y95687*
Y95313D02*
X307125Y94937D01*
X307500Y94750*
X307875Y94937*
X308063Y95313*
Y95687*
X307875Y96063*
X308063Y93250D02*
X305813Y92313D01*
X308063Y91375*
X306750Y101437D02*
Y100875D01*
X306563*
X306187Y101063*
X306000Y101250*
X305813Y101625*
Y102000*
X306000Y102375*
X306187Y102563*
X306563Y102750*
X307313*
X307687Y102563*
X307875Y102375*
X308063Y102000*
Y101625*
X307875Y101250*
X307687Y101063*
X307313Y100875*
X305813Y115250D02*
X308063D01*
Y113937*
X307875Y113563*
X307500Y113375*
X307125Y113563*
X306937Y113937*
Y115250*
Y113937D02*
X305813Y113375D01*
Y112250D02*
X308063Y110375D01*
Y112250D02*
X305813Y110375D01*
Y107750D02*
Y109250D01*
X307125Y107937*
X307500Y107750*
X307875Y107937*
X308063Y108313*
Y108875*
X307875Y109250*
X305813Y126813D02*
X308063D01*
Y127750D02*
Y125875D01*
X305813Y124750D02*
X308063Y122875D01*
Y124750D02*
X305813Y122875D01*
Y120250D02*
Y121750D01*
X307125Y120437*
X307500Y120250*
X307875Y120437*
X308063Y120813*
Y121375*
X307875Y121750*
D02*
D15*
X20250Y172437D02*
Y169625D01*
X20563Y169000*
X21187Y168687*
X22437*
X23063Y169000*
X23375Y169625*
Y172437*
X25250D02*
Y168687D01*
X28375*
X30250D02*
Y172437D01*
X33375Y168687*
Y172437*
X37750Y168687D02*
X35250D01*
X37437Y170875*
X37750Y171500*
X37437Y172125*
X36813Y172437*
X35875*
X35250Y172125*
X41187Y170563D02*
X41813D01*
X42437Y170875*
X42750Y171500*
X42437Y172125*
X41813Y172437*
X41187*
X40563Y172125*
X40250Y171500*
X40563Y170875*
X41187Y170563*
X40563Y170250*
X40250Y169625*
X40563Y169000*
X41187Y168687*
X41813*
X42437Y169000*
X42750Y169625*
X42437Y170250*
X41813Y170563*
X45563Y169000D02*
X46187Y168687D01*
X46813*
X47437Y169000*
X47750Y169625*
Y171500*
X47437Y172125*
X46813Y172437*
X46187*
X45563Y172125*
X45250Y171500*
Y169625*
X45563Y169000*
X47437Y172125*
X50563Y169000D02*
X51187Y168687D01*
X51813*
X52437Y169000*
X52750Y169625*
X52437Y170250*
X51813Y170563*
X51187*
X51813D02*
X52437Y170875D01*
X52750Y171500*
X52437Y172125*
X51813Y172437*
X51187*
X50563Y172125*
X15250Y26000D02*
X16250D01*
X15750D02*
Y29000D01*
X15250Y28500*
X20000Y26000D02*
Y29000D01*
X18750Y27000*
X20750*
X15250Y83500D02*
X16250D01*
X15750D02*
Y86500D01*
X15250Y86000*
X19000Y83750D02*
X19500Y83500D01*
X20000*
X20500Y83750*
X20750Y84250*
X20500Y84750*
X20000Y85000*
X19500*
X20000D02*
X20500Y85250D01*
X20750Y85750*
X20500Y86250*
X20000Y86500*
X19500*
X19000Y86250*
X15250Y91500D02*
X16250D01*
X15750D02*
Y94500D01*
X15250Y94000*
X20750Y91500D02*
X18750D01*
X20500Y93250*
X20750Y93750*
X20500Y94250*
X20000Y94500*
X19250*
X18750Y94250*
X15250Y101500D02*
X16250D01*
X15750D02*
Y104500D01*
X15250Y104000*
X20000Y101500D02*
Y104500D01*
X18750Y102500*
X20750*
X16750Y111500D02*
X14750D01*
X16500Y113250*
X16750Y113750*
X16500Y114250*
X16000Y114500*
X15250*
X14750Y114250*
X18750Y111500D02*
X20750Y114500D01*
X18750*
X16750Y121500D02*
X14750D01*
X16500Y123250*
X16750Y123750*
X16500Y124250*
X16000Y124500*
X15250*
X14750Y124250*
X18750Y122250D02*
X19000Y122750D01*
X19500Y123000*
X20000*
X20500Y122750*
X20750Y122250*
X20500Y121750*
X20000Y121500*
X19500*
X19000Y121750*
X18750Y122250*
Y123000*
X19000Y123750*
X19500Y124250*
X20000Y124500*
X16750Y131500D02*
X14750D01*
X16500Y133250*
X16750Y133750*
X16500Y134250*
X16000Y134500*
X15250*
X14750Y134250*
X18750Y131750D02*
X19250Y131500D01*
X20000*
X20500Y131750*
X20750Y132250*
Y132500*
X20500Y133000*
X20000Y133250*
X18750*
Y134500*
X20750*
X15000Y141750D02*
X15500Y141500D01*
X16000*
X16500Y141750*
X16750Y142250*
X16500Y142750*
X16000Y143000*
X15500*
X16000D02*
X16500Y143250D01*
X16750Y143750*
X16500Y144250*
X16000Y144500*
X15500*
X15000Y144250*
X19000Y141750D02*
X19500Y141500D01*
X20000*
X20500Y141750*
X20750Y142250*
X20500Y142750*
X20000Y143000*
X19500*
X20000D02*
X20500Y143250D01*
X20750Y143750*
X20500Y144250*
X20000Y144500*
X19500*
X19000Y144250*
X15000Y151750D02*
X15500Y151500D01*
X16000*
X16500Y151750*
X16750Y152250*
X16500Y152750*
X16000Y153000*
X15500*
X16000D02*
X16500Y153250D01*
X16750Y153750*
X16500Y154250*
X16000Y154500*
X15500*
X15000Y154250*
X20750Y151500D02*
X18750D01*
X20500Y153250*
X20750Y153750*
X20500Y154250*
X20000Y154500*
X19250*
X18750Y154250*
X25250Y21750D02*
X25500Y21250D01*
X26000Y21000*
X26500*
X27000Y21250*
X27250Y21750*
Y22250*
X27000Y22750*
X26500Y23000*
X26000*
X25500Y22750*
X25250Y22250*
Y21000D02*
Y24000D01*
X29250Y23000D02*
Y21750D01*
X29500Y21250*
X30000Y21000*
X30500*
X31000Y21250*
X31250Y21750*
Y23000D02*
Y21000D01*
X33750Y23000D02*
X34750D01*
X34250Y23500D02*
Y21250D01*
X34500Y21000*
X34750*
X35000Y21250*
X37750Y23000D02*
X38750D01*
X38250Y23500D02*
Y21250D01*
X38500Y21000*
X38750*
X39000Y21250*
X41250Y21750D02*
X41500Y21250D01*
X42000Y21000*
X42500*
X43000Y21250*
X43250Y21750*
Y22250*
X43000Y22750*
X42500Y23000*
X42000*
X41500Y22750*
X41250Y22250*
Y21750*
X45250Y21000D02*
Y23000D01*
Y22250D02*
X45500Y22750D01*
X46000Y23000*
X46500*
X47000Y22750*
X47250Y22250*
Y21000*
X49750D02*
X50250Y24000D01*
X51250D02*
X50750Y21000D01*
X51500Y21750D02*
X49250D01*
X49500Y23250D02*
X51750D01*
X53750Y21000D02*
X54750D01*
X54250D02*
Y24000D01*
X53750Y23500*
X27750Y164250D02*
X28000Y163750D01*
X28500Y163500*
X29500*
X30000Y163750*
X30250Y164250*
X30000Y164750*
X29500Y165000*
X28500*
X28000Y165250*
X27750Y165750*
X28000Y166250*
X28500Y166500*
X29500*
X30000Y166250*
X30250Y165750*
X31750Y164500D02*
Y165500D01*
X32000Y166000*
X32250Y166250*
X32750Y166500*
X33250*
X33750Y166250*
X34000Y166000*
X34250Y165500*
Y164500*
X34000Y164000*
X33750Y163750*
X33250Y163500*
X32750*
X32250Y163750*
X32000Y164000*
X31750Y164500*
X35750Y166500D02*
Y163500D01*
X38250*
X27750Y213500D02*
Y216500D01*
X29500*
X30000Y216250*
X30250Y215750*
X30000Y215250*
X29500Y215000*
X27750*
X29500D02*
X30250Y213500D01*
X31750D02*
Y216500D01*
X34250*
X33750Y215000D02*
X31750D01*
Y213500D02*
X34250D01*
X35750Y214250D02*
X36000Y213750D01*
X36500Y213500*
X37500*
X38000Y213750*
X38250Y214250*
X38000Y214750*
X37500Y215000*
X36500*
X36000Y215250*
X35750Y215750*
X36000Y216250*
X36500Y216500*
X37500*
X38000Y216250*
X38250Y215750*
X39750Y213500D02*
Y216500D01*
X42250*
X41750Y215000D02*
X39750D01*
Y213500D02*
X42250D01*
X45000D02*
Y216500D01*
X43750D02*
X46250D01*
X57500Y215750D02*
X58000Y215500D01*
X58500*
X59000Y215750*
X59250Y216250*
X59000Y216750*
X58500Y217000*
X58000*
X58500D02*
X59000Y217250D01*
X59250Y217750*
X59000Y218250*
X58500Y218500*
X58000*
X57500Y218250*
X61250Y218500D02*
X62500Y215500D01*
X63750Y218500*
X67750Y3687D02*
Y7437D01*
X69937*
X70563Y7125*
X70875Y6500*
X70563Y5875*
X69937Y5563*
X67750*
X72750Y4937D02*
Y6187D01*
X73063Y6813*
X73375Y7125*
X74000Y7437*
X74625*
X75250Y7125*
X75563Y6813*
X75875Y6187*
Y4937*
X75563Y4313*
X75250Y4000*
X74625Y3687*
X74000*
X73375Y4000*
X73063Y4313*
X72750Y4937*
X77750Y7437D02*
X78063Y3687D01*
X79313Y5563*
X80563Y3687*
X80875Y7437*
X82750Y3687D02*
Y7437D01*
X85875*
X85250Y5563D02*
X82750D01*
Y3687D02*
X85875D01*
X87750D02*
Y7437D01*
X89937*
X90563Y7125*
X90875Y6500*
X90563Y5875*
X89937Y5563*
X87750*
X89937D02*
X90875Y3687D01*
X72750Y223500D02*
Y226500D01*
X74500*
X75000Y226250*
X75250Y225750*
X75000Y225250*
X74500Y225000*
X72750*
X78500Y224750D02*
X79250D01*
Y224500*
X79000Y224000*
X78750Y223750*
X78250Y223500*
X77750*
X77250Y223750*
X77000Y224000*
X76750Y224500*
Y225500*
X77000Y226000*
X77250Y226250*
X77750Y226500*
X78250*
X78750Y226250*
X79000Y226000*
X79250Y225500*
X81500Y223500D02*
X82500D01*
X82000D02*
Y226500D01*
X81500D02*
X82500D01*
X84750Y224500D02*
Y225500D01*
X85000Y226000*
X85250Y226250*
X85750Y226500*
X86250*
X86750Y226250*
X87000Y226000*
X87250Y225500*
Y224500*
X87000Y224000*
X86750Y223750*
X86250Y223500*
X85750*
X85250Y223750*
X85000Y224000*
X84750Y224500*
X89250Y223500D02*
X89750Y226500D01*
X90750D02*
X90250Y223500D01*
X91000Y224250D02*
X88750D01*
X89000Y225750D02*
X91250D01*
X93250Y223500D02*
X94250D01*
X93750D02*
Y226500D01*
X93250Y226000*
X78000Y208500D02*
X79000D01*
X78500D02*
Y211500D01*
X78000D02*
X79000D01*
X81250Y209500D02*
Y210500D01*
X81500Y211000*
X81750Y211250*
X82250Y211500*
X82750*
X83250Y211250*
X83500Y211000*
X83750Y210500*
Y209500*
X83500Y209000*
X83250Y208750*
X82750Y208500*
X82250*
X81750Y208750*
X81500Y209000*
X81250Y209500*
X96250Y215750D02*
X96750Y215500D01*
X97500*
X98000Y215750*
X98250Y216250*
Y216500*
X98000Y217000*
X97500Y217250*
X96250*
Y218500*
X98250*
X100250D02*
X101500Y215500D01*
X102750Y218500*
Y9000D02*
X104000Y6000D01*
X105250Y9000*
X106750Y6000D02*
Y9000D01*
X108500*
X109000Y8750*
X109250Y8250*
X109000Y7750*
X108500Y7500*
X106750*
X108500D02*
X109250Y6000D01*
X110750D02*
Y9000D01*
X113250*
X112750Y7500D02*
X110750D01*
Y6000D02*
X113250D01*
X116500Y7250D02*
X117250D01*
Y7000*
X117000Y6500*
X116750Y6250*
X116250Y6000*
X115750*
X115250Y6250*
X115000Y6500*
X114750Y7000*
Y8000*
X115000Y8500*
X115250Y8750*
X115750Y9000*
X116250*
X116750Y8750*
X117000Y8500*
X117250Y8000*
X112000Y168500D02*
Y169500D01*
Y169000D02*
X109000D01*
Y168500D02*
Y169500D01*
X112000Y171750D02*
X109000D01*
X112000Y174250*
X109000*
X112000Y175750D02*
X109000D01*
Y177500*
X109250Y178000*
X109750Y178250*
X110250Y178000*
X110500Y177500*
Y175750*
X109000Y179750D02*
X111250D01*
X111750Y180000*
X112000Y180500*
Y181500*
X111750Y182000*
X111250Y182250*
X109000*
X112000Y185000D02*
X109000D01*
Y183750D02*
Y186250D01*
X111000Y191750D02*
X110000D01*
X109500Y192000*
X109250Y192250*
X109000Y192750*
Y193250*
X109250Y193750*
X109500Y194000*
X110000Y194250*
X111000*
X111500Y194000*
X111750Y193750*
X112000Y193250*
Y192750*
X111750Y192250*
X111500Y192000*
X111000Y191750*
X112000Y195750D02*
X109000D01*
X112000Y198250*
X109000*
Y199750D02*
X112000D01*
Y202250*
Y205000D02*
X110500D01*
X109000Y203750*
X110500Y205000D02*
X109000Y206250D01*
X135250Y231187D02*
Y234937D01*
X138375*
X137750Y233063D02*
X135250D01*
Y231187D02*
X138375D01*
X140250Y232125D02*
X140563Y231500D01*
X141187Y231187*
X142437*
X143063Y231500*
X143375Y232125*
X143063Y232750*
X142437Y233063*
X141187*
X140563Y233375*
X140250Y234000*
X140563Y234625*
X141187Y234937*
X142437*
X143063Y234625*
X143375Y234000*
X145250Y231187D02*
Y234937D01*
X147437*
X148063Y234625*
X148375Y234000*
X148063Y233375*
X147437Y233063*
X145250*
X150563Y231500D02*
X151187Y231187D01*
X151813*
X152437Y231500*
X152750Y232125*
X152437Y232750*
X151813Y233063*
X151187*
X151813D02*
X152437Y233375D01*
X152750Y234000*
X152437Y234625*
X151813Y234937*
X151187*
X150563Y234625*
X157750Y231187D02*
X155250D01*
X157437Y233375*
X157750Y234000*
X157437Y234625*
X156813Y234937*
X155875*
X155250Y234625*
X165250Y231187D02*
Y234937D01*
X167125*
X167750Y234625*
X168063Y234313*
X168375Y233687*
Y232437*
X168063Y231813*
X167750Y231500*
X167125Y231187*
X165250*
X172750Y231500D02*
X172437Y231187D01*
X171813*
X171187*
X170563Y231500*
X170250Y232125*
Y233063*
X170563Y233375*
X171187Y233687*
X171813*
X172437Y233375*
X172750Y233063*
Y232750*
X172437Y232437*
X171813Y232125*
X171187*
X170563Y232437*
X170250Y232750*
X175250Y233687D02*
X176500Y231187D01*
X177750Y233687*
X180250Y231187D02*
Y234937D01*
Y233063D02*
X181187D01*
X183375Y234937*
X181187Y233063D02*
X183375Y231187D01*
X186500D02*
Y233687D01*
Y234625D02*
X190875Y233687*
X192125D01*
X191500Y234313D02*
Y231500D01*
X191813Y231187*
X192125*
X192437Y231500*
X198375Y231813D02*
X198063Y231500D01*
X197437Y231187*
X196500*
X195875Y231500*
X195563Y231813*
X195250Y232437*
Y233687*
X195563Y234313*
X195875Y234625*
X196500Y234937*
X197437*
X198063Y234625*
X198375Y234313*
X205250Y233687D02*
X206500Y231187D01*
X207750Y233687*
X211813Y231187D02*
Y234937D01*
X210250Y232437*
X212750*
X144125Y37750D02*
X139625D01*
Y41500*
X141875Y40750D02*
Y37750D01*
X144125D02*
Y41500D01*
X143000Y43750D02*
X143750Y44125D01*
X144125Y44875*
Y46375*
X143750Y47125*
X143000Y47500*
X142250Y47125*
X141875Y46375*
Y44875*
X141500Y44125*
X140750Y43750*
X140000Y44125*
X139625Y44875*
Y46375*
X140000Y47125*
X140750Y47500*
X144125Y49750D02*
X139625D01*
Y52375*
X140000Y53125*
X140750Y53500*
X141500Y53125*
X141875Y52375*
Y49750*
X143750Y56125D02*
X144125Y56875D01*
Y57625*
X143750Y58375*
X143000Y58750*
X142250Y58375*
X141875Y57625*
Y56875*
Y57625D02*
X141500Y58375D01*
X140750Y58750*
X140000Y58375*
X139625Y57625*
Y56875*
X140000Y56125*
X144125Y64750D02*
Y61750D01*
X141500Y64375*
X140750Y64750*
X140000Y64375*
X139625Y63625*
Y62500*
X140000Y61750*
X144125Y73750D02*
X139625D01*
Y76000*
X140000Y76750*
X140375Y77125*
X141125Y77500*
X142625*
X143375Y77125*
X143750Y76750*
X144125Y76000*
Y73750*
X143750Y82750D02*
X144125Y82375D01*
Y81625*
Y80875*
X143750Y80125*
X143000Y79750*
X141875*
X141500Y80125*
X141125Y80875*
Y81625*
X141500Y82375*
X141875Y82750*
X142250*
X142625Y82375*
X143000Y81625*
Y80875*
X142625Y80125*
X142250Y79750*
X141125Y85750D02*
X144125Y87250D01*
X141125Y88750*
X144125Y91750D02*
X139625D01*
X141875D02*
Y92875D01*
X139625Y95500*
X141875Y92875D02*
X144125Y95500D01*
Y99250D02*
X141125D01*
X140000D02*
X141125Y104500*
Y106000D01*
X140375Y105250D02*
X143750D01*
X144125Y105625*
Y106000*
X143750Y106375*
X143375Y113500D02*
X143750Y113125D01*
X144125Y112375*
Y111250*
X143750Y110500*
X143375Y110125*
X142625Y109750*
X141125*
X140375Y110125*
X140000Y110500*
X139625Y111250*
Y112375*
X140000Y113125*
X140375Y113500*
X152750Y76187D02*
Y74625D01*
X153063Y74000*
X153687Y73687*
X154313*
X154937Y74000*
X155250Y74625*
Y76187D02*
Y73687D01*
X157750Y74625D02*
X158063Y74000D01*
X158687Y73687*
X159937*
X160563Y74000*
X160875Y74625*
X160563Y75250*
X159937Y75563*
X158687*
X158063Y75875*
X157750Y76500*
X158063Y77125*
X158687Y77437*
X159937*
X160563Y77125*
X160875Y76500*
X162750Y73687D02*
Y77437D01*
X164625*
X165250Y77125*
X165563Y76813*
X165875Y76187*
Y74937*
X165563Y74313*
X165250Y74000*
X164625Y73687*
X162750*
X175250Y75875D02*
X174625Y76187D01*
X173687*
X173063Y75875*
X172750Y75250*
Y74625*
X173063Y74000*
X173687Y73687*
X174625*
X175250Y74000*
X177750Y75875D02*
X178375Y76187D01*
X179313*
X179937Y75875*
X180250Y75250*
Y74313*
X179937Y74000*
X179313Y73687*
X178687*
X178063Y74000*
X177750Y74313*
Y74625*
X178063Y74937*
X178687Y75250*
X179313*
X179937Y74937*
X180250Y74625*
Y74313D02*
Y73687D01*
X182750D02*
Y76187D01*
Y75250D02*
X183063Y75875D01*
X183687Y76187*
X184313*
X184937Y75875*
X190250Y75250D02*
X189937Y75875D01*
X189313Y76187*
X188687*
X188063Y75875*
X187750Y75250*
Y74625*
X188063Y74000*
X188687Y73687*
X189313*
X189937Y74000*
X190250Y74625*
Y73687D02*
Y77437D01*
X197750Y74625D02*
X198063Y74000D01*
X198687Y73687*
X199937*
X200563Y74000*
X200875Y74625*
X200563Y75250*
X199937Y75563*
X198687*
X198063Y75875*
X197750Y76500*
X198063Y77125*
X198687Y77437*
X199937*
X200563Y77125*
X200875Y76500*
X202750Y73687D02*
Y77437D01*
X204937*
X205563Y77125*
X205875Y76500*
X205563Y75875*
X204937Y75563*
X202750*
X208687Y73687D02*
X209937D01*
X209313D02*
Y77437D01*
X208687D02*
X209937D01*
X152750Y158687D02*
Y157125D01*
X153063Y156500*
X153687Y156187*
X154313*
X154937Y156500*
X155250Y157125*
Y158687D02*
Y156187D01*
X157750Y157125D02*
X158063Y156500D01*
X158687Y156187*
X159937*
X160563Y156500*
X160875Y157125*
X160563Y157750*
X159937Y158063*
X158687*
X158063Y158375*
X157750Y159000*
X158063Y159625*
X158687Y159937*
X159937*
X160563Y159625*
X160875Y159000*
X162750Y156187D02*
Y159937D01*
X164625*
X165250Y159625*
X165563Y159313*
X165875Y158687*
Y157437*
X165563Y156813*
X165250Y156500*
X164625Y156187*
X162750*
X175250Y158375D02*
X174625Y158687D01*
X173687*
X173063Y158375*
X172750Y157750*
Y157125*
X173063Y156500*
X173687Y156187*
X174625*
X175250Y156500*
X177750Y158375D02*
X178375Y158687D01*
X179313*
X179937Y158375*
X180250Y157750*
Y156813*
X179937Y156500*
X179313Y156187*
X178687*
X178063Y156500*
X177750Y156813*
Y157125*
X178063Y157437*
X178687Y157750*
X179313*
X179937Y157437*
X180250Y157125*
Y156813D02*
Y156187D01*
X182750D02*
Y158687D01*
Y157750D02*
X183063Y158375D01*
X183687Y158687*
X184313*
X184937Y158375*
X190250Y157750D02*
X189937Y158375D01*
X189313Y158687*
X188687*
X188063Y158375*
X187750Y157750*
Y157125*
X188063Y156500*
X188687Y156187*
X189313*
X189937Y156500*
X190250Y157125*
Y156187D02*
Y159937D01*
X197750Y157125D02*
X198063Y156500D01*
X198687Y156187*
X199937*
X200563Y156500*
X200875Y157125*
X200563Y157750*
X199937Y158063*
X198687*
X198063Y158375*
X197750Y159000*
X198063Y159625*
X198687Y159937*
X199937*
X200563Y159625*
X200875Y159000*
X202750Y156187D02*
Y159937D01*
X204937*
X205563Y159625*
X205875Y159000*
X205563Y158375*
X204937Y158063*
X202750*
X208687Y156187D02*
X209937D01*
X209313D02*
Y159937D01*
X208687D02*
X209937D01*
X154125Y105250D02*
X149625D01*
X154125Y109000*
X149625*
X153000Y111250D02*
X153750Y111625D01*
X154125Y112375*
Y113125*
X153750Y113875*
X153000Y114250*
X152250*
X151500Y113875*
X151125Y113125*
Y112375*
X151500Y111625*
X152250Y111250*
X153000*
X152250Y120250D02*
X151500Y119875D01*
X151125Y119125*
Y118375*
X151500Y117625*
X152250Y117250*
X153000*
X153750Y117625*
X154125Y118375*
Y119125*
X153750Y119875*
X153000Y120250*
X154125D02*
X149625D01*
X153750Y126250D02*
X154125Y125875D01*
Y125125*
Y124375*
X153750Y123625*
X153000Y123250*
X151875*
X151500Y123625*
X151125Y124375*
Y125125*
X151500Y125875*
X151875Y126250*
X152250*
X152625Y125875*
X153000Y125125*
Y124375*
X152625Y123625*
X152250Y123250*
X154125Y129250D02*
X149625D01*
X151875Y131125*
X149625Y133000*
X154125*
X153375Y139000D02*
X153750Y138625D01*
X154125Y137875*
Y136750*
X153750Y136000*
X153375Y135625*
X152625Y135250*
X151125*
X150375Y135625*
X150000Y136000*
X149625Y136750*
Y137875*
X150000Y138625*
X150375Y139000*
X149625Y141250D02*
X153000D01*
X153750Y141625*
X154125Y142375*
Y143875*
X153750Y144625*
X153000Y145000*
X149625*
X165250Y9313D02*
Y5375D01*
X165687Y4500*
X166563Y4063*
X168313*
X169187Y4500*
X169625Y5375*
Y9313*
X172250Y5375D02*
X172687Y4500D01*
X173563Y4063*
X175313*
X176187Y4500*
X176625Y5375*
X176187Y6250*
X175313Y6687*
X173563*
X172687Y7125*
X172250Y8000*
X172687Y8875*
X173563Y9313*
X175313*
X176187Y8875*
X176625Y8000*
X182313Y6687D02*
X183187Y6250D01*
X183625Y5375*
X183187Y4500*
X182313Y4063*
X179250*
Y9313*
X182313*
X183187Y8875*
X183625Y8000*
X183187Y7125*
X182313Y6687*
X179250*
X215250Y8500D02*
X216250D01*
X215750D02*
Y11500D01*
X215250Y11000*
X219000Y8750D02*
X219500Y8500D01*
X220000*
X220500Y8750*
X220750Y9250*
X220500Y9750*
X220000Y10000*
X219500*
X220000D02*
X220500Y10250D01*
X220750Y10750*
X220500Y11250*
X220000Y11500*
X219500*
X219000Y11250*
X227750Y228687D02*
Y232437D01*
X229313Y230563*
X230875Y232437*
Y228687*
X232750Y230875D02*
X233375Y231187D01*
X234313*
X234937Y230875*
X235250Y230250*
Y229313*
X234937Y229000*
X234313Y228687*
X233687*
X233063Y229000*
X232750Y229313*
Y229625*
X233063Y229937*
X233687Y230250*
X234313*
X234937Y229937*
X235250Y229625*
Y229313D02*
Y228687D01*
X237750D02*
Y231187D01*
Y230250D02*
X238063Y230875D01*
X238687Y231187*
X239313*
X239937Y230875*
X245250Y228687D02*
X242750D01*
X244937Y230875*
X245250Y231500*
X244937Y232125*
X244313Y232437*
X243375*
X242750Y232125*
X250250Y228687D02*
X247750D01*
X249937Y230875*
X250250Y231500*
X249937Y232125*
X249313Y232437*
X248375*
X247750Y232125*
X254000Y228687D02*
X254313Y229000D01*
Y229313*
X260250Y228687D02*
X257750D01*
X259937Y230875*
X260250Y231500*
X259937Y232125*
X259313Y232437*
X258375*
X257750Y232125*
X263063Y229000D02*
X263687Y228687D01*
X264313*
X264937Y229000*
X265250Y229625*
Y231500*
X264937Y232125*
X264313Y232437*
X263687*
X263063Y232125*
X262750Y231500*
Y229625*
X263063Y229000*
X264937Y232125*
X270250Y228687D02*
X267750D01*
X269937Y230875*
X270250Y231500*
X269937Y232125*
X269313Y232437*
X268375*
X267750Y232125*
X275250Y228687D02*
X272750D01*
X274937Y230875*
X275250Y231500*
X274937Y232125*
X274313Y232437*
X273375*
X272750Y232125*
X227750Y237125D02*
X228063Y236500D01*
X228687Y236187*
X229313*
X229937Y236500*
X230250Y237125*
Y237750*
X229937Y238375*
X229313Y238687*
X228687*
X228063Y238375*
X227750Y237750*
Y237125*
X232750Y238687D02*
Y235250D01*
Y237125D02*
X233063Y236500D01*
X233687Y236187*
X234313*
X234937Y236500*
X235250Y237125*
Y237750*
X234937Y238375*
X234313Y238687*
X233687*
X233063Y238375*
X232750Y237750*
Y237125*
X240250Y236500D02*
X239937Y236187D01*
X239313*
X238687*
X238063Y236500*
X237750Y237125*
Y238063*
X238063Y238375*
X238687Y238687*
X239313*
X239937Y238375*
X240250Y238063*
Y237750*
X239937Y237437*
X239313Y237125*
X238687*
X238063Y237437*
X237750Y237750*
X242750Y236187D02*
Y238687D01*
Y237750D02*
X243063Y238375D01*
X243687Y238687*
X244313*
X244937Y238375*
X245250Y237750*
Y236187*
X247750D02*
Y238687D01*
Y238375D02*
X248063Y238687D01*
X248687*
X249000Y238375*
Y237437*
Y238375D02*
X249313Y238687D01*
X249937*
X250250Y238375*
Y236187*
X252750Y238375D02*
X253375Y238687D01*
X254313*
X254937Y238375*
X255250Y237750*
Y236813*
X254937Y236500*
X254313Y236187*
X253687*
X253063Y236500*
X252750Y236813*
Y237125*
X253063Y237437*
X253687Y237750*
X254313*
X254937Y237437*
X255250Y237125*
Y236813D02*
Y236187D01*
X257750Y238687D02*
X260250D01*
X257750Y236187*
X260250*
X265250Y236500D02*
X264937Y236187D01*
X264313*
X263687*
X263063Y236500*
X262750Y237125*
Y238063*
X263063Y238375*
X263687Y238687*
X264313*
X264937Y238375*
X265250Y238063*
Y237750*
X264937Y237437*
X264313Y237125*
X263687*
X263063Y237437*
X262750Y237750*
X268063Y236187D02*
X268375Y236500D01*
X268063Y236813*
X267750Y236500*
X268063Y236187*
X272750Y237125D02*
X273063Y236500D01*
X273687Y236187*
X274313*
X274937Y236500*
X275250Y237125*
Y237750*
X274937Y238375*
X274313Y238687*
X273687*
X273063Y238375*
X272750Y237750*
Y237125*
X277750Y236187D02*
Y238687D01*
Y237750D02*
X278063Y238375D01*
X278687Y238687*
X279313*
X279937Y238375*
X285250Y237750D02*
X284937Y238375D01*
X284313Y238687*
X283687*
X283063Y238375*
X282750Y237750*
Y237437*
X283063Y236813*
X283687Y236500*
X284313*
X284937Y236813*
X285250Y237437*
Y238687D02*
Y236187D01*
X284937Y235563*
X284313Y235250*
X283375*
X282750Y235563*
X225250Y8500D02*
X226250D01*
X225750D02*
Y11500D01*
X225250Y11000*
X230750Y8500D02*
X228750D01*
X230500Y10250*
X230750Y10750*
X230500Y11250*
X230000Y11500*
X229250*
X228750Y11250*
X235250Y8500D02*
X236250D01*
X235750D02*
Y11500D01*
X235250Y11000*
X240000Y8500D02*
Y11500D01*
X238750Y9500*
X240750*
X254313Y2687D02*
Y6437D01*
X252750D02*
X255875D01*
X257750Y3937D02*
Y5187D01*
X258063Y5813*
X258375Y6125*
X259000Y6437*
X259625*
X260250Y6125*
X260563Y5813*
X260875Y5187*
Y3937*
X260563Y3313*
X260250Y3000*
X259625Y2687*
X259000*
X258375Y3000*
X258063Y3313*
X257750Y3937*
X262750Y6437D02*
Y3625D01*
X263063Y3000*
X263687Y2687*
X264937*
X265563Y3000*
X265875Y3625*
Y6437*
X270875Y3313D02*
X270563Y3000D01*
X269937Y2687*
X269000*
X268375Y3000*
X268063Y3313*
X267750Y3937*
Y5187*
X268063Y5813*
X268375Y6125*
X269000Y6437*
X269937*
X270563Y6125*
X270875Y5813*
X272750Y2687D02*
Y6437D01*
Y4563D02*
X275875D01*
Y2687D02*
Y6437D01*
X246750Y8500D02*
X244750D01*
X246500Y10250*
X246750Y10750*
X246500Y11250*
X246000Y11500*
X245250*
X244750Y11250*
X248750Y8500D02*
X250750Y11500D01*
X248750*
X245250Y53500D02*
X246250D01*
X245750D02*
Y56500D01*
X245250Y56000*
X248750Y53500D02*
X250750Y56500D01*
X248750*
X247500Y136250D02*
X248000Y136000D01*
X248500*
X249000Y136250*
X249250Y136750*
X249000Y137250*
X248500Y137500*
X248000*
X248500D02*
X249000Y137750D01*
X249250Y138250*
X249000Y138750*
X248500Y139000*
X248000*
X247500Y138750*
X251250Y139000D02*
X252500Y136000D01*
X253750Y139000*
X260250Y143500D02*
Y146500D01*
X262000*
X262500Y146250*
X262750Y145750*
X262500Y145250*
X262000Y145000*
X260250*
X266000Y144750D02*
X266750D01*
Y144500*
X266500Y144000*
X266250Y143750*
X265750Y143500*
X265250*
X264750Y143750*
X264500Y144000*
X264250Y144500*
Y145500*
X264500Y146000*
X264750Y146250*
X265250Y146500*
X265750*
X266250Y146250*
X266500Y146000*
X266750Y145500*
X269000Y143500D02*
X270000D01*
X269500D02*
Y146500D01*
X269000D02*
X270000D01*
X272250Y144500D02*
Y145500D01*
X272500Y146000*
X272750Y146250*
X273250Y146500*
X273750*
X274250Y146250*
X274500Y146000*
X274750Y145500*
Y144500*
X274500Y144000*
X274250Y143750*
X273750Y143500*
X273250*
X272750Y143750*
X272500Y144000*
X272250Y144500*
X276750Y143500D02*
X277250Y146500D01*
X278250D02*
X277750Y143500D01*
X278500Y144250D02*
X276250D01*
X276500Y145750D02*
X278750D01*
X282250Y143500D02*
X280250D01*
X282000Y145250*
X282250Y145750*
X282000Y146250*
X281500Y146500*
X280750*
X280250Y146250*
X255000Y8750D02*
X255500Y8500D01*
X256000*
X256500Y8750*
X256750Y9250*
X256500Y9750*
X256000Y10000*
X255500*
X256000D02*
X256500Y10250D01*
X256750Y10750*
X256500Y11250*
X256000Y11500*
X255500*
X255000Y11250*
X259000Y8750D02*
X259500Y8500D01*
X260000*
X260500Y8750*
X260750Y9250*
X260500Y9750*
X260000Y10000*
X259500*
X260000D02*
X260500Y10250D01*
X260750Y10750*
X260500Y11250*
X260000Y11500*
X259500*
X259000Y11250*
X262750Y221500D02*
Y224500D01*
X264000Y223000*
X265250Y224500*
Y221500*
X266750D02*
Y224500D01*
X268500*
X269000Y224250*
X269250Y223750*
X269000Y223250*
X268500Y223000*
X266750*
X270750Y221500D02*
Y224500D01*
X272500*
X273000Y224250*
X273250Y223750*
X273000Y223250*
X272500Y223000*
X270750*
X272500D02*
X273250Y221500D01*
X275250D02*
X276250D01*
X275750D02*
Y224500D01*
X275250Y224000*
X280750Y221500D02*
X278750D01*
X280500Y223250*
X280750Y223750*
X280500Y224250*
X280000Y224500*
X279250*
X278750Y224250*
X283250Y221500D02*
X284250D01*
X283750D02*
Y224500D01*
X283250Y224000*
X268000Y63500D02*
X269000D01*
X268500D02*
Y66500D01*
X268000D02*
X269000D01*
X271250Y64500D02*
Y65500D01*
X271500Y66000*
X271750Y66250*
X272250Y66500*
X272750*
X273250Y66250*
X273500Y66000*
X273750Y65500*
Y64500*
X273500Y64000*
X273250Y63750*
X272750Y63500*
X272250*
X271750Y63750*
X271500Y64000*
X271250Y64500*
X267813Y128313D02*
X268563D01*
X268187D02*
Y130563D01*
X267813D02*
X268563D01*
X270250Y129063D02*
Y129813D01*
X270437Y130187*
X270625Y130375*
X271000Y130563*
X271375*
X271750Y130375*
X271937Y130187*
X272125Y129813*
Y129063*
X271937Y128687*
X271750Y128500*
X271375Y128313*
X271000*
X270625Y128500*
X270437Y128687*
X270250Y129063*
X265250Y8500D02*
X266250D01*
X265750D02*
Y11500D01*
X265250Y11000*
X268750Y8750D02*
X269250Y8500D01*
X270000*
X270500Y8750*
X270750Y9250*
Y9500*
X270500Y10000*
X270000Y10250*
X268750*
Y11500*
X270750*
X279750Y8500D02*
X277750D01*
X279500Y10250*
X279750Y10750*
X279500Y11250*
X279000Y11500*
X278250*
X277750Y11250*
X286250Y136250D02*
X286750Y136000D01*
X287500*
X288000Y136250*
X288250Y136750*
Y137000*
X288000Y137500*
X287500Y137750*
X286250*
Y139000*
X288250*
X290250D02*
X291500Y136000D01*
X292750Y139000*
X287500Y8500D02*
Y11500D01*
X286250Y9500*
X288250*
X291750Y60250D02*
X291250Y60000D01*
X291000Y59500*
Y59000*
X291250Y58500*
X291750Y58250*
X292250*
X292750Y58500*
X293000Y59000*
Y59500*
X292750Y60000*
X292250Y60250*
X291000D02*
X294000D01*
X293000Y56250D02*
X291750D01*
X291250Y56000*
X291000Y55500*
Y55000*
X291250Y54500*
X291750Y54250*
X293000D02*
X291000D01*
X293000Y51750D02*
Y50750D01*
X293500Y51250D02*
X291250D01*
X291000Y51000*
Y50750*
X291250Y50500*
X293000Y47750D02*
Y46750D01*
X293500Y47250D02*
X291250D01*
X291000Y47000*
Y46750*
X291250Y46500*
X291750Y44250D02*
X291250Y44000D01*
X291000Y43500*
Y43000*
X291250Y42500*
X291750Y42250*
X292250*
X292750Y42500*
X293000Y43000*
Y43500*
X292750Y44000*
X292250Y44250*
X291750*
X291000Y40250D02*
X293000D01*
X292250D02*
X292750Y40000D01*
X293000Y39500*
Y39000*
X292750Y38500*
X292250Y38250*
X291000*
Y35750D02*
X294000Y35250D01*
Y34250D02*
X291000Y34750D01*
X291750Y34000D02*
Y36250D01*
X293250Y36000D02*
Y33750D01*
X291000Y30250D02*
Y32250D01*
X292750Y30500*
X293250Y30250*
X293750Y30500*
X294000Y31000*
Y31750*
X293750Y32250*
X306750Y167750D02*
X306250Y167500D01*
X306000Y167000*
Y166000*
X306250Y165500*
X306750Y165250*
X307250Y165500*
X307500Y166000*
Y167000*
X307750Y167500*
X308250Y167750*
X308750Y167500*
X309000Y167000*
Y166000*
X308750Y165500*
X308250Y165250*
X306000Y163750D02*
X309000D01*
Y162000*
X308750Y161500*
X308250Y161250*
X307750Y161500*
X307500Y162000*
Y163750*
X306000Y159000D02*
Y158000D01*
Y158500D02*
X309000D01*
Y159000D02*
Y158000D01*
X306187Y196813D02*
Y195563D01*
Y196187D02*
X309937D01*
Y196813D02*
Y195563D01*
X306187Y190250D02*
Y192750D01*
X308375Y190563*
X309000Y190250*
X309625Y190563*
X309937Y191187*
Y192125*
X309625Y192750*
X306813Y184625D02*
X306500Y184937D01*
X306187Y185563*
Y186500*
X306500Y187125*
X306813Y187437*
X307437Y187750*
X308687*
X309313Y187437*
X309625Y187125*
X309937Y186500*
Y185563*
X309625Y184937*
X309313Y184625*
X310813Y113375D02*
Y112625D01*
Y113000D02*
X313063D01*
X312687Y113375*
X311375Y110750D02*
X311750Y110563D01*
X311937Y110187*
Y109813*
X311750Y109437*
X311375Y109250*
X311000Y109437*
X310813Y109813*
Y110187*
X311000Y110563*
X311375Y110750*
X311937*
X312500Y110563*
X312875Y110187*
X313063Y109813*
X310813Y125875D02*
Y125125D01*
Y125500D02*
X313063D01*
X312687Y125875*
X310813Y123250D02*
X313063Y121750D01*
Y123250*
X349937Y221563D02*
Y226813D01*
X347750D02*
X352125D01*
X354750Y222875D02*
X355187Y222000D01*
X356063Y221563*
X356937*
X357813Y222000*
X358250Y222875*
Y223750*
X357813Y224625*
X356937Y225063*
X356063*
X355187Y224625*
X354750Y223750*
Y222875*
X361750Y221563D02*
Y226813D01*
X364375*
X365250Y226375*
X365687Y225937*
X366125Y225063*
Y223313*
X365687Y222437*
X365250Y222000*
X364375Y221563*
X361750*
X368750Y222875D02*
X369187Y222000D01*
X370063Y221563*
X370937*
X371813Y222000*
X372250Y222875*
Y223750*
X371813Y224625*
X370937Y225063*
X370063*
X369187Y224625*
X368750Y223750*
Y222875*
X382750Y221563D02*
Y226813D01*
X387125*
X386250Y224187D02*
X382750D01*
X393250Y222000D02*
X392813Y221563D01*
X391937*
X391063*
X390187Y222000*
X389750Y222875*
Y224187*
X390187Y224625*
X391063Y225063*
X391937*
X392813Y224625*
X393250Y224187*
Y223750*
X392813Y223313*
X391937Y222875*
X391063*
X390187Y223313*
X389750Y223750*
X396750Y222875D02*
X397187Y222000D01*
X398063Y221563*
X398937*
X399813Y222000*
X400250Y222875*
Y223750*
X399813Y224625*
X398937Y225063*
X398063*
X397187Y224625*
X396750Y223750*
Y221563D02*
Y226813D01*
X404187Y221563D02*
X404625Y222000D01*
X404187Y222437*
X403750Y222000*
X404187Y221563*
X421250D02*
X417750D01*
X420813Y224625*
X421250Y225500*
X420813Y226375*
X419937Y226813*
X418625*
X417750Y226375*
X425187Y222000D02*
X426063Y221563D01*
X426937*
X427813Y222000*
X428250Y222875*
Y225500*
X427813Y226375*
X426937Y226813*
X426063*
X425187Y226375*
X424750Y225500*
Y222875*
X425187Y222000*
X427813Y226375*
X435250Y221563D02*
X431750D01*
X434813Y224625*
X435250Y225500*
X434813Y226375*
X433937Y226813*
X432625*
X431750Y226375*
X442250Y221563D02*
X438750D01*
X441813Y224625*
X442250Y225500*
X441813Y226375*
X440937Y226813*
X439625*
X438750Y226375*
X365250Y135813D02*
X368750D01*
X379250Y134063D02*
Y137563D01*
Y137125D02*
X379687Y137563D01*
X380563*
X381000Y137125*
Y135813*
Y137125D02*
X381437Y137563D01*
X382313*
X382750Y137125*
Y134063*
X386250Y135375D02*
X386687Y134500D01*
X387563Y134063*
X388437*
X389313Y134500*
X389750Y135375*
Y136250*
X389313Y137125*
X388437Y137563*
X387563*
X386687Y137125*
X386250Y136250*
Y135375*
X393250Y137563D02*
X395000Y134063D01*
X396750Y137563*
X403750Y134500D02*
X403313Y134063D01*
X402437*
X401563*
X400687Y134500*
X400250Y135375*
Y136687*
X400687Y137125*
X401563Y137563*
X402437*
X403313Y137125*
X403750Y136687*
Y136250*
X403313Y135813*
X402437Y135375*
X401563*
X400687Y135813*
X400250Y136250*
X414250Y135375D02*
X414687Y134500D01*
X415563Y134063*
X416437*
X417313Y134500*
X417750Y135375*
Y136250*
X417313Y137125*
X416437Y137563*
X415563*
X414687Y137125*
X414250Y136250*
Y134063D02*
Y139313D01*
X423000Y134063D02*
Y137563D01*
Y138875D02*
X431750Y136250*
X431313Y137125D01*
X430437Y137563*
X429563*
X428687Y137125*
X428250Y136250*
Y135813*
X428687Y134937*
X429563Y134500*
X430437*
X431313Y134937*
X431750Y135813*
Y137563D02*
Y134063D01*
X431313Y133187*
X430437Y132750*
X429125*
X428250Y133187*
X442250Y135375D02*
X442687Y134500D01*
X443563Y134063*
X445313*
X446187Y134500*
X446625Y135375*
X446187Y136250*
X445313Y136687*
X443563*
X442687Y137125*
X442250Y138000*
X442687Y138875*
X443563Y139313*
X445313*
X446187Y138875*
X446625Y138000*
X449250Y134063D02*
Y139313D01*
X451875*
X452750Y138875*
X453187Y138437*
X453625Y137563*
Y135813*
X453187Y134937*
X452750Y134500*
X451875Y134063*
X449250*
X463250Y137563D02*
Y132750D01*
Y135375D02*
X463687Y134500D01*
X464563Y134063*
X465437*
X466313Y134500*
X466750Y135375*
Y136250*
X466313Y137125*
X465437Y137563*
X464563*
X463687Y137125*
X463250Y136250*
Y135375*
X470250D02*
X470687Y134500D01*
X471563Y134063*
X472437*
X473313Y134500*
X473750Y135375*
Y136250*
X473313Y137125*
X472437Y137563*
X471563*
X470687Y137125*
X470250Y136250*
Y135375*
X477250Y134063D02*
Y137563D01*
Y136250D02*
X477687Y137125D01*
X478563Y137563*
X479437*
X480313Y137125*
X485125Y137563D02*
X486875D01*
X486000Y138437D02*
Y134500D01*
X486437Y134063*
X486875*
X487313Y134500*
X493000Y134063D02*
Y134937*
Y136687D01*
X493437*
X494313Y137125*
X494750Y138000*
X494313Y138875*
X493437Y139313*
X492563*
X491687Y138875*
X491250Y138000*
X365250Y148313D02*
X368750D01*
X380125Y150063D02*
X381875D01*
X381000Y150937D02*
Y147000D01*
X381437Y146563*
X381875*
X382313Y147000*
X389750D02*
X389313Y146563D01*
X388437*
X387563*
X386687Y147000*
X386250Y147875*
Y149187*
X386687Y149625*
X387563Y150063*
X388437*
X389313Y149625*
X389750Y149187*
Y148750*
X389313Y148313*
X388437Y147875*
X387563*
X386687Y148313*
X386250Y148750*
X393250Y147000D02*
X394125Y146563D01*
X395875*
X396750Y147000*
Y147875*
X395875Y148313*
X394125*
X393250Y148750*
Y149625*
X394125Y150063*
X395875*
X396750Y149625*
X401125Y150063D02*
X402875D01*
X402000Y150937D02*
Y147000D01*
X402437Y146563*
X402875*
X403313Y147000*
X415125Y150063D02*
X416875D01*
X416000Y150937D02*
Y147000D01*
X416437Y146563*
X416875*
X417313Y147000*
X421250Y147875D02*
X421687Y147000D01*
X422563Y146563*
X423437*
X424313Y147000*
X424750Y147875*
Y148750*
X424313Y149625*
X423437Y150063*
X422563*
X421687Y149625*
X421250Y148750*
Y147875*
X428250Y150063D02*
Y147875D01*
X428687Y147000*
X429563Y146563*
X430437*
X431313Y147000*
X431750Y147875*
Y150063D02*
Y146563D01*
X438750Y149625D02*
X437875Y150063D01*
X436563*
X435687Y149625*
X435250Y148750*
Y147875*
X435687Y147000*
X436563Y146563*
X437875*
X438750Y147000*
X442250Y146563D02*
Y151813D01*
Y148750D02*
X442687Y149625D01*
X443563Y150063*
X444437*
X445313Y149625*
X445750Y148750*
Y146563*
X456250Y150063D02*
Y145250D01*
Y147875D02*
X456687Y147000D01*
X457563Y146563*
X458437*
X459313Y147000*
X459750Y147875*
Y148750*
X459313Y149625*
X458437Y150063*
X457563*
X456687Y149625*
X456250Y148750*
Y147875*
X463250D02*
X463687Y147000D01*
X464563Y146563*
X465437*
X466313Y147000*
X466750Y147875*
Y148750*
X466313Y149625*
X465437Y150063*
X464563*
X463687Y149625*
X463250Y148750*
Y147875*
X470250Y146563D02*
Y150063D01*
Y148750D02*
X470687Y149625D01*
X471563Y150063*
X472437*
X473313Y149625*
X478125Y150063D02*
X479875D01*
X479000Y150937D02*
Y147000D01*
X479437Y146563*
X479875*
X480313Y147000*
X484250D02*
X485125Y146563D01*
X486875*
X487750Y147000*
Y147875*
X486875Y148313*
X485125*
X484250Y148750*
Y149625*
X485125Y150063*
X486875*
X487750Y149625*
X493000Y146563D02*
Y147437*
Y149187D01*
X493437*
X494313Y149625*
X494750Y150500*
X494313Y151375*
X493437Y151813*
X492563*
X491687Y151375*
X491250Y150500*
X508313Y146563D02*
X507437Y147875D01*
Y150937*
X508313Y151813*
X512250Y147875D02*
X512687Y147000D01*
X513563Y146563*
X514437*
X515313Y147000*
X515750Y147875*
Y148750*
X515313Y149625*
X514437Y150063*
X513563*
X512687Y149625*
X512250Y148750*
Y147875*
X519250Y146563D02*
Y150063D01*
Y148750D02*
X519687Y149625D01*
X520563Y150063*
X521437*
X522313Y149625*
X522750Y148750*
Y146563*
X528437D02*
X528000D01*
Y151813*
X533250Y150063D02*
X533687Y148313D01*
X534563Y147437*
X535437*
X536313Y148313*
X536750Y150063*
X536313Y148313D02*
X535875Y146563D01*
X535437Y145687*
X534563Y145250*
X533687Y145687*
X547687Y147000D02*
X548563Y146563D01*
X549437*
X550313Y147000*
X550750Y147875*
Y150500*
X550313Y151375*
X549437Y151813*
X548563*
X547687Y151375*
X547250Y150500*
Y147875*
X547687Y147000*
X550313Y151375*
X554250Y146563D02*
X558625Y151813D01*
X563437Y146563D02*
Y151813D01*
X561250D02*
X565625D01*
X569125Y146563D02*
X570875D01*
X570000D02*
Y151813D01*
X569125Y150937*
X585750Y148750D02*
X585313Y149625D01*
X584437Y150063*
X583563*
X582687Y149625*
X582250Y148750*
Y147875*
X582687Y147000*
X583563Y146563*
X584437*
X585313Y147000*
X585750Y147875*
Y146563D02*
Y151813D01*
X589250Y147875D02*
X589687Y147000D01*
X590563Y146563*
X591437*
X592313Y147000*
X592750Y147875*
Y148750*
X592313Y149625*
X591437Y150063*
X590563*
X589687Y149625*
X589250Y148750*
Y147875*
X599750Y147000D02*
X599313Y146563D01*
X598437*
X597563*
X596687Y147000*
X596250Y147875*
Y149187*
X596687Y149625*
X597563Y150063*
X598437*
X599313Y149625*
X599750Y149187*
Y148750*
X599313Y148313*
X598437Y147875*
X597563*
X596687Y148313*
X596250Y148750*
X603250Y147000D02*
X604125Y146563D01*
X605875*
X606750Y147000*
Y147875*
X605875Y148313*
X604125*
X603250Y148750*
Y149625*
X604125Y150063*
X605875*
X606750Y149625*
X610250Y146563D02*
Y150063D01*
Y148750D02*
X610687Y149625D01*
X611563Y150063*
X612437*
X613313Y149625*
X613750Y148750*
Y146563*
X619000Y150937D02*
X619875Y151813D01*
X625125Y150063D02*
X626875D01*
X626000Y150937D02*
Y147000D01*
X626437Y146563*
X626875*
X627313Y147000*
X638250Y150063D02*
Y147000D01*
X638687Y146563*
X639563*
X640000Y147000*
Y148313*
Y147000D02*
X640437Y146563D01*
X641313*
X641750Y147000*
Y150063*
X645250Y147875D02*
X645687Y147000D01*
X646563Y146563*
X647437*
X648313Y147000*
X648750Y147875*
Y148750*
X648313Y149625*
X647437Y150063*
X646563*
X645687Y149625*
X645250Y148750*
Y147875*
X652250Y146563D02*
Y150063D01*
Y148750D02*
X652687Y149625D01*
X653563Y150063*
X654437*
X655313Y149625*
X659250Y146563D02*
Y151813D01*
Y148313D02*
X660563D01*
X662750Y150063*
X660563Y148313D02*
X662750Y146563D01*
X668000D02*
X668437Y147000D01*
Y147437*
X680250Y147000D02*
X681125Y146563D01*
X682875*
X683750Y147000*
Y147875*
X682875Y148313*
X681125*
X680250Y148750*
Y149625*
X681125Y150063*
X682875*
X683750Y149625*
X687250Y147875D02*
X687687Y147000D01*
X688563Y146563*
X689437*
X690313Y147000*
X690750Y147875*
Y148750*
X690313Y149625*
X689437Y150063*
X688563*
X687687Y149625*
X687250Y148750*
Y147875*
X704750Y149625D02*
X703875Y150063D01*
X702563*
X701687Y149625*
X701250Y148750*
Y147875*
X701687Y147000*
X702563Y146563*
X703875*
X704750Y147000*
X708250Y146563D02*
Y151813D01*
Y148750D02*
X708687Y149625D01*
X709563Y150063*
X710437*
X711313Y149625*
X711750Y148750*
Y146563*
X715250Y149625D02*
X716125Y150063D01*
X717437*
X718313Y149625*
X718750Y148750*
Y147437*
X718313Y147000*
X717437Y146563*
X716563*
X715687Y147000*
X715250Y147437*
Y147875*
X715687Y148313*
X716563Y148750*
X717437*
X718313Y148313*
X718750Y147875*
Y147437D02*
Y146563D01*
X722250D02*
Y150063D01*
Y148750D02*
X722687Y149625D01*
X723563Y150063*
X724437*
X725313Y149625*
X725750Y148750*
Y146563*
X732750Y148750D02*
X732313Y149625D01*
X731437Y150063*
X730563*
X729687Y149625*
X729250Y148750*
Y148313*
X729687Y147437*
X730563Y147000*
X731437*
X732313Y147437*
X732750Y148313*
Y150063D02*
Y146563D01*
X732313Y145687*
X731437Y145250*
X730125*
X729250Y145687*
X739750Y147000D02*
X739313Y146563D01*
X738437*
X737563*
X736687Y147000*
X736250Y147875*
Y149187*
X736687Y149625*
X737563Y150063*
X738437*
X739313Y149625*
X739750Y149187*
Y148750*
X739313Y148313*
X738437Y147875*
X737563*
X736687Y148313*
X736250Y148750*
X746750D02*
X746313Y149625D01*
X745437Y150063*
X744563*
X743687Y149625*
X743250Y148750*
Y147875*
X743687Y147000*
X744563Y146563*
X745437*
X746313Y147000*
X746750Y147875*
Y146563D02*
Y151813D01*
X758125Y150063D02*
X759875D01*
X759000Y150937D02*
Y147000D01*
X759437Y146563*
X759875*
X760313Y147000*
X764250Y147875D02*
X764687Y147000D01*
X765563Y146563*
X766437*
X767313Y147000*
X767750Y147875*
Y148750*
X767313Y149625*
X766437Y150063*
X765563*
X764687Y149625*
X764250Y148750*
Y147875*
X780437Y146563D02*
Y151813D01*
X778250D02*
X782625D01*
X786563Y149187D02*
X787437D01*
X788313Y149625*
X788750Y150500*
X788313Y151375*
X787437Y151813*
X786563*
X785687Y151375*
X785250Y150500*
X785687Y149625*
X786563Y149187*
X785687Y148750*
X785250Y147875*
X785687Y147000*
X786563Y146563*
X787437*
X788313Y147000*
X788750Y147875*
X788313Y148750*
X787437Y149187*
X792250Y146563D02*
X796625Y151813D01*
X799687Y147000D02*
X800563Y146563D01*
X801437*
X802313Y147000*
X802750Y147875*
X802313Y148750*
X801437Y149187*
X800563*
X801437D02*
X802313Y149625D01*
X802750Y150500*
X802313Y151375*
X801437Y151813*
X800563*
X799687Y151375*
X806687Y147000D02*
X807563Y146563D01*
X808437*
X809313Y147000*
X809750Y147875*
X809313Y148750*
X808437Y149187*
X807563*
X808437D02*
X809313Y149625D01*
X809750Y150500*
X809313Y151375*
X808437Y151813*
X807563*
X806687Y151375*
X814563Y146563D02*
X815437Y147875D01*
Y150937*
X814563Y151813*
X365250Y173313D02*
X368750D01*
X380125Y175063D02*
X381875D01*
X381000Y175937D02*
Y172000D01*
X381437Y171563*
X381875*
X382313Y172000*
X386250Y174625D02*
X387125Y175063D01*
X388437*
X389313Y174625*
X389750Y173750*
Y172437*
X389313Y172000*
X388437Y171563*
X387563*
X386687Y172000*
X386250Y172437*
Y172875*
X386687Y173313*
X387563Y173750*
X388437*
X389313Y173313*
X389750Y172875*
Y172437D02*
Y171563D01*
X393250D02*
Y176813D01*
Y173313D02*
X394563D01*
X396750Y175063*
X394563Y173313D02*
X396750Y171563D01*
X403750Y172000D02*
X403313Y171563D01*
X402437*
X401563*
X400687Y172000*
X400250Y172875*
Y174187*
X400687Y174625*
X401563Y175063*
X402437*
X403313Y174625*
X403750Y174187*
Y173750*
X403313Y173313*
X402437Y172875*
X401563*
X400687Y173313*
X400250Y173750*
X414250Y172875D02*
X414687Y172000D01*
X415563Y171563*
X416437*
X417313Y172000*
X417750Y172875*
Y173750*
X417313Y174625*
X416437Y175063*
X415563*
X414687Y174625*
X414250Y173750*
Y172875*
X421250Y175063D02*
Y172875D01*
X421687Y172000*
X422563Y171563*
X423437*
X424313Y172000*
X424750Y172875*
Y175063D02*
Y171563D01*
X429125Y175063D02*
X430875D01*
X430000Y175937D02*
Y172000D01*
X430437Y171563*
X430875*
X431313Y172000*
X442250Y172875D02*
X442687Y172000D01*
X443563Y171563*
X445313*
X446187Y172000*
X446625Y172875*
X446187Y173750*
X445313Y174187*
X443563*
X442687Y174625*
X442250Y175500*
X442687Y176375*
X443563Y176813*
X445313*
X446187Y176375*
X446625Y175500*
X452750Y172000D02*
X452313Y171563D01*
X451437*
X450563*
X449687Y172000*
X449250Y172875*
Y174187*
X449687Y174625*
X450563Y175063*
X451437*
X452313Y174625*
X452750Y174187*
Y173750*
X452313Y173313*
X451437Y172875*
X450563*
X449687Y173313*
X449250Y173750*
X456250Y171563D02*
Y175063D01*
Y173750D02*
X456687Y174625D01*
X457563Y175063*
X458437*
X459313Y174625*
X465000Y171563D02*
Y175063D01*
Y176375D02*
X470250Y174625*
X471125Y175063D01*
X472437*
X473313Y174625*
X473750Y173750*
Y172437*
X473313Y172000*
X472437Y171563*
X471563*
X470687Y172000*
X470250Y172437*
Y172875*
X470687Y173313*
X471563Y173750*
X472437*
X473313Y173313*
X473750Y172875*
Y172437D02*
Y171563D01*
X479437D02*
X479000D01*
Y176813*
X485125Y171563D02*
X486875D01*
X486000D02*
Y176813D01*
X485125Y175937*
X498250Y175063D02*
Y170250D01*
Y172875D02*
X498687Y172000D01*
X499563Y171563*
X500437*
X501313Y172000*
X501750Y172875*
Y173750*
X501313Y174625*
X500437Y175063*
X499563*
X498687Y174625*
X498250Y173750*
Y172875*
X507437Y171563D02*
X507000D01*
Y176813*
X512250Y175063D02*
Y172875D01*
X512687Y172000*
X513563Y171563*
X514437*
X515313Y172000*
X515750Y172875*
Y175063D02*
Y171563D01*
X522750Y173750D02*
X522313Y174625D01*
X521437Y175063*
X520563*
X519687Y174625*
X519250Y173750*
Y173313*
X519687Y172437*
X520563Y172000*
X521437*
X522313Y172437*
X522750Y173313*
Y175063D02*
Y171563D01*
X522313Y170687*
X521437Y170250*
X520125*
X519250Y170687*
X533250Y174625D02*
X534125Y175063D01*
X535437*
X536313Y174625*
X536750Y173750*
Y172437*
X536313Y172000*
X535437Y171563*
X534563*
X533687Y172000*
X533250Y172437*
Y172875*
X533687Y173313*
X534563Y173750*
X535437*
X536313Y173313*
X536750Y172875*
Y172437D02*
Y171563D01*
X540250D02*
Y175063D01*
Y173750D02*
X540687Y174625D01*
X541563Y175063*
X542437*
X543313Y174625*
X543750Y173750*
Y171563*
X550750Y173750D02*
X550313Y174625D01*
X549437Y175063*
X548563*
X547687Y174625*
X547250Y173750*
Y172875*
X547687Y172000*
X548563Y171563*
X549437*
X550313Y172000*
X550750Y172875*
Y171563D02*
Y176813D01*
X561250Y171563D02*
Y175063D01*
Y174625D02*
X561687Y175063D01*
X562563*
X563000Y174625*
Y173313*
Y174625D02*
X563437Y175063D01*
X564313*
X564750Y174625*
Y171563*
X568250Y172875D02*
X568687Y172000D01*
X569563Y171563*
X570437*
X571313Y172000*
X571750Y172875*
Y173750*
X571313Y174625*
X570437Y175063*
X569563*
X568687Y174625*
X568250Y173750*
Y172875*
X575250Y175063D02*
X577000Y171563D01*
X578750Y175063*
X585750Y172000D02*
X585313Y171563D01*
X584437*
X583563*
X582687Y172000*
X582250Y172875*
Y174187*
X582687Y174625*
X583563Y175063*
X584437*
X585313Y174625*
X585750Y174187*
Y173750*
X585313Y173313*
X584437Y172875*
X583563*
X582687Y173313*
X582250Y173750*
X596250Y175063D02*
Y172875D01*
X596687Y172000*
X597563Y171563*
X598437*
X599313Y172000*
X599750Y172875*
Y175063D02*
Y171563D01*
X603250Y175063D02*
Y170250D01*
Y172875D02*
X603687Y172000D01*
X604563Y171563*
X605437*
X606313Y172000*
X606750Y172875*
Y173750*
X606313Y174625*
X605437Y175063*
X604563*
X603687Y174625*
X603250Y173750*
Y172875*
X617250Y175063D02*
Y170250D01*
Y172875D02*
X617687Y172000D01*
X618563Y171563*
X619437*
X620313Y172000*
X620750Y172875*
Y173750*
X620313Y174625*
X619437Y175063*
X618563*
X617687Y174625*
X617250Y173750*
Y172875*
X624250D02*
X624687Y172000D01*
X625563Y171563*
X626437*
X627313Y172000*
X627750Y172875*
Y173750*
X627313Y174625*
X626437Y175063*
X625563*
X624687Y174625*
X624250Y173750*
Y172875*
X631250Y175063D02*
Y172000D01*
X631687Y171563*
X632563*
X633000Y172000*
Y173313*
Y172000D02*
X633437Y171563D01*
X634313*
X634750Y172000*
Y175063*
X641750Y172000D02*
X641313Y171563D01*
X640437*
X639563*
X638687Y172000*
X638250Y172875*
Y174187*
X638687Y174625*
X639563Y175063*
X640437*
X641313Y174625*
X641750Y174187*
Y173750*
X641313Y173313*
X640437Y172875*
X639563*
X638687Y173313*
X638250Y173750*
X645250Y171563D02*
Y175063D01*
Y173750D02*
X645687Y174625D01*
X646563Y175063*
X647437*
X648313Y174625*
X659250Y175063D02*
Y170250D01*
Y172875D02*
X659687Y172000D01*
X660563Y171563*
X661437*
X662313Y172000*
X662750Y172875*
Y173750*
X662313Y174625*
X661437Y175063*
X660563*
X659687Y174625*
X659250Y173750*
Y172875*
X668437Y171563D02*
X668000D01*
Y176813*
X673250Y175063D02*
Y172875D01*
X673687Y172000*
X674563Y171563*
X675437*
X676313Y172000*
X676750Y172875*
Y175063D02*
Y171563D01*
X683750Y173750D02*
X683313Y174625D01*
X682437Y175063*
X681563*
X680687Y174625*
X680250Y173750*
Y173313*
X680687Y172437*
X681563Y172000*
X682437*
X683313Y172437*
X683750Y173313*
Y175063D02*
Y171563D01*
X683313Y170687*
X682437Y170250*
X681125*
X680250Y170687*
X365250Y183313D02*
X368750D01*
X382750Y184625D02*
X381875Y185063D01*
X380563*
X379687Y184625*
X379250Y183750*
Y182875*
X379687Y182000*
X380563Y181563*
X381875*
X382750Y182000*
X386250Y181563D02*
Y186813D01*
Y183750D02*
X386687Y184625D01*
X387563Y185063*
X388437*
X389313Y184625*
X389750Y183750*
Y181563*
X393250Y184625D02*
X394125Y185063D01*
X395437*
X396313Y184625*
X396750Y183750*
Y182437*
X396313Y182000*
X395437Y181563*
X394563*
X393687Y182000*
X393250Y182437*
Y182875*
X393687Y183313*
X394563Y183750*
X395437*
X396313Y183313*
X396750Y182875*
Y182437D02*
Y181563D01*
X400250D02*
Y185063D01*
Y183750D02*
X400687Y184625D01*
X401563Y185063*
X402437*
X403313Y184625*
X403750Y183750*
Y181563*
X410750Y183750D02*
X410313Y184625D01*
X409437Y185063*
X408563*
X407687Y184625*
X407250Y183750*
Y183313*
X407687Y182437*
X408563Y182000*
X409437*
X410313Y182437*
X410750Y183313*
Y185063D02*
Y181563D01*
X410313Y180687*
X409437Y180250*
X408125*
X407250Y180687*
X417750Y182000D02*
X417313Y181563D01*
X416437*
X415563*
X414687Y182000*
X414250Y182875*
Y184187*
X414687Y184625*
X415563Y185063*
X416437*
X417313Y184625*
X417750Y184187*
Y183750*
X417313Y183313*
X416437Y182875*
X415563*
X414687Y183313*
X414250Y183750*
X428250Y182875D02*
X428687Y182000D01*
X429563Y181563*
X430437*
X431313Y182000*
X431750Y182875*
Y183750*
X431313Y184625*
X430437Y185063*
X429563*
X428687Y184625*
X428250Y183750*
Y182875*
X435250Y181563D02*
Y185063D01*
Y183750D02*
X435687Y184625D01*
X436563Y185063*
X437437*
X438313Y184625*
X445750Y183750D02*
X445313Y184625D01*
X444437Y185063*
X443563*
X442687Y184625*
X442250Y183750*
Y182875*
X442687Y182000*
X443563Y181563*
X444437*
X445313Y182000*
X445750Y182875*
Y181563D02*
Y186813D01*
X452750Y182000D02*
X452313Y181563D01*
X451437*
X450563*
X449687Y182000*
X449250Y182875*
Y184187*
X449687Y184625*
X450563Y185063*
X451437*
X452313Y184625*
X452750Y184187*
Y183750*
X452313Y183313*
X451437Y182875*
X450563*
X449687Y183313*
X449250Y183750*
X456250Y181563D02*
Y185063D01*
Y183750D02*
X456687Y184625D01*
X457563Y185063*
X458437*
X459313Y184625*
X470250Y182875D02*
X470687Y182000D01*
X471563Y181563*
X472437*
X473313Y182000*
X473750Y182875*
Y183750*
X473313Y184625*
X472437Y185063*
X471563*
X470687Y184625*
X470250Y183750*
Y182875*
X479000Y181563D02*
Y185937D01*
X479437Y186375*
X479875*
X480313Y185937*
X478125Y184625D02*
X479875D01*
X492563Y181563D02*
X494313D01*
X493437D02*
Y186813D01*
X492563D02*
X494313D01*
X501750Y181563D02*
X498250D01*
X501313Y184625*
X501750Y185500*
X501313Y186375*
X500437Y186813*
X499125*
X498250Y186375*
X509625Y182437D02*
X509187Y182000D01*
X508313Y181563*
X507000*
X506125Y182000*
X505687Y182437*
X505250Y183313*
Y185063*
X505687Y185937*
X506125Y186375*
X507000Y186813*
X508313*
X509187Y186375*
X509625Y185937*
X519250Y185063D02*
Y180250D01*
Y182875D02*
X519687Y182000D01*
X520563Y181563*
X521437*
X522313Y182000*
X522750Y182875*
Y183750*
X522313Y184625*
X521437Y185063*
X520563*
X519687Y184625*
X519250Y183750*
Y182875*
X526250D02*
X526687Y182000D01*
X527563Y181563*
X528437*
X529313Y182000*
X529750Y182875*
Y183750*
X529313Y184625*
X528437Y185063*
X527563*
X526687Y184625*
X526250Y183750*
Y182875*
X533250Y181563D02*
Y185063D01*
Y183750D02*
X533687Y184625D01*
X534563Y185063*
X535437*
X536313Y184625*
X541125Y185063D02*
X542875D01*
X542000Y185937D02*
Y182000D01*
X542437Y181563*
X542875*
X543313Y182000*
X547250D02*
X548125Y181563D01*
X549875*
X550750Y182000*
Y182875*
X549875Y183313*
X548125*
X547250Y183750*
Y184625*
X548125Y185063*
X549875*
X550750Y184625*
X561250Y182875D02*
X561687Y182000D01*
X562563Y181563*
X563437*
X564313Y182000*
X564750Y182875*
Y183750*
X564313Y184625*
X563437Y185063*
X562563*
X561687Y184625*
X561250Y183750*
Y182875*
X568250Y181563D02*
Y185063D01*
Y183750D02*
X568687Y184625D01*
X569563Y185063*
X570437*
X571313Y184625*
X571750Y183750*
Y181563*
X582250D02*
Y185063D01*
Y183750D02*
X582687Y184625D01*
X583563Y185063*
X584437*
X585313Y184625*
X591000Y181563D02*
Y185063D01*
Y186375D02*
X599750Y183750*
X599313Y184625D01*
X598437Y185063*
X597563*
X596687Y184625*
X596250Y183750*
Y183313*
X596687Y182437*
X597563Y182000*
X598437*
X599313Y182437*
X599750Y183313*
Y185063D02*
Y181563D01*
X599313Y180687*
X598437Y180250*
X597125*
X596250Y180687*
X603250Y181563D02*
Y186813D01*
Y183750D02*
X603687Y184625D01*
X604563Y185063*
X605437*
X606313Y184625*
X606750Y183750*
Y181563*
X611125Y185063D02*
X612875D01*
X612000Y185937D02*
Y182000D01*
X612437Y181563*
X612875*
X613313Y182000*
X625125Y185063D02*
X626875D01*
X626000Y185937D02*
Y182000D01*
X626437Y181563*
X626875*
X627313Y182000*
X631250Y182875D02*
X631687Y182000D01*
X632563Y181563*
X633437*
X634313Y182000*
X634750Y182875*
Y183750*
X634313Y184625*
X633437Y185063*
X632563*
X631687Y184625*
X631250Y183750*
Y182875*
X645250Y184625D02*
X646125Y185063D01*
X647437*
X648313Y184625*
X648750Y183750*
Y182437*
X648313Y182000*
X647437Y181563*
X646563*
X645687Y182000*
X645250Y182437*
Y182875*
X645687Y183313*
X646563Y183750*
X647437*
X648313Y183313*
X648750Y182875*
Y182437D02*
Y181563D01*
X654437D02*
X654000D01*
Y186813*
X661437Y181563D02*
X661000D01*
Y186813*
X666250Y182875D02*
X666687Y182000D01*
X667563Y181563*
X668437*
X669313Y182000*
X669750Y182875*
Y183750*
X669313Y184625*
X668437Y185063*
X667563*
X666687Y184625*
X666250Y183750*
Y182875*
X673250Y185063D02*
Y182000D01*
X673687Y181563*
X674563*
X675000Y182000*
Y183313*
Y182000D02*
X675437Y181563D01*
X676313*
X676750Y182000*
Y185063*
X687250Y181563D02*
Y186813D01*
X690313*
X691187Y186375*
X691625Y185500*
X691187Y184625*
X690313Y184187*
X687250*
X690313D02*
X691625Y181563D01*
X696437D02*
Y186813D01*
X694250D02*
X698625D01*
X705625Y182437D02*
X705187Y182000D01*
X704313Y181563*
X703000*
X702125Y182000*
X701687Y182437*
X701250Y183313*
Y185063*
X701687Y185937*
X702125Y186375*
X703000Y186813*
X704313*
X705187Y186375*
X705625Y185937*
X715250Y184625D02*
X716125Y185063D01*
X717437*
X718313Y184625*
X718750Y183750*
Y182437*
X718313Y182000*
X717437Y181563*
X716563*
X715687Y182000*
X715250Y182437*
Y182875*
X715687Y183313*
X716563Y183750*
X717437*
X718313Y183313*
X718750Y182875*
Y182437D02*
Y181563D01*
X722250D02*
Y185063D01*
Y183750D02*
X722687Y184625D01*
X723563Y185063*
X724437*
X725313Y184625*
X725750Y183750*
Y181563*
X732750Y183750D02*
X732313Y184625D01*
X731437Y185063*
X730563*
X729687Y184625*
X729250Y183750*
Y182875*
X729687Y182000*
X730563Y181563*
X731437*
X732313Y182000*
X732750Y182875*
Y181563D02*
Y186813D01*
X743250Y183313D02*
Y185063D01*
X743687Y185937*
X744125Y186375*
X745000Y186813*
X745875*
X746750Y186375*
X747187Y185937*
X747625Y185063*
Y183313*
X747187Y182437*
X746750Y182000*
X745875Y181563*
X745000*
X744125Y182000*
X743687Y182437*
X743250Y183313*
X750250Y186813D02*
Y181563D01*
X754625*
X757250D02*
Y186813D01*
X761625*
X760750Y184187D02*
X757250D01*
Y181563D02*
X761625D01*
X764250D02*
Y186813D01*
X766875*
X767750Y186375*
X768187Y185937*
X768625Y185063*
Y183313*
X768187Y182437*
X767750Y182000*
X766875Y181563*
X764250*
X781313D02*
X780437Y182875D01*
Y185937*
X781313Y186813*
X785250Y181563D02*
Y186813D01*
X787875*
X788750Y186375*
X789187Y185937*
X789625Y185063*
Y183313*
X789187Y182437*
X788750Y182000*
X787875Y181563*
X785250*
X792250Y183313D02*
Y185063D01*
X792687Y185937*
X793125Y186375*
X794000Y186813*
X794875*
X795750Y186375*
X796187Y185937*
X796625Y185063*
Y183313*
X796187Y182437*
X795750Y182000*
X794875Y181563*
X794000*
X793125Y182000*
X792687Y182437*
X792250Y183313*
X799250Y181563D02*
Y186813D01*
X803625Y181563*
Y186813*
X806250Y181563D02*
Y186813D01*
X810625*
X809750Y184187D02*
X806250D01*
Y181563D02*
X810625D01*
X814563D02*
X815437Y182875D01*
Y185937*
X814563Y186813*
X365250Y195813D02*
X368750D01*
X381000Y194063D02*
Y198437D01*
X381437Y198875*
X381875*
X382313Y198437*
X380125Y197125D02*
X381875D01*
X388000Y194063D02*
Y197563D01*
Y198875D02*
X393250Y194063*
X396750Y197563D01*
Y194063D02*
X393250Y197563D01*
X403750Y194500D02*
X403313Y194063D01*
X402437*
X401563*
X400687Y194500*
X400250Y195375*
Y196687*
X400687Y197125*
X401563Y197563*
X402437*
X403313Y197125*
X403750Y196687*
Y196250*
X403313Y195813*
X402437Y195375*
X401563*
X400687Y195813*
X400250Y196250*
X410750D02*
X410313Y197125D01*
X409437Y197563*
X408563*
X407687Y197125*
X407250Y196250*
Y195375*
X407687Y194500*
X408563Y194063*
X409437*
X410313Y194500*
X410750Y195375*
Y194063D02*
Y199313D01*
X421250Y194063D02*
Y197563D01*
Y196250D02*
X421687Y197125D01*
X422563Y197563*
X423437*
X424313Y197125*
X428250Y195375D02*
X428687Y194500D01*
X429563Y194063*
X430437*
X431313Y194500*
X431750Y195375*
Y196250*
X431313Y197125*
X430437Y197563*
X429563*
X428687Y197125*
X428250Y196250*
Y195375*
X435250Y197563D02*
Y195375D01*
X435687Y194500*
X436563Y194063*
X437437*
X438313Y194500*
X438750Y195375*
Y197563D02*
Y194063D01*
X443125Y197563D02*
X444875D01*
X444000Y198437D02*
Y194500D01*
X444437Y194063*
X444875*
X445313Y194500*
X451000Y194063D02*
Y197563D01*
Y198875D02*
X456250Y194063*
Y197563D01*
Y196250D02*
X456687Y197125D01*
X457563Y197563*
X458437*
X459313Y197125*
X459750Y196250*
Y194063*
X466750Y196250D02*
X466313Y197125D01*
X465437Y197563*
X464563*
X463687Y197125*
X463250Y196250*
Y195813*
X463687Y194937*
X464563Y194500*
X465437*
X466313Y194937*
X466750Y195813*
Y197563D02*
Y194063D01*
X466313Y193187*
X465437Y192750*
X464125*
X463250Y193187*
X478125Y197563D02*
X479875D01*
X479000Y198437D02*
Y194500D01*
X479437Y194063*
X479875*
X480313Y194500*
X484250Y195375D02*
X484687Y194500D01*
X485563Y194063*
X486437*
X487313Y194500*
X487750Y195375*
Y196250*
X487313Y197125*
X486437Y197563*
X485563*
X484687Y197125*
X484250Y196250*
Y195375*
X498250Y197563D02*
Y192750D01*
Y195375D02*
X498687Y194500D01*
X499563Y194063*
X500437*
X501313Y194500*
X501750Y195375*
Y196250*
X501313Y197125*
X500437Y197563*
X499563*
X498687Y197125*
X498250Y196250*
Y195375*
X507000Y194063D02*
Y197563D01*
Y198875D02*
X512250Y194063*
Y197563D01*
Y196250D02*
X512687Y197125D01*
X513563Y197563*
X514437*
X515313Y197125*
X515750Y196250*
Y194063*
X527125D02*
X528875D01*
X528000D02*
Y199313D01*
X527125Y198437*
X535437Y194063D02*
Y199313D01*
X533250Y195813*
X536750*
X547250Y195375D02*
X547687Y194500D01*
X548563Y194063*
X549437*
X550313Y194500*
X550750Y195375*
Y196250*
X550313Y197125*
X549437Y197563*
X548563*
X547687Y197125*
X547250Y196250*
Y195375*
X554250Y194063D02*
Y197563D01*
Y196250D02*
X554687Y197125D01*
X555563Y197563*
X556437*
X557313Y197125*
X557750Y196250*
Y194063*
X570437D02*
X570000D01*
Y199313*
X578750Y194500D02*
X578313Y194063D01*
X577437*
X576563*
X575687Y194500*
X575250Y195375*
Y196687*
X575687Y197125*
X576563Y197563*
X577437*
X578313Y197125*
X578750Y196687*
Y196250*
X578313Y195813*
X577437Y195375*
X576563*
X575687Y195813*
X575250Y196250*
X584000Y194063D02*
Y198437D01*
X584437Y198875*
X584875*
X585313Y198437*
X583125Y197125D02*
X584875D01*
X590125Y197563D02*
X591875D01*
X591000Y198437D02*
Y194500D01*
X591437Y194063*
X591875*
X592313Y194500*
X603250Y195375D02*
X603687Y194500D01*
X604563Y194063*
X606313*
X607187Y194500*
X607625Y195375*
X607187Y196250*
X606313Y196687*
X604563*
X603687Y197125*
X603250Y198000*
X603687Y198875*
X604563Y199313*
X606313*
X607187Y198875*
X607625Y198000*
X613750Y194500D02*
X613313Y194063D01*
X612437*
X611563*
X610687Y194500*
X610250Y195375*
Y196687*
X610687Y197125*
X611563Y197563*
X612437*
X613313Y197125*
X613750Y196687*
Y196250*
X613313Y195813*
X612437Y195375*
X611563*
X610687Y195813*
X610250Y196250*
X617250Y194063D02*
Y197563D01*
Y196250D02*
X617687Y197125D01*
X618563Y197563*
X619437*
X620313Y197125*
X626000Y194063D02*
Y197563D01*
Y198875D02*
X631250Y197125*
X632125Y197563D01*
X633437*
X634313Y197125*
X634750Y196250*
Y194937*
X634313Y194500*
X633437Y194063*
X632563*
X631687Y194500*
X631250Y194937*
Y195375*
X631687Y195813*
X632563Y196250*
X633437*
X634313Y195813*
X634750Y195375*
Y194937D02*
Y194063D01*
X640437D02*
X640000D01*
Y199313*
X652250Y197563D02*
Y192750D01*
Y195375D02*
X652687Y194500D01*
X653563Y194063*
X654437*
X655313Y194500*
X655750Y195375*
Y196250*
X655313Y197125*
X654437Y197563*
X653563*
X652687Y197125*
X652250Y196250*
Y195375*
X659250D02*
X659687Y194500D01*
X660563Y194063*
X661437*
X662313Y194500*
X662750Y195375*
Y196250*
X662313Y197125*
X661437Y197563*
X660563*
X659687Y197125*
X659250Y196250*
Y195375*
X666250Y194063D02*
Y197563D01*
Y196250D02*
X666687Y197125D01*
X667563Y197563*
X668437*
X669313Y197125*
X674125Y197563D02*
X675875D01*
X675000Y198437D02*
Y194500D01*
X675437Y194063*
X675875*
X676313Y194500*
X690313Y194063D02*
X689437Y195375D01*
Y198437*
X690313Y199313*
X694250Y197125D02*
X695125Y197563D01*
X696437*
X697313Y197125*
X697750Y196250*
Y194937*
X697313Y194500*
X696437Y194063*
X695563*
X694687Y194500*
X694250Y194937*
Y195375*
X694687Y195813*
X695563Y196250*
X696437*
X697313Y195813*
X697750Y195375*
Y194937D02*
Y194063D01*
X701250D02*
Y197563D01*
Y196250D02*
X701687Y197125D01*
X702563Y197563*
X703437*
X704313Y197125*
X704750Y196250*
Y194063*
X711750Y196250D02*
X711313Y197125D01*
X710437Y197563*
X709563*
X708687Y197125*
X708250Y196250*
Y195375*
X708687Y194500*
X709563Y194063*
X710437*
X711313Y194500*
X711750Y195375*
Y194063D02*
Y199313D01*
X722250Y195375D02*
X722687Y194500D01*
X723563Y194063*
X724437*
X725313Y194500*
X725750Y195375*
Y196250*
X725313Y197125*
X724437Y197563*
X723563*
X722687Y197125*
X722250Y196250*
Y194063D02*
Y199313D01*
X729250Y197563D02*
Y195375D01*
X729687Y194500*
X730563Y194063*
X731437*
X732313Y194500*
X732750Y195375*
Y197563D02*
Y194063D01*
X737125Y197563D02*
X738875D01*
X738000Y198437D02*
Y194500D01*
X738437Y194063*
X738875*
X739313Y194500*
X744125Y197563D02*
X745875D01*
X745000Y198437D02*
Y194500D01*
X745437Y194063*
X745875*
X746313Y194500*
X750250Y195375D02*
X750687Y194500D01*
X751563Y194063*
X752437*
X753313Y194500*
X753750Y195375*
Y196250*
X753313Y197125*
X752437Y197563*
X751563*
X750687Y197125*
X750250Y196250*
Y195375*
X757250Y194063D02*
Y197563D01*
Y196250D02*
X757687Y197125D01*
X758563Y197563*
X759437*
X760313Y197125*
X760750Y196250*
Y194063*
X765563D02*
X766437Y195375D01*
Y198437*
X765563Y199313*
X365250Y208313D02*
X368750D01*
X382750Y209625D02*
X381875Y210063D01*
X380563*
X379687Y209625*
X379250Y208750*
Y207875*
X379687Y207000*
X380563Y206563*
X381875*
X382750Y207000*
X386250Y206563D02*
Y211813D01*
Y208750D02*
X386687Y209625D01*
X387563Y210063*
X388437*
X389313Y209625*
X389750Y208750*
Y206563*
X393250Y209625D02*
X394125Y210063D01*
X395437*
X396313Y209625*
X396750Y208750*
Y207437*
X396313Y207000*
X395437Y206563*
X394563*
X393687Y207000*
X393250Y207437*
Y207875*
X393687Y208313*
X394563Y208750*
X395437*
X396313Y208313*
X396750Y207875*
Y207437D02*
Y206563D01*
X400250D02*
Y210063D01*
Y208750D02*
X400687Y209625D01*
X401563Y210063*
X402437*
X403313Y209625*
X403750Y208750*
Y206563*
X410750Y208750D02*
X410313Y209625D01*
X409437Y210063*
X408563*
X407687Y209625*
X407250Y208750*
Y208313*
X407687Y207437*
X408563Y207000*
X409437*
X410313Y207437*
X410750Y208313*
Y210063D02*
Y206563D01*
X410313Y205687*
X409437Y205250*
X408125*
X407250Y205687*
X417750Y207000D02*
X417313Y206563D01*
X416437*
X415563*
X414687Y207000*
X414250Y207875*
Y209187*
X414687Y209625*
X415563Y210063*
X416437*
X417313Y209625*
X417750Y209187*
Y208750*
X417313Y208313*
X416437Y207875*
X415563*
X414687Y208313*
X414250Y208750*
X428250Y207875D02*
X428687Y207000D01*
X429563Y206563*
X430437*
X431313Y207000*
X431750Y207875*
Y208750*
X431313Y209625*
X430437Y210063*
X429563*
X428687Y209625*
X428250Y208750*
Y206563D02*
Y211813D01*
X435250Y210063D02*
Y207875D01*
X435687Y207000*
X436563Y206563*
X437437*
X438313Y207000*
X438750Y207875*
Y210063D02*
Y206563D01*
X443125Y210063D02*
X444875D01*
X444000Y210937D02*
Y207000D01*
X444437Y206563*
X444875*
X445313Y207000*
X450125Y210063D02*
X451875D01*
X451000Y210937D02*
Y207000D01*
X451437Y206563*
X451875*
X452313Y207000*
X456250Y207875D02*
X456687Y207000D01*
X457563Y206563*
X458437*
X459313Y207000*
X459750Y207875*
Y208750*
X459313Y209625*
X458437Y210063*
X457563*
X456687Y209625*
X456250Y208750*
Y207875*
X463250Y206563D02*
Y210063D01*
Y208750D02*
X463687Y209625D01*
X464563Y210063*
X465437*
X466313Y209625*
X466750Y208750*
Y206563*
X478125D02*
X479000Y211813D01*
X480750D02*
X479875Y206563D01*
X481187Y207875D02*
X477250D01*
X477687Y210500D02*
X481625D01*
X485125Y206563D02*
X486875D01*
X486000D02*
Y211813D01*
X485125Y210937*
X500000Y206563D02*
Y210937D01*
X500437Y211375*
X500875*
X501313Y210937*
X499125Y209625D02*
X500875D01*
X505250Y206563D02*
Y210063D01*
Y208750D02*
X505687Y209625D01*
X506563Y210063*
X507437*
X508313Y209625*
X512250Y207875D02*
X512687Y207000D01*
X513563Y206563*
X514437*
X515313Y207000*
X515750Y207875*
Y208750*
X515313Y209625*
X514437Y210063*
X513563*
X512687Y209625*
X512250Y208750*
Y207875*
X519250Y206563D02*
Y210063D01*
Y209625D02*
X519687Y210063D01*
X520563*
X521000Y209625*
Y208313*
Y209625D02*
X521437Y210063D01*
X522313*
X522750Y209625*
Y206563*
X533250Y210063D02*
Y205250D01*
Y207875D02*
X533687Y207000D01*
X534563Y206563*
X535437*
X536313Y207000*
X536750Y207875*
Y208750*
X536313Y209625*
X535437Y210063*
X534563*
X533687Y209625*
X533250Y208750*
Y207875*
X542000Y206563D02*
Y210063D01*
Y211375D02*
X547250Y206563*
Y210063D01*
Y208750D02*
X547687Y209625D01*
X548563Y210063*
X549437*
X550313Y209625*
X550750Y208750*
Y206563*
X555125D02*
X556875D01*
X556000D02*
Y211813D01*
X555125Y210937*
X561687Y207000D02*
X562563Y206563D01*
X563437*
X564313Y207000*
X564750Y207875*
X564313Y208750*
X563437Y209187*
X562563*
X563437D02*
X564313Y209625D01*
X564750Y210500*
X564313Y211375*
X563437Y211813*
X562563*
X561687Y211375*
X578313Y206563D02*
X577437Y207875D01*
Y210937*
X578313Y211813*
X582250Y206563D02*
Y211813D01*
X584875*
X585750Y211375*
X586187Y210937*
X586625Y210063*
Y208313*
X586187Y207437*
X585750Y207000*
X584875Y206563*
X582250*
X589250Y208313D02*
Y210063D01*
X589687Y210937*
X590125Y211375*
X591000Y211813*
X591875*
X592750Y211375*
X593187Y210937*
X593625Y210063*
Y208313*
X593187Y207437*
X592750Y207000*
X591875Y206563*
X591000*
X590125Y207000*
X589687Y207437*
X589250Y208313*
X596250Y206563D02*
Y211813D01*
X600625Y206563*
Y211813*
X603250Y206563D02*
Y211813D01*
X607625*
X606750Y209187D02*
X603250D01*
Y206563D02*
X607625D01*
X612000D02*
X612437Y207000D01*
Y207437*
X624250Y206563D02*
Y210063D01*
Y208750D02*
X624687Y209625D01*
X625563Y210063*
X626437*
X627313Y209625*
X627750Y208750*
Y206563*
X631250Y207875D02*
X631687Y207000D01*
X632563Y206563*
X633437*
X634313Y207000*
X634750Y207875*
Y208750*
X634313Y209625*
X633437Y210063*
X632563*
X631687Y209625*
X631250Y208750*
Y207875*
X638250Y210063D02*
Y207000D01*
X638687Y206563*
X639563*
X640000Y207000*
Y208313*
Y207000D02*
X640437Y206563D01*
X641313*
X641750Y207000*
Y210063*
X652250D02*
Y205250D01*
Y207875D02*
X652687Y207000D01*
X653563Y206563*
X654437*
X655313Y207000*
X655750Y207875*
Y208750*
X655313Y209625*
X654437Y210063*
X653563*
X652687Y209625*
X652250Y208750*
Y207875*
X661000Y206563D02*
Y210063D01*
Y211375D02*
X666250Y206563*
Y210063D01*
Y208750D02*
X666687Y209625D01*
X667563Y210063*
X668437*
X669313Y209625*
X669750Y208750*
Y206563*
X674125D02*
X675875D01*
X675000D02*
Y211813D01*
X674125Y210937*
X682437Y206563D02*
Y211813D01*
X680250Y208313*
X683750*
X694250Y207000D02*
X695125Y206563D01*
X696875*
X697750Y207000*
Y207875*
X696875Y208313*
X695125*
X694250Y208750*
Y209625*
X695125Y210063*
X696875*
X697750Y209625*
X701250Y207875D02*
X701687Y207000D01*
X702563Y206563*
X703437*
X704313Y207000*
X704750Y207875*
Y208750*
X704313Y209625*
X703437Y210063*
X702563*
X701687Y209625*
X701250Y208750*
Y207875*
X715250Y210063D02*
Y205250D01*
Y207875D02*
X715687Y207000D01*
X716563Y206563*
X717437*
X718313Y207000*
X718750Y207875*
Y208750*
X718313Y209625*
X717437Y210063*
X716563*
X715687Y209625*
X715250Y208750*
Y207875*
X722250Y210063D02*
Y207875D01*
X722687Y207000*
X723563Y206563*
X724437*
X725313Y207000*
X725750Y207875*
Y210063D02*
Y206563D01*
X731437D02*
X731000D01*
Y211813*
X738437Y206563D02*
X738000D01*
Y211813*
X743250Y210063D02*
Y207875D01*
X743687Y207000*
X744563Y206563*
X745437*
X746313Y207000*
X746750Y207875*
Y210063D02*
Y206563D01*
X750250Y210063D02*
Y205250D01*
Y207875D02*
X750687Y207000D01*
X751563Y206563*
X752437*
X753313Y207000*
X753750Y207875*
Y208750*
X753313Y209625*
X752437Y210063*
X751563*
X750687Y209625*
X750250Y208750*
Y207875*
X764250Y207000D02*
X765125Y206563D01*
X766875*
X767750Y207000*
Y207875*
X766875Y208313*
X765125*
X764250Y208750*
Y209625*
X765125Y210063*
X766875*
X767750Y209625*
X771250Y206563D02*
Y211813D01*
Y208750D02*
X771687Y209625D01*
X772563Y210063*
X773437*
X774313Y209625*
X774750Y208750*
Y206563*
X778250Y207875D02*
X778687Y207000D01*
X779563Y206563*
X780437*
X781313Y207000*
X781750Y207875*
Y208750*
X781313Y209625*
X780437Y210063*
X779563*
X778687Y209625*
X778250Y208750*
Y207875*
X785250Y210063D02*
Y207875D01*
X785687Y207000*
X786563Y206563*
X787437*
X788313Y207000*
X788750Y207875*
Y210063D02*
Y206563D01*
X794437D02*
X794000D01*
Y211813*
X802750Y208750D02*
X802313Y209625D01*
X801437Y210063*
X800563*
X799687Y209625*
X799250Y208750*
Y207875*
X799687Y207000*
X800563Y206563*
X801437*
X802313Y207000*
X802750Y207875*
Y206563D02*
Y211813D01*
X813250Y210063D02*
Y207000D01*
X813687Y206563*
X814563*
X815000Y207000*
Y208313*
Y207000D02*
X815437Y206563D01*
X816313*
X816750Y207000*
Y210063*
X820250Y207875D02*
X820687Y207000D01*
X821563Y206563*
X822437*
X823313Y207000*
X823750Y207875*
Y208750*
X823313Y209625*
X822437Y210063*
X821563*
X820687Y209625*
X820250Y208750*
Y207875*
X827250Y206563D02*
Y210063D01*
Y208750D02*
X827687Y209625D01*
X828563Y210063*
X829437*
X830313Y209625*
X834250Y206563D02*
Y211813D01*
Y208313D02*
X835563D01*
X837750Y210063*
X835563Y208313D02*
X837750Y206563D01*
X842563D02*
X843437Y207875D01*
Y210937*
X842563Y211813*
X380250Y160813D02*
X383750D01*
X394250Y162125D02*
X395125Y162563D01*
X396437*
X397313Y162125*
X397750Y161250*
Y159937*
X397313Y159500*
X396437Y159063*
X395563*
X394687Y159500*
X394250Y159937*
Y160375*
X394687Y160813*
X395563Y161250*
X396437*
X397313Y160813*
X397750Y160375*
Y159937D02*
Y159063D01*
X404750Y162125D02*
X403875Y162563D01*
X402563*
X401687Y162125*
X401250Y161250*
Y160375*
X401687Y159500*
X402563Y159063*
X403875*
X404750Y159500*
X409125Y162563D02*
X410875D01*
X410000Y163437D02*
Y159500D01*
X410437Y159063*
X410875*
X411313Y159500*
X415250Y162563D02*
Y160375D01*
X415687Y159500*
X416563Y159063*
X417437*
X418313Y159500*
X418750Y160375*
Y162563D02*
Y159063D01*
X422250Y162125D02*
X423125Y162563D01*
X424437*
X425313Y162125*
X425750Y161250*
Y159937*
X425313Y159500*
X424437Y159063*
X423563*
X422687Y159500*
X422250Y159937*
Y160375*
X422687Y160813*
X423563Y161250*
X424437*
X425313Y160813*
X425750Y160375*
Y159937D02*
Y159063D01*
X431437D02*
X431000D01*
Y164313*
X438437Y159063D02*
X438000D01*
Y164313*
X443250Y162563D02*
X443687Y160813D01*
X444563Y159937*
X445437*
X446313Y160813*
X446750Y162563*
X446313Y160813D02*
X445875Y159063D01*
X445437Y158187*
X444563Y157750*
X443687Y158187*
X457687D02*
X458563Y157750D01*
X459437Y158187*
X459875Y159063*
Y162563*
Y163875D02*
X464250Y162563*
Y160375D01*
X464687Y159500*
X465563Y159063*
X466437*
X467313Y159500*
X467750Y160375*
Y162563D02*
Y159063D01*
X471250Y159500D02*
X472125Y159063D01*
X473875*
X474750Y159500*
Y160375*
X473875Y160813*
X472125*
X471250Y161250*
Y162125*
X472125Y162563*
X473875*
X474750Y162125*
X479125Y162563D02*
X480875D01*
X480000Y163437D02*
Y159500D01*
X480437Y159063*
X480875*
X481313Y159500*
X492250Y159063D02*
Y162563D01*
Y162125D02*
X492687Y162563D01*
X493563*
X494000Y162125*
Y160813*
Y162125D02*
X494437Y162563D01*
X495313*
X495750Y162125*
Y159063*
X499250Y160375D02*
X499687Y159500D01*
X500563Y159063*
X501437*
X502313Y159500*
X502750Y160375*
Y161250*
X502313Y162125*
X501437Y162563*
X500563*
X499687Y162125*
X499250Y161250*
Y160375*
X506250Y162563D02*
X508000Y159063D01*
X509750Y162563*
X516750Y159500D02*
X516313Y159063D01*
X515437*
X514563*
X513687Y159500*
X513250Y160375*
Y161687*
X513687Y162125*
X514563Y162563*
X515437*
X516313Y162125*
X516750Y161687*
Y161250*
X516313Y160813*
X515437Y160375*
X514563*
X513687Y160813*
X513250Y161250*
X523750D02*
X523313Y162125D01*
X522437Y162563*
X521563*
X520687Y162125*
X520250Y161250*
Y160375*
X520687Y159500*
X521563Y159063*
X522437*
X523313Y159500*
X523750Y160375*
Y159063D02*
Y164313D01*
X534250Y162563D02*
Y160375D01*
X534687Y159500*
X535563Y159063*
X536437*
X537313Y159500*
X537750Y160375*
Y162563D02*
Y159063D01*
X541250Y162563D02*
Y157750D01*
Y160375D02*
X541687Y159500D01*
X542563Y159063*
X543437*
X544313Y159500*
X544750Y160375*
Y161250*
X544313Y162125*
X543437Y162563*
X542563*
X541687Y162125*
X541250Y161250*
Y160375*
X555250Y162563D02*
Y157750D01*
Y160375D02*
X555687Y159500D01*
X556563Y159063*
X557437*
X558313Y159500*
X558750Y160375*
Y161250*
X558313Y162125*
X557437Y162563*
X556563*
X555687Y162125*
X555250Y161250*
Y160375*
X562250D02*
X562687Y159500D01*
X563563Y159063*
X564437*
X565313Y159500*
X565750Y160375*
Y161250*
X565313Y162125*
X564437Y162563*
X563563*
X562687Y162125*
X562250Y161250*
Y160375*
X569250Y162563D02*
Y159500D01*
X569687Y159063*
X570563*
X571000Y159500*
Y160813*
Y159500D02*
X571437Y159063D01*
X572313*
X572750Y159500*
Y162563*
X579750Y159500D02*
X579313Y159063D01*
X578437*
X577563*
X576687Y159500*
X576250Y160375*
Y161687*
X576687Y162125*
X577563Y162563*
X578437*
X579313Y162125*
X579750Y161687*
Y161250*
X579313Y160813*
X578437Y160375*
X577563*
X576687Y160813*
X576250Y161250*
X583250Y159063D02*
Y162563D01*
Y161250D02*
X583687Y162125D01*
X584563Y162563*
X585437*
X586313Y162125*
X597250Y162563D02*
Y157750D01*
Y160375D02*
X597687Y159500D01*
X598563Y159063*
X599437*
X600313Y159500*
X600750Y160375*
Y161250*
X600313Y162125*
X599437Y162563*
X598563*
X597687Y162125*
X597250Y161250*
Y160375*
X606437Y159063D02*
X606000D01*
Y164313*
X611250Y162563D02*
Y160375D01*
X611687Y159500*
X612563Y159063*
X613437*
X614313Y159500*
X614750Y160375*
Y162563D02*
Y159063D01*
X621750Y161250D02*
X621313Y162125D01*
X620437Y162563*
X619563*
X618687Y162125*
X618250Y161250*
Y160813*
X618687Y159937*
X619563Y159500*
X620437*
X621313Y159937*
X621750Y160813*
Y162563D02*
Y159063D01*
X621313Y158187*
X620437Y157750*
X619125*
X618250Y158187*
D02*
D91*
X32750Y233000D02*
Y236000D01*
X33500Y237500*
X34250Y238250*
X35750Y239000*
X37250*
X38750Y238250*
X39500Y237500*
X40250Y236000*
Y233000*
X39500Y231500*
X38750Y230750*
X37250Y230000*
X35750*
X34250Y230750*
X33500Y231500*
X32750Y233000*
X44750Y230000D02*
Y239000D01*
X48500Y234500*
X52250Y239000*
Y230000*
X56750Y236000D02*
Y230750D01*
X57500Y230000*
X59000*
X59750Y230750*
Y233000*
Y230750D02*
X60500Y230000D01*
X62000*
X62750Y230750*
Y236000*
X68750Y232250D02*
X69500Y230750D01*
X71000Y230000*
X74000*
X75500Y230750*
X76250Y232250*
X75500Y233750*
X74000Y234500*
X71000*
X69500Y235250*
X68750Y236750*
X69500Y238250*
X71000Y239000*
X74000*
X75500Y238250*
X76250Y236750*
X80750Y230000D02*
Y236000D01*
Y235250D02*
X81500Y236000D01*
X83000*
X83750Y235250*
Y233000*
Y235250D02*
X84500Y236000D01*
X86000*
X86750Y235250*
Y230000*
X92750Y235250D02*
X94250Y236000D01*
X96500*
X98000Y235250*
X98750Y233750*
Y231500*
X98000Y230750*
X96500Y230000*
X95000*
X93500Y230750*
X92750Y231500*
Y232250*
X93500Y233000*
X95000Y233750*
X96500*
X98000Y233000*
X98750Y232250*
Y231500D02*
Y230000D01*
X108500D02*
X107750D01*
Y239000*
X120500Y230000D02*
X119750D01*
Y239000*
X0Y0D02*
M02*
