%FSLAX35Y35*%
%MOIN*%
G04 EasyPC Gerber Version 18.0.8 Build 3632 *
%ADD24C,0.01500*%
%ADD92C,0.04800*%
%ADD70C,0.06000*%
%ADD77C,0.07000*%
X0Y0D02*
D02*
D70*
X15250Y37750D03*
Y47750D03*
Y57750D03*
Y67750D03*
Y77750D03*
X27750Y82750D03*
Y92750D03*
Y102750D03*
Y112750D03*
Y122750D03*
Y132750D03*
Y142750D03*
Y152750D03*
X30250Y67750D03*
X37750Y82750D03*
Y92750D03*
Y102750D03*
Y112750D03*
Y122750D03*
Y132750D03*
Y142750D03*
Y152750D03*
X40250Y67750D03*
X50250D03*
Y82750D03*
Y92750D03*
Y102750D03*
Y112750D03*
Y122750D03*
Y132750D03*
Y142750D03*
Y152750D03*
Y162750D03*
X60250Y172750D03*
Y182750D03*
Y192750D03*
Y202750D03*
X70250Y172750D03*
Y182750D03*
Y192750D03*
Y202750D03*
Y217750D03*
X80250Y82750D03*
Y92750D03*
Y102750D03*
Y112750D03*
Y122750D03*
Y132750D03*
Y142750D03*
Y152750D03*
Y162750D03*
Y172750D03*
Y182750D03*
Y192750D03*
Y202750D03*
Y217750D03*
X90250Y82750D03*
Y92750D03*
Y102750D03*
Y112750D03*
Y122750D03*
Y132750D03*
Y142750D03*
Y152750D03*
Y162750D03*
Y172750D03*
Y182750D03*
Y192750D03*
Y202750D03*
Y217750D03*
X100250Y82750D03*
Y92750D03*
Y102750D03*
Y112750D03*
Y122750D03*
Y132750D03*
Y142750D03*
Y152750D03*
Y162750D03*
Y172750D03*
Y182750D03*
Y192750D03*
Y202750D03*
X125250Y17750D03*
Y27750D03*
Y42750D03*
Y52750D03*
Y62750D03*
Y72750D03*
Y82750D03*
Y92750D03*
Y102750D03*
Y112750D03*
Y122750D03*
Y132750D03*
Y142750D03*
Y152750D03*
Y162750D03*
Y172750D03*
Y182750D03*
Y192750D03*
Y202750D03*
Y212750D03*
Y222750D03*
X135250Y42750D03*
Y52750D03*
Y62750D03*
Y72750D03*
Y82750D03*
Y92750D03*
Y102750D03*
Y112750D03*
Y122750D03*
Y132750D03*
Y142750D03*
Y152750D03*
Y162750D03*
Y172750D03*
Y182750D03*
Y192750D03*
Y202750D03*
Y212750D03*
Y222750D03*
X155250Y82750D03*
Y172750D03*
X165250Y82750D03*
Y172750D03*
X170250Y212750D03*
X175250Y82750D03*
Y172750D03*
X180250Y185250D03*
Y202750D03*
Y212750D03*
X185250Y82750D03*
Y172750D03*
X195250Y82750D03*
Y172750D03*
X205250Y82750D03*
Y172750D03*
X215250Y185250D03*
Y202750D03*
X217750Y17750D03*
X225250Y42750D03*
Y52750D03*
Y62750D03*
Y72750D03*
Y82750D03*
Y92750D03*
Y102750D03*
Y112750D03*
Y122750D03*
Y132750D03*
Y142750D03*
Y152750D03*
Y162750D03*
Y172750D03*
Y182750D03*
Y192750D03*
Y202750D03*
Y212750D03*
Y222750D03*
X227750Y17750D03*
X237750D03*
X247750D03*
X250250Y72750D03*
Y82750D03*
Y92750D03*
Y102750D03*
Y112750D03*
Y122750D03*
Y155250D03*
Y170250D03*
Y212750D03*
X257750Y17750D03*
X260250Y72750D03*
Y82750D03*
Y92750D03*
Y102750D03*
Y112750D03*
Y122750D03*
Y137750D03*
Y155250D03*
Y170250D03*
Y212750D03*
X267750Y17750D03*
X270250Y72750D03*
Y82750D03*
Y92750D03*
Y102750D03*
Y112750D03*
Y122750D03*
Y137750D03*
Y155250D03*
Y170250D03*
Y185250D03*
Y197750D03*
Y212750D03*
X277750Y17750D03*
X280250Y72750D03*
Y82750D03*
Y92750D03*
Y102750D03*
Y112750D03*
Y122750D03*
Y137750D03*
Y155250D03*
Y170250D03*
Y185250D03*
Y197750D03*
Y212750D03*
X287750Y17750D03*
X290250Y72750D03*
Y82750D03*
Y92750D03*
Y102750D03*
Y112750D03*
Y122750D03*
Y155250D03*
Y170250D03*
Y185250D03*
Y197750D03*
Y212750D03*
X300250Y82750D03*
Y92750D03*
Y102750D03*
Y112750D03*
Y122750D03*
Y155250D03*
Y170250D03*
Y185250D03*
Y197750D03*
Y212750D03*
D02*
D24*
X15250Y67750D02*
Y72750D01*
X60250*
Y102750*
X80250*
X50250Y67750D02*
Y62750D01*
X62750*
Y65250*
X77750*
X60250Y172750D02*
Y167750D01*
X90250*
X60250Y182750D02*
Y172750D01*
Y192750D02*
Y182750D01*
Y202750D02*
Y192750D01*
X70250Y182750D02*
Y172750D01*
Y192750D02*
Y182750D01*
Y202750D02*
Y192750D01*
Y202750D02*
Y207750D01*
X80250*
X70250Y217750D02*
X35250D01*
Y162750*
X20250*
Y87750*
X10250*
Y47750*
X15250*
X77750Y45250D02*
X27750D01*
Y55250*
X77750Y45250D02*
X85250D01*
Y55250*
X97750*
X77750Y65250D02*
X110250D01*
Y42750*
X80250Y162750D02*
X90250D01*
X80250Y207750D02*
X100250D01*
Y202750*
X80250Y207750D02*
Y217750D01*
X85250Y222750D02*
X70250D01*
Y217750*
X90250Y92750D02*
Y82750D01*
Y102750D02*
Y92750D01*
Y112750D02*
Y102750D01*
Y122750D02*
Y112750D01*
Y132750D02*
Y122750D01*
Y142750D02*
Y132750D01*
Y152750D02*
Y142750D01*
Y162750D02*
Y152750D01*
Y167750D02*
Y162750D01*
Y172750D02*
Y167750D01*
Y182750D02*
Y172750D01*
Y192750D02*
Y182750D01*
Y202750D02*
Y192750D01*
Y217750D02*
X117750D01*
Y47750*
X125250*
Y42750*
X100250Y92750D02*
X90250D01*
X100250Y172750D02*
Y182750D01*
Y192750*
Y202750D02*
Y192750D01*
X110250Y22750D02*
Y17750D01*
X125250*
X110250Y32750D02*
X97750D01*
Y55250*
X125250Y27750D02*
X135250D01*
Y12750*
X82750*
Y37750*
X20250*
Y62750*
X30250*
Y67750*
X125250Y42750D02*
X135250D01*
X125250Y52750D02*
X135250D01*
X125250Y62750D02*
X135250D01*
X125250Y72750D02*
X135250D01*
X125250Y82750D02*
X135250D01*
X125250Y92750D02*
X135250D01*
X125250Y102750D02*
X135250D01*
X125250Y112750D02*
X135250D01*
X125250Y122750D02*
X135250D01*
X125250Y132750D02*
X135250D01*
X125250Y142750D02*
X135250D01*
X125250Y152750D02*
X135250D01*
X125250Y162750D02*
X135250D01*
X125250Y172750D02*
X135250D01*
X125250Y182750D02*
X135250D01*
X125250Y192750D02*
X135250D01*
X125250Y202750D02*
X135250D01*
X125250Y212750D02*
X135250D01*
X125250Y222750D02*
X135250D01*
X125250D02*
Y230250D01*
X250250*
Y225250*
X125250Y222750D02*
X85250D01*
X135250Y92750D02*
X142750D01*
Y90250*
X155250*
Y82750*
X135250Y162750D02*
X145250D01*
Y195250*
X200250*
Y197750*
X260250*
Y212750*
X135250D02*
X170250D01*
X155250Y172750D02*
Y130250D01*
X157750*
Y95250*
X165250*
Y82750*
X185250D02*
Y77750D01*
X170250*
Y157750*
X175250*
Y172750*
X225250Y72750D02*
X237750D01*
Y57750*
X245250*
Y40250*
X250250*
Y25250*
X262750*
Y17750*
X267750*
X225250Y82750D02*
X237750D01*
Y77750*
X242750*
Y60250*
X250250*
Y47750*
X260250*
Y42750*
X265250*
Y27750*
X270250*
Y22750*
X277750*
Y17750*
X225250Y102750D02*
X237750D01*
X225250Y132750D02*
Y127750D01*
X210250*
Y115250*
X205250*
Y82750*
X225250Y142750D02*
Y137750D01*
X205250*
Y120250*
X195250*
Y82750*
X225250Y152750D02*
Y147750D01*
X175250*
Y82750*
X237750Y102750D02*
X245250D01*
Y62750*
X275250*
Y27750*
X282750*
Y22750*
X287750*
Y17750*
X242750Y147750D02*
X260250D01*
Y155250*
X250250Y72750D02*
Y67750D01*
X280250*
Y72750*
X250250Y82750D02*
Y72750D01*
Y92750D02*
Y82750D01*
Y102750D02*
Y92750D01*
Y112750D02*
Y102750D01*
Y122750D02*
Y112750D01*
Y170250D02*
X237750D01*
Y102750*
X250250Y225250D02*
Y212750D01*
X260250Y82750D02*
Y72750D01*
Y92750D02*
Y82750D01*
Y102750D02*
Y92750D01*
Y112750D02*
Y102750D01*
Y112750D02*
Y122750D01*
Y127750*
X270250*
X260250Y137750D02*
Y145250D01*
X290250*
Y147750*
X260250Y170250D02*
Y155250D01*
X270250Y127750D02*
X290250D01*
Y122750*
X270250Y137750D02*
Y127750D01*
Y170250D02*
Y155250D01*
Y192750D02*
Y185250D01*
Y212750D02*
X265250D01*
Y192750*
X270250*
X280250Y82750D02*
Y72750D01*
Y92750D02*
Y82750D01*
Y102750D02*
Y92750D01*
Y112750D02*
Y102750D01*
Y122750D02*
Y112750D01*
Y137750D02*
X295250D01*
Y82750*
X280250Y170250D02*
Y155250D01*
Y185250D02*
Y190250D01*
X300250*
Y197750*
X280250Y185250D02*
Y177750D01*
X232750*
Y172750*
X225250*
X280250Y197750D02*
Y205250D01*
X275250*
Y225250*
X250250*
X280250Y212750D02*
X285250D01*
Y205250*
X300250*
Y197750*
X290250Y72750D02*
Y82750D01*
Y92750*
Y102750*
Y112750*
Y122750*
Y147750D02*
Y155250D01*
Y170250D02*
Y185250D01*
Y170250D02*
Y155250D01*
Y197750D02*
Y192750D01*
X270250*
X295250Y82750D02*
X300250D01*
Y92750D02*
X305250D01*
Y147750*
X290250*
X300250Y170250D02*
Y155250D01*
Y185250D02*
X305250D01*
X300250Y212750D02*
X305250D01*
Y185250*
Y170250*
X300250*
D02*
D77*
X25250Y182750D03*
Y207750D03*
X27750Y30250D03*
Y55250D03*
X45250Y182750D03*
Y207750D03*
X47750Y30250D03*
Y55250D03*
X77750Y45250D03*
Y65250D03*
X97750Y55250D03*
X110250Y22750D03*
Y32750D03*
Y42750D03*
X257750Y35250D03*
Y55250D03*
X282750Y35250D03*
Y55250D03*
D02*
D92*
X242750Y147750D03*
X0Y0D02*
M02*
