%FSLAX35Y35*%
%MOIN*%
G04 EasyPC Gerber Version 18.0.8 Build 3632 *
%ADD11C,0.00500*%
%ADD75C,0.10000*%
X0Y0D02*
D02*
D11*
X28375Y44313D02*
X28063Y44000D01*
X27437Y43687*
X26500*
X25875Y44000*
X25563Y44313*
X25250Y44937*
Y46187*
X25563Y46813*
X25875Y47125*
X26500Y47437*
X27437*
X28063Y47125*
X28375Y46813*
Y54313D02*
X28063Y54000D01*
X27437Y53687*
X26500*
X25875Y54000*
X25563Y54313*
X25250Y54937*
Y56187*
X25563Y56813*
X25875Y57125*
X26500Y57437*
X27437*
X28063Y57125*
X28375Y56813*
Y64313D02*
X28063Y64000D01*
X27437Y63687*
X26500*
X25875Y64000*
X25563Y64313*
X25250Y64937*
Y66187*
X25563Y66813*
X25875Y67125*
X26500Y67437*
X27437*
X28063Y67125*
X28375Y66813*
Y74313D02*
X28063Y74000D01*
X27437Y73687*
X26500*
X25875Y74000*
X25563Y74313*
X25250Y74937*
Y76187*
X25563Y76813*
X25875Y77125*
X26500Y77437*
X27437*
X28063Y77125*
X28375Y76813*
Y84313D02*
X28063Y84000D01*
X27437Y83687*
X26500*
X25875Y84000*
X25563Y84313*
X25250Y84937*
Y86187*
X25563Y86813*
X25875Y87125*
X26500Y87437*
X27437*
X28063Y87125*
X28375Y86813*
X35250Y188687D02*
Y192437D01*
Y190563D02*
X38375D01*
Y188687D02*
Y192437D01*
X35250Y213687D02*
Y217437D01*
Y215563D02*
X38375D01*
Y213687D02*
Y217437D01*
X37750Y36187D02*
Y39937D01*
Y38063D02*
X40875D01*
Y36187D02*
Y39937D01*
X37750Y61187D02*
Y64937D01*
Y63063D02*
X40875D01*
Y61187D02*
Y64937D01*
Y89313D02*
X40563Y89000D01*
X39937Y88687*
X39000*
X38375Y89000*
X38063Y89313*
X37750Y89937*
Y91187*
X38063Y91813*
X38375Y92125*
X39000Y92437*
X39937*
X40563Y92125*
X40875Y91813*
Y99313D02*
X40563Y99000D01*
X39937Y98687*
X39000*
X38375Y99000*
X38063Y99313*
X37750Y99937*
Y101187*
X38063Y101813*
X38375Y102125*
X39000Y102437*
X39937*
X40563Y102125*
X40875Y101813*
Y109313D02*
X40563Y109000D01*
X39937Y108687*
X39000*
X38375Y109000*
X38063Y109313*
X37750Y109937*
Y111187*
X38063Y111813*
X38375Y112125*
X39000Y112437*
X39937*
X40563Y112125*
X40875Y111813*
Y119313D02*
X40563Y119000D01*
X39937Y118687*
X39000*
X38375Y119000*
X38063Y119313*
X37750Y119937*
Y121187*
X38063Y121813*
X38375Y122125*
X39000Y122437*
X39937*
X40563Y122125*
X40875Y121813*
Y129313D02*
X40563Y129000D01*
X39937Y128687*
X39000*
X38375Y129000*
X38063Y129313*
X37750Y129937*
Y131187*
X38063Y131813*
X38375Y132125*
X39000Y132437*
X39937*
X40563Y132125*
X40875Y131813*
Y139313D02*
X40563Y139000D01*
X39937Y138687*
X39000*
X38375Y139000*
X38063Y139313*
X37750Y139937*
Y141187*
X38063Y141813*
X38375Y142125*
X39000Y142437*
X39937*
X40563Y142125*
X40875Y141813*
Y149313D02*
X40563Y149000D01*
X39937Y148687*
X39000*
X38375Y149000*
X38063Y149313*
X37750Y149937*
Y151187*
X38063Y151813*
X38375Y152125*
X39000Y152437*
X39937*
X40563Y152125*
X40875Y151813*
Y159313D02*
X40563Y159000D01*
X39937Y158687*
X39000*
X38375Y159000*
X38063Y159313*
X37750Y159937*
Y161187*
X38063Y161813*
X38375Y162125*
X39000Y162437*
X39937*
X40563Y162125*
X40875Y161813*
X43375Y74313D02*
X43063Y74000D01*
X42437Y73687*
X41500*
X40875Y74000*
X40563Y74313*
X40250Y74937*
Y76187*
X40563Y76813*
X40875Y77125*
X41500Y77437*
X42437*
X43063Y77125*
X43375Y76813*
X50875Y89313D02*
X50563Y89000D01*
X49937Y88687*
X49000*
X48375Y89000*
X48063Y89313*
X47750Y89937*
Y91187*
X48063Y91813*
X48375Y92125*
X49000Y92437*
X49937*
X50563Y92125*
X50875Y91813*
Y99313D02*
X50563Y99000D01*
X49937Y98687*
X49000*
X48375Y99000*
X48063Y99313*
X47750Y99937*
Y101187*
X48063Y101813*
X48375Y102125*
X49000Y102437*
X49937*
X50563Y102125*
X50875Y101813*
Y109313D02*
X50563Y109000D01*
X49937Y108687*
X49000*
X48375Y109000*
X48063Y109313*
X47750Y109937*
Y111187*
X48063Y111813*
X48375Y112125*
X49000Y112437*
X49937*
X50563Y112125*
X50875Y111813*
Y119313D02*
X50563Y119000D01*
X49937Y118687*
X49000*
X48375Y119000*
X48063Y119313*
X47750Y119937*
Y121187*
X48063Y121813*
X48375Y122125*
X49000Y122437*
X49937*
X50563Y122125*
X50875Y121813*
Y129313D02*
X50563Y129000D01*
X49937Y128687*
X49000*
X48375Y129000*
X48063Y129313*
X47750Y129937*
Y131187*
X48063Y131813*
X48375Y132125*
X49000Y132437*
X49937*
X50563Y132125*
X50875Y131813*
Y139313D02*
X50563Y139000D01*
X49937Y138687*
X49000*
X48375Y139000*
X48063Y139313*
X47750Y139937*
Y141187*
X48063Y141813*
X48375Y142125*
X49000Y142437*
X49937*
X50563Y142125*
X50875Y141813*
Y149313D02*
X50563Y149000D01*
X49937Y148687*
X49000*
X48375Y149000*
X48063Y149313*
X47750Y149937*
Y151187*
X48063Y151813*
X48375Y152125*
X49000Y152437*
X49937*
X50563Y152125*
X50875Y151813*
Y159313D02*
X50563Y159000D01*
X49937Y158687*
X49000*
X48375Y159000*
X48063Y159313*
X47750Y159937*
Y161187*
X48063Y161813*
X48375Y162125*
X49000Y162437*
X49937*
X50563Y162125*
X50875Y161813*
X53375Y74313D02*
X53063Y74000D01*
X52437Y73687*
X51500*
X50875Y74000*
X50563Y74313*
X50250Y74937*
Y76187*
X50563Y76813*
X50875Y77125*
X51500Y77437*
X52437*
X53063Y77125*
X53375Y76813*
X55250Y188687D02*
Y192437D01*
Y190563D02*
X58375D01*
Y188687D02*
Y192437D01*
X55250Y213687D02*
Y217437D01*
Y215563D02*
X58375D01*
Y213687D02*
Y217437D01*
X57750Y36187D02*
Y39937D01*
Y38063D02*
X60875D01*
Y36187D02*
Y39937D01*
X57750Y61187D02*
Y64937D01*
Y63063D02*
X60875D01*
Y61187D02*
Y64937D01*
X63375Y74313D02*
X63063Y74000D01*
X62437Y73687*
X61500*
X60875Y74000*
X60563Y74313*
X60250Y74937*
Y76187*
X60563Y76813*
X60875Y77125*
X61500Y77437*
X62437*
X63063Y77125*
X63375Y76813*
Y89313D02*
X63063Y89000D01*
X62437Y88687*
X61500*
X60875Y89000*
X60563Y89313*
X60250Y89937*
Y91187*
X60563Y91813*
X60875Y92125*
X61500Y92437*
X62437*
X63063Y92125*
X63375Y91813*
Y99313D02*
X63063Y99000D01*
X62437Y98687*
X61500*
X60875Y99000*
X60563Y99313*
X60250Y99937*
Y101187*
X60563Y101813*
X60875Y102125*
X61500Y102437*
X62437*
X63063Y102125*
X63375Y101813*
Y109313D02*
X63063Y109000D01*
X62437Y108687*
X61500*
X60875Y109000*
X60563Y109313*
X60250Y109937*
Y111187*
X60563Y111813*
X60875Y112125*
X61500Y112437*
X62437*
X63063Y112125*
X63375Y111813*
Y119313D02*
X63063Y119000D01*
X62437Y118687*
X61500*
X60875Y119000*
X60563Y119313*
X60250Y119937*
Y121187*
X60563Y121813*
X60875Y122125*
X61500Y122437*
X62437*
X63063Y122125*
X63375Y121813*
Y129313D02*
X63063Y129000D01*
X62437Y128687*
X61500*
X60875Y129000*
X60563Y129313*
X60250Y129937*
Y131187*
X60563Y131813*
X60875Y132125*
X61500Y132437*
X62437*
X63063Y132125*
X63375Y131813*
Y139313D02*
X63063Y139000D01*
X62437Y138687*
X61500*
X60875Y139000*
X60563Y139313*
X60250Y139937*
Y141187*
X60563Y141813*
X60875Y142125*
X61500Y142437*
X62437*
X63063Y142125*
X63375Y141813*
Y149313D02*
X63063Y149000D01*
X62437Y148687*
X61500*
X60875Y149000*
X60563Y149313*
X60250Y149937*
Y151187*
X60563Y151813*
X60875Y152125*
X61500Y152437*
X62437*
X63063Y152125*
X63375Y151813*
Y159313D02*
X63063Y159000D01*
X62437Y158687*
X61500*
X60875Y159000*
X60563Y159313*
X60250Y159937*
Y161187*
X60563Y161813*
X60875Y162125*
X61500Y162437*
X62437*
X63063Y162125*
X63375Y161813*
Y169313D02*
X63063Y169000D01*
X62437Y168687*
X61500*
X60875Y169000*
X60563Y169313*
X60250Y169937*
Y171187*
X60563Y171813*
X60875Y172125*
X61500Y172437*
X62437*
X63063Y172125*
X63375Y171813*
X73375Y179313D02*
X73063Y179000D01*
X72437Y178687*
X71500*
X70875Y179000*
X70563Y179313*
X70250Y179937*
Y181187*
X70563Y181813*
X70875Y182125*
X71500Y182437*
X72437*
X73063Y182125*
X73375Y181813*
Y189313D02*
X73063Y189000D01*
X72437Y188687*
X71500*
X70875Y189000*
X70563Y189313*
X70250Y189937*
Y191187*
X70563Y191813*
X70875Y192125*
X71500Y192437*
X72437*
X73063Y192125*
X73375Y191813*
Y199313D02*
X73063Y199000D01*
X72437Y198687*
X71500*
X70875Y199000*
X70563Y199313*
X70250Y199937*
Y201187*
X70563Y201813*
X70875Y202125*
X71500Y202437*
X72437*
X73063Y202125*
X73375Y201813*
Y209313D02*
X73063Y209000D01*
X72437Y208687*
X71500*
X70875Y209000*
X70563Y209313*
X70250Y209937*
Y211187*
X70563Y211813*
X70875Y212125*
X71500Y212437*
X72437*
X73063Y212125*
X73375Y211813*
X83375Y179313D02*
X83063Y179000D01*
X82437Y178687*
X81500*
X80875Y179000*
X80563Y179313*
X80250Y179937*
Y181187*
X80563Y181813*
X80875Y182125*
X81500Y182437*
X82437*
X83063Y182125*
X83375Y181813*
Y189313D02*
X83063Y189000D01*
X82437Y188687*
X81500*
X80875Y189000*
X80563Y189313*
X80250Y189937*
Y191187*
X80563Y191813*
X80875Y192125*
X81500Y192437*
X82437*
X83063Y192125*
X83375Y191813*
Y199313D02*
X83063Y199000D01*
X82437Y198687*
X81500*
X80875Y199000*
X80563Y199313*
X80250Y199937*
Y201187*
X80563Y201813*
X80875Y202125*
X81500Y202437*
X82437*
X83063Y202125*
X83375Y201813*
Y209313D02*
X83063Y209000D01*
X82437Y208687*
X81500*
X80875Y209000*
X80563Y209313*
X80250Y209937*
Y211187*
X80563Y211813*
X80875Y212125*
X81500Y212437*
X82437*
X83063Y212125*
X83375Y211813*
Y224313D02*
X83063Y224000D01*
X82437Y223687*
X81500*
X80875Y224000*
X80563Y224313*
X80250Y224937*
Y226187*
X80563Y226813*
X80875Y227125*
X81500Y227437*
X82437*
X83063Y227125*
X83375Y226813*
X87750Y51187D02*
Y54937D01*
Y53063D02*
X90875D01*
Y51187D02*
Y54937D01*
X87750Y71187D02*
Y74937D01*
Y73063D02*
X90875D01*
Y71187D02*
Y74937D01*
X93375Y89313D02*
X93063Y89000D01*
X92437Y88687*
X91500*
X90875Y89000*
X90563Y89313*
X90250Y89937*
Y91187*
X90563Y91813*
X90875Y92125*
X91500Y92437*
X92437*
X93063Y92125*
X93375Y91813*
Y99313D02*
X93063Y99000D01*
X92437Y98687*
X91500*
X90875Y99000*
X90563Y99313*
X90250Y99937*
Y101187*
X90563Y101813*
X90875Y102125*
X91500Y102437*
X92437*
X93063Y102125*
X93375Y101813*
Y109313D02*
X93063Y109000D01*
X92437Y108687*
X91500*
X90875Y109000*
X90563Y109313*
X90250Y109937*
Y111187*
X90563Y111813*
X90875Y112125*
X91500Y112437*
X92437*
X93063Y112125*
X93375Y111813*
Y119313D02*
X93063Y119000D01*
X92437Y118687*
X91500*
X90875Y119000*
X90563Y119313*
X90250Y119937*
Y121187*
X90563Y121813*
X90875Y122125*
X91500Y122437*
X92437*
X93063Y122125*
X93375Y121813*
Y129313D02*
X93063Y129000D01*
X92437Y128687*
X91500*
X90875Y129000*
X90563Y129313*
X90250Y129937*
Y131187*
X90563Y131813*
X90875Y132125*
X91500Y132437*
X92437*
X93063Y132125*
X93375Y131813*
Y139313D02*
X93063Y139000D01*
X92437Y138687*
X91500*
X90875Y139000*
X90563Y139313*
X90250Y139937*
Y141187*
X90563Y141813*
X90875Y142125*
X91500Y142437*
X92437*
X93063Y142125*
X93375Y141813*
Y149313D02*
X93063Y149000D01*
X92437Y148687*
X91500*
X90875Y149000*
X90563Y149313*
X90250Y149937*
Y151187*
X90563Y151813*
X90875Y152125*
X91500Y152437*
X92437*
X93063Y152125*
X93375Y151813*
Y159313D02*
X93063Y159000D01*
X92437Y158687*
X91500*
X90875Y159000*
X90563Y159313*
X90250Y159937*
Y161187*
X90563Y161813*
X90875Y162125*
X91500Y162437*
X92437*
X93063Y162125*
X93375Y161813*
Y169313D02*
X93063Y169000D01*
X92437Y168687*
X91500*
X90875Y169000*
X90563Y169313*
X90250Y169937*
Y171187*
X90563Y171813*
X90875Y172125*
X91500Y172437*
X92437*
X93063Y172125*
X93375Y171813*
Y179313D02*
X93063Y179000D01*
X92437Y178687*
X91500*
X90875Y179000*
X90563Y179313*
X90250Y179937*
Y181187*
X90563Y181813*
X90875Y182125*
X91500Y182437*
X92437*
X93063Y182125*
X93375Y181813*
Y189313D02*
X93063Y189000D01*
X92437Y188687*
X91500*
X90875Y189000*
X90563Y189313*
X90250Y189937*
Y191187*
X90563Y191813*
X90875Y192125*
X91500Y192437*
X92437*
X93063Y192125*
X93375Y191813*
Y199313D02*
X93063Y199000D01*
X92437Y198687*
X91500*
X90875Y199000*
X90563Y199313*
X90250Y199937*
Y201187*
X90563Y201813*
X90875Y202125*
X91500Y202437*
X92437*
X93063Y202125*
X93375Y201813*
Y209313D02*
X93063Y209000D01*
X92437Y208687*
X91500*
X90875Y209000*
X90563Y209313*
X90250Y209937*
Y211187*
X90563Y211813*
X90875Y212125*
X91500Y212437*
X92437*
X93063Y212125*
X93375Y211813*
Y224313D02*
X93063Y224000D01*
X92437Y223687*
X91500*
X90875Y224000*
X90563Y224313*
X90250Y224937*
Y226187*
X90563Y226813*
X90875Y227125*
X91500Y227437*
X92437*
X93063Y227125*
X93375Y226813*
X103375Y89313D02*
X103063Y89000D01*
X102437Y88687*
X101500*
X100875Y89000*
X100563Y89313*
X100250Y89937*
Y91187*
X100563Y91813*
X100875Y92125*
X101500Y92437*
X102437*
X103063Y92125*
X103375Y91813*
Y99313D02*
X103063Y99000D01*
X102437Y98687*
X101500*
X100875Y99000*
X100563Y99313*
X100250Y99937*
Y101187*
X100563Y101813*
X100875Y102125*
X101500Y102437*
X102437*
X103063Y102125*
X103375Y101813*
Y109313D02*
X103063Y109000D01*
X102437Y108687*
X101500*
X100875Y109000*
X100563Y109313*
X100250Y109937*
Y111187*
X100563Y111813*
X100875Y112125*
X101500Y112437*
X102437*
X103063Y112125*
X103375Y111813*
Y119313D02*
X103063Y119000D01*
X102437Y118687*
X101500*
X100875Y119000*
X100563Y119313*
X100250Y119937*
Y121187*
X100563Y121813*
X100875Y122125*
X101500Y122437*
X102437*
X103063Y122125*
X103375Y121813*
Y129313D02*
X103063Y129000D01*
X102437Y128687*
X101500*
X100875Y129000*
X100563Y129313*
X100250Y129937*
Y131187*
X100563Y131813*
X100875Y132125*
X101500Y132437*
X102437*
X103063Y132125*
X103375Y131813*
Y139313D02*
X103063Y139000D01*
X102437Y138687*
X101500*
X100875Y139000*
X100563Y139313*
X100250Y139937*
Y141187*
X100563Y141813*
X100875Y142125*
X101500Y142437*
X102437*
X103063Y142125*
X103375Y141813*
Y149313D02*
X103063Y149000D01*
X102437Y148687*
X101500*
X100875Y149000*
X100563Y149313*
X100250Y149937*
Y151187*
X100563Y151813*
X100875Y152125*
X101500Y152437*
X102437*
X103063Y152125*
X103375Y151813*
Y159313D02*
X103063Y159000D01*
X102437Y158687*
X101500*
X100875Y159000*
X100563Y159313*
X100250Y159937*
Y161187*
X100563Y161813*
X100875Y162125*
X101500Y162437*
X102437*
X103063Y162125*
X103375Y161813*
Y169313D02*
X103063Y169000D01*
X102437Y168687*
X101500*
X100875Y169000*
X100563Y169313*
X100250Y169937*
Y171187*
X100563Y171813*
X100875Y172125*
X101500Y172437*
X102437*
X103063Y172125*
X103375Y171813*
Y179313D02*
X103063Y179000D01*
X102437Y178687*
X101500*
X100875Y179000*
X100563Y179313*
X100250Y179937*
Y181187*
X100563Y181813*
X100875Y182125*
X101500Y182437*
X102437*
X103063Y182125*
X103375Y181813*
Y189313D02*
X103063Y189000D01*
X102437Y188687*
X101500*
X100875Y189000*
X100563Y189313*
X100250Y189937*
Y191187*
X100563Y191813*
X100875Y192125*
X101500Y192437*
X102437*
X103063Y192125*
X103375Y191813*
Y199313D02*
X103063Y199000D01*
X102437Y198687*
X101500*
X100875Y199000*
X100563Y199313*
X100250Y199937*
Y201187*
X100563Y201813*
X100875Y202125*
X101500Y202437*
X102437*
X103063Y202125*
X103375Y201813*
Y209313D02*
X103063Y209000D01*
X102437Y208687*
X101500*
X100875Y209000*
X100563Y209313*
X100250Y209937*
Y211187*
X100563Y211813*
X100875Y212125*
X101500Y212437*
X102437*
X103063Y212125*
X103375Y211813*
Y224313D02*
X103063Y224000D01*
X102437Y223687*
X101500*
X100875Y224000*
X100563Y224313*
X100250Y224937*
Y226187*
X100563Y226813*
X100875Y227125*
X101500Y227437*
X102437*
X103063Y227125*
X103375Y226813*
X107750Y61187D02*
Y64937D01*
Y63063D02*
X110875D01*
Y61187D02*
Y64937D01*
X113375Y89313D02*
X113063Y89000D01*
X112437Y88687*
X111500*
X110875Y89000*
X110563Y89313*
X110250Y89937*
Y91187*
X110563Y91813*
X110875Y92125*
X111500Y92437*
X112437*
X113063Y92125*
X113375Y91813*
Y99313D02*
X113063Y99000D01*
X112437Y98687*
X111500*
X110875Y99000*
X110563Y99313*
X110250Y99937*
Y101187*
X110563Y101813*
X110875Y102125*
X111500Y102437*
X112437*
X113063Y102125*
X113375Y101813*
Y109313D02*
X113063Y109000D01*
X112437Y108687*
X111500*
X110875Y109000*
X110563Y109313*
X110250Y109937*
Y111187*
X110563Y111813*
X110875Y112125*
X111500Y112437*
X112437*
X113063Y112125*
X113375Y111813*
Y119313D02*
X113063Y119000D01*
X112437Y118687*
X111500*
X110875Y119000*
X110563Y119313*
X110250Y119937*
Y121187*
X110563Y121813*
X110875Y122125*
X111500Y122437*
X112437*
X113063Y122125*
X113375Y121813*
Y129313D02*
X113063Y129000D01*
X112437Y128687*
X111500*
X110875Y129000*
X110563Y129313*
X110250Y129937*
Y131187*
X110563Y131813*
X110875Y132125*
X111500Y132437*
X112437*
X113063Y132125*
X113375Y131813*
Y139313D02*
X113063Y139000D01*
X112437Y138687*
X111500*
X110875Y139000*
X110563Y139313*
X110250Y139937*
Y141187*
X110563Y141813*
X110875Y142125*
X111500Y142437*
X112437*
X113063Y142125*
X113375Y141813*
Y149313D02*
X113063Y149000D01*
X112437Y148687*
X111500*
X110875Y149000*
X110563Y149313*
X110250Y149937*
Y151187*
X110563Y151813*
X110875Y152125*
X111500Y152437*
X112437*
X113063Y152125*
X113375Y151813*
Y159313D02*
X113063Y159000D01*
X112437Y158687*
X111500*
X110875Y159000*
X110563Y159313*
X110250Y159937*
Y161187*
X110563Y161813*
X110875Y162125*
X111500Y162437*
X112437*
X113063Y162125*
X113375Y161813*
Y169313D02*
X113063Y169000D01*
X112437Y168687*
X111500*
X110875Y169000*
X110563Y169313*
X110250Y169937*
Y171187*
X110563Y171813*
X110875Y172125*
X111500Y172437*
X112437*
X113063Y172125*
X113375Y171813*
Y179313D02*
X113063Y179000D01*
X112437Y178687*
X111500*
X110875Y179000*
X110563Y179313*
X110250Y179937*
Y181187*
X110563Y181813*
X110875Y182125*
X111500Y182437*
X112437*
X113063Y182125*
X113375Y181813*
Y189313D02*
X113063Y189000D01*
X112437Y188687*
X111500*
X110875Y189000*
X110563Y189313*
X110250Y189937*
Y191187*
X110563Y191813*
X110875Y192125*
X111500Y192437*
X112437*
X113063Y192125*
X113375Y191813*
Y199313D02*
X113063Y199000D01*
X112437Y198687*
X111500*
X110875Y199000*
X110563Y199313*
X110250Y199937*
Y201187*
X110563Y201813*
X110875Y202125*
X111500Y202437*
X112437*
X113063Y202125*
X113375Y201813*
Y209313D02*
X113063Y209000D01*
X112437Y208687*
X111500*
X110875Y209000*
X110563Y209313*
X110250Y209937*
Y211187*
X110563Y211813*
X110875Y212125*
X111500Y212437*
X112437*
X113063Y212125*
X113375Y211813*
X120250Y28687D02*
Y32437D01*
Y30563D02*
X123375D01*
Y28687D02*
Y32437D01*
X120250Y38687D02*
Y42437D01*
Y40563D02*
X123375D01*
Y38687D02*
Y42437D01*
X120250Y48687D02*
Y52437D01*
Y50563D02*
X123375D01*
Y48687D02*
Y52437D01*
X138375Y24313D02*
X138063Y24000D01*
X137437Y23687*
X136500*
X135875Y24000*
X135563Y24313*
X135250Y24937*
Y26187*
X135563Y26813*
X135875Y27125*
X136500Y27437*
X137437*
X138063Y27125*
X138375Y26813*
Y34313D02*
X138063Y34000D01*
X137437Y33687*
X136500*
X135875Y34000*
X135563Y34313*
X135250Y34937*
Y36187*
X135563Y36813*
X135875Y37125*
X136500Y37437*
X137437*
X138063Y37125*
X138375Y36813*
Y49313D02*
X138063Y49000D01*
X137437Y48687*
X136500*
X135875Y49000*
X135563Y49313*
X135250Y49937*
Y51187*
X135563Y51813*
X135875Y52125*
X136500Y52437*
X137437*
X138063Y52125*
X138375Y51813*
Y59313D02*
X138063Y59000D01*
X137437Y58687*
X136500*
X135875Y59000*
X135563Y59313*
X135250Y59937*
Y61187*
X135563Y61813*
X135875Y62125*
X136500Y62437*
X137437*
X138063Y62125*
X138375Y61813*
Y69313D02*
X138063Y69000D01*
X137437Y68687*
X136500*
X135875Y69000*
X135563Y69313*
X135250Y69937*
Y71187*
X135563Y71813*
X135875Y72125*
X136500Y72437*
X137437*
X138063Y72125*
X138375Y71813*
Y79313D02*
X138063Y79000D01*
X137437Y78687*
X136500*
X135875Y79000*
X135563Y79313*
X135250Y79937*
Y81187*
X135563Y81813*
X135875Y82125*
X136500Y82437*
X137437*
X138063Y82125*
X138375Y81813*
Y89313D02*
X138063Y89000D01*
X137437Y88687*
X136500*
X135875Y89000*
X135563Y89313*
X135250Y89937*
Y91187*
X135563Y91813*
X135875Y92125*
X136500Y92437*
X137437*
X138063Y92125*
X138375Y91813*
Y99313D02*
X138063Y99000D01*
X137437Y98687*
X136500*
X135875Y99000*
X135563Y99313*
X135250Y99937*
Y101187*
X135563Y101813*
X135875Y102125*
X136500Y102437*
X137437*
X138063Y102125*
X138375Y101813*
Y109313D02*
X138063Y109000D01*
X137437Y108687*
X136500*
X135875Y109000*
X135563Y109313*
X135250Y109937*
Y111187*
X135563Y111813*
X135875Y112125*
X136500Y112437*
X137437*
X138063Y112125*
X138375Y111813*
Y119313D02*
X138063Y119000D01*
X137437Y118687*
X136500*
X135875Y119000*
X135563Y119313*
X135250Y119937*
Y121187*
X135563Y121813*
X135875Y122125*
X136500Y122437*
X137437*
X138063Y122125*
X138375Y121813*
Y129313D02*
X138063Y129000D01*
X137437Y128687*
X136500*
X135875Y129000*
X135563Y129313*
X135250Y129937*
Y131187*
X135563Y131813*
X135875Y132125*
X136500Y132437*
X137437*
X138063Y132125*
X138375Y131813*
Y139313D02*
X138063Y139000D01*
X137437Y138687*
X136500*
X135875Y139000*
X135563Y139313*
X135250Y139937*
Y141187*
X135563Y141813*
X135875Y142125*
X136500Y142437*
X137437*
X138063Y142125*
X138375Y141813*
Y149313D02*
X138063Y149000D01*
X137437Y148687*
X136500*
X135875Y149000*
X135563Y149313*
X135250Y149937*
Y151187*
X135563Y151813*
X135875Y152125*
X136500Y152437*
X137437*
X138063Y152125*
X138375Y151813*
Y159313D02*
X138063Y159000D01*
X137437Y158687*
X136500*
X135875Y159000*
X135563Y159313*
X135250Y159937*
Y161187*
X135563Y161813*
X135875Y162125*
X136500Y162437*
X137437*
X138063Y162125*
X138375Y161813*
Y169313D02*
X138063Y169000D01*
X137437Y168687*
X136500*
X135875Y169000*
X135563Y169313*
X135250Y169937*
Y171187*
X135563Y171813*
X135875Y172125*
X136500Y172437*
X137437*
X138063Y172125*
X138375Y171813*
Y179313D02*
X138063Y179000D01*
X137437Y178687*
X136500*
X135875Y179000*
X135563Y179313*
X135250Y179937*
Y181187*
X135563Y181813*
X135875Y182125*
X136500Y182437*
X137437*
X138063Y182125*
X138375Y181813*
Y189313D02*
X138063Y189000D01*
X137437Y188687*
X136500*
X135875Y189000*
X135563Y189313*
X135250Y189937*
Y191187*
X135563Y191813*
X135875Y192125*
X136500Y192437*
X137437*
X138063Y192125*
X138375Y191813*
Y199313D02*
X138063Y199000D01*
X137437Y198687*
X136500*
X135875Y199000*
X135563Y199313*
X135250Y199937*
Y201187*
X135563Y201813*
X135875Y202125*
X136500Y202437*
X137437*
X138063Y202125*
X138375Y201813*
Y209313D02*
X138063Y209000D01*
X137437Y208687*
X136500*
X135875Y209000*
X135563Y209313*
X135250Y209937*
Y211187*
X135563Y211813*
X135875Y212125*
X136500Y212437*
X137437*
X138063Y212125*
X138375Y211813*
Y219313D02*
X138063Y219000D01*
X137437Y218687*
X136500*
X135875Y219000*
X135563Y219313*
X135250Y219937*
Y221187*
X135563Y221813*
X135875Y222125*
X136500Y222437*
X137437*
X138063Y222125*
X138375Y221813*
Y229313D02*
X138063Y229000D01*
X137437Y228687*
X136500*
X135875Y229000*
X135563Y229313*
X135250Y229937*
Y231187*
X135563Y231813*
X135875Y232125*
X136500Y232437*
X137437*
X138063Y232125*
X138375Y231813*
X148375Y49313D02*
X148063Y49000D01*
X147437Y48687*
X146500*
X145875Y49000*
X145563Y49313*
X145250Y49937*
Y51187*
X145563Y51813*
X145875Y52125*
X146500Y52437*
X147437*
X148063Y52125*
X148375Y51813*
Y59313D02*
X148063Y59000D01*
X147437Y58687*
X146500*
X145875Y59000*
X145563Y59313*
X145250Y59937*
Y61187*
X145563Y61813*
X145875Y62125*
X146500Y62437*
X147437*
X148063Y62125*
X148375Y61813*
Y69313D02*
X148063Y69000D01*
X147437Y68687*
X146500*
X145875Y69000*
X145563Y69313*
X145250Y69937*
Y71187*
X145563Y71813*
X145875Y72125*
X146500Y72437*
X147437*
X148063Y72125*
X148375Y71813*
Y79313D02*
X148063Y79000D01*
X147437Y78687*
X146500*
X145875Y79000*
X145563Y79313*
X145250Y79937*
Y81187*
X145563Y81813*
X145875Y82125*
X146500Y82437*
X147437*
X148063Y82125*
X148375Y81813*
Y89313D02*
X148063Y89000D01*
X147437Y88687*
X146500*
X145875Y89000*
X145563Y89313*
X145250Y89937*
Y91187*
X145563Y91813*
X145875Y92125*
X146500Y92437*
X147437*
X148063Y92125*
X148375Y91813*
Y99313D02*
X148063Y99000D01*
X147437Y98687*
X146500*
X145875Y99000*
X145563Y99313*
X145250Y99937*
Y101187*
X145563Y101813*
X145875Y102125*
X146500Y102437*
X147437*
X148063Y102125*
X148375Y101813*
Y109313D02*
X148063Y109000D01*
X147437Y108687*
X146500*
X145875Y109000*
X145563Y109313*
X145250Y109937*
Y111187*
X145563Y111813*
X145875Y112125*
X146500Y112437*
X147437*
X148063Y112125*
X148375Y111813*
Y119313D02*
X148063Y119000D01*
X147437Y118687*
X146500*
X145875Y119000*
X145563Y119313*
X145250Y119937*
Y121187*
X145563Y121813*
X145875Y122125*
X146500Y122437*
X147437*
X148063Y122125*
X148375Y121813*
Y129313D02*
X148063Y129000D01*
X147437Y128687*
X146500*
X145875Y129000*
X145563Y129313*
X145250Y129937*
Y131187*
X145563Y131813*
X145875Y132125*
X146500Y132437*
X147437*
X148063Y132125*
X148375Y131813*
Y139313D02*
X148063Y139000D01*
X147437Y138687*
X146500*
X145875Y139000*
X145563Y139313*
X145250Y139937*
Y141187*
X145563Y141813*
X145875Y142125*
X146500Y142437*
X147437*
X148063Y142125*
X148375Y141813*
Y149313D02*
X148063Y149000D01*
X147437Y148687*
X146500*
X145875Y149000*
X145563Y149313*
X145250Y149937*
Y151187*
X145563Y151813*
X145875Y152125*
X146500Y152437*
X147437*
X148063Y152125*
X148375Y151813*
Y159313D02*
X148063Y159000D01*
X147437Y158687*
X146500*
X145875Y159000*
X145563Y159313*
X145250Y159937*
Y161187*
X145563Y161813*
X145875Y162125*
X146500Y162437*
X147437*
X148063Y162125*
X148375Y161813*
Y169313D02*
X148063Y169000D01*
X147437Y168687*
X146500*
X145875Y169000*
X145563Y169313*
X145250Y169937*
Y171187*
X145563Y171813*
X145875Y172125*
X146500Y172437*
X147437*
X148063Y172125*
X148375Y171813*
Y179313D02*
X148063Y179000D01*
X147437Y178687*
X146500*
X145875Y179000*
X145563Y179313*
X145250Y179937*
Y181187*
X145563Y181813*
X145875Y182125*
X146500Y182437*
X147437*
X148063Y182125*
X148375Y181813*
Y189313D02*
X148063Y189000D01*
X147437Y188687*
X146500*
X145875Y189000*
X145563Y189313*
X145250Y189937*
Y191187*
X145563Y191813*
X145875Y192125*
X146500Y192437*
X147437*
X148063Y192125*
X148375Y191813*
Y199313D02*
X148063Y199000D01*
X147437Y198687*
X146500*
X145875Y199000*
X145563Y199313*
X145250Y199937*
Y201187*
X145563Y201813*
X145875Y202125*
X146500Y202437*
X147437*
X148063Y202125*
X148375Y201813*
Y209313D02*
X148063Y209000D01*
X147437Y208687*
X146500*
X145875Y209000*
X145563Y209313*
X145250Y209937*
Y211187*
X145563Y211813*
X145875Y212125*
X146500Y212437*
X147437*
X148063Y212125*
X148375Y211813*
Y219313D02*
X148063Y219000D01*
X147437Y218687*
X146500*
X145875Y219000*
X145563Y219313*
X145250Y219937*
Y221187*
X145563Y221813*
X145875Y222125*
X146500Y222437*
X147437*
X148063Y222125*
X148375Y221813*
Y229313D02*
X148063Y229000D01*
X147437Y228687*
X146500*
X145875Y229000*
X145563Y229313*
X145250Y229937*
Y231187*
X145563Y231813*
X145875Y232125*
X146500Y232437*
X147437*
X148063Y232125*
X148375Y231813*
X168375Y89313D02*
X168063Y89000D01*
X167437Y88687*
X166500*
X165875Y89000*
X165563Y89313*
X165250Y89937*
Y91187*
X165563Y91813*
X165875Y92125*
X166500Y92437*
X167437*
X168063Y92125*
X168375Y91813*
Y179313D02*
X168063Y179000D01*
X167437Y178687*
X166500*
X165875Y179000*
X165563Y179313*
X165250Y179937*
Y181187*
X165563Y181813*
X165875Y182125*
X166500Y182437*
X167437*
X168063Y182125*
X168375Y181813*
X178375Y89313D02*
X178063Y89000D01*
X177437Y88687*
X176500*
X175875Y89000*
X175563Y89313*
X175250Y89937*
Y91187*
X175563Y91813*
X175875Y92125*
X176500Y92437*
X177437*
X178063Y92125*
X178375Y91813*
Y179313D02*
X178063Y179000D01*
X177437Y178687*
X176500*
X175875Y179000*
X175563Y179313*
X175250Y179937*
Y181187*
X175563Y181813*
X175875Y182125*
X176500Y182437*
X177437*
X178063Y182125*
X178375Y181813*
X183375Y219313D02*
X183063Y219000D01*
X182437Y218687*
X181500*
X180875Y219000*
X180563Y219313*
X180250Y219937*
Y221187*
X180563Y221813*
X180875Y222125*
X181500Y222437*
X182437*
X183063Y222125*
X183375Y221813*
X188375Y89313D02*
X188063Y89000D01*
X187437Y88687*
X186500*
X185875Y89000*
X185563Y89313*
X185250Y89937*
Y91187*
X185563Y91813*
X185875Y92125*
X186500Y92437*
X187437*
X188063Y92125*
X188375Y91813*
Y179313D02*
X188063Y179000D01*
X187437Y178687*
X186500*
X185875Y179000*
X185563Y179313*
X185250Y179937*
Y181187*
X185563Y181813*
X185875Y182125*
X186500Y182437*
X187437*
X188063Y182125*
X188375Y181813*
X193375Y191813D02*
X193063Y191500D01*
X192437Y191187*
X191500*
X190875Y191500*
X190563Y191813*
X190250Y192437*
Y193687*
X190563Y194313*
X190875Y194625*
X191500Y194937*
X192437*
X193063Y194625*
X193375Y194313*
Y209313D02*
X193063Y209000D01*
X192437Y208687*
X191500*
X190875Y209000*
X190563Y209313*
X190250Y209937*
Y211187*
X190563Y211813*
X190875Y212125*
X191500Y212437*
X192437*
X193063Y212125*
X193375Y211813*
Y219313D02*
X193063Y219000D01*
X192437Y218687*
X191500*
X190875Y219000*
X190563Y219313*
X190250Y219937*
Y221187*
X190563Y221813*
X190875Y222125*
X191500Y222437*
X192437*
X193063Y222125*
X193375Y221813*
X198375Y89313D02*
X198063Y89000D01*
X197437Y88687*
X196500*
X195875Y89000*
X195563Y89313*
X195250Y89937*
Y91187*
X195563Y91813*
X195875Y92125*
X196500Y92437*
X197437*
X198063Y92125*
X198375Y91813*
Y179313D02*
X198063Y179000D01*
X197437Y178687*
X196500*
X195875Y179000*
X195563Y179313*
X195250Y179937*
Y181187*
X195563Y181813*
X195875Y182125*
X196500Y182437*
X197437*
X198063Y182125*
X198375Y181813*
X208375Y89313D02*
X208063Y89000D01*
X207437Y88687*
X206500*
X205875Y89000*
X205563Y89313*
X205250Y89937*
Y91187*
X205563Y91813*
X205875Y92125*
X206500Y92437*
X207437*
X208063Y92125*
X208375Y91813*
Y179313D02*
X208063Y179000D01*
X207437Y178687*
X206500*
X205875Y179000*
X205563Y179313*
X205250Y179937*
Y181187*
X205563Y181813*
X205875Y182125*
X206500Y182437*
X207437*
X208063Y182125*
X208375Y181813*
X218375Y89313D02*
X218063Y89000D01*
X217437Y88687*
X216500*
X215875Y89000*
X215563Y89313*
X215250Y89937*
Y91187*
X215563Y91813*
X215875Y92125*
X216500Y92437*
X217437*
X218063Y92125*
X218375Y91813*
Y179313D02*
X218063Y179000D01*
X217437Y178687*
X216500*
X215875Y179000*
X215563Y179313*
X215250Y179937*
Y181187*
X215563Y181813*
X215875Y182125*
X216500Y182437*
X217437*
X218063Y182125*
X218375Y181813*
X228375Y191813D02*
X228063Y191500D01*
X227437Y191187*
X226500*
X225875Y191500*
X225563Y191813*
X225250Y192437*
Y193687*
X225563Y194313*
X225875Y194625*
X226500Y194937*
X227437*
X228063Y194625*
X228375Y194313*
Y209313D02*
X228063Y209000D01*
X227437Y208687*
X226500*
X225875Y209000*
X225563Y209313*
X225250Y209937*
Y211187*
X225563Y211813*
X225875Y212125*
X226500Y212437*
X227437*
X228063Y212125*
X228375Y211813*
X230875Y24313D02*
X230563Y24000D01*
X229937Y23687*
X229000*
X228375Y24000*
X228063Y24313*
X227750Y24937*
Y26187*
X228063Y26813*
X228375Y27125*
X229000Y27437*
X229937*
X230563Y27125*
X230875Y26813*
X238375Y49313D02*
X238063Y49000D01*
X237437Y48687*
X236500*
X235875Y49000*
X235563Y49313*
X235250Y49937*
Y51187*
X235563Y51813*
X235875Y52125*
X236500Y52437*
X237437*
X238063Y52125*
X238375Y51813*
Y59313D02*
X238063Y59000D01*
X237437Y58687*
X236500*
X235875Y59000*
X235563Y59313*
X235250Y59937*
Y61187*
X235563Y61813*
X235875Y62125*
X236500Y62437*
X237437*
X238063Y62125*
X238375Y61813*
Y69313D02*
X238063Y69000D01*
X237437Y68687*
X236500*
X235875Y69000*
X235563Y69313*
X235250Y69937*
Y71187*
X235563Y71813*
X235875Y72125*
X236500Y72437*
X237437*
X238063Y72125*
X238375Y71813*
Y79313D02*
X238063Y79000D01*
X237437Y78687*
X236500*
X235875Y79000*
X235563Y79313*
X235250Y79937*
Y81187*
X235563Y81813*
X235875Y82125*
X236500Y82437*
X237437*
X238063Y82125*
X238375Y81813*
Y89313D02*
X238063Y89000D01*
X237437Y88687*
X236500*
X235875Y89000*
X235563Y89313*
X235250Y89937*
Y91187*
X235563Y91813*
X235875Y92125*
X236500Y92437*
X237437*
X238063Y92125*
X238375Y91813*
Y99313D02*
X238063Y99000D01*
X237437Y98687*
X236500*
X235875Y99000*
X235563Y99313*
X235250Y99937*
Y101187*
X235563Y101813*
X235875Y102125*
X236500Y102437*
X237437*
X238063Y102125*
X238375Y101813*
Y109313D02*
X238063Y109000D01*
X237437Y108687*
X236500*
X235875Y109000*
X235563Y109313*
X235250Y109937*
Y111187*
X235563Y111813*
X235875Y112125*
X236500Y112437*
X237437*
X238063Y112125*
X238375Y111813*
Y119313D02*
X238063Y119000D01*
X237437Y118687*
X236500*
X235875Y119000*
X235563Y119313*
X235250Y119937*
Y121187*
X235563Y121813*
X235875Y122125*
X236500Y122437*
X237437*
X238063Y122125*
X238375Y121813*
Y129313D02*
X238063Y129000D01*
X237437Y128687*
X236500*
X235875Y129000*
X235563Y129313*
X235250Y129937*
Y131187*
X235563Y131813*
X235875Y132125*
X236500Y132437*
X237437*
X238063Y132125*
X238375Y131813*
Y139313D02*
X238063Y139000D01*
X237437Y138687*
X236500*
X235875Y139000*
X235563Y139313*
X235250Y139937*
Y141187*
X235563Y141813*
X235875Y142125*
X236500Y142437*
X237437*
X238063Y142125*
X238375Y141813*
Y149313D02*
X238063Y149000D01*
X237437Y148687*
X236500*
X235875Y149000*
X235563Y149313*
X235250Y149937*
Y151187*
X235563Y151813*
X235875Y152125*
X236500Y152437*
X237437*
X238063Y152125*
X238375Y151813*
Y159313D02*
X238063Y159000D01*
X237437Y158687*
X236500*
X235875Y159000*
X235563Y159313*
X235250Y159937*
Y161187*
X235563Y161813*
X235875Y162125*
X236500Y162437*
X237437*
X238063Y162125*
X238375Y161813*
Y169313D02*
X238063Y169000D01*
X237437Y168687*
X236500*
X235875Y169000*
X235563Y169313*
X235250Y169937*
Y171187*
X235563Y171813*
X235875Y172125*
X236500Y172437*
X237437*
X238063Y172125*
X238375Y171813*
Y179313D02*
X238063Y179000D01*
X237437Y178687*
X236500*
X235875Y179000*
X235563Y179313*
X235250Y179937*
Y181187*
X235563Y181813*
X235875Y182125*
X236500Y182437*
X237437*
X238063Y182125*
X238375Y181813*
Y189313D02*
X238063Y189000D01*
X237437Y188687*
X236500*
X235875Y189000*
X235563Y189313*
X235250Y189937*
Y191187*
X235563Y191813*
X235875Y192125*
X236500Y192437*
X237437*
X238063Y192125*
X238375Y191813*
Y199313D02*
X238063Y199000D01*
X237437Y198687*
X236500*
X235875Y199000*
X235563Y199313*
X235250Y199937*
Y201187*
X235563Y201813*
X235875Y202125*
X236500Y202437*
X237437*
X238063Y202125*
X238375Y201813*
Y209313D02*
X238063Y209000D01*
X237437Y208687*
X236500*
X235875Y209000*
X235563Y209313*
X235250Y209937*
Y211187*
X235563Y211813*
X235875Y212125*
X236500Y212437*
X237437*
X238063Y212125*
X238375Y211813*
Y219313D02*
X238063Y219000D01*
X237437Y218687*
X236500*
X235875Y219000*
X235563Y219313*
X235250Y219937*
Y221187*
X235563Y221813*
X235875Y222125*
X236500Y222437*
X237437*
X238063Y222125*
X238375Y221813*
Y229313D02*
X238063Y229000D01*
X237437Y228687*
X236500*
X235875Y229000*
X235563Y229313*
X235250Y229937*
Y231187*
X235563Y231813*
X235875Y232125*
X236500Y232437*
X237437*
X238063Y232125*
X238375Y231813*
X240875Y24313D02*
X240563Y24000D01*
X239937Y23687*
X239000*
X238375Y24000*
X238063Y24313*
X237750Y24937*
Y26187*
X238063Y26813*
X238375Y27125*
X239000Y27437*
X239937*
X240563Y27125*
X240875Y26813*
X250875Y24313D02*
X250563Y24000D01*
X249937Y23687*
X249000*
X248375Y24000*
X248063Y24313*
X247750Y24937*
Y26187*
X248063Y26813*
X248375Y27125*
X249000Y27437*
X249937*
X250563Y27125*
X250875Y26813*
X252750Y157437D02*
Y153687D01*
X255875*
X260875Y24313D02*
X260563Y24000D01*
X259937Y23687*
X259000*
X258375Y24000*
X258063Y24313*
X257750Y24937*
Y26187*
X258063Y26813*
X258375Y27125*
X259000Y27437*
X259937*
X260563Y27125*
X260875Y26813*
X263375Y79313D02*
X263063Y79000D01*
X262437Y78687*
X261500*
X260875Y79000*
X260563Y79313*
X260250Y79937*
Y81187*
X260563Y81813*
X260875Y82125*
X261500Y82437*
X262437*
X263063Y82125*
X263375Y81813*
Y89313D02*
X263063Y89000D01*
X262437Y88687*
X261500*
X260875Y89000*
X260563Y89313*
X260250Y89937*
Y91187*
X260563Y91813*
X260875Y92125*
X261500Y92437*
X262437*
X263063Y92125*
X263375Y91813*
Y99313D02*
X263063Y99000D01*
X262437Y98687*
X261500*
X260875Y99000*
X260563Y99313*
X260250Y99937*
Y101187*
X260563Y101813*
X260875Y102125*
X261500Y102437*
X262437*
X263063Y102125*
X263375Y101813*
Y109313D02*
X263063Y109000D01*
X262437Y108687*
X261500*
X260875Y109000*
X260563Y109313*
X260250Y109937*
Y111187*
X260563Y111813*
X260875Y112125*
X261500Y112437*
X262437*
X263063Y112125*
X263375Y111813*
Y119313D02*
X263063Y119000D01*
X262437Y118687*
X261500*
X260875Y119000*
X260563Y119313*
X260250Y119937*
Y121187*
X260563Y121813*
X260875Y122125*
X261500Y122437*
X262437*
X263063Y122125*
X263375Y121813*
Y129313D02*
X263063Y129000D01*
X262437Y128687*
X261500*
X260875Y129000*
X260563Y129313*
X260250Y129937*
Y131187*
X260563Y131813*
X260875Y132125*
X261500Y132437*
X262437*
X263063Y132125*
X263375Y131813*
Y161813D02*
X263063Y161500D01*
X262437Y161187*
X261500*
X260875Y161500*
X260563Y161813*
X260250Y162437*
Y163687*
X260563Y164313*
X260875Y164625*
X261500Y164937*
X262437*
X263063Y164625*
X263375Y164313*
Y176813D02*
X263063Y176500D01*
X262437Y176187*
X261500*
X260875Y176500*
X260563Y176813*
X260250Y177437*
Y178687*
X260563Y179313*
X260875Y179625*
X261500Y179937*
X262437*
X263063Y179625*
X263375Y179313*
Y219313D02*
X263063Y219000D01*
X262437Y218687*
X261500*
X260875Y219000*
X260563Y219313*
X260250Y219937*
Y221187*
X260563Y221813*
X260875Y222125*
X261500Y222437*
X262437*
X263063Y222125*
X263375Y221813*
X270875Y24313D02*
X270563Y24000D01*
X269937Y23687*
X269000*
X268375Y24000*
X268063Y24313*
X267750Y24937*
Y26187*
X268063Y26813*
X268375Y27125*
X269000Y27437*
X269937*
X270563Y27125*
X270875Y26813*
X267750Y41187D02*
Y44937D01*
Y43063D02*
X270875D01*
Y41187D02*
Y44937D01*
X267750Y61187D02*
Y64937D01*
Y63063D02*
X270875D01*
Y61187D02*
Y64937D01*
X273375Y79313D02*
X273063Y79000D01*
X272437Y78687*
X271500*
X270875Y79000*
X270563Y79313*
X270250Y79937*
Y81187*
X270563Y81813*
X270875Y82125*
X271500Y82437*
X272437*
X273063Y82125*
X273375Y81813*
Y89313D02*
X273063Y89000D01*
X272437Y88687*
X271500*
X270875Y89000*
X270563Y89313*
X270250Y89937*
Y91187*
X270563Y91813*
X270875Y92125*
X271500Y92437*
X272437*
X273063Y92125*
X273375Y91813*
Y99313D02*
X273063Y99000D01*
X272437Y98687*
X271500*
X270875Y99000*
X270563Y99313*
X270250Y99937*
Y101187*
X270563Y101813*
X270875Y102125*
X271500Y102437*
X272437*
X273063Y102125*
X273375Y101813*
Y109313D02*
X273063Y109000D01*
X272437Y108687*
X271500*
X270875Y109000*
X270563Y109313*
X270250Y109937*
Y111187*
X270563Y111813*
X270875Y112125*
X271500Y112437*
X272437*
X273063Y112125*
X273375Y111813*
Y119313D02*
X273063Y119000D01*
X272437Y118687*
X271500*
X270875Y119000*
X270563Y119313*
X270250Y119937*
Y121187*
X270563Y121813*
X270875Y122125*
X271500Y122437*
X272437*
X273063Y122125*
X273375Y121813*
Y129313D02*
X273063Y129000D01*
X272437Y128687*
X271500*
X270875Y129000*
X270563Y129313*
X270250Y129937*
Y131187*
X270563Y131813*
X270875Y132125*
X271500Y132437*
X272437*
X273063Y132125*
X273375Y131813*
Y144313D02*
X273063Y144000D01*
X272437Y143687*
X271500*
X270875Y144000*
X270563Y144313*
X270250Y144937*
Y146187*
X270563Y146813*
X270875Y147125*
X271500Y147437*
X272437*
X273063Y147125*
X273375Y146813*
Y161813D02*
X273063Y161500D01*
X272437Y161187*
X271500*
X270875Y161500*
X270563Y161813*
X270250Y162437*
Y163687*
X270563Y164313*
X270875Y164625*
X271500Y164937*
X272437*
X273063Y164625*
X273375Y164313*
Y176813D02*
X273063Y176500D01*
X272437Y176187*
X271500*
X270875Y176500*
X270563Y176813*
X270250Y177437*
Y178687*
X270563Y179313*
X270875Y179625*
X271500Y179937*
X272437*
X273063Y179625*
X273375Y179313*
Y219313D02*
X273063Y219000D01*
X272437Y218687*
X271500*
X270875Y219000*
X270563Y219313*
X270250Y219937*
Y221187*
X270563Y221813*
X270875Y222125*
X271500Y222437*
X272437*
X273063Y222125*
X273375Y221813*
X280875Y24313D02*
X280563Y24000D01*
X279937Y23687*
X279000*
X278375Y24000*
X278063Y24313*
X277750Y24937*
Y26187*
X278063Y26813*
X278375Y27125*
X279000Y27437*
X279937*
X280563Y27125*
X280875Y26813*
X283375Y79313D02*
X283063Y79000D01*
X282437Y78687*
X281500*
X280875Y79000*
X280563Y79313*
X280250Y79937*
Y81187*
X280563Y81813*
X280875Y82125*
X281500Y82437*
X282437*
X283063Y82125*
X283375Y81813*
Y89313D02*
X283063Y89000D01*
X282437Y88687*
X281500*
X280875Y89000*
X280563Y89313*
X280250Y89937*
Y91187*
X280563Y91813*
X280875Y92125*
X281500Y92437*
X282437*
X283063Y92125*
X283375Y91813*
Y99313D02*
X283063Y99000D01*
X282437Y98687*
X281500*
X280875Y99000*
X280563Y99313*
X280250Y99937*
Y101187*
X280563Y101813*
X280875Y102125*
X281500Y102437*
X282437*
X283063Y102125*
X283375Y101813*
Y109313D02*
X283063Y109000D01*
X282437Y108687*
X281500*
X280875Y109000*
X280563Y109313*
X280250Y109937*
Y111187*
X280563Y111813*
X280875Y112125*
X281500Y112437*
X282437*
X283063Y112125*
X283375Y111813*
Y119313D02*
X283063Y119000D01*
X282437Y118687*
X281500*
X280875Y119000*
X280563Y119313*
X280250Y119937*
Y121187*
X280563Y121813*
X280875Y122125*
X281500Y122437*
X282437*
X283063Y122125*
X283375Y121813*
Y129313D02*
X283063Y129000D01*
X282437Y128687*
X281500*
X280875Y129000*
X280563Y129313*
X280250Y129937*
Y131187*
X280563Y131813*
X280875Y132125*
X281500Y132437*
X282437*
X283063Y132125*
X283375Y131813*
Y144313D02*
X283063Y144000D01*
X282437Y143687*
X281500*
X280875Y144000*
X280563Y144313*
X280250Y144937*
Y146187*
X280563Y146813*
X280875Y147125*
X281500Y147437*
X282437*
X283063Y147125*
X283375Y146813*
Y161813D02*
X283063Y161500D01*
X282437Y161187*
X281500*
X280875Y161500*
X280563Y161813*
X280250Y162437*
Y163687*
X280563Y164313*
X280875Y164625*
X281500Y164937*
X282437*
X283063Y164625*
X283375Y164313*
Y176813D02*
X283063Y176500D01*
X282437Y176187*
X281500*
X280875Y176500*
X280563Y176813*
X280250Y177437*
Y178687*
X280563Y179313*
X280875Y179625*
X281500Y179937*
X282437*
X283063Y179625*
X283375Y179313*
Y191813D02*
X283063Y191500D01*
X282437Y191187*
X281500*
X280875Y191500*
X280563Y191813*
X280250Y192437*
Y193687*
X280563Y194313*
X280875Y194625*
X281500Y194937*
X282437*
X283063Y194625*
X283375Y194313*
Y204313D02*
X283063Y204000D01*
X282437Y203687*
X281500*
X280875Y204000*
X280563Y204313*
X280250Y204937*
Y206187*
X280563Y206813*
X280875Y207125*
X281500Y207437*
X282437*
X283063Y207125*
X283375Y206813*
Y219313D02*
X283063Y219000D01*
X282437Y218687*
X281500*
X280875Y219000*
X280563Y219313*
X280250Y219937*
Y221187*
X280563Y221813*
X280875Y222125*
X281500Y222437*
X282437*
X283063Y222125*
X283375Y221813*
X290875Y24313D02*
X290563Y24000D01*
X289937Y23687*
X289000*
X288375Y24000*
X288063Y24313*
X287750Y24937*
Y26187*
X288063Y26813*
X288375Y27125*
X289000Y27437*
X289937*
X290563Y27125*
X290875Y26813*
X293375Y79313D02*
X293063Y79000D01*
X292437Y78687*
X291500*
X290875Y79000*
X290563Y79313*
X290250Y79937*
Y81187*
X290563Y81813*
X290875Y82125*
X291500Y82437*
X292437*
X293063Y82125*
X293375Y81813*
Y89313D02*
X293063Y89000D01*
X292437Y88687*
X291500*
X290875Y89000*
X290563Y89313*
X290250Y89937*
Y91187*
X290563Y91813*
X290875Y92125*
X291500Y92437*
X292437*
X293063Y92125*
X293375Y91813*
Y99313D02*
X293063Y99000D01*
X292437Y98687*
X291500*
X290875Y99000*
X290563Y99313*
X290250Y99937*
Y101187*
X290563Y101813*
X290875Y102125*
X291500Y102437*
X292437*
X293063Y102125*
X293375Y101813*
Y109313D02*
X293063Y109000D01*
X292437Y108687*
X291500*
X290875Y109000*
X290563Y109313*
X290250Y109937*
Y111187*
X290563Y111813*
X290875Y112125*
X291500Y112437*
X292437*
X293063Y112125*
X293375Y111813*
Y119313D02*
X293063Y119000D01*
X292437Y118687*
X291500*
X290875Y119000*
X290563Y119313*
X290250Y119937*
Y121187*
X290563Y121813*
X290875Y122125*
X291500Y122437*
X292437*
X293063Y122125*
X293375Y121813*
Y129313D02*
X293063Y129000D01*
X292437Y128687*
X291500*
X290875Y129000*
X290563Y129313*
X290250Y129937*
Y131187*
X290563Y131813*
X290875Y132125*
X291500Y132437*
X292437*
X293063Y132125*
X293375Y131813*
Y144313D02*
X293063Y144000D01*
X292437Y143687*
X291500*
X290875Y144000*
X290563Y144313*
X290250Y144937*
Y146187*
X290563Y146813*
X290875Y147125*
X291500Y147437*
X292437*
X293063Y147125*
X293375Y146813*
Y161813D02*
X293063Y161500D01*
X292437Y161187*
X291500*
X290875Y161500*
X290563Y161813*
X290250Y162437*
Y163687*
X290563Y164313*
X290875Y164625*
X291500Y164937*
X292437*
X293063Y164625*
X293375Y164313*
Y176813D02*
X293063Y176500D01*
X292437Y176187*
X291500*
X290875Y176500*
X290563Y176813*
X290250Y177437*
Y178687*
X290563Y179313*
X290875Y179625*
X291500Y179937*
X292437*
X293063Y179625*
X293375Y179313*
Y191813D02*
X293063Y191500D01*
X292437Y191187*
X291500*
X290875Y191500*
X290563Y191813*
X290250Y192437*
Y193687*
X290563Y194313*
X290875Y194625*
X291500Y194937*
X292437*
X293063Y194625*
X293375Y194313*
Y204313D02*
X293063Y204000D01*
X292437Y203687*
X291500*
X290875Y204000*
X290563Y204313*
X290250Y204937*
Y206187*
X290563Y206813*
X290875Y207125*
X291500Y207437*
X292437*
X293063Y207125*
X293375Y206813*
Y219313D02*
X293063Y219000D01*
X292437Y218687*
X291500*
X290875Y219000*
X290563Y219313*
X290250Y219937*
Y221187*
X290563Y221813*
X290875Y222125*
X291500Y222437*
X292437*
X293063Y222125*
X293375Y221813*
X292750Y41187D02*
Y44937D01*
Y43063D02*
X295875D01*
Y41187D02*
Y44937D01*
X292750Y61187D02*
Y64937D01*
Y63063D02*
X295875D01*
Y61187D02*
Y64937D01*
X300875Y24313D02*
X300563Y24000D01*
X299937Y23687*
X299000*
X298375Y24000*
X298063Y24313*
X297750Y24937*
Y26187*
X298063Y26813*
X298375Y27125*
X299000Y27437*
X299937*
X300563Y27125*
X300875Y26813*
X303375Y79313D02*
X303063Y79000D01*
X302437Y78687*
X301500*
X300875Y79000*
X300563Y79313*
X300250Y79937*
Y81187*
X300563Y81813*
X300875Y82125*
X301500Y82437*
X302437*
X303063Y82125*
X303375Y81813*
Y89313D02*
X303063Y89000D01*
X302437Y88687*
X301500*
X300875Y89000*
X300563Y89313*
X300250Y89937*
Y91187*
X300563Y91813*
X300875Y92125*
X301500Y92437*
X302437*
X303063Y92125*
X303375Y91813*
Y99313D02*
X303063Y99000D01*
X302437Y98687*
X301500*
X300875Y99000*
X300563Y99313*
X300250Y99937*
Y101187*
X300563Y101813*
X300875Y102125*
X301500Y102437*
X302437*
X303063Y102125*
X303375Y101813*
Y109313D02*
X303063Y109000D01*
X302437Y108687*
X301500*
X300875Y109000*
X300563Y109313*
X300250Y109937*
Y111187*
X300563Y111813*
X300875Y112125*
X301500Y112437*
X302437*
X303063Y112125*
X303375Y111813*
Y119313D02*
X303063Y119000D01*
X302437Y118687*
X301500*
X300875Y119000*
X300563Y119313*
X300250Y119937*
Y121187*
X300563Y121813*
X300875Y122125*
X301500Y122437*
X302437*
X303063Y122125*
X303375Y121813*
Y129313D02*
X303063Y129000D01*
X302437Y128687*
X301500*
X300875Y129000*
X300563Y129313*
X300250Y129937*
Y131187*
X300563Y131813*
X300875Y132125*
X301500Y132437*
X302437*
X303063Y132125*
X303375Y131813*
Y161813D02*
X303063Y161500D01*
X302437Y161187*
X301500*
X300875Y161500*
X300563Y161813*
X300250Y162437*
Y163687*
X300563Y164313*
X300875Y164625*
X301500Y164937*
X302437*
X303063Y164625*
X303375Y164313*
Y176813D02*
X303063Y176500D01*
X302437Y176187*
X301500*
X300875Y176500*
X300563Y176813*
X300250Y177437*
Y178687*
X300563Y179313*
X300875Y179625*
X301500Y179937*
X302437*
X303063Y179625*
X303375Y179313*
Y191813D02*
X303063Y191500D01*
X302437Y191187*
X301500*
X300875Y191500*
X300563Y191813*
X300250Y192437*
Y193687*
X300563Y194313*
X300875Y194625*
X301500Y194937*
X302437*
X303063Y194625*
X303375Y194313*
Y204313D02*
X303063Y204000D01*
X302437Y203687*
X301500*
X300875Y204000*
X300563Y204313*
X300250Y204937*
Y206187*
X300563Y206813*
X300875Y207125*
X301500Y207437*
X302437*
X303063Y207125*
X303375Y206813*
Y219313D02*
X303063Y219000D01*
X302437Y218687*
X301500*
X300875Y219000*
X300563Y219313*
X300250Y219937*
Y221187*
X300563Y221813*
X300875Y222125*
X301500Y222437*
X302437*
X303063Y222125*
X303375Y221813*
X313375Y89313D02*
X313063Y89000D01*
X312437Y88687*
X311500*
X310875Y89000*
X310563Y89313*
X310250Y89937*
Y91187*
X310563Y91813*
X310875Y92125*
X311500Y92437*
X312437*
X313063Y92125*
X313375Y91813*
Y99313D02*
X313063Y99000D01*
X312437Y98687*
X311500*
X310875Y99000*
X310563Y99313*
X310250Y99937*
Y101187*
X310563Y101813*
X310875Y102125*
X311500Y102437*
X312437*
X313063Y102125*
X313375Y101813*
Y109313D02*
X313063Y109000D01*
X312437Y108687*
X311500*
X310875Y109000*
X310563Y109313*
X310250Y109937*
Y111187*
X310563Y111813*
X310875Y112125*
X311500Y112437*
X312437*
X313063Y112125*
X313375Y111813*
Y119313D02*
X313063Y119000D01*
X312437Y118687*
X311500*
X310875Y119000*
X310563Y119313*
X310250Y119937*
Y121187*
X310563Y121813*
X310875Y122125*
X311500Y122437*
X312437*
X313063Y122125*
X313375Y121813*
Y129313D02*
X313063Y129000D01*
X312437Y128687*
X311500*
X310875Y129000*
X310563Y129313*
X310250Y129937*
Y131187*
X310563Y131813*
X310875Y132125*
X311500Y132437*
X312437*
X313063Y132125*
X313375Y131813*
Y161813D02*
X313063Y161500D01*
X312437Y161187*
X311500*
X310875Y161500*
X310563Y161813*
X310250Y162437*
Y163687*
X310563Y164313*
X310875Y164625*
X311500Y164937*
X312437*
X313063Y164625*
X313375Y164313*
Y176813D02*
X313063Y176500D01*
X312437Y176187*
X311500*
X310875Y176500*
X310563Y176813*
X310250Y177437*
Y178687*
X310563Y179313*
X310875Y179625*
X311500Y179937*
X312437*
X313063Y179625*
X313375Y179313*
Y191813D02*
X313063Y191500D01*
X312437Y191187*
X311500*
X310875Y191500*
X310563Y191813*
X310250Y192437*
Y193687*
X310563Y194313*
X310875Y194625*
X311500Y194937*
X312437*
X313063Y194625*
X313375Y194313*
Y204313D02*
X313063Y204000D01*
X312437Y203687*
X311500*
X310875Y204000*
X310563Y204313*
X310250Y204937*
Y206187*
X310563Y206813*
X310875Y207125*
X311500Y207437*
X312437*
X313063Y207125*
X313375Y206813*
Y219313D02*
X313063Y219000D01*
X312437Y218687*
X311500*
X310875Y219000*
X310563Y219313*
X310250Y219937*
Y221187*
X310563Y221813*
X310875Y222125*
X311500Y222437*
X312437*
X313063Y222125*
X313375Y221813*
D02*
D75*
X15250Y37750D03*
Y47750D03*
Y57750D03*
Y67750D03*
Y77750D03*
X25250Y182750D03*
Y207750D03*
X27750Y30250D03*
Y55250D03*
Y82750D03*
Y92750D03*
Y102750D03*
Y112750D03*
Y122750D03*
Y132750D03*
Y142750D03*
Y152750D03*
X30250Y67750D03*
X37750Y82750D03*
Y92750D03*
Y102750D03*
Y112750D03*
Y122750D03*
Y132750D03*
Y142750D03*
Y152750D03*
X40250Y67750D03*
X45250Y182750D03*
Y207750D03*
X47750Y30250D03*
Y55250D03*
X50250Y67750D03*
Y82750D03*
Y92750D03*
Y102750D03*
Y112750D03*
Y122750D03*
Y132750D03*
Y142750D03*
Y152750D03*
Y162750D03*
X60250Y172750D03*
Y182750D03*
Y192750D03*
Y202750D03*
X70250Y172750D03*
Y182750D03*
Y192750D03*
Y202750D03*
Y217750D03*
X77750Y45250D03*
Y65250D03*
X80250Y82750D03*
Y92750D03*
Y102750D03*
Y112750D03*
Y122750D03*
Y132750D03*
Y142750D03*
Y152750D03*
Y162750D03*
Y172750D03*
Y182750D03*
Y192750D03*
Y202750D03*
Y217750D03*
X90250Y82750D03*
Y92750D03*
Y102750D03*
Y112750D03*
Y122750D03*
Y132750D03*
Y142750D03*
Y152750D03*
Y162750D03*
Y172750D03*
Y182750D03*
Y192750D03*
Y202750D03*
Y217750D03*
X97750Y55250D03*
X100250Y82750D03*
Y92750D03*
Y102750D03*
Y112750D03*
Y122750D03*
Y132750D03*
Y142750D03*
Y152750D03*
Y162750D03*
Y172750D03*
Y182750D03*
Y192750D03*
Y202750D03*
X110250Y22750D03*
Y32750D03*
Y42750D03*
X125250Y17750D03*
Y27750D03*
Y42750D03*
Y52750D03*
Y62750D03*
Y72750D03*
Y82750D03*
Y92750D03*
Y102750D03*
Y112750D03*
Y122750D03*
Y132750D03*
Y142750D03*
Y152750D03*
Y162750D03*
Y172750D03*
Y182750D03*
Y192750D03*
Y202750D03*
Y212750D03*
Y222750D03*
X135250Y42750D03*
Y52750D03*
Y62750D03*
Y72750D03*
Y82750D03*
Y92750D03*
Y102750D03*
Y112750D03*
Y122750D03*
Y132750D03*
Y142750D03*
Y152750D03*
Y162750D03*
Y172750D03*
Y182750D03*
Y192750D03*
Y202750D03*
Y212750D03*
Y222750D03*
X155250Y82750D03*
Y172750D03*
X165250Y82750D03*
Y172750D03*
X170250Y212750D03*
X175250Y82750D03*
Y172750D03*
X180250Y185250D03*
Y202750D03*
Y212750D03*
X185250Y82750D03*
Y172750D03*
X195250Y82750D03*
Y172750D03*
X205250Y82750D03*
Y172750D03*
X215250Y185250D03*
Y202750D03*
X217750Y17750D03*
X225250Y42750D03*
Y52750D03*
Y62750D03*
Y72750D03*
Y82750D03*
Y92750D03*
Y102750D03*
Y112750D03*
Y122750D03*
Y132750D03*
Y142750D03*
Y152750D03*
Y162750D03*
Y172750D03*
Y182750D03*
Y192750D03*
Y202750D03*
Y212750D03*
Y222750D03*
X227750Y17750D03*
X237750D03*
X242750Y147750D03*
X247750Y17750D03*
X250250Y72750D03*
Y82750D03*
Y92750D03*
Y102750D03*
Y112750D03*
Y122750D03*
Y155250D03*
Y170250D03*
Y212750D03*
X257750Y17750D03*
Y35250D03*
Y55250D03*
X260250Y72750D03*
Y82750D03*
Y92750D03*
Y102750D03*
Y112750D03*
Y122750D03*
Y137750D03*
Y155250D03*
Y170250D03*
Y212750D03*
X267750Y17750D03*
X270250Y72750D03*
Y82750D03*
Y92750D03*
Y102750D03*
Y112750D03*
Y122750D03*
Y137750D03*
Y155250D03*
Y170250D03*
Y185250D03*
Y197750D03*
Y212750D03*
X277750Y17750D03*
X280250Y72750D03*
Y82750D03*
Y92750D03*
Y102750D03*
Y112750D03*
Y122750D03*
Y137750D03*
Y155250D03*
Y170250D03*
Y185250D03*
Y197750D03*
Y212750D03*
X282750Y35250D03*
Y55250D03*
X287750Y17750D03*
X290250Y72750D03*
Y82750D03*
Y92750D03*
Y102750D03*
Y112750D03*
Y122750D03*
Y155250D03*
Y170250D03*
Y185250D03*
Y197750D03*
Y212750D03*
X300250Y82750D03*
Y92750D03*
Y102750D03*
Y112750D03*
Y122750D03*
Y155250D03*
Y170250D03*
Y185250D03*
Y197750D03*
Y212750D03*
X0Y0D02*
M02*
