%FSLAX35Y35*%
%MOIN*%
G04 EasyPC Gerber Version 18.0.8 Build 3632 *
%ADD11C,0.00500*%
%ADD15C,0.00600*%
%ADD91C,0.02000*%
X0Y0D02*
D02*
D11*
X10250Y20300D02*
G75*
G03X20250Y10300I5000J-5000D01*
G01*
G75*
G03X10250Y20300I-5000J5000*
G01*
Y75300D02*
X30250D01*
Y155300*
X10250*
Y75300*
Y235300D02*
G75*
G03X20250Y225300I5000J-5000D01*
G01*
G75*
G03X10250Y235300I-5000J5000*
G01*
X17000Y62300D02*
X17750D01*
Y62050*
X17500Y61550*
X17250Y61300*
X16750Y61050*
X16250*
X15750Y61300*
X15500Y61550*
X15250Y62050*
Y63050*
X15500Y63550*
X15750Y63800*
X16250Y64050*
X16750*
X17250Y63800*
X17500Y63550*
X17750Y63050*
X15250Y71613D02*
X16750D01*
X16000Y70863D02*
Y72363D01*
X15250Y160113D02*
X16750D01*
X16000Y159363D02*
Y160863D01*
X19687Y35300D02*
X17437D01*
Y36613*
X17625Y36987*
X18000Y37175*
X18375Y36987*
X18563Y36613*
Y35300*
Y36613D02*
X19687Y37175D01*
Y38300D02*
X17437Y40175D01*
Y38300D02*
X19687Y40175D01*
Y41675D02*
Y42425D01*
Y42050D02*
X17437D01*
X17813Y41675*
X19687Y46237D02*
X17437D01*
Y45300D02*
Y47175D01*
X19687Y48300D02*
X17437Y50175D01*
Y48300D02*
X19687Y50175D01*
Y51675D02*
Y52425D01*
Y52050D02*
X17437D01*
X17813Y51675*
X20250Y55300D02*
X30250D01*
Y75300*
X20250*
Y55300*
X27000Y27300D02*
X27750D01*
Y27050*
X27500Y26550*
X27250Y26300*
X26750Y26050*
X26250*
X25750Y26300*
X25500Y26550*
X25250Y27050*
Y28050*
X25500Y28550*
X25750Y28800*
X26250Y29050*
X26750*
X27250Y28800*
X27500Y28550*
X27750Y28050*
X25250Y159363D02*
Y161613D01*
X26375*
X26750Y161425*
X26937Y161237*
X27125Y160863*
Y160113*
X26937Y159737*
X26750Y159550*
X26375Y159363*
X25250*
X30250Y52800D02*
Y12800D01*
X40250*
Y52800*
X30250*
Y75300D02*
X40250D01*
Y155300*
X30250*
Y75300*
X34063Y71800D02*
X34625D01*
Y71613*
X34437Y71237*
X34250Y71050*
X33875Y70863*
X33500*
X33125Y71050*
X32937Y71237*
X32750Y71613*
Y72363*
X32937Y72737*
X33125Y72925*
X33500Y73113*
X33875*
X34250Y72925*
X34437Y72737*
X34625Y72363*
X36563Y160300D02*
X37125D01*
Y160113*
X36937Y159737*
X36750Y159550*
X36375Y159363*
X36000*
X35625Y159550*
X35437Y159737*
X35250Y160113*
Y160863*
X35437Y161237*
X35625Y161425*
X36000Y161613*
X36375*
X36750Y161425*
X36937Y161237*
X37125Y160863*
X42750Y57800D02*
X72750D01*
Y67800*
X42750*
Y57800*
Y69550D02*
X43125Y69363D01*
X43687*
X44063Y69550*
X44250Y69925*
Y70113*
X44063Y70487*
X43687Y70675*
X42750*
Y71613*
X44250*
X45750D02*
X46687Y69363D01*
X47625Y71613*
X45250Y75300D02*
X85250D01*
Y165300*
X45250*
Y75300*
X60250Y85300D02*
G75*
G03X70250Y80300I5000J-2500D01*
G01*
G75*
G03X60250Y85300I-5000J2500*
G01*
X63125Y69363D02*
X63875D01*
X63500D02*
Y71613D01*
X63125Y71237*
X67250Y69363D02*
X65750D01*
X67063Y70675*
X67250Y71050*
X67063Y71425*
X66687Y71613*
X66125*
X65750Y71425*
X68750Y71613D02*
X69687Y69363D01*
X70625Y71613*
X65250Y180300D02*
X75250D01*
Y200300*
X65250*
Y180300*
Y204800D02*
X30250D01*
Y175800*
X65250*
Y204800*
X75250Y47800D02*
X45250D01*
Y13300*
X75250*
Y47800*
X80250Y10300D02*
X125250D01*
Y67800*
X80250*
Y10300*
X85250Y206613D02*
X86750D01*
X86000Y205863D02*
Y207363D01*
X90250Y75300D02*
X140250D01*
Y205300*
X90250*
Y75300*
X95563Y206800D02*
X96125D01*
Y206613*
X95937Y206237*
X95750Y206050*
X95375Y205863*
X95000*
X94625Y206050*
X94437Y206237*
X94250Y206613*
Y207363*
X94437Y207737*
X94625Y207925*
X95000Y208113*
X95375*
X95750Y207925*
X95937Y207737*
X96125Y207363*
X96563Y71800D02*
X97125D01*
Y71613*
X96937Y71237*
X96750Y71050*
X96375Y70863*
X96000*
X95625Y71050*
X95437Y71237*
X95250Y71613*
Y72363*
X95437Y72737*
X95625Y72925*
X96000Y73113*
X96375*
X96750Y72925*
X96937Y72737*
X97125Y72363*
X104250Y206613D02*
X105750D01*
X105000Y205863D02*
Y207363D01*
X105250Y71613D02*
X106750D01*
X106000Y70863D02*
Y72363D01*
X105250Y210300D02*
X135250D01*
Y220300*
X105250*
Y210300*
X125563Y206800D02*
X126125D01*
Y206613*
X125937Y206237*
X125750Y206050*
X125375Y205863*
X125000*
X124625Y206050*
X124437Y206237*
X124250Y206613*
Y207363*
X124437Y207737*
X124625Y207925*
X125000Y208113*
X125375*
X125750Y207925*
X125937Y207737*
X126125Y207363*
X126563Y71800D02*
X127125D01*
Y71613*
X126937Y71237*
X126750Y71050*
X126375Y70863*
X126000*
X125625Y71050*
X125437Y71237*
X125250Y71613*
Y72363*
X125437Y72737*
X125625Y72925*
X126000Y73113*
X126375*
X126750Y72925*
X126937Y72737*
X127125Y72363*
X133750Y47050D02*
X134750D01*
X134250D02*
Y50050D01*
X133750Y49550*
X139250Y47050D02*
X137250D01*
X139000Y48800*
X139250Y49300*
X139000Y49800*
X138500Y50050*
X137750*
X137250Y49800*
X141250Y50050D02*
X142500Y47050D01*
X143750Y50050*
X134250Y206613D02*
X135750D01*
X135000Y205863D02*
Y207363D01*
X135250Y11300D02*
X135750Y11050D01*
X136500*
X137000Y11300*
X137250Y11800*
Y12050*
X137000Y12550*
X136500Y12800*
X135250*
Y14050*
X137250*
X139250D02*
X140500Y11050D01*
X141750Y14050*
X135250Y15300D02*
X145250D01*
Y45300*
X135250*
Y15300*
Y71613D02*
X136750D01*
X136000Y70863D02*
Y72363D01*
X141750Y128863D02*
X140250D01*
X141563Y130175*
X141750Y130550*
X141563Y130925*
X141187Y131113*
X140625*
X140250Y130925*
X143250Y129425D02*
X143437Y129800D01*
X143813Y129987*
X144187*
X144563Y129800*
X144750Y129425*
X144563Y129050*
X144187Y128863*
X143813*
X143437Y129050*
X143250Y129425*
Y129987*
X143437Y130550*
X143813Y130925*
X144187Y131113*
X146250Y128863D02*
X148125Y131113D01*
X149250Y128863D02*
Y131113D01*
X150375*
X150750Y130925*
X150937Y130737*
X151125Y130363*
Y129613*
X150937Y129237*
X150750Y129050*
X150375Y128863*
X149250*
X152250D02*
X153187Y131113D01*
X154125Y128863*
X152625Y129800D02*
X153750D01*
X156750Y128863D02*
X155250D01*
X156563Y130175*
X156750Y130550*
X156563Y130925*
X156187Y131113*
X155625*
X155250Y130925*
X141750Y138863D02*
X140250D01*
X141563Y140175*
X141750Y140550*
X141563Y140925*
X141187Y141113*
X140625*
X140250Y140925*
X143250Y139050D02*
X143625Y138863D01*
X144187*
X144563Y139050*
X144750Y139425*
Y139613*
X144563Y139987*
X144187Y140175*
X143250*
Y141113*
X144750*
X146250Y138863D02*
X148125Y141113D01*
X149250Y138863D02*
Y141113D01*
X150375*
X150750Y140925*
X150937Y140737*
X151125Y140363*
Y139613*
X150937Y139237*
X150750Y139050*
X150375Y138863*
X149250*
X152250D02*
X153187Y141113D01*
X154125Y138863*
X152625Y139800D02*
X153750D01*
X155625Y138863D02*
X156375D01*
X156000D02*
Y141113D01*
X155625Y140737*
X141625Y78863D02*
X142375D01*
X142000D02*
Y81113D01*
X141625Y80737*
X144437Y79050D02*
X144813Y78863D01*
X145187*
X145563Y79050*
X145750Y79425*
X145563Y79800*
X145187Y79987*
X144813*
X145187D02*
X145563Y80175D01*
X145750Y80550*
X145563Y80925*
X145187Y81113*
X144813*
X144437Y80925*
X147250Y78863D02*
X149125Y81113D01*
X151187Y78863D02*
Y81113D01*
X150250D02*
X152125D01*
X154187Y78863D02*
Y81113D01*
X153250Y79613*
X154750*
X141625Y98863D02*
X142375D01*
X142000D02*
Y101113D01*
X141625Y100737*
X145750Y98863D02*
X144250D01*
X145563Y100175*
X145750Y100550*
X145563Y100925*
X145187Y101113*
X144625*
X144250Y100925*
X147250Y98863D02*
X149125Y101113D01*
X151187Y98863D02*
Y101113D01*
X150250D02*
X152125D01*
X153250Y99050D02*
X153625Y98863D01*
X154187*
X154563Y99050*
X154750Y99425*
Y99613*
X154563Y99987*
X154187Y100175*
X153250*
Y101113*
X154750*
X141625Y108863D02*
X142375D01*
X142000D02*
Y111113D01*
X141625Y110737*
X145187Y108863D02*
Y111113D01*
X144250Y109613*
X145750*
X147250Y108863D02*
X149125Y111113D01*
X151187Y108863D02*
Y111113D01*
X150250D02*
X152125D01*
X153250Y109425D02*
X153437Y109800D01*
X153813Y109987*
X154187*
X154563Y109800*
X154750Y109425*
X154563Y109050*
X154187Y108863*
X153813*
X153437Y109050*
X153250Y109425*
Y109987*
X153437Y110550*
X153813Y110925*
X154187Y111113*
X142750Y118863D02*
X141250D01*
X142563Y120175*
X142750Y120550*
X142563Y120925*
X142187Y121113*
X141625*
X141250Y120925*
X144250Y118863D02*
X145750Y121113D01*
X144250*
X147250Y118863D02*
X149125Y121113D01*
X151187Y118863D02*
Y121113D01*
X150250D02*
X152125D01*
X153250Y118863D02*
X154750Y121113D01*
X153250*
X141437Y149050D02*
X141813Y148863D01*
X142187*
X142563Y149050*
X142750Y149425*
X142563Y149800*
X142187Y149987*
X141813*
X142187D02*
X142563Y150175D01*
X142750Y150550*
X142563Y150925*
X142187Y151113*
X141813*
X141437Y150925*
X144437Y149050D02*
X144813Y148863D01*
X145187*
X145563Y149050*
X145750Y149425*
X145563Y149800*
X145187Y149987*
X144813*
X145187D02*
X145563Y150175D01*
X145750Y150550*
X145563Y150925*
X145187Y151113*
X144813*
X144437Y150925*
X147250Y148863D02*
X149125Y151113D01*
X151187Y148863D02*
Y151113D01*
X150250D02*
X152125D01*
X153813Y149987D02*
X154187D01*
X154563Y150175*
X154750Y150550*
X154563Y150925*
X154187Y151113*
X153813*
X153437Y150925*
X153250Y150550*
X153437Y150175*
X153813Y149987*
X153437Y149800*
X153250Y149425*
X153437Y149050*
X153813Y148863*
X154187*
X154563Y149050*
X154750Y149425*
X154563Y149800*
X154187Y149987*
X141437Y159050D02*
X141813Y158863D01*
X142187*
X142563Y159050*
X142750Y159425*
X142563Y159800*
X142187Y159987*
X141813*
X142187D02*
X142563Y160175D01*
X142750Y160550*
X142563Y160925*
X142187Y161113*
X141813*
X141437Y160925*
X145750Y158863D02*
X144250D01*
X145563Y160175*
X145750Y160550*
X145563Y160925*
X145187Y161113*
X144625*
X144250Y160925*
X147250Y158863D02*
X149125Y161113D01*
X151187Y158863D02*
Y161113D01*
X150250D02*
X152125D01*
X153813Y158863D02*
X154187Y159050D01*
X154563Y159425*
X154750Y159987*
Y160550*
X154563Y160925*
X154187Y161113*
X153813*
X153437Y160925*
X153250Y160550*
X153437Y160175*
X153813Y159987*
X154187*
X154563Y160175*
X154750Y160550*
X141250Y191113D02*
X142187Y188863D01*
X143125Y191113*
X144250Y188863D02*
Y191113D01*
X146125Y188863*
Y191113*
X147250Y188863D02*
X149125Y191113D01*
X150437Y189050D02*
X150813Y188863D01*
X151187*
X151563Y189050*
X151750Y189425*
X151563Y189800*
X151187Y189987*
X150813*
X151187D02*
X151563Y190175D01*
X151750Y190550*
X151563Y190925*
X151187Y191113*
X150813*
X150437Y190925*
X153813Y188863D02*
X154187Y189050D01*
X154563Y189425*
X154750Y189987*
Y190550*
X154563Y190925*
X154187Y191113*
X153813*
X153437Y190925*
X153250Y190550*
X153437Y190175*
X153813Y189987*
X154187*
X154563Y190175*
X154750Y190550*
X141250Y201113D02*
X142187Y198863D01*
X143125Y201113*
X144250Y198863D02*
Y201113D01*
X145563*
X145937Y200925*
X146125Y200550*
X145937Y200175*
X145563Y199987*
X144250*
X147250Y198863D02*
X149125Y201113D01*
X150437Y199050D02*
X150813Y198863D01*
X151187*
X151563Y199050*
X151750Y199425*
X151563Y199800*
X151187Y199987*
X150813*
X151187D02*
X151563Y200175D01*
X151750Y200550*
X151563Y200925*
X151187Y201113*
X150813*
X150437Y200925*
X153250Y199425D02*
X153437Y199800D01*
X153813Y199987*
X154187*
X154563Y199800*
X154750Y199425*
X154563Y199050*
X154187Y198863*
X153813*
X153437Y199050*
X153250Y199425*
Y199987*
X153437Y200550*
X153813Y200925*
X154187Y201113*
X147125Y49237D02*
X146937Y49050D01*
X146563Y48863*
X146000*
X145625Y49050*
X145437Y49237*
X145250Y49613*
Y50363*
X145437Y50737*
X145625Y50925*
X146000Y51113*
X146563*
X146937Y50925*
X147125Y50737*
X148250Y48863D02*
Y51113D01*
X149187Y49987*
X150125Y51113*
Y48863*
X151250D02*
Y51113D01*
X152375*
X152750Y50925*
X152937Y50737*
X153125Y50363*
Y49613*
X152937Y49237*
X152750Y49050*
X152375Y48863*
X151250*
X154250Y49613D02*
X155750D01*
X154625Y48863D02*
X155375Y50363D01*
X154625D02*
X155375Y48863D01*
X146250Y58863D02*
Y61113D01*
X147375*
X147750Y60925*
X147937Y60737*
X148125Y60363*
Y59613*
X147937Y59237*
X147750Y59050*
X147375Y58863*
X146250*
X149437Y59050D02*
X149813Y58863D01*
X150187*
X150563Y59050*
X150750Y59425*
X150563Y59800*
X150187Y59987*
X149813*
X150187D02*
X150563Y60175D01*
X150750Y60550*
X150563Y60925*
X150187Y61113*
X149813*
X149437Y60925*
X152250Y59613D02*
X153750D01*
X152625Y58863D02*
X153375Y60363D01*
X152625D02*
X153375Y58863D01*
X146250Y68863D02*
Y71113D01*
X147375*
X147750Y70925*
X147937Y70737*
X148125Y70363*
Y69613*
X147937Y69237*
X147750Y69050*
X147375Y68863*
X146250*
X150750D02*
X149250D01*
X150563Y70175*
X150750Y70550*
X150563Y70925*
X150187Y71113*
X149625*
X149250Y70925*
X152250Y69613D02*
X153750D01*
X152625Y68863D02*
X153375Y70363D01*
X152625D02*
X153375Y68863D01*
X147563Y89800D02*
X148125D01*
Y89613*
X147937Y89237*
X147750Y89050*
X147375Y88863*
X147000*
X146625Y89050*
X146437Y89237*
X146250Y89613*
Y90363*
X146437Y90737*
X146625Y90925*
X147000Y91113*
X147375*
X147750Y90925*
X147937Y90737*
X148125Y90363*
X149250Y88863D02*
Y91113D01*
X151125Y88863*
Y91113*
X152250Y88863D02*
Y91113D01*
X153375*
X153750Y90925*
X153937Y90737*
X154125Y90363*
Y89613*
X153937Y89237*
X153750Y89050*
X153375Y88863*
X152250*
X150250Y41050D02*
X150625Y40863D01*
X151187*
X151563Y41050*
X151750Y41425*
Y41613*
X151563Y41987*
X151187Y42175*
X150250*
Y43113*
X151750*
X153250D02*
X154187Y40863D01*
X155125Y43113*
X150250Y208863D02*
Y211113D01*
X152125*
X151750Y209987D02*
X150250D01*
Y208863D02*
X152125D01*
X153250D02*
Y211113D01*
X155125Y208863*
Y211113*
X150437Y220050D02*
X150813Y219863D01*
X151187*
X151563Y220050*
X151750Y220425*
X151563Y220800*
X151187Y220987*
X150813*
X151187D02*
X151563Y221175D01*
X151750Y221550*
X151563Y221925*
X151187Y222113*
X150813*
X150437Y221925*
X153250Y222113D02*
X154187Y219863D01*
X155125Y222113*
X151437Y169050D02*
X151813Y168863D01*
X152187*
X152563Y169050*
X152750Y169425*
X152563Y169800*
X152187Y169987*
X151813*
X152187D02*
X152563Y170175D01*
X152750Y170550*
X152563Y170925*
X152187Y171113*
X151813*
X151437Y170925*
X154250Y169050D02*
X154625Y168863D01*
X155187*
X155563Y169050*
X155750Y169425*
Y169613*
X155563Y169987*
X155187Y170175*
X154250*
Y171113*
X155750*
X151437Y179050D02*
X151813Y178863D01*
X152187*
X152563Y179050*
X152750Y179425*
X152563Y179800*
X152187Y179987*
X151813*
X152187D02*
X152563Y180175D01*
X152750Y180550*
X152563Y180925*
X152187Y181113*
X151813*
X151437Y180925*
X155187Y178863D02*
Y181113D01*
X154250Y179613*
X155750*
X155250Y6050D02*
X155625Y5863D01*
X156187*
X156563Y6050*
X156750Y6425*
Y6613*
X156563Y6987*
X156187Y7175*
X155250*
Y8113*
X156750*
X158250D02*
X159187Y5863D01*
X160125Y8113*
X165750Y6050D02*
X165563Y5863D01*
X165187*
X164813*
X164437Y6050*
X164250Y6425*
Y6987*
X164437Y7175*
X164813Y7363*
X165187*
X165563Y7175*
X165750Y6987*
Y6800*
X165563Y6613*
X165187Y6425*
X164813*
X164437Y6613*
X164250Y6800*
X167250Y5863D02*
X168750Y7363D01*
Y5863D02*
X167250Y7363D01*
X170625D02*
X171375D01*
X171000Y7737D02*
Y6050D01*
X171187Y5863*
X171375*
X171563Y6050*
X173437Y5863D02*
X173625Y6050D01*
X173437Y6237*
X173250Y6050*
X173437Y5863*
X155250Y10300D02*
X165250D01*
Y30300*
X155250*
Y10300*
X165250Y30300D02*
X255250D01*
Y240300*
X165250*
Y30300*
X180250Y180300D02*
X240250D01*
Y190300*
X180250*
Y180300*
X182750Y75300D02*
X242750D01*
Y85300*
X182750*
Y75300*
X184063Y191800D02*
X184625D01*
Y191613*
X184437Y191237*
X184250Y191050*
X183875Y190863*
X183500*
X183125Y191050*
X182937Y191237*
X182750Y191613*
Y192363*
X182937Y192737*
X183125Y192925*
X183500Y193113*
X183875*
X184250Y192925*
X184437Y192737*
X184625Y192363*
X189063Y86800D02*
X189625D01*
Y86613*
X189437Y86237*
X189250Y86050*
X188875Y85863*
X188500*
X188125Y86050*
X187937Y86237*
X187750Y86613*
Y87363*
X187937Y87737*
X188125Y87925*
X188500Y88113*
X188875*
X189250Y87925*
X189437Y87737*
X189625Y87363*
X190250Y5300D02*
X230250D01*
Y20300*
X190250*
Y5300*
X192750Y190863D02*
Y193113D01*
X193687Y191987*
X194625Y193113*
Y190863*
X196313D02*
X197063D01*
X196687D02*
Y193113D01*
X196313D02*
X197063D01*
X195437Y86050D02*
X195813Y85863D01*
X196187*
X196563Y86050*
X196750Y86425*
X196563Y86800*
X196187Y86987*
X195813*
X196187D02*
X196563Y87175D01*
X196750Y87550*
X196563Y87925*
X196187Y88113*
X195813*
X195437Y87925*
X198250Y88113D02*
X199187Y85863D01*
X200125Y88113*
X197187Y200300D02*
X194937D01*
Y202175*
X196063Y201800D02*
Y200300D01*
X197187D02*
Y202175D01*
Y203300D02*
X194937D01*
X197187Y205175*
X194937*
X197187Y207237D02*
X197000Y207425D01*
X196813Y207237*
X197000Y207050*
X197187Y207237*
X196250D02*
X196063Y207425D01*
X195875Y207237*
X196063Y207050*
X196250Y207237*
X197187Y212675D02*
Y213425D01*
Y213050D02*
X194937D01*
X195313Y212675*
X197000Y215487D02*
X197187Y215863D01*
Y216237*
X197000Y216613*
X196625Y216800*
X195500*
X195125Y216613*
X194937Y216237*
Y215863*
X195125Y215487*
X195500Y215300*
X196625*
X197000Y215487*
X195125Y216613*
X195687Y218300D02*
X196625D01*
X197000Y218487*
X197187Y218863*
Y219237*
X197000Y219613*
X196625Y219800*
X195687D02*
X197187D01*
Y221300D02*
X194937D01*
Y223175*
X196063Y222800D02*
Y221300D01*
X195875Y228800D02*
X195687Y228425D01*
Y227863*
X195875Y227487*
X196250Y227300*
X196625*
X197000Y227487*
X197187Y227863*
Y228425*
X197000Y228800*
X195875Y230300D02*
X195687Y230675D01*
Y231237*
X195875Y231613*
X196250Y231800*
X196813*
X197000Y231613*
X197187Y231237*
Y230863*
X197000Y230487*
X196813Y230300*
X196625*
X196437Y230487*
X196250Y230863*
Y231237*
X196437Y231613*
X196625Y231800*
X196813D02*
X197187D01*
X195687Y233300D02*
X197750D01*
X196625D02*
X197000Y233487D01*
X197187Y233863*
Y234237*
X197000Y234613*
X196625Y234800*
X196250*
X195875Y234613*
X195687Y234237*
Y233863*
X195875Y233487*
X196250Y233300*
X196625*
X200250Y205300D02*
X220250D01*
Y215300*
X200250*
Y205300*
X204625Y191237D02*
X204437Y191050D01*
X204063Y190863*
X203500*
X203125Y191050*
X202937Y191237*
X202750Y191613*
Y192363*
X202937Y192737*
X203125Y192925*
X203500Y193113*
X204063*
X204437Y192925*
X204625Y192737*
X205750Y190863D02*
Y193113D01*
Y191987D02*
X206313D01*
X207625Y193113*
X206313Y191987D02*
X207625Y190863D01*
X202750Y204113D02*
X204250D01*
X203500Y203363D02*
Y204863D01*
X205250Y85863D02*
Y88113D01*
X206187Y86987*
X207125Y88113*
Y85863*
X208813D02*
X209563D01*
X209187D02*
Y88113D01*
X208813D02*
X209563D01*
X212750Y190863D02*
Y193113D01*
X213687Y191987*
X214625Y193113*
Y190863*
X215750Y191613D02*
Y192363D01*
X215937Y192737*
X216125Y192925*
X216500Y193113*
X216875*
X217250Y192925*
X217437Y192737*
X217625Y192363*
Y191613*
X217437Y191237*
X217250Y191050*
X216875Y190863*
X216500*
X216125Y191050*
X215937Y191237*
X215750Y191613*
X215250Y85863D02*
Y88113D01*
X216187Y86987*
X217125Y88113*
Y85863*
X218250Y86613D02*
Y87363D01*
X218437Y87737*
X218625Y87925*
X219000Y88113*
X219375*
X219750Y87925*
X219937Y87737*
X220125Y87363*
Y86613*
X219937Y86237*
X219750Y86050*
X219375Y85863*
X219000*
X218625Y86050*
X218437Y86237*
X218250Y86613*
X219063Y158363D02*
X218687Y158925D01*
Y160237*
X219063Y160613*
X221125Y158363D02*
X221875D01*
X221500D02*
Y160613D01*
X221125Y160237*
X223937Y158550D02*
X224313Y158363D01*
X224687*
X225063Y158550*
X225250Y158925*
Y160050*
X225063Y160425*
X224687Y160613*
X224313*
X223937Y160425*
X223750Y160050*
Y158925*
X223937Y158550*
X225063Y160425*
X226750Y158363D02*
Y160613D01*
Y159113D02*
X227313D01*
X228250Y159863*
X227313Y159113D02*
X228250Y158363D01*
X230313D02*
X230687Y158925D01*
Y160237*
X230313Y160613*
X218313Y163363D02*
X219063D01*
X218687D02*
Y165613D01*
X218313D02*
X219063D01*
X222250Y163363D02*
X220750D01*
X222063Y164675*
X222250Y165050*
X222063Y165425*
X221687Y165613*
X221125*
X220750Y165425*
X225625Y163737D02*
X225437Y163550D01*
X225063Y163363*
X224500*
X224125Y163550*
X223937Y163737*
X223750Y164113*
Y164863*
X223937Y165237*
X224125Y165425*
X224500Y165613*
X225063*
X225437Y165425*
X225625Y165237*
X229750Y164863D02*
Y162800D01*
Y163925D02*
X229937Y163550D01*
X230313Y163363*
X230687*
X231063Y163550*
X231250Y163925*
Y164300*
X231063Y164675*
X230687Y164863*
X230313*
X229937Y164675*
X229750Y164300*
Y163925*
X232750Y164863D02*
Y163925D01*
X232937Y163550*
X233313Y163363*
X233687*
X234063Y163550*
X234250Y163925*
Y164863D02*
Y163363D01*
X236687D02*
X236500D01*
Y165613*
X239687Y163363D02*
X239500D01*
Y165613*
X241750Y164863D02*
Y163925D01*
X241937Y163550*
X242313Y163363*
X242687*
X243063Y163550*
X243250Y163925*
Y164863D02*
Y163363D01*
X244750Y164863D02*
Y162800D01*
Y163925D02*
X244937Y163550D01*
X245313Y163363*
X245687*
X246063Y163550*
X246250Y163925*
Y164300*
X246063Y164675*
X245687Y164863*
X245313*
X244937Y164675*
X244750Y164300*
Y163925*
X220250Y191050D02*
X220625Y190863D01*
X221187*
X221563Y191050*
X221750Y191425*
Y191613*
X221563Y191987*
X221187Y192175*
X220250*
Y193113*
X221750*
X223250Y190863D02*
X225125Y193113D01*
X226250Y191425D02*
X226437Y191050D01*
X226813Y190863*
X227563*
X227937Y191050*
X228125Y191425*
X227937Y191800*
X227563Y191987*
X226813*
X226437Y192175*
X226250Y192550*
X226437Y192925*
X226813Y193113*
X227563*
X227937Y192925*
X228125Y192550*
X229250Y191425D02*
X229437Y191050D01*
X229813Y190863*
X230563*
X230937Y191050*
X231125Y191425*
X230937Y191800*
X230563Y191987*
X229813*
X229437Y192175*
X229250Y192550*
X229437Y192925*
X229813Y193113*
X230563*
X230937Y192925*
X231125Y192550*
X224063Y200863D02*
X223687Y201425D01*
Y202737*
X224063Y203113*
X226125Y200863D02*
X226875D01*
X226500D02*
Y203113D01*
X226125Y202737*
X228937Y201050D02*
X229313Y200863D01*
X229687*
X230063Y201050*
X230250Y201425*
Y202550*
X230063Y202925*
X229687Y203113*
X229313*
X228937Y202925*
X228750Y202550*
Y201425*
X228937Y201050*
X230063Y202925*
X231750Y200863D02*
Y203113D01*
Y201613D02*
X232313D01*
X233250Y202363*
X232313Y201613D02*
X233250Y200863D01*
X235313D02*
X235687Y201425D01*
Y202737*
X235313Y203113*
X223313Y205863D02*
X224063D01*
X223687D02*
Y208113D01*
X223313D02*
X224063D01*
X227250Y205863D02*
X225750D01*
X227063Y207175*
X227250Y207550*
X227063Y207925*
X226687Y208113*
X226125*
X225750Y207925*
X230625Y206237D02*
X230437Y206050D01*
X230063Y205863*
X229500*
X229125Y206050*
X228937Y206237*
X228750Y206613*
Y207363*
X228937Y207737*
X229125Y207925*
X229500Y208113*
X230063*
X230437Y207925*
X230625Y207737*
X234750Y207363D02*
Y205300D01*
Y206425D02*
X234937Y206050D01*
X235313Y205863*
X235687*
X236063Y206050*
X236250Y206425*
Y206800*
X236063Y207175*
X235687Y207363*
X235313*
X234937Y207175*
X234750Y206800*
Y206425*
X237750Y207363D02*
Y206425D01*
X237937Y206050*
X238313Y205863*
X238687*
X239063Y206050*
X239250Y206425*
Y207363D02*
Y205863D01*
X241687D02*
X241500D01*
Y208113*
X244687Y205863D02*
X244500D01*
Y208113*
X246750Y207363D02*
Y206425D01*
X246937Y206050*
X247313Y205863*
X247687*
X248063Y206050*
X248250Y206425*
Y207363D02*
Y205863D01*
X249750Y207363D02*
Y205300D01*
Y206425D02*
X249937Y206050D01*
X250313Y205863*
X250687*
X251063Y206050*
X251250Y206425*
Y206800*
X251063Y207175*
X250687Y207363*
X250313*
X249937Y207175*
X249750Y206800*
Y206425*
X227125Y86237D02*
X226937Y86050D01*
X226563Y85863*
X226000*
X225625Y86050*
X225437Y86237*
X225250Y86613*
Y87363*
X225437Y87737*
X225625Y87925*
X226000Y88113*
X226563*
X226937Y87925*
X227125Y87737*
X228250Y85863D02*
Y88113D01*
Y86987D02*
X228813D01*
X230125Y88113*
X228813Y86987D02*
X230125Y85863D01*
X235250Y86050D02*
X235625Y85863D01*
X236187*
X236563Y86050*
X236750Y86425*
Y86613*
X236563Y86987*
X236187Y87175*
X235250*
Y88113*
X236750*
X238250Y85863D02*
X240125Y88113D01*
X241250Y86425D02*
X241437Y86050D01*
X241813Y85863*
X242563*
X242937Y86050*
X243125Y86425*
X242937Y86800*
X242563Y86987*
X241813*
X241437Y87175*
X241250Y87550*
X241437Y87925*
X241813Y88113*
X242563*
X242937Y87925*
X243125Y87550*
X244250Y86425D02*
X244437Y86050D01*
X244813Y85863*
X245563*
X245937Y86050*
X246125Y86425*
X245937Y86800*
X245563Y86987*
X244813*
X244437Y87175*
X244250Y87550*
X244437Y87925*
X244813Y88113*
X245563*
X245937Y87925*
X246125Y87550*
X235437Y191050D02*
X235813Y190863D01*
X236187*
X236563Y191050*
X236750Y191425*
X236563Y191800*
X236187Y191987*
X235813*
X236187D02*
X236563Y192175D01*
X236750Y192550*
X236563Y192925*
X236187Y193113*
X235813*
X235437Y192925*
X238250Y193113D02*
X239187Y190863D01*
X240125Y193113*
X242750Y10300D02*
X322750D01*
Y20300*
X242750*
Y10300*
X244000Y22050D02*
Y25050D01*
X242750D02*
X245250D01*
X248000Y22050D02*
Y25050D01*
X246750Y23050*
X248750*
X244250Y6050D02*
X245250D01*
X244750D02*
Y9050D01*
X244250Y8550*
X248000Y6300D02*
X248500Y6050D01*
X249000*
X249500Y6300*
X249750Y6800*
X249500Y7300*
X249000Y7550*
X248500*
X249000D02*
X249500Y7800D01*
X249750Y8300*
X249500Y8800*
X249000Y9050*
X248500*
X248000Y8800*
X254000Y22050D02*
Y25050D01*
X252750D02*
X255250D01*
X256750Y22300D02*
X257250Y22050D01*
X258000*
X258500Y22300*
X258750Y22800*
Y23050*
X258500Y23550*
X258000Y23800*
X256750*
Y25050*
X258750*
X254250Y6050D02*
X255250D01*
X254750D02*
Y9050D01*
X254250Y8550*
X259750Y6050D02*
X257750D01*
X259500Y7800*
X259750Y8300*
X259500Y8800*
X259000Y9050*
X258250*
X257750Y8800*
X263625Y109863D02*
X264375D01*
X264000D02*
Y112113D01*
X263625Y111737*
X266250Y110425D02*
X266437Y110800D01*
X266813Y110987*
X267187*
X267563Y110800*
X267750Y110425*
X267563Y110050*
X267187Y109863*
X266813*
X266437Y110050*
X266250Y110425*
Y110987*
X266437Y111550*
X266813Y111925*
X267187Y112113*
X269250Y109863D02*
X271125Y112113D01*
X272250Y109863D02*
Y112113D01*
X273563*
X273937Y111925*
X274125Y111550*
X273937Y111175*
X273563Y110987*
X272250*
X273563D02*
X274125Y109863D01*
X275250D02*
X277125Y112113D01*
X275250D02*
X277125Y109863D01*
X279750D02*
X278250D01*
X279563Y111175*
X279750Y111550*
X279563Y111925*
X279187Y112113*
X278625*
X278250Y111925*
X263625Y119863D02*
X264375D01*
X264000D02*
Y122113D01*
X263625Y121737*
X266250Y119863D02*
X267750Y122113D01*
X266250*
X269250Y119863D02*
X271125Y122113D01*
X273187Y119863D02*
Y122113D01*
X272250D02*
X274125D01*
X275250Y119863D02*
X277125Y122113D01*
X275250D02*
X277125Y119863D01*
X279750D02*
X278250D01*
X279563Y121175*
X279750Y121550*
X279563Y121925*
X279187Y122113*
X278625*
X278250Y121925*
X263625Y139863D02*
X264375D01*
X264000D02*
Y142113D01*
X263625Y141737*
X266813Y140987D02*
X267187D01*
X267563Y141175*
X267750Y141550*
X267563Y141925*
X267187Y142113*
X266813*
X266437Y141925*
X266250Y141550*
X266437Y141175*
X266813Y140987*
X266437Y140800*
X266250Y140425*
X266437Y140050*
X266813Y139863*
X267187*
X267563Y140050*
X267750Y140425*
X267563Y140800*
X267187Y140987*
X269250Y139863D02*
X271125Y142113D01*
X272250Y140425D02*
X272437Y140050D01*
X272813Y139863*
X273563*
X273937Y140050*
X274125Y140425*
X273937Y140800*
X273563Y140987*
X272813*
X272437Y141175*
X272250Y141550*
X272437Y141925*
X272813Y142113*
X273563*
X273937Y141925*
X274125Y141550*
X277125Y140237D02*
X276937Y140050D01*
X276563Y139863*
X276000*
X275625Y140050*
X275437Y140237*
X275250Y140613*
Y141363*
X275437Y141737*
X275625Y141925*
X276000Y142113*
X276563*
X276937Y141925*
X277125Y141737*
X278250Y139863D02*
Y142113D01*
Y140987D02*
X278813D01*
X280125Y142113*
X278813Y140987D02*
X280125Y139863D01*
X263625Y149863D02*
X264375D01*
X264000D02*
Y152113D01*
X263625Y151737*
X266813Y149863D02*
X267187Y150050D01*
X267563Y150425*
X267750Y150987*
Y151550*
X267563Y151925*
X267187Y152113*
X266813*
X266437Y151925*
X266250Y151550*
X266437Y151175*
X266813Y150987*
X267187*
X267563Y151175*
X267750Y151550*
X269250Y149863D02*
X271125Y152113D01*
X272250Y149863D02*
Y152113D01*
X273187Y150987*
X274125Y152113*
Y149863*
X275813D02*
X276563D01*
X276187D02*
Y152113D01*
X275813D02*
X276563D01*
X264750Y169863D02*
X263250D01*
X264563Y171175*
X264750Y171550*
X264563Y171925*
X264187Y172113*
X263625*
X263250Y171925*
X266625Y169863D02*
X267375D01*
X267000D02*
Y172113D01*
X266625Y171737*
X269250Y169863D02*
X271125Y172113D01*
X272250Y170425D02*
X272437Y170050D01*
X272813Y169863*
X273563*
X273937Y170050*
X274125Y170425*
X273937Y170800*
X273563Y170987*
X272813*
X272437Y171175*
X272250Y171550*
X272437Y171925*
X272813Y172113*
X273563*
X273937Y171925*
X274125Y171550*
X275250Y169863D02*
Y172113D01*
X276375*
X276750Y171925*
X276937Y171737*
X277125Y171363*
Y170613*
X276937Y170237*
X276750Y170050*
X276375Y169863*
X275250*
X278250D02*
X279187Y172113D01*
X280125Y169863*
X278625Y170800D02*
X279750D01*
X264750Y199863D02*
X263250D01*
X264563Y201175*
X264750Y201550*
X264563Y201925*
X264187Y202113*
X263625*
X263250Y201925*
X267750Y199863D02*
X266250D01*
X267563Y201175*
X267750Y201550*
X267563Y201925*
X267187Y202113*
X266625*
X266250Y201925*
X269250Y199863D02*
X271125Y202113D01*
X272250Y200425D02*
X272437Y200050D01*
X272813Y199863*
X273563*
X273937Y200050*
X274125Y200425*
X273937Y200800*
X273563Y200987*
X272813*
X272437Y201175*
X272250Y201550*
X272437Y201925*
X272813Y202113*
X273563*
X273937Y201925*
X274125Y201550*
X277125Y200237D02*
X276937Y200050D01*
X276563Y199863*
X276000*
X275625Y200050*
X275437Y200237*
X275250Y200613*
Y201363*
X275437Y201737*
X275625Y201925*
X276000Y202113*
X276563*
X276937Y201925*
X277125Y201737*
X278250Y202113D02*
Y199863D01*
X280125*
X265000Y22050D02*
Y25050D01*
X263750D02*
X266250D01*
X267750Y22800D02*
X268000Y23300D01*
X268500Y23550*
X269000*
X269500Y23300*
X269750Y22800*
X269500Y22300*
X269000Y22050*
X268500*
X268000Y22300*
X267750Y22800*
Y23550*
X268000Y24300*
X268500Y24800*
X269000Y25050*
X266125Y40237D02*
X265937Y40050D01*
X265563Y39863*
X265000*
X264625Y40050*
X264437Y40237*
X264250Y40613*
Y41363*
X264437Y41737*
X264625Y41925*
X265000Y42113*
X265563*
X265937Y41925*
X266125Y41737*
X267250Y42113D02*
Y39863D01*
X269125*
X270250D02*
Y42113D01*
Y40987D02*
X270813D01*
X272125Y42113*
X270813Y40987D02*
X272125Y39863D01*
X273250Y40613D02*
X274750D01*
X273625Y39863D02*
X274375Y41363D01*
X273625D02*
X274375Y39863D01*
X264250Y49863D02*
Y52113D01*
X265375*
X265750Y51925*
X265937Y51737*
X266125Y51363*
Y50613*
X265937Y50237*
X265750Y50050*
X265375Y49863*
X264250*
X267437Y50050D02*
X267813Y49863D01*
X268187*
X268563Y50050*
X268750Y50425*
Y51550*
X268563Y51925*
X268187Y52113*
X267813*
X267437Y51925*
X267250Y51550*
Y50425*
X267437Y50050*
X268563Y51925*
X270250Y50613D02*
X271750D01*
X270625Y49863D02*
X271375Y51363D01*
X270625D02*
X271375Y49863D01*
X264250Y59863D02*
Y62113D01*
X265375*
X265750Y61925*
X265937Y61737*
X266125Y61363*
Y60613*
X265937Y60237*
X265750Y60050*
X265375Y59863*
X264250*
X267625D02*
X268375D01*
X268000D02*
Y62113D01*
X267625Y61737*
X270250Y60613D02*
X271750D01*
X270625Y59863D02*
X271375Y61363D01*
X270625D02*
X271375Y59863D01*
X265625Y69863D02*
X266375D01*
X266000D02*
Y72113D01*
X265625Y71737*
X268250Y70050D02*
X268625Y69863D01*
X269187*
X269563Y70050*
X269750Y70425*
Y70613*
X269563Y70987*
X269187Y71175*
X268250*
Y72113*
X269750*
X271250Y69863D02*
X273125Y72113D01*
X275187Y69863D02*
Y72113D01*
X274250D02*
X276125D01*
X277437Y70050D02*
X277813Y69863D01*
X278187*
X278563Y70050*
X278750Y70425*
X278563Y70800*
X278187Y70987*
X277813*
X278187D02*
X278563Y71175D01*
X278750Y71550*
X278563Y71925*
X278187Y72113*
X277813*
X277437Y71925*
X266750Y79863D02*
X265250D01*
X266563Y81175*
X266750Y81550*
X266563Y81925*
X266187Y82113*
X265625*
X265250Y81925*
X268250Y79863D02*
X270125Y82113D01*
X272187Y79863D02*
Y82113D01*
X271250D02*
X273125D01*
X275750Y79863D02*
X274250D01*
X275563Y81175*
X275750Y81550*
X275563Y81925*
X275187Y82113*
X274625*
X274250Y81925*
X265437Y90050D02*
X265813Y89863D01*
X266187*
X266563Y90050*
X266750Y90425*
Y91550*
X266563Y91925*
X266187Y92113*
X265813*
X265437Y91925*
X265250Y91550*
Y90425*
X265437Y90050*
X266563Y91925*
X268250Y89863D02*
X270125Y92113D01*
X272187Y89863D02*
Y92113D01*
X271250D02*
X273125D01*
X274625Y89863D02*
X275375D01*
X275000D02*
Y92113D01*
X274625Y91737*
X266187Y99863D02*
Y102113D01*
X265250Y100613*
X266750*
X268250Y99863D02*
X270125Y102113D01*
X272187Y99863D02*
Y102113D01*
X271250D02*
X273125D01*
X274437Y100050D02*
X274813Y99863D01*
X275187*
X275563Y100050*
X275750Y100425*
Y101550*
X275563Y101925*
X275187Y102113*
X274813*
X274437Y101925*
X274250Y101550*
Y100425*
X274437Y100050*
X275563Y101925*
X265250Y130050D02*
X265625Y129863D01*
X266187*
X266563Y130050*
X266750Y130425*
Y130613*
X266563Y130987*
X266187Y131175*
X265250*
Y132113*
X266750*
X268250Y129863D02*
X270125Y132113D01*
X271250Y130425D02*
X271437Y130050D01*
X271813Y129863*
X272563*
X272937Y130050*
X273125Y130425*
X272937Y130800*
X272563Y130987*
X271813*
X271437Y131175*
X271250Y131550*
X271437Y131925*
X271813Y132113*
X272563*
X272937Y131925*
X273125Y131550*
X274250Y130425D02*
X274437Y130050D01*
X274813Y129863*
X275563*
X275937Y130050*
X276125Y130425*
X275937Y130800*
X275563Y130987*
X274813*
X274437Y131175*
X274250Y131550*
X274437Y131925*
X274813Y132113*
X275563*
X275937Y131925*
X276125Y131550*
X266563Y160800D02*
X267125D01*
Y160613*
X266937Y160237*
X266750Y160050*
X266375Y159863*
X266000*
X265625Y160050*
X265437Y160237*
X265250Y160613*
Y161363*
X265437Y161737*
X265625Y161925*
X266000Y162113*
X266375*
X266750Y161925*
X266937Y161737*
X267125Y161363*
X268250Y159863D02*
Y162113D01*
X270125Y159863*
Y162113*
X271250Y159863D02*
Y162113D01*
X272375*
X272750Y161925*
X272937Y161737*
X273125Y161363*
Y160613*
X272937Y160237*
X272750Y160050*
X272375Y159863*
X271250*
X265250Y179863D02*
Y182113D01*
X266563*
X266937Y181925*
X267125Y181550*
X266937Y181175*
X266563Y180987*
X265250*
X266563D02*
X267125Y179863D01*
X268250D02*
X270125Y182113D01*
X268250D02*
X270125Y179863D01*
X271250Y180613D02*
X272750D01*
X271625Y179863D02*
X272375Y181363D01*
X271625D02*
X272375Y179863D01*
X266187Y189863D02*
Y192113D01*
X265250D02*
X267125D01*
X268250Y189863D02*
X270125Y192113D01*
X268250D02*
X270125Y189863D01*
X271250Y190613D02*
X272750D01*
X271625Y189863D02*
X272375Y191363D01*
X271625D02*
X272375Y189863D01*
X266750Y209863D02*
X265250D01*
X266563Y211175*
X266750Y211550*
X266563Y211925*
X266187Y212113*
X265625*
X265250Y211925*
X268437Y210050D02*
X268813Y209863D01*
X269187*
X269563Y210050*
X269750Y210425*
X269563Y210800*
X269187Y210987*
X268813*
X269187D02*
X269563Y211175D01*
X269750Y211550*
X269563Y211925*
X269187Y212113*
X268813*
X268437Y211925*
X271250Y209863D02*
X273125Y212113D01*
X274250Y209863D02*
Y212113D01*
X275187Y210987*
X276125Y212113*
Y209863*
X277250Y210613D02*
Y211363D01*
X277437Y211737*
X277625Y211925*
X278000Y212113*
X278375*
X278750Y211925*
X278937Y211737*
X279125Y211363*
Y210613*
X278937Y210237*
X278750Y210050*
X278375Y209863*
X278000*
X277625Y210050*
X277437Y210237*
X277250Y210613*
X266563Y219800D02*
X267125D01*
Y219613*
X266937Y219237*
X266750Y219050*
X266375Y218863*
X266000*
X265625Y219050*
X265437Y219237*
X265250Y219613*
Y220363*
X265437Y220737*
X265625Y220925*
X266000Y221113*
X266375*
X266750Y220925*
X266937Y220737*
X267125Y220363*
X268250Y218863D02*
Y221113D01*
X270125Y218863*
Y221113*
X271250Y218863D02*
Y221113D01*
X272375*
X272750Y220925*
X272937Y220737*
X273125Y220363*
Y219613*
X272937Y219237*
X272750Y219050*
X272375Y218863*
X271250*
X264250Y6050D02*
X265250D01*
X264750D02*
Y9050D01*
X264250Y8550*
X269000Y6050D02*
Y9050D01*
X267750Y7050*
X269750*
X275000Y22050D02*
Y25050D01*
X273750D02*
X276250D01*
X277750Y22050D02*
X279750Y25050D01*
X277750*
X275750Y6050D02*
X273750D01*
X275500Y7800*
X275750Y8300*
X275500Y8800*
X275000Y9050*
X274250*
X273750Y8800*
X277750Y6050D02*
X279750Y9050D01*
X277750*
X280250Y65300D02*
X330250D01*
Y215300*
X280250*
Y65300*
X285563Y61800D02*
X286125D01*
Y61613*
X285937Y61237*
X285750Y61050*
X285375Y60863*
X285000*
X284625Y61050*
X284437Y61237*
X284250Y61613*
Y62363*
X284437Y62737*
X284625Y62925*
X285000Y63113*
X285375*
X285750Y62925*
X285937Y62737*
X286125Y62363*
X286500Y22050D02*
Y25050D01*
X285250D02*
X287750D01*
X290000Y23550D02*
X290500D01*
X291000Y23800*
X291250Y24300*
X291000Y24800*
X290500Y25050*
X290000*
X289500Y24800*
X289250Y24300*
X289500Y23800*
X290000Y23550*
X289500Y23300*
X289250Y22800*
X289500Y22300*
X290000Y22050*
X290500*
X291000Y22300*
X291250Y22800*
X291000Y23300*
X290500Y23550*
X286563Y216800D02*
X287125D01*
Y216613*
X286937Y216237*
X286750Y216050*
X286375Y215863*
X286000*
X285625Y216050*
X285437Y216237*
X285250Y216613*
Y217363*
X285437Y217737*
X285625Y217925*
X286000Y218113*
X286375*
X286750Y217925*
X286937Y217737*
X287125Y217363*
X284000Y6300D02*
X284500Y6050D01*
X285000*
X285500Y6300*
X285750Y6800*
X285500Y7300*
X285000Y7550*
X284500*
X285000D02*
X285500Y7800D01*
X285750Y8300*
X285500Y8800*
X285000Y9050*
X284500*
X284000Y8800*
X288000Y6300D02*
X288500Y6050D01*
X289000*
X289500Y6300*
X289750Y6800*
X289500Y7300*
X289000Y7550*
X288500*
X289000D02*
X289500Y7800D01*
X289750Y8300*
X289500Y8800*
X289000Y9050*
X288500*
X288000Y8800*
X290250Y220300D02*
X320250D01*
Y230300*
X290250*
Y220300*
X294250Y61613D02*
X295750D01*
X295000Y60863D02*
Y62363D01*
X296500Y22050D02*
Y25050D01*
X295250D02*
X297750D01*
X299500Y22300D02*
X300000Y22050D01*
X300500*
X301000Y22300*
X301250Y22800*
X301000Y23300*
X300500Y23550*
X300000*
X300500D02*
X301000Y23800D01*
X301250Y24300*
X301000Y24800*
X300500Y25050*
X300000*
X299500Y24800*
X295250Y216613D02*
X296750D01*
X296000Y215863D02*
Y217363D01*
X294250Y6050D02*
X295250D01*
X294750D02*
Y9050D01*
X294250Y8550*
X297750Y6300D02*
X298250Y6050D01*
X299000*
X299500Y6300*
X299750Y6800*
Y7050*
X299500Y7550*
X299000Y7800*
X297750*
Y9050*
X299750*
X306500Y22050D02*
Y25050D01*
X305250D02*
X307750D01*
X311250Y22050D02*
X309250D01*
X311000Y23800*
X311250Y24300*
X311000Y24800*
X310500Y25050*
X309750*
X309250Y24800*
X307750Y6050D02*
X305750D01*
X307500Y7800*
X307750Y8300*
X307500Y8800*
X307000Y9050*
X306250*
X305750Y8800*
X315000Y22050D02*
Y25050D01*
X313750D02*
X316250D01*
X318000Y22300D02*
X318500Y22050D01*
X319000*
X319500Y22300*
X319750Y22800*
Y24300*
X319500Y24800*
X319000Y25050*
X318500*
X318000Y24800*
X317750Y24300*
Y22800*
X318000Y22300*
X319500Y24800*
X315563Y61800D02*
X316125D01*
Y61613*
X315937Y61237*
X315750Y61050*
X315375Y60863*
X315000*
X314625Y61050*
X314437Y61237*
X314250Y61613*
Y62363*
X314437Y62737*
X314625Y62925*
X315000Y63113*
X315375*
X315750Y62925*
X315937Y62737*
X316125Y62363*
X315250Y32800D02*
X325250D01*
Y52800*
X315250*
Y32800*
Y57300D02*
X280250D01*
Y28300*
X315250*
Y57300*
X316563Y216800D02*
X317125D01*
Y216613*
X316937Y216237*
X316750Y216050*
X316375Y215863*
X316000*
X315625Y216050*
X315437Y216237*
X315250Y216613*
Y217363*
X315437Y217737*
X315625Y217925*
X316000Y218113*
X316375*
X316750Y217925*
X316937Y217737*
X317125Y217363*
X317000Y6050D02*
Y9050D01*
X315750Y7050*
X317750*
X321563Y29300D02*
X322125D01*
Y29113*
X321937Y28737*
X321750Y28550*
X321375Y28363*
X321000*
X320625Y28550*
X320437Y28737*
X320250Y29113*
Y29863*
X320437Y30237*
X320625Y30425*
X321000Y30613*
X321375*
X321750Y30425*
X321937Y30237*
X322125Y29863*
X324250Y61613D02*
X325750D01*
X325000Y60863D02*
Y62363D01*
X325250Y216613D02*
X326750D01*
X326000Y215863D02*
Y217363D01*
X334000Y171050D02*
Y174050D01*
X332750Y172050*
X334750*
X335250Y12800D02*
X375250D01*
Y32800*
X335250*
Y12800*
Y40300D02*
X375250D01*
Y120300*
X335250*
Y40300*
Y145300D02*
X395250D01*
Y155300*
X335250*
Y145300*
Y156550D02*
X335625Y156363D01*
X336187*
X336563Y156550*
X336750Y156925*
Y157113*
X336563Y157487*
X336187Y157675*
X335250*
Y158613*
X336750*
X338250Y156363D02*
X340125Y158613D01*
X341250Y156925D02*
X341437Y156550D01*
X341813Y156363*
X342563*
X342937Y156550*
X343125Y156925*
X342937Y157300*
X342563Y157487*
X341813*
X341437Y157675*
X341250Y158050*
X341437Y158425*
X341813Y158613*
X342563*
X342937Y158425*
X343125Y158050*
X344250Y156925D02*
X344437Y156550D01*
X344813Y156363*
X345563*
X345937Y156550*
X346125Y156925*
X345937Y157300*
X345563Y157487*
X344813*
X344437Y157675*
X344250Y158050*
X344437Y158425*
X344813Y158613*
X345563*
X345937Y158425*
X346125Y158050*
X335250Y160300D02*
X395250D01*
Y170300*
X335250*
Y160300*
Y205300D02*
X395250D01*
Y215300*
X335250*
Y205300*
X337437Y218050D02*
X337813Y217863D01*
X338187*
X338563Y218050*
X338750Y218425*
X338563Y218800*
X338187Y218987*
X337813*
X338187D02*
X338563Y219175D01*
X338750Y219550*
X338563Y219925*
X338187Y220113*
X337813*
X337437Y219925*
X340250Y220113D02*
X341187Y217863D01*
X342125Y220113*
X340250Y34550D02*
X338250D01*
X340000Y36300*
X340250Y36800*
X340000Y37300*
X339500Y37550*
X338750*
X338250Y37300*
X340250Y122800D02*
X370250D01*
Y132800*
X340250*
Y122800*
Y133550D02*
X340625Y133363D01*
X341187*
X341563Y133550*
X341750Y133925*
Y134113*
X341563Y134487*
X341187Y134675*
X340250*
Y135613*
X341750*
X343250D02*
X344187Y133363D01*
X345125Y135613*
X348500Y35300D02*
X349000Y35050D01*
X349500*
X350000Y35300*
X350250Y35800*
Y37300*
X350000Y37800*
X349500Y38050*
X349000*
X348500Y37800*
X348250Y37300*
Y35800*
X348500Y35300*
X350000Y37800*
X350187Y217863D02*
Y220113D01*
X349250Y218613*
X350750*
X350250Y115300D02*
G75*
G03X360250Y110300I5000J-2500D01*
G01*
G75*
G03X350250Y115300I-5000J2500*
G01*
Y122800D02*
X360250D01*
Y142800*
X350250*
Y122800*
X352125Y156737D02*
X351937Y156550D01*
X351563Y156363*
X351000*
X350625Y156550*
X350437Y156737*
X350250Y157113*
Y157863*
X350437Y158237*
X350625Y158425*
X351000Y158613*
X351563*
X351937Y158425*
X352125Y158237*
X353250Y156363D02*
Y158613D01*
Y157487D02*
X353813D01*
X355125Y158613*
X353813Y157487D02*
X355125Y156363D01*
X355250Y175300D02*
X395250D01*
Y185300*
X355250*
Y175300*
Y190300D02*
X395250D01*
Y200300*
X355250*
Y190300*
X357250Y172925D02*
X357437Y172550D01*
X357813Y172363*
X358563*
X358937Y172550*
X359125Y172925*
X358937Y173300*
X358563Y173487*
X357813*
X357437Y173675*
X357250Y174050*
X357437Y174425*
X357813Y174613*
X358563*
X358937Y174425*
X359125Y174050*
X362125Y172737D02*
X361937Y172550D01*
X361563Y172363*
X361000*
X360625Y172550*
X360437Y172737*
X360250Y173113*
Y173863*
X360437Y174237*
X360625Y174425*
X361000Y174613*
X361563*
X361937Y174425*
X362125Y174237*
X363250Y174613D02*
Y172363D01*
X365125*
X357250Y218425D02*
X357437Y218050D01*
X357813Y217863*
X358563*
X358937Y218050*
X359125Y218425*
X358937Y218800*
X358563Y218987*
X357813*
X357437Y219175*
X357250Y219550*
X357437Y219925*
X357813Y220113*
X358563*
X358937Y219925*
X359125Y219550*
X362125Y218237D02*
X361937Y218050D01*
X361563Y217863*
X361000*
X360625Y218050*
X360437Y218237*
X360250Y218613*
Y219363*
X360437Y219737*
X360625Y219925*
X361000Y220113*
X361563*
X361937Y219925*
X362125Y219737*
X363250Y220113D02*
Y217863D01*
X365125*
X359063Y201800D02*
X359625D01*
Y201613*
X359437Y201237*
X359250Y201050*
X358875Y200863*
X358500*
X358125Y201050*
X357937Y201237*
X357750Y201613*
Y202363*
X357937Y202737*
X358125Y202925*
X358500Y203113*
X358875*
X359250Y202925*
X359437Y202737*
X359625Y202363*
X360000Y35550D02*
Y38550D01*
X358750Y36550*
X360750*
X360250Y156363D02*
Y158613D01*
X361187Y157487*
X362125Y158613*
Y156363*
X363250Y157113D02*
Y157863D01*
X363437Y158237*
X363625Y158425*
X364000Y158613*
X364375*
X364750Y158425*
X364937Y158237*
X365125Y157863*
Y157113*
X364937Y156737*
X364750Y156550*
X364375Y156363*
X364000*
X363625Y156550*
X363437Y156737*
X363250Y157113*
X361250Y141613D02*
X362187Y139363D01*
X363125Y141613*
X365750Y139363D02*
X364250D01*
X365563Y140675*
X365750Y141050*
X365563Y141425*
X365187Y141613*
X364625*
X364250Y141425*
X365625Y133363D02*
X366375D01*
X366000D02*
Y135613D01*
X365625Y135237*
X369750Y133363D02*
X368250D01*
X369563Y134675*
X369750Y135050*
X369563Y135425*
X369187Y135613*
X368625*
X368250Y135425*
X371250Y135613D02*
X372187Y133363D01*
X373125Y135613*
X366937Y201050D02*
X367313Y200863D01*
X367687*
X368063Y201050*
X368250Y201425*
X368063Y201800*
X367687Y201987*
X367313*
X367687D02*
X368063Y202175D01*
X368250Y202550*
X368063Y202925*
X367687Y203113*
X367313*
X366937Y202925*
X369750Y203113D02*
X370687Y200863D01*
X371625Y203113*
X367750Y34550D02*
X368750D01*
X368250D02*
Y37550D01*
X367750Y37050*
X371250Y34800D02*
X371750Y34550D01*
X372500*
X373000Y34800*
X373250Y35300*
Y35550*
X373000Y36050*
X372500Y36300*
X371250*
Y37550*
X373250*
X367250Y172925D02*
X367437Y172550D01*
X367813Y172363*
X368563*
X368937Y172550*
X369125Y172925*
X368937Y173300*
X368563Y173487*
X367813*
X367437Y173675*
X367250Y174050*
X367437Y174425*
X367813Y174613*
X368563*
X368937Y174425*
X369125Y174050*
X370250Y172363D02*
Y174613D01*
X371375*
X371750Y174425*
X371937Y174237*
X372125Y173863*
Y173113*
X371937Y172737*
X371750Y172550*
X371375Y172363*
X370250*
X373250D02*
X374187Y174613D01*
X375125Y172363*
X373625Y173300D02*
X374750D01*
X367250Y218425D02*
X367437Y218050D01*
X367813Y217863*
X368563*
X368937Y218050*
X369125Y218425*
X368937Y218800*
X368563Y218987*
X367813*
X367437Y219175*
X367250Y219550*
X367437Y219925*
X367813Y220113*
X368563*
X368937Y219925*
X369125Y219550*
X370250Y217863D02*
Y220113D01*
X371375*
X371750Y219925*
X371937Y219737*
X372125Y219363*
Y218613*
X371937Y218237*
X371750Y218050*
X371375Y217863*
X370250*
X373250D02*
X374187Y220113D01*
X375125Y217863*
X373625Y218800D02*
X374750D01*
X370250Y156363D02*
Y158613D01*
X371187Y157487*
X372125Y158613*
Y156363*
X373813D02*
X374563D01*
X374187D02*
Y158613D01*
X373813D02*
X374563D01*
X376250Y201425D02*
X376437Y201050D01*
X376813Y200863*
X377563*
X377937Y201050*
X378125Y201425*
X377937Y201800*
X377563Y201987*
X376813*
X376437Y202175*
X376250Y202550*
X376437Y202925*
X376813Y203113*
X377563*
X377937Y202925*
X378125Y202550*
X381125Y201237D02*
X380937Y201050D01*
X380563Y200863*
X380000*
X379625Y201050*
X379437Y201237*
X379250Y201613*
Y202363*
X379437Y202737*
X379625Y202925*
X380000Y203113*
X380563*
X380937Y202925*
X381125Y202737*
X382250Y203113D02*
Y200863D01*
X384125*
X379063Y19300D02*
X379625D01*
Y19113*
X379437Y18737*
X379250Y18550*
X378875Y18363*
X378500*
X378125Y18550*
X377937Y18737*
X377750Y19113*
Y19863*
X377937Y20237*
X378125Y20425*
X378500Y20613*
X378875*
X379250Y20425*
X379437Y20237*
X379625Y19863*
X380437Y156550D02*
X380813Y156363D01*
X381187*
X381563Y156550*
X381750Y156925*
X381563Y157300*
X381187Y157487*
X380813*
X381187D02*
X381563Y157675D01*
X381750Y158050*
X381563Y158425*
X381187Y158613*
X380813*
X380437Y158425*
X383250Y158613D02*
X384187Y156363D01*
X385125Y158613*
X380437Y172050D02*
X380813Y171863D01*
X381187*
X381563Y172050*
X381750Y172425*
X381563Y172800*
X381187Y172987*
X380813*
X381187D02*
X381563Y173175D01*
X381750Y173550*
X381563Y173925*
X381187Y174113*
X380813*
X380437Y173925*
X383250Y174113D02*
X384187Y171863D01*
X385125Y174113*
X385250Y20300D02*
G75*
G03X395250Y10300I5000J-5000D01*
G01*
G75*
G03X385250Y20300I-5000J5000*
G01*
Y47800D02*
X395250D01*
Y87800*
X385250*
Y47800*
Y92800D02*
X395250D01*
Y112800*
X385250*
Y92800*
Y117800D02*
X395250D01*
Y137800*
X385250*
Y117800*
Y235300D02*
G75*
G03X395250Y225300I5000J-5000D01*
G01*
G75*
G03X385250Y235300I-5000J5000*
G01*
X386750Y201425D02*
X386937Y201050D01*
X387313Y200863*
X388063*
X388437Y201050*
X388625Y201425*
X388437Y201800*
X388063Y201987*
X387313*
X386937Y202175*
X386750Y202550*
X386937Y202925*
X387313Y203113*
X388063*
X388437Y202925*
X388625Y202550*
X389750Y200863D02*
Y203113D01*
X390875*
X391250Y202925*
X391437Y202737*
X391625Y202363*
Y201613*
X391437Y201237*
X391250Y201050*
X390875Y200863*
X389750*
X392750D02*
X393687Y203113D01*
X394625Y200863*
X393125Y201800D02*
X394250D01*
X391563Y157300D02*
X392125D01*
Y157113*
X391937Y156737*
X391750Y156550*
X391375Y156363*
X391000*
X390625Y156550*
X390437Y156737*
X390250Y157113*
Y157863*
X390437Y158237*
X390625Y158425*
X391000Y158613*
X391375*
X391750Y158425*
X391937Y158237*
X392125Y157863*
X391563Y173300D02*
X392125D01*
Y173113*
X391937Y172737*
X391750Y172550*
X391375Y172363*
X391000*
X390625Y172550*
X390437Y172737*
X390250Y173113*
Y173863*
X390437Y174237*
X390625Y174425*
X391000Y174613*
X391375*
X391750Y174425*
X391937Y174237*
X392125Y173863*
X391563Y216800D02*
X392125D01*
Y216613*
X391937Y216237*
X391750Y216050*
X391375Y215863*
X391000*
X390625Y216050*
X390437Y216237*
X390250Y216613*
Y217363*
X390437Y217737*
X390625Y217925*
X391000Y218113*
X391375*
X391750Y217925*
X391937Y217737*
X392125Y217363*
X396000Y42800D02*
X395813Y42425D01*
Y41863*
X396000Y41487*
X396375Y41300*
X396563*
X396937Y41487*
X397125Y41863*
Y42800*
X398063*
Y41300*
Y39800D02*
X395813Y38863D01*
X398063Y37925*
X396000Y56113D02*
X395813Y55737D01*
Y55363*
X396000Y54987*
X396375Y54800*
X396750Y54987*
X396937Y55363*
Y55737*
Y55363D02*
X397125Y54987D01*
X397500Y54800*
X397875Y54987*
X398063Y55363*
Y55737*
X397875Y56113*
X398063Y53300D02*
X395813Y52363D01*
X398063Y51425*
X396750Y61487D02*
Y60925D01*
X396563*
X396187Y61113*
X396000Y61300*
X395813Y61675*
Y62050*
X396000Y62425*
X396187Y62613*
X396563Y62800*
X397313*
X397687Y62613*
X397875Y62425*
X398063Y62050*
Y61675*
X397875Y61300*
X397687Y61113*
X397313Y60925*
X395813Y75300D02*
X398063D01*
Y73987*
X397875Y73613*
X397500Y73425*
X397125Y73613*
X396937Y73987*
Y75300*
Y73987D02*
X395813Y73425D01*
Y72300D02*
X398063Y70425D01*
Y72300D02*
X395813Y70425D01*
Y67800D02*
Y69300D01*
X397125Y67987*
X397500Y67800*
X397875Y67987*
X398063Y68363*
Y68925*
X397875Y69300*
X395813Y86863D02*
X398063D01*
Y87800D02*
Y85925D01*
X395813Y84800D02*
X398063Y82925D01*
Y84800D02*
X395813Y82925D01*
Y80300D02*
Y81800D01*
X397125Y80487*
X397500Y80300*
X397875Y80487*
X398063Y80863*
Y81425*
X397875Y81800*
X395813Y102425D02*
Y101675D01*
Y102050D02*
X398063D01*
X397687Y102425*
X395813Y98300D02*
Y99800D01*
X397125Y98487*
X397500Y98300*
X397875Y98487*
X398063Y98863*
Y99425*
X397875Y99800*
X398063Y96800D02*
X395813Y95863D01*
X398063Y94925*
X396750Y108987D02*
Y108425D01*
X396563*
X396187Y108613*
X396000Y108800*
X395813Y109175*
Y109550*
X396000Y109925*
X396187Y110113*
X396563Y110300*
X397313*
X397687Y110113*
X397875Y109925*
X398063Y109550*
Y109175*
X397875Y108800*
X397687Y108613*
X397313Y108425*
X398063Y125300D02*
X395813Y124363D01*
X398063Y123425*
X395813Y120800D02*
Y122300D01*
X397125Y120987*
X397500Y120800*
X397875Y120987*
X398063Y121363*
Y121925*
X397875Y122300*
X396750Y133987D02*
Y133425D01*
X396563*
X396187Y133613*
X396000Y133800*
X395813Y134175*
Y134550*
X396000Y134925*
X396187Y135113*
X396563Y135300*
X397313*
X397687Y135113*
X397875Y134925*
X398063Y134550*
Y134175*
X397875Y133800*
X397687Y133613*
X397313Y133425*
D02*
D15*
X2750Y79050D02*
X3750D01*
X3250D02*
Y82050D01*
X2750Y81550*
X6500Y79300D02*
X7000Y79050D01*
X7500*
X8000Y79300*
X8250Y79800*
X8000Y80300*
X7500Y80550*
X7000*
X7500D02*
X8000Y80800D01*
X8250Y81300*
X8000Y81800*
X7500Y82050*
X7000*
X6500Y81800*
X2750Y89050D02*
X3750D01*
X3250D02*
Y92050D01*
X2750Y91550*
X8250Y89050D02*
X6250D01*
X8000Y90800*
X8250Y91300*
X8000Y91800*
X7500Y92050*
X6750*
X6250Y91800*
X2750Y99050D02*
X3750D01*
X3250D02*
Y102050D01*
X2750Y101550*
X7500Y99050D02*
Y102050D01*
X6250Y100050*
X8250*
X4250Y109050D02*
X2250D01*
X4000Y110800*
X4250Y111300*
X4000Y111800*
X3500Y112050*
X2750*
X2250Y111800*
X6250Y109050D02*
X8250Y112050D01*
X6250*
X4250Y119050D02*
X2250D01*
X4000Y120800*
X4250Y121300*
X4000Y121800*
X3500Y122050*
X2750*
X2250Y121800*
X6250Y119800D02*
X6500Y120300D01*
X7000Y120550*
X7500*
X8000Y120300*
X8250Y119800*
X8000Y119300*
X7500Y119050*
X7000*
X6500Y119300*
X6250Y119800*
Y120550*
X6500Y121300*
X7000Y121800*
X7500Y122050*
X4250Y129050D02*
X2250D01*
X4000Y130800*
X4250Y131300*
X4000Y131800*
X3500Y132050*
X2750*
X2250Y131800*
X6250Y129300D02*
X6750Y129050D01*
X7500*
X8000Y129300*
X8250Y129800*
Y130050*
X8000Y130550*
X7500Y130800*
X6250*
Y132050*
X8250*
X2500Y139300D02*
X3000Y139050D01*
X3500*
X4000Y139300*
X4250Y139800*
X4000Y140300*
X3500Y140550*
X3000*
X3500D02*
X4000Y140800D01*
X4250Y141300*
X4000Y141800*
X3500Y142050*
X3000*
X2500Y141800*
X6500Y139300D02*
X7000Y139050D01*
X7500*
X8000Y139300*
X8250Y139800*
X8000Y140300*
X7500Y140550*
X7000*
X7500D02*
X8000Y140800D01*
X8250Y141300*
X8000Y141800*
X7500Y142050*
X7000*
X6500Y141800*
X2500Y149300D02*
X3000Y149050D01*
X3500*
X4000Y149300*
X4250Y149800*
X4000Y150300*
X3500Y150550*
X3000*
X3500D02*
X4000Y150800D01*
X4250Y151300*
X4000Y151800*
X3500Y152050*
X3000*
X2500Y151800*
X8250Y149050D02*
X6250D01*
X8000Y150800*
X8250Y151300*
X8000Y151800*
X7500Y152050*
X6750*
X6250Y151800*
X15250Y164300D02*
X15500Y163800D01*
X16000Y163550*
X17000*
X17500Y163800*
X17750Y164300*
X17500Y164800*
X17000Y165050*
X16000*
X15500Y165300*
X15250Y165800*
X15500Y166300*
X16000Y166550*
X17000*
X17500Y166300*
X17750Y165800*
X19250Y164550D02*
Y165550D01*
X19500Y166050*
X19750Y166300*
X20250Y166550*
X20750*
X21250Y166300*
X21500Y166050*
X21750Y165550*
Y164550*
X21500Y164050*
X21250Y163800*
X20750Y163550*
X20250*
X19750Y163800*
X19500Y164050*
X19250Y164550*
X23250Y166550D02*
Y163550D01*
X25750*
X27250D02*
X29750Y166550D01*
X31250Y163550D02*
Y166550D01*
X32500Y165050*
X33750Y166550*
Y163550*
X35250D02*
X36500Y166550D01*
X37750Y163550*
X35750Y164800D02*
X37250D01*
X25000Y199300D02*
X28000D01*
Y197550*
X27750Y197050*
X27250Y196800*
X26750Y197050*
X26500Y197550*
Y199300*
Y197550D02*
X25000Y196800D01*
Y195300D02*
X28000D01*
Y192800*
X26500Y193300D02*
Y195300D01*
X25000D02*
Y192800D01*
X25750Y191300D02*
X25250Y191050D01*
X25000Y190550*
Y189550*
X25250Y189050*
X25750Y188800*
X26250Y189050*
X26500Y189550*
Y190550*
X26750Y191050*
X27250Y191300*
X27750Y191050*
X28000Y190550*
Y189550*
X27750Y189050*
X27250Y188800*
X25000Y187300D02*
X28000D01*
Y184800*
X26500Y185300D02*
Y187300D01*
X25000D02*
Y184800D01*
Y182050D02*
X28000D01*
Y183300D02*
Y180800D01*
X22750Y36050D02*
X23750D01*
X23250D02*
Y39050D01*
X22750Y38550*
X27500Y36050D02*
Y39050D01*
X26250Y37050*
X28250*
X22750Y46050D02*
X23750D01*
X23250D02*
Y49050D01*
X22750Y48550*
X26500Y46300D02*
X27000Y46050D01*
X27500*
X28000Y46300*
X28250Y46800*
X28000Y47300*
X27500Y47550*
X27000*
X27500D02*
X28000Y47800D01*
X28250Y48300*
X28000Y48800*
X27500Y49050*
X27000*
X26500Y48800*
X30250Y211425D02*
Y215925D01*
X32125Y213675*
X34000Y215925*
Y211425*
X36250Y214050D02*
X37000Y214425D01*
X38125*
X38875Y214050*
X39250Y213300*
Y212175*
X38875Y211800*
X38125Y211425*
X37375*
X36625Y211800*
X36250Y212175*
Y212550*
X36625Y212925*
X37375Y213300*
X38125*
X38875Y212925*
X39250Y212550*
Y212175D02*
Y211425D01*
X42250D02*
Y214425D01*
Y213300D02*
X42625Y214050D01*
X43375Y214425*
X44125*
X44875Y214050*
X51250Y211425D02*
X48250D01*
X50875Y214050*
X51250Y214800*
X50875Y215550*
X50125Y215925*
X49000*
X48250Y215550*
X57250Y211425D02*
X54250D01*
X56875Y214050*
X57250Y214800*
X56875Y215550*
X56125Y215925*
X55000*
X54250Y215550*
X61750Y211425D02*
X62125Y211800D01*
Y212175*
X69250Y211425D02*
X66250D01*
X68875Y214050*
X69250Y214800*
X68875Y215550*
X68125Y215925*
X67000*
X66250Y215550*
X72625Y211800D02*
X73375Y211425D01*
X74125*
X74875Y211800*
X75250Y212550*
Y214800*
X74875Y215550*
X74125Y215925*
X73375*
X72625Y215550*
X72250Y214800*
Y212550*
X72625Y211800*
X74875Y215550*
X81250Y211425D02*
X78250D01*
X80875Y214050*
X81250Y214800*
X80875Y215550*
X80125Y215925*
X79000*
X78250Y215550*
X87250Y211425D02*
X84250D01*
X86875Y214050*
X87250Y214800*
X86875Y215550*
X86125Y215925*
X85000*
X84250Y215550*
X30250Y221550D02*
X30625Y220800D01*
X31375Y220425*
X32125*
X32875Y220800*
X33250Y221550*
Y222300*
X32875Y223050*
X32125Y223425*
X31375*
X30625Y223050*
X30250Y222300*
Y221550*
X36250Y223425D02*
Y219300D01*
Y221550D02*
X36625Y220800D01*
X37375Y220425*
X38125*
X38875Y220800*
X39250Y221550*
Y222300*
X38875Y223050*
X38125Y223425*
X37375*
X36625Y223050*
X36250Y222300*
Y221550*
X45250Y220800D02*
X44875Y220425D01*
X44125*
X43375*
X42625Y220800*
X42250Y221550*
Y222675*
X42625Y223050*
X43375Y223425*
X44125*
X44875Y223050*
X45250Y222675*
Y222300*
X44875Y221925*
X44125Y221550*
X43375*
X42625Y221925*
X42250Y222300*
X48250Y220425D02*
Y223425D01*
Y222300D02*
X48625Y223050D01*
X49375Y223425*
X50125*
X50875Y223050*
X51250Y222300*
Y220425*
X54250D02*
Y223425D01*
Y223050D02*
X54625Y223425D01*
X55375*
X55750Y223050*
Y221925*
Y223050D02*
X56125Y223425D01*
X56875*
X57250Y223050*
Y220425*
X60250Y223050D02*
X61000Y223425D01*
X62125*
X62875Y223050*
X63250Y222300*
Y221175*
X62875Y220800*
X62125Y220425*
X61375*
X60625Y220800*
X60250Y221175*
Y221550*
X60625Y221925*
X61375Y222300*
X62125*
X62875Y221925*
X63250Y221550*
Y221175D02*
Y220425D01*
X66250Y223425D02*
X69250D01*
X66250Y220425*
X69250*
X75250Y220800D02*
X74875Y220425D01*
X74125*
X73375*
X72625Y220800*
X72250Y221550*
Y222675*
X72625Y223050*
X73375Y223425*
X74125*
X74875Y223050*
X75250Y222675*
Y222300*
X74875Y221925*
X74125Y221550*
X73375*
X72625Y221925*
X72250Y222300*
X78625Y220425D02*
X79000Y220800D01*
X78625Y221175*
X78250Y220800*
X78625Y220425*
X84250Y221550D02*
X84625Y220800D01*
X85375Y220425*
X86125*
X86875Y220800*
X87250Y221550*
Y222300*
X86875Y223050*
X86125Y223425*
X85375*
X84625Y223050*
X84250Y222300*
Y221550*
X90250Y220425D02*
Y223425D01*
Y222300D02*
X90625Y223050D01*
X91375Y223425*
X92125*
X92875Y223050*
X99250Y222300D02*
X98875Y223050D01*
X98125Y223425*
X97375*
X96625Y223050*
X96250Y222300*
Y221925*
X96625Y221175*
X97375Y220800*
X98125*
X98875Y221175*
X99250Y221925*
Y223425D02*
Y220425D01*
X98875Y219675*
X98125Y219300*
X97000*
X96250Y219675*
X27500Y8800D02*
X28000Y8550D01*
X28500*
X29000Y8800*
X29250Y9300*
X29000Y9800*
X28500Y10050*
X28000*
X28500D02*
X29000Y10300D01*
X29250Y10800*
X29000Y11300*
X28500Y11550*
X28000*
X27500Y11300*
X31250Y11550D02*
X32500Y8550D01*
X33750Y11550*
X47750Y9300D02*
X48000Y8800D01*
X48500Y8550*
X49000*
X49500Y8800*
X49750Y9300*
Y9800*
X49500Y10300*
X49000Y10550*
X48500*
X48000Y10300*
X47750Y9800*
Y8550D02*
Y11550D01*
X51750Y10550D02*
Y9300D01*
X52000Y8800*
X52500Y8550*
X53000*
X53500Y8800*
X53750Y9300*
Y10550D02*
Y8550D01*
X56250Y10550D02*
X57250D01*
X56750Y11050D02*
Y8800D01*
X57000Y8550*
X57250*
X57500Y8800*
X60250Y10550D02*
X61250D01*
X60750Y11050D02*
Y8800D01*
X61000Y8550*
X61250*
X61500Y8800*
X63750Y9300D02*
X64000Y8800D01*
X64500Y8550*
X65000*
X65500Y8800*
X65750Y9300*
Y9800*
X65500Y10300*
X65000Y10550*
X64500*
X64000Y10300*
X63750Y9800*
Y9300*
X67750Y8550D02*
Y10550D01*
Y9800D02*
X68000Y10300D01*
X68500Y10550*
X69000*
X69500Y10300*
X69750Y9800*
Y8550*
X72250D02*
X72750Y11550D01*
X73750D02*
X73250Y8550D01*
X74000Y9300D02*
X71750D01*
X72000Y10800D02*
X74250D01*
X76250Y8550D02*
X77250D01*
X76750D02*
Y11550D01*
X76250Y11050*
X49250Y170987D02*
Y168175D01*
X49563Y167550*
X50187Y167237*
X51437*
X52063Y167550*
X52375Y168175*
Y170987*
X54250D02*
Y167237D01*
X57375*
X59250D02*
Y170987D01*
X62375Y167237*
Y170987*
X66750Y167237D02*
X64250D01*
X66437Y169425*
X66750Y170050*
X66437Y170675*
X65813Y170987*
X64875*
X64250Y170675*
X70187Y169113D02*
X70813D01*
X71437Y169425*
X71750Y170050*
X71437Y170675*
X70813Y170987*
X70187*
X69563Y170675*
X69250Y170050*
X69563Y169425*
X70187Y169113*
X69563Y168800*
X69250Y168175*
X69563Y167550*
X70187Y167237*
X70813*
X71437Y167550*
X71750Y168175*
X71437Y168800*
X70813Y169113*
X74563Y167550D02*
X75187Y167237D01*
X75813*
X76437Y167550*
X76750Y168175*
Y170050*
X76437Y170675*
X75813Y170987*
X75187*
X74563Y170675*
X74250Y170050*
Y168175*
X74563Y167550*
X76437Y170675*
X79563Y167550D02*
X80187Y167237D01*
X80813*
X81437Y167550*
X81750Y168175*
X81437Y168800*
X80813Y169113*
X80187*
X80813D02*
X81437Y169425D01*
X81750Y170050*
X81437Y170675*
X80813Y170987*
X80187*
X79563Y170675*
X57750Y3550D02*
X58750D01*
X58250D02*
Y6550D01*
X57750Y6050*
X62500Y3550D02*
Y6550D01*
X61250Y4550*
X63250*
X77750Y1237D02*
Y4987D01*
X79937*
X80563Y4675*
X80875Y4050*
X80563Y3425*
X79937Y3113*
X77750*
X82750Y2487D02*
Y3737D01*
X83063Y4363*
X83375Y4675*
X84000Y4987*
X84625*
X85250Y4675*
X85563Y4363*
X85875Y3737*
Y2487*
X85563Y1863*
X85250Y1550*
X84625Y1237*
X84000*
X83375Y1550*
X83063Y1863*
X82750Y2487*
X87750Y4987D02*
X88063Y1237D01*
X89313Y3113*
X90563Y1237*
X90875Y4987*
X92750Y1237D02*
Y4987D01*
X95875*
X95250Y3113D02*
X92750D01*
Y1237D02*
X95875D01*
X97750D02*
Y4987D01*
X99937*
X100563Y4675*
X100875Y4050*
X100563Y3425*
X99937Y3113*
X97750*
X99937D02*
X100875Y1237D01*
X109937D02*
X109313Y2175D01*
Y4363*
X109937Y4987*
X113375Y1237D02*
X114625D01*
X114000D02*
Y4987D01*
X113375Y4363*
X120250Y1237D02*
X117750D01*
X119937Y3425*
X120250Y4050*
X119937Y4675*
X119313Y4987*
X118375*
X117750Y4675*
X122750Y4987D02*
X124313Y1237D01*
X125875Y4987*
X128687Y1237D02*
X129313Y2175D01*
Y4363*
X128687Y4987*
X97500Y211300D02*
X98000Y211050D01*
X98500*
X99000Y211300*
X99250Y211800*
X99000Y212300*
X98500Y212550*
X98000*
X98500D02*
X99000Y212800D01*
X99250Y213300*
X99000Y213800*
X98500Y214050*
X98000*
X97500Y213800*
X101250Y214050D02*
X102500Y211050D01*
X103750Y214050*
X110250Y221050D02*
Y224050D01*
X112000*
X112500Y223800*
X112750Y223300*
X112500Y222800*
X112000Y222550*
X110250*
X116000Y222300D02*
X116750D01*
Y222050*
X116500Y221550*
X116250Y221300*
X115750Y221050*
X115250*
X114750Y221300*
X114500Y221550*
X114250Y222050*
Y223050*
X114500Y223550*
X114750Y223800*
X115250Y224050*
X115750*
X116250Y223800*
X116500Y223550*
X116750Y223050*
X119000Y221050D02*
X120000D01*
X119500D02*
Y224050D01*
X119000D02*
X120000D01*
X122250Y222050D02*
Y223050D01*
X122500Y223550*
X122750Y223800*
X123250Y224050*
X123750*
X124250Y223800*
X124500Y223550*
X124750Y223050*
Y222050*
X124500Y221550*
X124250Y221300*
X123750Y221050*
X123250*
X122750Y221300*
X122500Y221550*
X122250Y222050*
X126750Y221050D02*
X127250Y224050D01*
X128250D02*
X127750Y221050D01*
X128500Y221800D02*
X126250D01*
X126500Y223300D02*
X128750D01*
X130750Y221050D02*
X131750D01*
X131250D02*
Y224050D01*
X130750Y223550*
X112813Y205863D02*
X113563D01*
X113187D02*
Y208113D01*
X112813D02*
X113563D01*
X115250Y206613D02*
Y207363D01*
X115437Y207737*
X115625Y207925*
X116000Y208113*
X116375*
X116750Y207925*
X116937Y207737*
X117125Y207363*
Y206613*
X116937Y206237*
X116750Y206050*
X116375Y205863*
X116000*
X115625Y206050*
X115437Y206237*
X115250Y206613*
X113813Y70863D02*
X114563D01*
X114187D02*
Y73113D01*
X113813D02*
X114563D01*
X116250Y71613D02*
Y72363D01*
X116437Y72737*
X116625Y72925*
X117000Y73113*
X117375*
X117750Y72925*
X117937Y72737*
X118125Y72363*
Y71613*
X117937Y71237*
X117750Y71050*
X117375Y70863*
X117000*
X116625Y71050*
X116437Y71237*
X116250Y71613*
X130250Y9050D02*
X131500Y6050D01*
X132750Y9050*
X134250Y6050D02*
Y9050D01*
X136000*
X136500Y8800*
X136750Y8300*
X136500Y7800*
X136000Y7550*
X134250*
X136000D02*
X136750Y6050D01*
X138250D02*
Y9050D01*
X140750*
X140250Y7550D02*
X138250D01*
Y6050D02*
X140750D01*
X144000Y7300D02*
X144750D01*
Y7050*
X144500Y6550*
X144250Y6300*
X143750Y6050*
X143250*
X142750Y6300*
X142500Y6550*
X142250Y7050*
Y8050*
X142500Y8550*
X142750Y8800*
X143250Y9050*
X143750*
X144250Y8800*
X144500Y8550*
X144750Y8050*
X136250Y211300D02*
X136750Y211050D01*
X137500*
X138000Y211300*
X138250Y211800*
Y212050*
X138000Y212550*
X137500Y212800*
X136250*
Y214050*
X138250*
X140250D02*
X141500Y211050D01*
X142750Y214050*
X172750Y236237D02*
Y239987D01*
X175875*
X175250Y238113D02*
X172750D01*
Y236237D02*
X175875D01*
X177750Y237175D02*
X178063Y236550D01*
X178687Y236237*
X179937*
X180563Y236550*
X180875Y237175*
X180563Y237800*
X179937Y238113*
X178687*
X178063Y238425*
X177750Y239050*
X178063Y239675*
X178687Y239987*
X179937*
X180563Y239675*
X180875Y239050*
X182750Y236237D02*
Y239987D01*
X184937*
X185563Y239675*
X185875Y239050*
X185563Y238425*
X184937Y238113*
X182750*
X188063Y236550D02*
X188687Y236237D01*
X189313*
X189937Y236550*
X190250Y237175*
X189937Y237800*
X189313Y238113*
X188687*
X189313D02*
X189937Y238425D01*
X190250Y239050*
X189937Y239675*
X189313Y239987*
X188687*
X188063Y239675*
X195250Y236237D02*
X192750D01*
X194937Y238425*
X195250Y239050*
X194937Y239675*
X194313Y239987*
X193375*
X192750Y239675*
X202750Y236237D02*
Y239987D01*
X204625*
X205250Y239675*
X205563Y239363*
X205875Y238737*
Y237487*
X205563Y236863*
X205250Y236550*
X204625Y236237*
X202750*
X210250Y236550D02*
X209937Y236237D01*
X209313*
X208687*
X208063Y236550*
X207750Y237175*
Y238113*
X208063Y238425*
X208687Y238737*
X209313*
X209937Y238425*
X210250Y238113*
Y237800*
X209937Y237487*
X209313Y237175*
X208687*
X208063Y237487*
X207750Y237800*
X212750Y238737D02*
X214000Y236237D01*
X215250Y238737*
X217750Y236237D02*
Y239987D01*
Y238113D02*
X218687D01*
X220875Y239987*
X218687Y238113D02*
X220875Y236237D01*
X224000D02*
Y238737D01*
Y239675D02*
X228375Y238737*
X229625D01*
X229000Y239363D02*
Y236550D01*
X229313Y236237*
X229625*
X229937Y236550*
X235875Y236863D02*
X235563Y236550D01*
X234937Y236237*
X234000*
X233375Y236550*
X233063Y236863*
X232750Y237487*
Y238737*
X233063Y239363*
X233375Y239675*
X234000Y239987*
X234937*
X235563Y239675*
X235875Y239363*
X242750Y238737D02*
X244000Y236237D01*
X245250Y238737*
X249313Y236237D02*
Y239987D01*
X247750Y237487*
X250250*
X179125Y35300D02*
X174625D01*
Y39050*
X176875Y38300D02*
Y35300D01*
X179125D02*
Y39050D01*
X178000Y41300D02*
X178750Y41675D01*
X179125Y42425*
Y43925*
X178750Y44675*
X178000Y45050*
X177250Y44675*
X176875Y43925*
Y42425*
X176500Y41675*
X175750Y41300*
X175000Y41675*
X174625Y42425*
Y43925*
X175000Y44675*
X175750Y45050*
X179125Y47300D02*
X174625D01*
Y49925*
X175000Y50675*
X175750Y51050*
X176500Y50675*
X176875Y49925*
Y47300*
X178750Y53675D02*
X179125Y54425D01*
Y55175*
X178750Y55925*
X178000Y56300*
X177250Y55925*
X176875Y55175*
Y54425*
Y55175D02*
X176500Y55925D01*
X175750Y56300*
X175000Y55925*
X174625Y55175*
Y54425*
X175000Y53675*
X179125Y62300D02*
Y59300D01*
X176500Y61925*
X175750Y62300*
X175000Y61925*
X174625Y61175*
Y60050*
X175000Y59300*
X179125Y71300D02*
X174625D01*
Y73550*
X175000Y74300*
X175375Y74675*
X176125Y75050*
X177625*
X178375Y74675*
X178750Y74300*
X179125Y73550*
Y71300*
X178750Y80300D02*
X179125Y79925D01*
Y79175*
Y78425*
X178750Y77675*
X178000Y77300*
X176875*
X176500Y77675*
X176125Y78425*
Y79175*
X176500Y79925*
X176875Y80300*
X177250*
X177625Y79925*
X178000Y79175*
Y78425*
X177625Y77675*
X177250Y77300*
X176125Y83300D02*
X179125Y84800D01*
X176125Y86300*
X179125Y89300D02*
X174625D01*
X176875D02*
Y90425D01*
X174625Y93050*
X176875Y90425D02*
X179125Y93050D01*
Y96800D02*
X176125D01*
X175000D02*
X176125Y102050*
Y103550D01*
X175375Y102800D02*
X178750D01*
X179125Y103175*
Y103550*
X178750Y103925*
X178375Y111050D02*
X178750Y110675D01*
X179125Y109925*
Y108800*
X178750Y108050*
X178375Y107675*
X177625Y107300*
X176125*
X175375Y107675*
X175000Y108050*
X174625Y108800*
Y109925*
X175000Y110675*
X175375Y111050*
X182750Y178737D02*
Y177175D01*
X183063Y176550*
X183687Y176237*
X184313*
X184937Y176550*
X185250Y177175*
Y178737D02*
Y176237D01*
X187750Y177175D02*
X188063Y176550D01*
X188687Y176237*
X189937*
X190563Y176550*
X190875Y177175*
X190563Y177800*
X189937Y178113*
X188687*
X188063Y178425*
X187750Y179050*
X188063Y179675*
X188687Y179987*
X189937*
X190563Y179675*
X190875Y179050*
X192750Y176237D02*
Y179987D01*
X194625*
X195250Y179675*
X195563Y179363*
X195875Y178737*
Y177487*
X195563Y176863*
X195250Y176550*
X194625Y176237*
X192750*
X205250Y178425D02*
X204625Y178737D01*
X203687*
X203063Y178425*
X202750Y177800*
Y177175*
X203063Y176550*
X203687Y176237*
X204625*
X205250Y176550*
X207750Y178425D02*
X208375Y178737D01*
X209313*
X209937Y178425*
X210250Y177800*
Y176863*
X209937Y176550*
X209313Y176237*
X208687*
X208063Y176550*
X207750Y176863*
Y177175*
X208063Y177487*
X208687Y177800*
X209313*
X209937Y177487*
X210250Y177175*
Y176863D02*
Y176237D01*
X212750D02*
Y178737D01*
Y177800D02*
X213063Y178425D01*
X213687Y178737*
X214313*
X214937Y178425*
X220250Y177800D02*
X219937Y178425D01*
X219313Y178737*
X218687*
X218063Y178425*
X217750Y177800*
Y177175*
X218063Y176550*
X218687Y176237*
X219313*
X219937Y176550*
X220250Y177175*
Y176237D02*
Y179987D01*
X227750Y177175D02*
X228063Y176550D01*
X228687Y176237*
X229937*
X230563Y176550*
X230875Y177175*
X230563Y177800*
X229937Y178113*
X228687*
X228063Y178425*
X227750Y179050*
X228063Y179675*
X228687Y179987*
X229937*
X230563Y179675*
X230875Y179050*
X232750Y176237D02*
Y179987D01*
X234937*
X235563Y179675*
X235875Y179050*
X235563Y178425*
X234937Y178113*
X232750*
X238687Y176237D02*
X239937D01*
X239313D02*
Y179987D01*
X238687D02*
X239937D01*
X185250Y73737D02*
Y72175D01*
X185563Y71550*
X186187Y71237*
X186813*
X187437Y71550*
X187750Y72175*
Y73737D02*
Y71237D01*
X190250Y72175D02*
X190563Y71550D01*
X191187Y71237*
X192437*
X193063Y71550*
X193375Y72175*
X193063Y72800*
X192437Y73113*
X191187*
X190563Y73425*
X190250Y74050*
X190563Y74675*
X191187Y74987*
X192437*
X193063Y74675*
X193375Y74050*
X195250Y71237D02*
Y74987D01*
X197125*
X197750Y74675*
X198063Y74363*
X198375Y73737*
Y72487*
X198063Y71863*
X197750Y71550*
X197125Y71237*
X195250*
X207750Y73425D02*
X207125Y73737D01*
X206187*
X205563Y73425*
X205250Y72800*
Y72175*
X205563Y71550*
X206187Y71237*
X207125*
X207750Y71550*
X210250Y73425D02*
X210875Y73737D01*
X211813*
X212437Y73425*
X212750Y72800*
Y71863*
X212437Y71550*
X211813Y71237*
X211187*
X210563Y71550*
X210250Y71863*
Y72175*
X210563Y72487*
X211187Y72800*
X211813*
X212437Y72487*
X212750Y72175*
Y71863D02*
Y71237D01*
X215250D02*
Y73737D01*
Y72800D02*
X215563Y73425D01*
X216187Y73737*
X216813*
X217437Y73425*
X222750Y72800D02*
X222437Y73425D01*
X221813Y73737*
X221187*
X220563Y73425*
X220250Y72800*
Y72175*
X220563Y71550*
X221187Y71237*
X221813*
X222437Y71550*
X222750Y72175*
Y71237D02*
Y74987D01*
X230250Y72175D02*
X230563Y71550D01*
X231187Y71237*
X232437*
X233063Y71550*
X233375Y72175*
X233063Y72800*
X232437Y73113*
X231187*
X230563Y73425*
X230250Y74050*
X230563Y74675*
X231187Y74987*
X232437*
X233063Y74675*
X233375Y74050*
X235250Y71237D02*
Y74987D01*
X237437*
X238063Y74675*
X238375Y74050*
X238063Y73425*
X237437Y73113*
X235250*
X241187Y71237D02*
X242437D01*
X241813D02*
Y74987D01*
X241187D02*
X242437D01*
X189125Y102800D02*
X184625D01*
X189125Y106550*
X184625*
X188000Y108800D02*
X188750Y109175D01*
X189125Y109925*
Y110675*
X188750Y111425*
X188000Y111800*
X187250*
X186500Y111425*
X186125Y110675*
Y109925*
X186500Y109175*
X187250Y108800*
X188000*
X187250Y117800D02*
X186500Y117425D01*
X186125Y116675*
Y115925*
X186500Y115175*
X187250Y114800*
X188000*
X188750Y115175*
X189125Y115925*
Y116675*
X188750Y117425*
X188000Y117800*
X189125D02*
X184625D01*
X188750Y123800D02*
X189125Y123425D01*
Y122675*
Y121925*
X188750Y121175*
X188000Y120800*
X186875*
X186500Y121175*
X186125Y121925*
Y122675*
X186500Y123425*
X186875Y123800*
X187250*
X187625Y123425*
X188000Y122675*
Y121925*
X187625Y121175*
X187250Y120800*
X189125Y126800D02*
X184625D01*
X186875Y128675*
X184625Y130550*
X189125*
X188375Y136550D02*
X188750Y136175D01*
X189125Y135425*
Y134300*
X188750Y133550*
X188375Y133175*
X187625Y132800*
X186125*
X185375Y133175*
X185000Y133550*
X184625Y134300*
Y135425*
X185000Y136175*
X185375Y136550*
X184625Y138800D02*
X188000D01*
X188750Y139175*
X189125Y139925*
Y141425*
X188750Y142175*
X188000Y142550*
X184625*
X200250Y16863D02*
Y12925D01*
X200687Y12050*
X201563Y11613*
X203313*
X204187Y12050*
X204625Y12925*
Y16863*
X207250Y12925D02*
X207687Y12050D01*
X208563Y11613*
X210313*
X211187Y12050*
X211625Y12925*
X211187Y13800*
X210313Y14237*
X208563*
X207687Y14675*
X207250Y15550*
X207687Y16425*
X208563Y16863*
X210313*
X211187Y16425*
X211625Y15550*
X217313Y14237D02*
X218187Y13800D01*
X218625Y12925*
X218187Y12050*
X217313Y11613*
X214250*
Y16863*
X217313*
X218187Y16425*
X218625Y15550*
X218187Y14675*
X217313Y14237*
X214250*
X271813Y1237D02*
Y4987D01*
X270250D02*
X273375D01*
X275250Y2487D02*
Y3737D01*
X275563Y4363*
X275875Y4675*
X276500Y4987*
X277125*
X277750Y4675*
X278063Y4363*
X278375Y3737*
Y2487*
X278063Y1863*
X277750Y1550*
X277125Y1237*
X276500*
X275875Y1550*
X275563Y1863*
X275250Y2487*
X280250Y4987D02*
Y2175D01*
X280563Y1550*
X281187Y1237*
X282437*
X283063Y1550*
X283375Y2175*
Y4987*
X288375Y1863D02*
X288063Y1550D01*
X287437Y1237*
X286500*
X285875Y1550*
X285563Y1863*
X285250Y2487*
Y3737*
X285563Y4363*
X285875Y4675*
X286500Y4987*
X287437*
X288063Y4675*
X288375Y4363*
X290250Y1237D02*
Y4987D01*
Y3113D02*
X293375D01*
Y1237D02*
Y4987D01*
X276750Y57800D02*
X276250Y57550D01*
X276000Y57050*
Y56550*
X276250Y56050*
X276750Y55800*
X277250*
X277750Y56050*
X278000Y56550*
Y57050*
X277750Y57550*
X277250Y57800*
X276000D02*
X279000D01*
X278000Y53800D02*
X276750D01*
X276250Y53550*
X276000Y53050*
Y52550*
X276250Y52050*
X276750Y51800*
X278000D02*
X276000D01*
X278000Y49300D02*
Y48300D01*
X278500Y48800D02*
X276250D01*
X276000Y48550*
Y48300*
X276250Y48050*
X278000Y45300D02*
Y44300D01*
X278500Y44800D02*
X276250D01*
X276000Y44550*
Y44300*
X276250Y44050*
X276750Y41800D02*
X276250Y41550D01*
X276000Y41050*
Y40550*
X276250Y40050*
X276750Y39800*
X277250*
X277750Y40050*
X278000Y40550*
Y41050*
X277750Y41550*
X277250Y41800*
X276750*
X276000Y37800D02*
X278000D01*
X277250D02*
X277750Y37550D01*
X278000Y37050*
Y36550*
X277750Y36050*
X277250Y35800*
X276000*
Y33300D02*
X279000Y32800D01*
Y31800D02*
X276000Y32300D01*
X276750Y31550D02*
Y33800D01*
X278250Y33550D02*
Y31300D01*
X276000Y27800D02*
Y29800D01*
X277750Y28050*
X278250Y27800*
X278750Y28050*
X279000Y28550*
Y29300*
X278750Y29800*
X282500Y224300D02*
X283000Y224050D01*
X283500*
X284000Y224300*
X284250Y224800*
X284000Y225300*
X283500Y225550*
X283000*
X283500D02*
X284000Y225800D01*
X284250Y226300*
X284000Y226800*
X283500Y227050*
X283000*
X282500Y226800*
X286250Y227050D02*
X287500Y224050D01*
X288750Y227050*
X295250Y231050D02*
Y234050D01*
X297000*
X297500Y233800*
X297750Y233300*
X297500Y232800*
X297000Y232550*
X295250*
X301000Y232300D02*
X301750D01*
Y232050*
X301500Y231550*
X301250Y231300*
X300750Y231050*
X300250*
X299750Y231300*
X299500Y231550*
X299250Y232050*
Y233050*
X299500Y233550*
X299750Y233800*
X300250Y234050*
X300750*
X301250Y233800*
X301500Y233550*
X301750Y233050*
X304000Y231050D02*
X305000D01*
X304500D02*
Y234050D01*
X304000D02*
X305000D01*
X307250Y232050D02*
Y233050D01*
X307500Y233550*
X307750Y233800*
X308250Y234050*
X308750*
X309250Y233800*
X309500Y233550*
X309750Y233050*
Y232050*
X309500Y231550*
X309250Y231300*
X308750Y231050*
X308250*
X307750Y231300*
X307500Y231550*
X307250Y232050*
X311750Y231050D02*
X312250Y234050D01*
X313250D02*
X312750Y231050D01*
X313500Y231800D02*
X311250D01*
X311500Y233300D02*
X313750D01*
X317250Y231050D02*
X315250D01*
X317000Y232800*
X317250Y233300*
X317000Y233800*
X316500Y234050*
X315750*
X315250Y233800*
X302813Y60863D02*
X303563D01*
X303187D02*
Y63113D01*
X302813D02*
X303563D01*
X305250Y61613D02*
Y62363D01*
X305437Y62737*
X305625Y62925*
X306000Y63113*
X306375*
X306750Y62925*
X306937Y62737*
X307125Y62363*
Y61613*
X306937Y61237*
X306750Y61050*
X306375Y60863*
X306000*
X305625Y61050*
X305437Y61237*
X305250Y61613*
X303813Y215863D02*
X304563D01*
X304187D02*
Y218113D01*
X303813D02*
X304563D01*
X306250Y216613D02*
Y217363D01*
X306437Y217737*
X306625Y217925*
X307000Y218113*
X307375*
X307750Y217925*
X307937Y217737*
X308125Y217363*
Y216613*
X307937Y216237*
X307750Y216050*
X307375Y215863*
X307000*
X306625Y216050*
X306437Y216237*
X306250Y216613*
X317750Y53550D02*
X318750D01*
X318250D02*
Y56550D01*
X317750Y56050*
X321250Y53550D02*
X323250Y56550D01*
X321250*
Y224300D02*
X321750Y224050D01*
X322500*
X323000Y224300*
X323250Y224800*
Y225050*
X323000Y225550*
X322500Y225800*
X321250*
Y227050*
X323250*
X325250D02*
X326500Y224050D01*
X327750Y227050*
X337750Y6237D02*
Y9987D01*
Y8113D02*
X340875D01*
Y6237D02*
Y9987D01*
X342750Y7487D02*
X345250D01*
X347750Y7175D02*
X348063Y6550D01*
X348687Y6237*
X349313*
X349937Y6550*
X350250Y7175*
Y7800*
X349937Y8425*
X349313Y8737*
X348687*
X348063Y8425*
X347750Y7800*
Y6237D02*
Y9987D01*
X352750Y6237D02*
Y8737D01*
Y7800D02*
X353063Y8425D01*
X353687Y8737*
X354313*
X354937Y8425*
X359000Y6237D02*
Y8737D01*
Y9675D02*
X365250Y7800*
X364937Y8425D01*
X364313Y8737*
X363687*
X363063Y8425*
X362750Y7800*
Y7175*
X363063Y6550*
X363687Y6237*
X364313*
X364937Y6550*
X365250Y7175*
Y6237D02*
Y9987D01*
X370250Y7800D02*
X369937Y8425D01*
X369313Y8737*
X368687*
X368063Y8425*
X367750Y7800*
Y7487*
X368063Y6863*
X368687Y6550*
X369313*
X369937Y6863*
X370250Y7487*
Y8737D02*
Y6237D01*
X369937Y5613*
X369313Y5300*
X368375*
X367750Y5613*
X375250Y6550D02*
X374937Y6237D01*
X374313*
X373687*
X373063Y6550*
X372750Y7175*
Y8113*
X373063Y8425*
X373687Y8737*
X374313*
X374937Y8425*
X375250Y8113*
Y7800*
X374937Y7487*
X374313Y7175*
X373687*
X373063Y7487*
X372750Y7800*
X340250Y221237D02*
Y224987D01*
X341813Y223113*
X343375Y224987*
Y221237*
X345250D02*
Y224987D01*
X347437*
X348063Y224675*
X348375Y224050*
X348063Y223425*
X347437Y223113*
X345250*
X350250Y221237D02*
Y224987D01*
X352437*
X353063Y224675*
X353375Y224050*
X353063Y223425*
X352437Y223113*
X350250*
X352437D02*
X353375Y221237D01*
X355875D02*
X357125D01*
X356500D02*
Y224987D01*
X355875Y224363*
X362750Y221237D02*
X360250D01*
X362437Y223425*
X362750Y224050*
X362437Y224675*
X361813Y224987*
X360875*
X360250Y224675*
X365875Y221237D02*
X367125D01*
X366500D02*
Y224987D01*
X365875Y224363*
X381750Y77800D02*
X381250Y77550D01*
X381000Y77050*
Y76050*
X381250Y75550*
X381750Y75300*
X382250Y75550*
X382500Y76050*
Y77050*
X382750Y77550*
X383250Y77800*
X383750Y77550*
X384000Y77050*
Y76050*
X383750Y75550*
X383250Y75300*
X381250Y71800D02*
X381000Y72050D01*
Y72550*
Y73050*
X381250Y73550*
X381750Y73800*
X382500*
X382750Y73550*
X383000Y73050*
Y72550*
X382750Y72050*
X382500Y71800*
X382250*
X382000Y72050*
X381750Y72550*
Y73050*
X382000Y73550*
X382250Y73800*
X381000Y69800D02*
X383000D01*
X382250D02*
X382750Y69550D01*
X383000Y69050*
Y68550*
X382750Y68050*
X381000Y64800D02*
X383000D01*
X383750D02*
X382750Y61800*
X383000Y61300D01*
Y60550*
X382750Y60050*
X382250Y59800*
X381500*
X381250Y60050*
X381000Y60550*
Y61050*
X381250Y61550*
X381500Y61800*
X381750*
X382000Y61550*
X382250Y61050*
Y60550*
X382000Y60050*
X381750Y59800*
X381500D02*
X381000D01*
Y56550D02*
Y56800D01*
X384000*
X381000Y51800D02*
Y53800D01*
X382750Y52050*
X383250Y51800*
X383750Y52050*
X384000Y52550*
Y53300*
X383750Y53800*
X399250Y162800D02*
X398750Y162550D01*
X398500Y162050*
Y161050*
X398750Y160550*
X399250Y160300*
X399750Y160550*
X400000Y161050*
Y162050*
X400250Y162550*
X400750Y162800*
X401250Y162550*
X401500Y162050*
Y161050*
X401250Y160550*
X400750Y160300*
X398500Y158800D02*
X401500D01*
Y157050*
X401250Y156550*
X400750Y156300*
X400250Y156550*
X400000Y157050*
Y158800*
X398500Y154050D02*
Y153050D01*
Y153550D02*
X401500D01*
Y154050D02*
Y153050D01*
X398687Y196863D02*
Y195613D01*
Y196237D02*
X402437D01*
Y196863D02*
Y195613D01*
X398687Y190300D02*
Y192800D01*
X400875Y190613*
X401500Y190300*
X402125Y190613*
X402437Y191237*
Y192175*
X402125Y192800*
X399313Y184675D02*
X399000Y184987D01*
X398687Y185613*
Y186550*
X399000Y187175*
X399313Y187487*
X399937Y187800*
X401187*
X401813Y187487*
X402125Y187175*
X402437Y186550*
Y185613*
X402125Y184987*
X401813Y184675*
X459313Y196237D02*
Y199987D01*
X457750D02*
X460875D01*
X462750Y197175D02*
X463063Y196550D01*
X463687Y196237*
X464313*
X464937Y196550*
X465250Y197175*
Y197800*
X464937Y198425*
X464313Y198737*
X463687*
X463063Y198425*
X462750Y197800*
Y197175*
X467750Y196237D02*
Y199987D01*
X469625*
X470250Y199675*
X470563Y199363*
X470875Y198737*
Y197487*
X470563Y196863*
X470250Y196550*
X469625Y196237*
X467750*
X472750Y197175D02*
X473063Y196550D01*
X473687Y196237*
X474313*
X474937Y196550*
X475250Y197175*
Y197800*
X474937Y198425*
X474313Y198737*
X473687*
X473063Y198425*
X472750Y197800*
Y197175*
X479313Y196237D02*
X479625Y196550D01*
X479313Y196863*
X479000Y196550*
X479313Y196237*
Y197800D02*
X479625Y198113D01*
X479313Y198425*
X479000Y198113*
X479313Y197800*
X487750Y196237D02*
Y199987D01*
X489313Y198113*
X490875Y199987*
Y196237*
X492750Y198425D02*
X493375Y198737D01*
X494313*
X494937Y198425*
X495250Y197800*
Y196863*
X494937Y196550*
X494313Y196237*
X493687*
X493063Y196550*
X492750Y196863*
Y197175*
X493063Y197487*
X493687Y197800*
X494313*
X494937Y197487*
X495250Y197175*
Y196863D02*
Y196237D01*
X497750D02*
Y198737D01*
Y197800D02*
X498063Y198425D01*
X498687Y198737*
X499313*
X499937Y198425*
X510250Y196237D02*
X507750D01*
X509937Y198425*
X510250Y199050*
X509937Y199675*
X509313Y199987*
X508375*
X507750Y199675*
X513063Y196550D02*
X513687Y196237D01*
X514313*
X514937Y196550*
X515250Y197175*
Y199050*
X514937Y199675*
X514313Y199987*
X513687*
X513063Y199675*
X512750Y199050*
Y197175*
X513063Y196550*
X514937Y199675*
X520250Y196237D02*
X517750D01*
X519937Y198425*
X520250Y199050*
X519937Y199675*
X519313Y199987*
X518375*
X517750Y199675*
X525250Y196237D02*
X522750D01*
X524937Y198425*
X525250Y199050*
X524937Y199675*
X524313Y199987*
X523375*
X522750Y199675*
X467750Y124987D02*
X470250D01*
X477750Y123737D02*
Y126237D01*
Y125925D02*
X478063Y126237D01*
X478687*
X479000Y125925*
Y124987*
Y125925D02*
X479313Y126237D01*
X479937*
X480250Y125925*
Y123737*
X482750Y124675D02*
X483063Y124050D01*
X483687Y123737*
X484313*
X484937Y124050*
X485250Y124675*
Y125300*
X484937Y125925*
X484313Y126237*
X483687*
X483063Y125925*
X482750Y125300*
Y124675*
X487750Y126237D02*
X489000Y123737D01*
X490250Y126237*
X495250Y124050D02*
X494937Y123737D01*
X494313*
X493687*
X493063Y124050*
X492750Y124675*
Y125613*
X493063Y125925*
X493687Y126237*
X494313*
X494937Y125925*
X495250Y125613*
Y125300*
X494937Y124987*
X494313Y124675*
X493687*
X493063Y124987*
X492750Y125300*
X500250D02*
X499937Y125925D01*
X499313Y126237*
X498687*
X498063Y125925*
X497750Y125300*
Y124675*
X498063Y124050*
X498687Y123737*
X499313*
X499937Y124050*
X500250Y124675*
Y123737D02*
Y127487D01*
X507750Y123737D02*
Y126237D01*
Y125925D02*
X508063Y126237D01*
X508687*
X509000Y125925*
Y124987*
Y125925D02*
X509313Y126237D01*
X509937*
X510250Y125925*
Y123737*
X514000D02*
Y126237D01*
Y127175D02*
X517750Y123737*
Y126237D01*
Y125300D02*
X518063Y125925D01*
X518687Y126237*
X519313*
X519937Y125925*
X520250Y125300*
Y123737*
X524000D02*
Y126237D01*
Y127175D02*
X532750Y123737*
Y126237D01*
Y125925D02*
X533063Y126237D01*
X533687*
X534000Y125925*
Y124987*
Y125925D02*
X534313Y126237D01*
X534937*
X535250Y125925*
Y123737*
X539000D02*
Y126237D01*
Y127175D02*
X545250Y125925*
X544625Y126237D01*
X543687*
X543063Y125925*
X542750Y125300*
Y124675*
X543063Y124050*
X543687Y123737*
X544625*
X545250Y124050*
X547750Y123737D02*
Y126237D01*
Y125300D02*
X548063Y125925D01*
X548687Y126237*
X549313*
X549937Y125925*
X552750Y124675D02*
X553063Y124050D01*
X553687Y123737*
X554313*
X554937Y124050*
X555250Y124675*
Y125300*
X554937Y125925*
X554313Y126237*
X553687*
X553063Y125925*
X552750Y125300*
Y124675*
X557750D02*
X558063Y124050D01*
X558687Y123737*
X559937*
X560563Y124050*
X560875Y124675*
X560563Y125300*
X559937Y125613*
X558687*
X558063Y125925*
X557750Y126550*
X558063Y127175*
X558687Y127487*
X559937*
X560563Y127175*
X560875Y126550*
X562750Y123737D02*
Y127487D01*
X564625*
X565250Y127175*
X565563Y126863*
X565875Y126237*
Y124987*
X565563Y124363*
X565250Y124050*
X564625Y123737*
X562750*
X572750Y126237D02*
Y122800D01*
Y124675D02*
X573063Y124050D01*
X573687Y123737*
X574313*
X574937Y124050*
X575250Y124675*
Y125300*
X574937Y125925*
X574313Y126237*
X573687*
X573063Y125925*
X572750Y125300*
Y124675*
X577750D02*
X578063Y124050D01*
X578687Y123737*
X579313*
X579937Y124050*
X580250Y124675*
Y125300*
X579937Y125925*
X579313Y126237*
X578687*
X578063Y125925*
X577750Y125300*
Y124675*
X582750Y123737D02*
Y126237D01*
Y125300D02*
X583063Y125925D01*
X583687Y126237*
X584313*
X584937Y125925*
X588375Y126237D02*
X589625D01*
X589000Y126863D02*
Y124050D01*
X589313Y123737*
X589625*
X589937Y124050*
X597750Y126237D02*
Y124675D01*
X598063Y124050*
X598687Y123737*
X599313*
X599937Y124050*
X600250Y124675*
Y126237D02*
Y123737D01*
X602750Y126237D02*
Y122800D01*
Y124675D02*
X603063Y124050D01*
X603687Y123737*
X604313*
X604937Y124050*
X605250Y124675*
Y125300*
X604937Y125925*
X604313Y126237*
X603687*
X603063Y125925*
X602750Y125300*
Y124675*
X612750Y125925D02*
X613375Y126237D01*
X614313*
X614937Y125925*
X615250Y125300*
Y124363*
X614937Y124050*
X614313Y123737*
X613687*
X613063Y124050*
X612750Y124363*
Y124675*
X613063Y124987*
X613687Y125300*
X614313*
X614937Y124987*
X615250Y124675*
Y124363D02*
Y123737D01*
X622750Y124675D02*
X623063Y124050D01*
X623687Y123737*
X624313*
X624937Y124050*
X625250Y124675*
Y125300*
X624937Y125925*
X624313Y126237*
X623687*
X623063Y125925*
X622750Y125300*
Y123737D02*
Y127487D01*
X629000Y123737D02*
Y126237D01*
Y127175D02*
X633375Y126237*
X634625D01*
X634000Y126863D02*
Y124050D01*
X634313Y123737*
X634625*
X634937Y124050*
X467750Y134987D02*
X470250D01*
X477750Y135925D02*
X478375Y136237D01*
X479313*
X479937Y135925*
X480250Y135300*
Y134363*
X479937Y134050*
X479313Y133737*
X478687*
X478063Y134050*
X477750Y134363*
Y134675*
X478063Y134987*
X478687Y135300*
X479313*
X479937Y134987*
X480250Y134675*
Y134363D02*
Y133737D01*
X485250Y135300D02*
X484937Y135925D01*
X484313Y136237*
X483687*
X483063Y135925*
X482750Y135300*
Y134675*
X483063Y134050*
X483687Y133737*
X484313*
X484937Y134050*
X485250Y134675*
Y133737D02*
Y137487D01*
X490250Y135300D02*
X489937Y135925D01*
X489313Y136237*
X488687*
X488063Y135925*
X487750Y135300*
Y134675*
X488063Y134050*
X488687Y133737*
X489313*
X489937Y134050*
X490250Y134675*
Y133737D02*
Y137487D01*
X497750Y134675D02*
X498063Y134050D01*
X498687Y133737*
X499937*
X500563Y134050*
X500875Y134675*
X500563Y135300*
X499937Y135613*
X498687*
X498063Y135925*
X497750Y136550*
X498063Y137175*
X498687Y137487*
X499937*
X500563Y137175*
X500875Y136550*
X505250Y134050D02*
X504937Y133737D01*
X504313*
X503687*
X503063Y134050*
X502750Y134675*
Y135613*
X503063Y135925*
X503687Y136237*
X504313*
X504937Y135925*
X505250Y135613*
Y135300*
X504937Y134987*
X504313Y134675*
X503687*
X503063Y134987*
X502750Y135300*
X507750Y133737D02*
Y136237D01*
Y135300D02*
X508063Y135925D01*
X508687Y136237*
X509313*
X509937Y135925*
X514000Y133737D02*
Y136237D01*
Y137175D02*
X517750Y135925*
X518375Y136237D01*
X519313*
X519937Y135925*
X520250Y135300*
Y134363*
X519937Y134050*
X519313Y133737*
X518687*
X518063Y134050*
X517750Y134363*
Y134675*
X518063Y134987*
X518687Y135300*
X519313*
X519937Y134987*
X520250Y134675*
Y134363D02*
Y133737D01*
X524313D02*
X524000D01*
Y137487*
X528375Y133737D02*
X529625D01*
X529000D02*
Y137487D01*
X528375Y136863*
X537750Y136237D02*
Y132800D01*
Y134675D02*
X538063Y134050D01*
X538687Y133737*
X539313*
X539937Y134050*
X540250Y134675*
Y135300*
X539937Y135925*
X539313Y136237*
X538687*
X538063Y135925*
X537750Y135300*
Y134675*
X542750D02*
X543063Y134050D01*
X543687Y133737*
X544313*
X544937Y134050*
X545250Y134675*
Y135300*
X544937Y135925*
X544313Y136237*
X543687*
X543063Y135925*
X542750Y135300*
Y134675*
X547750Y133737D02*
Y136237D01*
Y135300D02*
X548063Y135925D01*
X548687Y136237*
X549313*
X549937Y135925*
X553375Y136237D02*
X554625D01*
X554000Y136863D02*
Y134050D01*
X554313Y133737*
X554625*
X554937Y134050*
X562750Y133737D02*
Y137487D01*
X564625*
X565250Y137175*
X565563Y136863*
X565875Y136237*
Y134987*
X565563Y134363*
X565250Y134050*
X564625Y133737*
X562750*
X567750Y134987D02*
Y136237D01*
X568063Y136863*
X568375Y137175*
X569000Y137487*
X569625*
X570250Y137175*
X570563Y136863*
X570875Y136237*
Y134987*
X570563Y134363*
X570250Y134050*
X569625Y133737*
X569000*
X568375Y134050*
X568063Y134363*
X567750Y134987*
X572750Y133737D02*
Y137487D01*
X575875Y133737*
Y137487*
X577750Y133737D02*
Y137487D01*
X580875*
X580250Y135613D02*
X577750D01*
Y133737D02*
X580875D01*
X467750Y154987D02*
X470250D01*
X480250Y155925D02*
X479625Y156237D01*
X478687*
X478063Y155925*
X477750Y155300*
Y154675*
X478063Y154050*
X478687Y153737*
X479625*
X480250Y154050*
X482750Y153737D02*
Y157487D01*
Y155300D02*
X483063Y155925D01*
X483687Y156237*
X484313*
X484937Y155925*
X485250Y155300*
Y153737*
X490250Y154050D02*
X489937Y153737D01*
X489313*
X488687*
X488063Y154050*
X487750Y154675*
Y155613*
X488063Y155925*
X488687Y156237*
X489313*
X489937Y155925*
X490250Y155613*
Y155300*
X489937Y154987*
X489313Y154675*
X488687*
X488063Y154987*
X487750Y155300*
X495250Y155925D02*
X494625Y156237D01*
X493687*
X493063Y155925*
X492750Y155300*
Y154675*
X493063Y154050*
X493687Y153737*
X494625*
X495250Y154050*
X497750Y153737D02*
Y157487D01*
Y154987D02*
X498687D01*
X500250Y156237*
X498687Y154987D02*
X500250Y153737D01*
X508375Y156237D02*
X509625D01*
X509000Y156863D02*
Y154050D01*
X509313Y153737*
X509625*
X509937Y154050*
X512750Y154675D02*
X513063Y154050D01*
X513687Y153737*
X514313*
X514937Y154050*
X515250Y154675*
Y155300*
X514937Y155925*
X514313Y156237*
X513687*
X513063Y155925*
X512750Y155300*
Y154675*
X517750Y156237D02*
Y154675D01*
X518063Y154050*
X518687Y153737*
X519313*
X519937Y154050*
X520250Y154675*
Y156237D02*
Y153737D01*
X525250Y155925D02*
X524625Y156237D01*
X523687*
X523063Y155925*
X522750Y155300*
Y154675*
X523063Y154050*
X523687Y153737*
X524625*
X525250Y154050*
X527750Y153737D02*
Y157487D01*
Y155300D02*
X528063Y155925D01*
X528687Y156237*
X529313*
X529937Y155925*
X530250Y155300*
Y153737*
X537750Y156237D02*
Y152800D01*
Y154675D02*
X538063Y154050D01*
X538687Y153737*
X539313*
X539937Y154050*
X540250Y154675*
Y155300*
X539937Y155925*
X539313Y156237*
X538687*
X538063Y155925*
X537750Y155300*
Y154675*
X544000Y153737D02*
Y156237D01*
Y157175D02*
X547750Y153737*
Y156237D01*
Y155300D02*
X548063Y155925D01*
X548687Y156237*
X549313*
X549937Y155925*
X550250Y155300*
Y153737*
X552750Y154050D02*
X553375Y153737D01*
X554625*
X555250Y154050*
Y154675*
X554625Y154987*
X553375*
X552750Y155300*
Y155925*
X553375Y156237*
X554625*
X555250Y155925*
X564937Y153737D02*
X564313Y154675D01*
Y156863*
X564937Y157487*
X569313Y153737D02*
Y157487D01*
X567750D02*
X570875D01*
X573375Y153737D02*
X574625D01*
X574000D02*
Y157487D01*
X573375Y156863*
X582750Y153737D02*
Y156237D01*
Y155925D02*
X583063Y156237D01*
X583687*
X584000Y155925*
Y154987*
Y155925D02*
X584313Y156237D01*
X584937*
X585250Y155925*
Y153737*
X587750Y155925D02*
X588375Y156237D01*
X589313*
X589937Y155925*
X590250Y155300*
Y154363*
X589937Y154050*
X589313Y153737*
X588687*
X588063Y154050*
X587750Y154363*
Y154675*
X588063Y154987*
X588687Y155300*
X589313*
X589937Y154987*
X590250Y154675*
Y154363D02*
Y153737D01*
X592750Y156237D02*
X593063Y154987D01*
X593687Y154363*
X594313*
X594937Y154987*
X595250Y156237*
X594937Y154987D02*
X594625Y153737D01*
X594313Y153113*
X593687Y152800*
X593063Y153113*
X602750Y153737D02*
Y156237D01*
Y155300D02*
X603063Y155925D01*
X603687Y156237*
X604313*
X604937Y155925*
X605250Y155300*
Y153737*
X607750Y154675D02*
X608063Y154050D01*
X608687Y153737*
X609313*
X609937Y154050*
X610250Y154675*
Y155300*
X609937Y155925*
X609313Y156237*
X608687*
X608063Y155925*
X607750Y155300*
Y154675*
X613375Y156237D02*
X614625D01*
X614000Y156863D02*
Y154050D01*
X614313Y153737*
X614625*
X614937Y154050*
X622750Y156237D02*
Y154050D01*
X623063Y153737*
X623687*
X624000Y154050*
Y154987*
Y154050D02*
X624313Y153737D01*
X624937*
X625250Y154050*
Y156237*
X627750Y154675D02*
X628063Y154050D01*
X628687Y153737*
X629313*
X629937Y154050*
X630250Y154675*
Y155300*
X629937Y155925*
X629313Y156237*
X628687*
X628063Y155925*
X627750Y155300*
Y154675*
X632750Y153737D02*
Y156237D01*
Y155300D02*
X633063Y155925D01*
X633687Y156237*
X634313*
X634937Y155925*
X637750Y153737D02*
Y157487D01*
Y154987D02*
X638687D01*
X640250Y156237*
X638687Y154987D02*
X640250Y153737D01*
X644000D02*
X644313Y154050D01*
Y154363*
X652750Y154050D02*
X653375Y153737D01*
X654625*
X655250Y154050*
Y154675*
X654625Y154987*
X653375*
X652750Y155300*
Y155925*
X653375Y156237*
X654625*
X655250Y155925*
X657750Y154675D02*
X658063Y154050D01*
X658687Y153737*
X659313*
X659937Y154050*
X660250Y154675*
Y155300*
X659937Y155925*
X659313Y156237*
X658687*
X658063Y155925*
X657750Y155300*
Y154675*
X667750Y156237D02*
Y154675D01*
X668063Y154050*
X668687Y153737*
X669313*
X669937Y154050*
X670250Y154675*
Y156237D02*
Y153737D01*
X672750Y154050D02*
X673375Y153737D01*
X674625*
X675250Y154050*
Y154675*
X674625Y154987*
X673375*
X672750Y155300*
Y155925*
X673375Y156237*
X674625*
X675250Y155925*
X680250Y154050D02*
X679937Y153737D01*
X679313*
X678687*
X678063Y154050*
X677750Y154675*
Y155613*
X678063Y155925*
X678687Y156237*
X679313*
X679937Y155925*
X680250Y155613*
Y155300*
X679937Y154987*
X679313Y154675*
X678687*
X678063Y154987*
X677750Y155300*
X689313Y153737D02*
Y157487D01*
X687750D02*
X690875D01*
X693687Y155613D02*
X694313D01*
X694937Y155925*
X695250Y156550*
X694937Y157175*
X694313Y157487*
X693687*
X693063Y157175*
X692750Y156550*
X693063Y155925*
X693687Y155613*
X693063Y155300*
X692750Y154675*
X693063Y154050*
X693687Y153737*
X694313*
X694937Y154050*
X695250Y154675*
X694937Y155300*
X694313Y155613*
X698687Y153737D02*
X699313Y154675D01*
Y156863*
X698687Y157487*
X467750Y162487D02*
X470250D01*
X477750Y163425D02*
X478375Y163737D01*
X479313*
X479937Y163425*
X480250Y162800*
Y161863*
X479937Y161550*
X479313Y161237*
X478687*
X478063Y161550*
X477750Y161863*
Y162175*
X478063Y162487*
X478687Y162800*
X479313*
X479937Y162487*
X480250Y162175*
Y161863D02*
Y161237D01*
X485250Y162800D02*
X484937Y163425D01*
X484313Y163737*
X483687*
X483063Y163425*
X482750Y162800*
Y162175*
X483063Y161550*
X483687Y161237*
X484313*
X484937Y161550*
X485250Y162175*
Y161237D02*
Y164987D01*
X490250Y162800D02*
X489937Y163425D01*
X489313Y163737*
X488687*
X488063Y163425*
X487750Y162800*
Y162175*
X488063Y161550*
X488687Y161237*
X489313*
X489937Y161550*
X490250Y162175*
Y161237D02*
Y164987D01*
X500250Y162800D02*
X499937Y163425D01*
X499313Y163737*
X498687*
X498063Y163425*
X497750Y162800*
Y162175*
X498063Y161550*
X498687Y161237*
X499313*
X499937Y161550*
X500250Y162175*
Y161237D02*
Y164987D01*
X505250Y161550D02*
X504937Y161237D01*
X504313*
X503687*
X503063Y161550*
X502750Y162175*
Y163113*
X503063Y163425*
X503687Y163737*
X504313*
X504937Y163425*
X505250Y163113*
Y162800*
X504937Y162487*
X504313Y162175*
X503687*
X503063Y162487*
X502750Y162800*
X510250Y163425D02*
X509625Y163737D01*
X508687*
X508063Y163425*
X507750Y162800*
Y162175*
X508063Y161550*
X508687Y161237*
X509625*
X510250Y161550*
X512750Y162175D02*
X513063Y161550D01*
X513687Y161237*
X514313*
X514937Y161550*
X515250Y162175*
Y162800*
X514937Y163425*
X514313Y163737*
X513687*
X513063Y163425*
X512750Y162800*
Y162175*
X517750Y163737D02*
Y162175D01*
X518063Y161550*
X518687Y161237*
X519313*
X519937Y161550*
X520250Y162175*
Y163737D02*
Y161237D01*
X522750Y163737D02*
Y160300D01*
Y162175D02*
X523063Y161550D01*
X523687Y161237*
X524313*
X524937Y161550*
X525250Y162175*
Y162800*
X524937Y163425*
X524313Y163737*
X523687*
X523063Y163425*
X522750Y162800*
Y162175*
X529313Y161237D02*
X529000D01*
Y164987*
X534000Y161237D02*
Y163737D01*
Y164675D02*
X537750Y161237*
Y163737D01*
Y162800D02*
X538063Y163425D01*
X538687Y163737*
X539313*
X539937Y163425*
X540250Y162800*
Y161237*
X545250Y162800D02*
X544937Y163425D01*
X544313Y163737*
X543687*
X543063Y163425*
X542750Y162800*
Y162487*
X543063Y161863*
X543687Y161550*
X544313*
X544937Y161863*
X545250Y162487*
Y163737D02*
Y161237D01*
X544937Y160613*
X544313Y160300*
X543375*
X542750Y160613*
X555250Y163425D02*
X554625Y163737D01*
X553687*
X553063Y163425*
X552750Y162800*
Y162175*
X553063Y161550*
X553687Y161237*
X554625*
X555250Y161550*
X557750Y163425D02*
X558375Y163737D01*
X559313*
X559937Y163425*
X560250Y162800*
Y161863*
X559937Y161550*
X559313Y161237*
X558687*
X558063Y161550*
X557750Y161863*
Y162175*
X558063Y162487*
X558687Y162800*
X559313*
X559937Y162487*
X560250Y162175*
Y161863D02*
Y161237D01*
X562750Y163737D02*
Y160300D01*
Y162175D02*
X563063Y161550D01*
X563687Y161237*
X564313*
X564937Y161550*
X565250Y162175*
Y162800*
X564937Y163425*
X564313Y163737*
X563687*
X563063Y163425*
X562750Y162800*
Y162175*
X567750Y163425D02*
X568375Y163737D01*
X569313*
X569937Y163425*
X570250Y162800*
Y161863*
X569937Y161550*
X569313Y161237*
X568687*
X568063Y161550*
X567750Y161863*
Y162175*
X568063Y162487*
X568687Y162800*
X569313*
X569937Y162487*
X570250Y162175*
Y161863D02*
Y161237D01*
X575250Y163425D02*
X574625Y163737D01*
X573687*
X573063Y163425*
X572750Y162800*
Y162175*
X573063Y161550*
X573687Y161237*
X574625*
X575250Y161550*
X579000Y161237D02*
Y163737D01*
Y164675D02*
X583375Y163737*
X584625D01*
X584000Y164363D02*
Y161550D01*
X584313Y161237*
X584625*
X584937Y161550*
X587750Y162175D02*
X588063Y161550D01*
X588687Y161237*
X589313*
X589937Y161550*
X590250Y162175*
Y162800*
X589937Y163425*
X589313Y163737*
X588687*
X588063Y163425*
X587750Y162800*
Y162175*
X592750Y161237D02*
Y163737D01*
Y162800D02*
X593063Y163425D01*
X593687Y163737*
X594313*
X594937Y163425*
X603375Y163737D02*
X604625D01*
X604000Y164363D02*
Y161550D01*
X604313Y161237*
X604625*
X604937Y161550*
X607750Y162175D02*
X608063Y161550D01*
X608687Y161237*
X609313*
X609937Y161550*
X610250Y162175*
Y162800*
X609937Y163425*
X609313Y163737*
X608687*
X608063Y163425*
X607750Y162800*
Y162175*
X617750Y163737D02*
Y160300D01*
Y162175D02*
X618063Y161550D01*
X618687Y161237*
X619313*
X619937Y161550*
X620250Y162175*
Y162800*
X619937Y163425*
X619313Y163737*
X618687*
X618063Y163425*
X617750Y162800*
Y162175*
X622750D02*
X623063Y161550D01*
X623687Y161237*
X624313*
X624937Y161550*
X625250Y162175*
Y162800*
X624937Y163425*
X624313Y163737*
X623687*
X623063Y163425*
X622750Y162800*
Y162175*
X627750Y163737D02*
Y161550D01*
X628063Y161237*
X628687*
X629000Y161550*
Y162487*
Y161550D02*
X629313Y161237D01*
X629937*
X630250Y161550*
Y163737*
X635250Y161550D02*
X634937Y161237D01*
X634313*
X633687*
X633063Y161550*
X632750Y162175*
Y163113*
X633063Y163425*
X633687Y163737*
X634313*
X634937Y163425*
X635250Y163113*
Y162800*
X634937Y162487*
X634313Y162175*
X633687*
X633063Y162487*
X632750Y162800*
X637750Y161237D02*
Y163737D01*
Y162800D02*
X638063Y163425D01*
X638687Y163737*
X639313*
X639937Y163425*
X467750Y169987D02*
X470250D01*
X479000Y168737D02*
Y171863D01*
X479313Y172175*
X479625*
X479937Y171863*
X478375Y170925D02*
X479625D01*
X484000Y168737D02*
Y171237D01*
Y172175D02*
X487750Y168737*
X490250Y171237D01*
Y168737D02*
X487750Y171237D01*
X497750Y168737D02*
Y172487D01*
X499937*
X500563Y172175*
X500875Y171550*
X500563Y170925*
X499937Y170613*
X497750*
X502750Y169675D02*
X503063Y169050D01*
X503687Y168737*
X504313*
X504937Y169050*
X505250Y169675*
Y170300*
X504937Y170925*
X504313Y171237*
X503687*
X503063Y170925*
X502750Y170300*
Y169675*
X507750Y171237D02*
Y169050D01*
X508063Y168737*
X508687*
X509000Y169050*
Y169987*
Y169050D02*
X509313Y168737D01*
X509937*
X510250Y169050*
Y171237*
X515250Y169050D02*
X514937Y168737D01*
X514313*
X513687*
X513063Y169050*
X512750Y169675*
Y170613*
X513063Y170925*
X513687Y171237*
X514313*
X514937Y170925*
X515250Y170613*
Y170300*
X514937Y169987*
X514313Y169675*
X513687*
X513063Y169987*
X512750Y170300*
X517750Y168737D02*
Y171237D01*
Y170300D02*
X518063Y170925D01*
X518687Y171237*
X519313*
X519937Y170925*
X527750Y171237D02*
Y167800D01*
Y169675D02*
X528063Y169050D01*
X528687Y168737*
X529313*
X529937Y169050*
X530250Y169675*
Y170300*
X529937Y170925*
X529313Y171237*
X528687*
X528063Y170925*
X527750Y170300*
Y169675*
X532750D02*
X533063Y169050D01*
X533687Y168737*
X534313*
X534937Y169050*
X535250Y169675*
Y170300*
X534937Y170925*
X534313Y171237*
X533687*
X533063Y170925*
X532750Y170300*
Y169675*
X537750Y169050D02*
X538375Y168737D01*
X539625*
X540250Y169050*
Y169675*
X539625Y169987*
X538375*
X537750Y170300*
Y170925*
X538375Y171237*
X539625*
X540250Y170925*
X544000Y168737D02*
Y171237D01*
Y172175D02*
X548375Y171237*
X549625D01*
X549000Y171863D02*
Y169050D01*
X549313Y168737*
X549625*
X549937Y169050*
X554000Y168737D02*
Y171237D01*
Y172175D02*
X557750Y169675*
X558063Y169050D01*
X558687Y168737*
X559313*
X559937Y169050*
X560250Y169675*
Y170300*
X559937Y170925*
X559313Y171237*
X558687*
X558063Y170925*
X557750Y170300*
Y169675*
X562750Y168737D02*
Y171237D01*
Y170300D02*
X563063Y170925D01*
X563687Y171237*
X564313*
X564937Y170925*
X565250Y170300*
Y168737*
X572750D02*
Y172487D01*
X574625*
X575250Y172175*
X575563Y171863*
X575875Y171237*
Y169987*
X575563Y169363*
X575250Y169050*
X574625Y168737*
X572750*
X577750Y169987D02*
Y171237D01*
X578063Y171863*
X578375Y172175*
X579000Y172487*
X579625*
X580250Y172175*
X580563Y171863*
X580875Y171237*
Y169987*
X580563Y169363*
X580250Y169050*
X579625Y168737*
X579000*
X578375Y169050*
X578063Y169363*
X577750Y169987*
X582750Y168737D02*
Y172487D01*
X585875Y168737*
Y172487*
X587750Y168737D02*
Y172487D01*
X590875*
X590250Y170613D02*
X587750D01*
Y168737D02*
X590875D01*
X467750Y179987D02*
X470250D01*
X479000Y178737D02*
Y181863D01*
X479313Y182175*
X479625*
X479937Y181863*
X478375Y180925D02*
X479625D01*
X484000Y178737D02*
Y181237D01*
Y182175D02*
X487750Y178737*
X490250Y181237D01*
Y178737D02*
X487750Y181237D01*
X498687Y178737D02*
X499937D01*
X499313D02*
Y182487D01*
X498687D02*
X499937D01*
X505250Y178737D02*
X502750D01*
X504937Y180925*
X505250Y181550*
X504937Y182175*
X504313Y182487*
X503375*
X502750Y182175*
X510875Y179363D02*
X510563Y179050D01*
X509937Y178737*
X509000*
X508375Y179050*
X508063Y179363*
X507750Y179987*
Y181237*
X508063Y181863*
X508375Y182175*
X509000Y182487*
X509937*
X510563Y182175*
X510875Y181863*
X517750Y179675D02*
X518063Y179050D01*
X518687Y178737*
X519313*
X519937Y179050*
X520250Y179675*
Y180300*
X519937Y180925*
X519313Y181237*
X518687*
X518063Y180925*
X517750Y180300*
Y179675*
X522750Y178737D02*
Y181237D01*
Y180300D02*
X523063Y180925D01*
X523687Y181237*
X524313*
X524937Y180925*
X530250Y180300D02*
X529937Y180925D01*
X529313Y181237*
X528687*
X528063Y180925*
X527750Y180300*
Y179675*
X528063Y179050*
X528687Y178737*
X529313*
X529937Y179050*
X530250Y179675*
Y178737D02*
Y182487D01*
X535250Y179050D02*
X534937Y178737D01*
X534313*
X533687*
X533063Y179050*
X532750Y179675*
Y180613*
X533063Y180925*
X533687Y181237*
X534313*
X534937Y180925*
X535250Y180613*
Y180300*
X534937Y179987*
X534313Y179675*
X533687*
X533063Y179987*
X532750Y180300*
X537750Y178737D02*
Y181237D01*
Y180300D02*
X538063Y180925D01*
X538687Y181237*
X539313*
X539937Y180925*
X547750D02*
X548375Y181237D01*
X549313*
X549937Y180925*
X550250Y180300*
Y179363*
X549937Y179050*
X549313Y178737*
X548687*
X548063Y179050*
X547750Y179363*
Y179675*
X548063Y179987*
X548687Y180300*
X549313*
X549937Y179987*
X550250Y179675*
Y179363D02*
Y178737D01*
X552750D02*
Y181237D01*
Y180300D02*
X553063Y180925D01*
X553687Y181237*
X554313*
X554937Y180925*
X555250Y180300*
Y178737*
X560250Y180300D02*
X559937Y180925D01*
X559313Y181237*
X558687*
X558063Y180925*
X557750Y180300*
Y179675*
X558063Y179050*
X558687Y178737*
X559313*
X559937Y179050*
X560250Y179675*
Y178737D02*
Y182487D01*
X567750Y181237D02*
Y177800D01*
Y179675D02*
X568063Y179050D01*
X568687Y178737*
X569313*
X569937Y179050*
X570250Y179675*
Y180300*
X569937Y180925*
X569313Y181237*
X568687*
X568063Y180925*
X567750Y180300*
Y179675*
X572750D02*
X573063Y179050D01*
X573687Y178737*
X574313*
X574937Y179050*
X575250Y179675*
Y180300*
X574937Y180925*
X574313Y181237*
X573687*
X573063Y180925*
X572750Y180300*
Y179675*
X577750Y179050D02*
X578375Y178737D01*
X579625*
X580250Y179050*
Y179675*
X579625Y179987*
X578375*
X577750Y180300*
Y180925*
X578375Y181237*
X579625*
X580250Y180925*
X584000Y178737D02*
Y181237D01*
Y182175D02*
X588375Y181237*
X589625D01*
X589000Y181863D02*
Y179050D01*
X589313Y178737*
X589625*
X589937Y179050*
X594000Y178737D02*
Y181237D01*
Y182175D02*
X597750Y179675*
X598063Y179050D01*
X598687Y178737*
X599313*
X599937Y179050*
X600250Y179675*
Y180300*
X599937Y180925*
X599313Y181237*
X598687*
X598063Y180925*
X597750Y180300*
Y179675*
X602750Y178737D02*
Y181237D01*
Y180300D02*
X603063Y180925D01*
X603687Y181237*
X604313*
X604937Y180925*
X605250Y180300*
Y178737*
X612750D02*
Y182487D01*
X614625*
X615250Y182175*
X615563Y181863*
X615875Y181237*
Y179987*
X615563Y179363*
X615250Y179050*
X614625Y178737*
X612750*
X617750Y179987D02*
Y181237D01*
X618063Y181863*
X618375Y182175*
X619000Y182487*
X619625*
X620250Y182175*
X620563Y181863*
X620875Y181237*
Y179987*
X620563Y179363*
X620250Y179050*
X619625Y178737*
X619000*
X618375Y179050*
X618063Y179363*
X617750Y179987*
X622750Y178737D02*
Y182487D01*
X625875Y178737*
Y182487*
X627750Y178737D02*
Y182487D01*
X630875*
X630250Y180613D02*
X627750D01*
Y178737D02*
X630875D01*
X467750Y189987D02*
X470250D01*
X479000Y188737D02*
Y191863D01*
X479313Y192175*
X479625*
X479937Y191863*
X478375Y190925D02*
X479625D01*
X484000Y188737D02*
Y191237D01*
Y192175D02*
X487750Y188737*
X490250Y191237D01*
Y188737D02*
X487750Y191237D01*
X497750Y189675D02*
X498063Y189050D01*
X498687Y188737*
X499313*
X499937Y189050*
X500250Y189675*
Y190300*
X499937Y190925*
X499313Y191237*
X498687*
X498063Y190925*
X497750Y190300*
Y188737D02*
Y192487D01*
X502750Y191237D02*
Y189675D01*
X503063Y189050*
X503687Y188737*
X504313*
X504937Y189050*
X505250Y189675*
Y191237D02*
Y188737D01*
X508375Y191237D02*
X509625D01*
X509000Y191863D02*
Y189050D01*
X509313Y188737*
X509625*
X509937Y189050*
X513375Y191237D02*
X514625D01*
X514000Y191863D02*
Y189050D01*
X514313Y188737*
X514625*
X514937Y189050*
X517750Y189675D02*
X518063Y189050D01*
X518687Y188737*
X519313*
X519937Y189050*
X520250Y189675*
Y190300*
X519937Y190925*
X519313Y191237*
X518687*
X518063Y190925*
X517750Y190300*
Y189675*
X522750Y188737D02*
Y191237D01*
Y190300D02*
X523063Y190925D01*
X523687Y191237*
X524313*
X524937Y190925*
X525250Y190300*
Y188737*
X534000D02*
Y191863D01*
X534313Y192175*
X534625*
X534937Y191863*
X533375Y190925D02*
X534625D01*
X537750Y189675D02*
X538063Y189050D01*
X538687Y188737*
X539313*
X539937Y189050*
X540250Y189675*
Y190300*
X539937Y190925*
X539313Y191237*
X538687*
X538063Y190925*
X537750Y190300*
Y189675*
X542750Y188737D02*
Y191237D01*
Y190300D02*
X543063Y190925D01*
X543687Y191237*
X544313*
X544937Y190925*
X552750Y191237D02*
Y187800D01*
Y189675D02*
X553063Y189050D01*
X553687Y188737*
X554313*
X554937Y189050*
X555250Y189675*
Y190300*
X554937Y190925*
X554313Y191237*
X553687*
X553063Y190925*
X552750Y190300*
Y189675*
X557750Y191237D02*
Y189675D01*
X558063Y189050*
X558687Y188737*
X559313*
X559937Y189050*
X560250Y189675*
Y191237D02*
Y188737D01*
X564313D02*
X564000D01*
Y192487*
X569313Y188737D02*
X569000D01*
Y192487*
X572750Y191237D02*
Y189675D01*
X573063Y189050*
X573687Y188737*
X574313*
X574937Y189050*
X575250Y189675*
Y191237D02*
Y188737D01*
X577750Y191237D02*
Y187800D01*
Y189675D02*
X578063Y189050D01*
X578687Y188737*
X579313*
X579937Y189050*
X580250Y189675*
Y190300*
X579937Y190925*
X579313Y191237*
X578687*
X578063Y190925*
X577750Y190300*
Y189675*
X587750Y191237D02*
Y187800D01*
Y189675D02*
X588063Y189050D01*
X588687Y188737*
X589313*
X589937Y189050*
X590250Y189675*
Y190300*
X589937Y190925*
X589313Y191237*
X588687*
X588063Y190925*
X587750Y190300*
Y189675*
X594000Y188737D02*
Y191237D01*
Y192175D02*
X597750Y188737*
Y191237D01*
Y190300D02*
X598063Y190925D01*
X598687Y191237*
X599313*
X599937Y190925*
X600250Y190300*
Y188737*
X602750Y189050D02*
X603375Y188737D01*
X604625*
X605250Y189050*
Y189675*
X604625Y189987*
X603375*
X602750Y190300*
Y190925*
X603375Y191237*
X604625*
X605250Y190925*
X612750Y188737D02*
Y192487D01*
X614625*
X615250Y192175*
X615563Y191863*
X615875Y191237*
Y189987*
X615563Y189363*
X615250Y189050*
X614625Y188737*
X612750*
X617750Y189987D02*
Y191237D01*
X618063Y191863*
X618375Y192175*
X619000Y192487*
X619625*
X620250Y192175*
X620563Y191863*
X620875Y191237*
Y189987*
X620563Y189363*
X620250Y189050*
X619625Y188737*
X619000*
X618375Y189050*
X618063Y189363*
X617750Y189987*
X622750Y188737D02*
Y192487D01*
X625875Y188737*
Y192487*
X627750Y188737D02*
Y192487D01*
X630875*
X630250Y190613D02*
X627750D01*
Y188737D02*
X630875D01*
X480250Y144987D02*
X482750D01*
X492750Y145925D02*
X492125Y146237D01*
X491187*
X490563Y145925*
X490250Y145300*
Y144675*
X490563Y144050*
X491187Y143737*
X492125*
X492750Y144050*
X495250Y143737D02*
Y147487D01*
Y145300D02*
X495563Y145925D01*
X496187Y146237*
X496813*
X497437Y145925*
X497750Y145300*
Y143737*
X500250Y145925D02*
X500875Y146237D01*
X501813*
X502437Y145925*
X502750Y145300*
Y144363*
X502437Y144050*
X501813Y143737*
X501187*
X500563Y144050*
X500250Y144363*
Y144675*
X500563Y144987*
X501187Y145300*
X501813*
X502437Y144987*
X502750Y144675*
Y144363D02*
Y143737D01*
X505250D02*
Y146237D01*
Y145300D02*
X505563Y145925D01*
X506187Y146237*
X506813*
X507437Y145925*
X507750Y145300*
Y143737*
X512750Y145300D02*
X512437Y145925D01*
X511813Y146237*
X511187*
X510563Y145925*
X510250Y145300*
Y144987*
X510563Y144363*
X511187Y144050*
X511813*
X512437Y144363*
X512750Y144987*
Y146237D02*
Y143737D01*
X512437Y143113*
X511813Y142800*
X510875*
X510250Y143113*
X517750Y144050D02*
X517437Y143737D01*
X516813*
X516187*
X515563Y144050*
X515250Y144675*
Y145613*
X515563Y145925*
X516187Y146237*
X516813*
X517437Y145925*
X517750Y145613*
Y145300*
X517437Y144987*
X516813Y144675*
X516187*
X515563Y144987*
X515250Y145300*
X522750D02*
X522437Y145925D01*
X521813Y146237*
X521187*
X520563Y145925*
X520250Y145300*
Y144675*
X520563Y144050*
X521187Y143737*
X521813*
X522437Y144050*
X522750Y144675*
Y143737D02*
Y147487D01*
X530875Y146237D02*
X532125D01*
X531500Y146863D02*
Y144050D01*
X531813Y143737*
X532125*
X532437Y144050*
X535250Y144675D02*
X535563Y144050D01*
X536187Y143737*
X536813*
X537437Y144050*
X537750Y144675*
Y145300*
X537437Y145925*
X536813Y146237*
X536187*
X535563Y145925*
X535250Y145300*
Y144675*
X546813Y143737D02*
Y147487D01*
X545250D02*
X548375D01*
X551187Y145613D02*
X551813D01*
X552437Y145925*
X552750Y146550*
X552437Y147175*
X551813Y147487*
X551187*
X550563Y147175*
X550250Y146550*
X550563Y145925*
X551187Y145613*
X550563Y145300*
X550250Y144675*
X550563Y144050*
X551187Y143737*
X551813*
X552437Y144050*
X552750Y144675*
X552437Y145300*
X551813Y145613*
X560250Y144675D02*
X560563Y144050D01*
X561187Y143737*
X561813*
X562437Y144050*
X562750Y144675*
Y145300*
X562437Y145925*
X561813Y146237*
X561187*
X560563Y145925*
X560250Y145300*
Y143737D02*
Y147487D01*
X565250Y146237D02*
Y144675D01*
X565563Y144050*
X566187Y143737*
X566813*
X567437Y144050*
X567750Y144675*
Y146237D02*
Y143737D01*
X570875Y146237D02*
X572125D01*
X571500Y146863D02*
Y144050D01*
X571813Y143737*
X572125*
X572437Y144050*
X580250Y143737D02*
Y147487D01*
Y145300D02*
X580563Y145925D01*
X581187Y146237*
X581813*
X582437Y145925*
X582750Y145300*
Y143737*
X585250Y145925D02*
X585875Y146237D01*
X586813*
X587437Y145925*
X587750Y145300*
Y144363*
X587437Y144050*
X586813Y143737*
X586187*
X585563Y144050*
X585250Y144363*
Y144675*
X585563Y144987*
X586187Y145300*
X586813*
X587437Y144987*
X587750Y144675*
Y144363D02*
Y143737D01*
X590250Y146237D02*
X591500Y143737D01*
X592750Y146237*
X597750Y144050D02*
X597437Y143737D01*
X596813*
X596187*
X595563Y144050*
X595250Y144675*
Y145613*
X595563Y145925*
X596187Y146237*
X596813*
X597437Y145925*
X597750Y145613*
Y145300*
X597437Y144987*
X596813Y144675*
X596187*
X595563Y144987*
X595250Y145300*
X605875Y146237D02*
X607125D01*
X606500Y146863D02*
Y144050D01*
X606813Y143737*
X607125*
X607437Y144050*
X610250Y144675D02*
X610563Y144050D01*
X611187Y143737*
X611813*
X612437Y144050*
X612750Y144675*
Y145300*
X612437Y145925*
X611813Y146237*
X611187*
X610563Y145925*
X610250Y145300*
Y144675*
X622750Y145925D02*
X622125Y146237D01*
X621187*
X620563Y145925*
X620250Y145300*
Y144675*
X620563Y144050*
X621187Y143737*
X622125*
X622750Y144050*
X625250Y143737D02*
Y147487D01*
Y145300D02*
X625563Y145925D01*
X626187Y146237*
X626813*
X627437Y145925*
X627750Y145300*
Y143737*
X632750Y144050D02*
X632437Y143737D01*
X631813*
X631187*
X630563Y144050*
X630250Y144675*
Y145613*
X630563Y145925*
X631187Y146237*
X631813*
X632437Y145925*
X632750Y145613*
Y145300*
X632437Y144987*
X631813Y144675*
X631187*
X630563Y144987*
X630250Y145300*
X637750Y145925D02*
X637125Y146237D01*
X636187*
X635563Y145925*
X635250Y145300*
Y144675*
X635563Y144050*
X636187Y143737*
X637125*
X637750Y144050*
X640250Y143737D02*
Y147487D01*
Y144987D02*
X641187D01*
X642750Y146237*
X641187Y144987D02*
X642750Y143737D01*
X650250Y144675D02*
X650563Y144050D01*
X651187Y143737*
X651813*
X652437Y144050*
X652750Y144675*
Y145300*
X652437Y145925*
X651813Y146237*
X651187*
X650563Y145925*
X650250Y145300*
Y144675*
X655875Y146237D02*
X657125D01*
X656500Y146863D02*
Y144050D01*
X656813Y143737*
X657125*
X657437Y144050*
X660250Y143737D02*
Y147487D01*
Y145300D02*
X660563Y145925D01*
X661187Y146237*
X661813*
X662437Y145925*
X662750Y145300*
Y143737*
X667750Y144050D02*
X667437Y143737D01*
X666813*
X666187*
X665563Y144050*
X665250Y144675*
Y145613*
X665563Y145925*
X666187Y146237*
X666813*
X667437Y145925*
X667750Y145613*
Y145300*
X667437Y144987*
X666813Y144675*
X666187*
X665563Y144987*
X665250Y145300*
X670250Y143737D02*
Y146237D01*
Y145300D02*
X670563Y145925D01*
X671187Y146237*
X671813*
X672437Y145925*
X675250Y144050D02*
X675875Y143737D01*
X677125*
X677750Y144050*
Y144675*
X677125Y144987*
X675875*
X675250Y145300*
Y145925*
X675875Y146237*
X677125*
X677750Y145925*
D02*
D91*
X30250Y231425D02*
Y234925D01*
X31125Y236675*
X32000Y237550*
X33750Y238425*
X35500*
X37250Y237550*
X38125Y236675*
X39000Y234925*
Y231425*
X38125Y229675*
X37250Y228800*
X35500Y227925*
X33750*
X32000Y228800*
X31125Y229675*
X30250Y231425*
X44250Y227925D02*
Y238425D01*
X48625Y233175*
X53000Y238425*
Y227925*
X58250Y234925D02*
Y228800D01*
X59125Y227925*
X60875*
X61750Y228800*
Y231425*
Y228800D02*
X62625Y227925D01*
X64375*
X65250Y228800*
Y234925*
X72250Y227925D02*
Y238425D01*
X81000*
X79250Y233175D02*
X72250D01*
Y227925D02*
X81000D01*
X86250Y230550D02*
X87125Y228800D01*
X88875Y227925*
X92375*
X94125Y228800*
X95000Y230550*
X94125Y232300*
X92375Y233175*
X88875*
X87125Y234050*
X86250Y235800*
X87125Y237550*
X88875Y238425*
X92375*
X94125Y237550*
X95000Y235800*
X100250Y227925D02*
Y238425D01*
X106375*
X108125Y237550*
X109000Y235800*
X108125Y234050*
X106375Y233175*
X100250*
X115125Y228800D02*
X116875Y227925D01*
X118625*
X120375Y228800*
X121250Y230550*
X120375Y232300*
X118625Y233175*
X116875*
X118625D02*
X120375Y234050D01*
X121250Y235800*
X120375Y237550*
X118625Y238425*
X116875*
X115125Y237550*
X135250Y227925D02*
X128250D01*
X134375Y234050*
X135250Y235800*
X134375Y237550*
X132625Y238425*
X130000*
X128250Y237550*
X0Y0D02*
M02*
