%FSLAX35Y35*%
%MOIN*%
G04 EasyPC Gerber Version 18.0.8 Build 3632 *
%ADD24C,0.01500*%
%ADD71C,0.03200*%
%ADD92C,0.04800*%
%ADD19C,0.05600*%
%ADD70C,0.06000*%
%ADD77C,0.07000*%
X0Y0D02*
D02*
D19*
X285250Y52800D03*
D02*
D70*
X15250Y80300D03*
Y90300D03*
Y100300D03*
Y110300D03*
Y120300D03*
Y130300D03*
Y140300D03*
Y150300D03*
X25250Y60300D03*
Y70300D03*
Y80300D03*
Y90300D03*
Y100300D03*
Y110300D03*
Y120300D03*
Y130300D03*
Y140300D03*
Y150300D03*
X35250Y17800D03*
Y27800D03*
Y37800D03*
Y47800D03*
Y80300D03*
Y90300D03*
Y100300D03*
Y110300D03*
Y120300D03*
Y130300D03*
Y140300D03*
Y150300D03*
X47750Y62800D03*
X50250Y80300D03*
Y90300D03*
Y100300D03*
Y110300D03*
Y120300D03*
Y130300D03*
Y140300D03*
Y150300D03*
Y160300D03*
X57750Y62800D03*
X67750D03*
X70250Y185300D03*
Y195300D03*
X80250Y80300D03*
Y90300D03*
Y100300D03*
Y110300D03*
Y120300D03*
Y130300D03*
Y140300D03*
Y150300D03*
Y160300D03*
X85250Y190300D03*
Y200300D03*
X95250Y80300D03*
Y90300D03*
Y100300D03*
Y110300D03*
Y120300D03*
Y130300D03*
Y140300D03*
Y150300D03*
Y160300D03*
Y170300D03*
Y180300D03*
Y190300D03*
Y200300D03*
X105250Y80300D03*
Y90300D03*
Y100300D03*
Y110300D03*
Y120300D03*
Y130300D03*
Y140300D03*
Y150300D03*
Y160300D03*
Y170300D03*
Y180300D03*
Y190300D03*
Y200300D03*
X110250Y215300D03*
X115250Y80300D03*
Y90300D03*
Y100300D03*
Y110300D03*
Y120300D03*
Y130300D03*
Y140300D03*
Y150300D03*
Y160300D03*
Y170300D03*
Y180300D03*
Y190300D03*
Y200300D03*
X120250Y215300D03*
X125250Y80300D03*
Y90300D03*
Y100300D03*
Y110300D03*
Y120300D03*
Y130300D03*
Y140300D03*
Y150300D03*
Y160300D03*
Y170300D03*
Y180300D03*
Y190300D03*
Y200300D03*
X130250Y215300D03*
X135250Y80300D03*
Y90300D03*
Y100300D03*
Y110300D03*
Y120300D03*
Y130300D03*
Y140300D03*
Y150300D03*
Y160300D03*
Y170300D03*
Y180300D03*
Y190300D03*
Y200300D03*
X160250Y15300D03*
Y25300D03*
Y40300D03*
Y50300D03*
Y60300D03*
Y70300D03*
Y80300D03*
Y90300D03*
Y100300D03*
Y110300D03*
Y120300D03*
Y130300D03*
Y140300D03*
Y150300D03*
Y160300D03*
Y170300D03*
Y180300D03*
Y190300D03*
Y200300D03*
Y210300D03*
Y220300D03*
X170250Y40300D03*
Y50300D03*
Y60300D03*
Y70300D03*
Y80300D03*
Y90300D03*
Y100300D03*
Y110300D03*
Y120300D03*
Y130300D03*
Y140300D03*
Y150300D03*
Y160300D03*
Y170300D03*
Y180300D03*
Y190300D03*
Y200300D03*
Y210300D03*
Y220300D03*
X185250Y185300D03*
X187750Y80300D03*
X195250Y185300D03*
X197750Y80300D03*
X205250Y185300D03*
Y210300D03*
X207750Y80300D03*
X215250Y170300D03*
Y185300D03*
Y200300D03*
Y210300D03*
X217750Y80300D03*
X225250Y185300D03*
X227750Y80300D03*
X235250Y185300D03*
X237750Y80300D03*
X247750Y15300D03*
X250250Y170300D03*
Y200300D03*
X257750Y15300D03*
X260250Y40300D03*
Y50300D03*
Y60300D03*
Y70300D03*
Y80300D03*
Y90300D03*
Y100300D03*
Y110300D03*
Y120300D03*
Y130300D03*
Y140300D03*
Y150300D03*
Y160300D03*
Y170300D03*
Y180300D03*
Y190300D03*
Y200300D03*
Y210300D03*
Y220300D03*
X267750Y15300D03*
X277750D03*
X285250Y70300D03*
Y80300D03*
Y90300D03*
Y100300D03*
Y110300D03*
Y120300D03*
Y130300D03*
Y140300D03*
Y150300D03*
Y160300D03*
Y170300D03*
Y180300D03*
Y190300D03*
Y200300D03*
Y210300D03*
X287750Y15300D03*
X295250Y70300D03*
Y80300D03*
Y90300D03*
Y100300D03*
Y110300D03*
Y120300D03*
Y130300D03*
Y140300D03*
Y150300D03*
Y160300D03*
Y170300D03*
Y180300D03*
Y190300D03*
Y200300D03*
Y210300D03*
Y225300D03*
X297750Y15300D03*
X305250Y70300D03*
Y80300D03*
Y90300D03*
Y100300D03*
Y110300D03*
Y120300D03*
Y130300D03*
Y140300D03*
Y150300D03*
Y160300D03*
Y170300D03*
Y180300D03*
Y190300D03*
Y200300D03*
Y210300D03*
Y225300D03*
X307750Y15300D03*
X315250Y70300D03*
Y80300D03*
Y90300D03*
Y100300D03*
Y110300D03*
Y120300D03*
Y130300D03*
Y140300D03*
Y150300D03*
Y160300D03*
Y170300D03*
Y180300D03*
Y190300D03*
Y200300D03*
Y210300D03*
Y225300D03*
X317750Y15300D03*
X320250Y37800D03*
Y47800D03*
X325250Y70300D03*
Y80300D03*
Y90300D03*
Y100300D03*
Y110300D03*
Y120300D03*
Y130300D03*
Y140300D03*
Y150300D03*
Y160300D03*
Y170300D03*
Y180300D03*
Y190300D03*
Y200300D03*
Y210300D03*
X340250Y17800D03*
Y27800D03*
Y45300D03*
Y55300D03*
Y65300D03*
Y75300D03*
Y85300D03*
Y95300D03*
Y105300D03*
Y115300D03*
Y150300D03*
Y165300D03*
Y210300D03*
X345250Y127800D03*
X350250Y17800D03*
Y27800D03*
Y150300D03*
Y165300D03*
Y210300D03*
X355250Y127800D03*
Y137800D03*
X360250Y17800D03*
Y27800D03*
Y150300D03*
Y165300D03*
Y180300D03*
Y195300D03*
Y210300D03*
X365250Y127800D03*
X370250Y17800D03*
Y27800D03*
Y45300D03*
Y55300D03*
Y65300D03*
Y75300D03*
Y85300D03*
Y95300D03*
Y105300D03*
Y115300D03*
Y150300D03*
Y165300D03*
Y180300D03*
Y195300D03*
Y210300D03*
X380250Y150300D03*
Y165300D03*
Y180300D03*
Y195300D03*
Y210300D03*
X390250Y42800D03*
Y52800D03*
Y62800D03*
Y72800D03*
Y82800D03*
Y97800D03*
Y107800D03*
Y122800D03*
Y132800D03*
Y150300D03*
Y165300D03*
Y180300D03*
Y195300D03*
Y210300D03*
D02*
D71*
X250250Y55300D03*
X340250Y175300D03*
Y195300D03*
D02*
D24*
X35250Y27800D02*
X50250D01*
X35250Y60300D02*
X25250D01*
X35250Y80300D02*
Y70300D01*
X40250*
Y60300*
X35250*
Y90300D02*
Y80300D01*
Y100300D02*
Y90300D01*
Y110300D02*
Y100300D01*
Y120300D02*
Y110300D01*
Y130300D02*
Y120300D01*
Y140300D02*
Y130300D01*
Y150300D02*
Y165300D01*
X60250*
X35250Y150300D02*
Y140300D01*
X50250Y17800D02*
Y27800D01*
Y42800*
Y55300*
X35250*
Y60300*
X60250Y165300D02*
X80250D01*
Y160300*
X60250Y180300D02*
Y185300D01*
X70250*
X60250Y180300D02*
Y165300D01*
Y200300D02*
Y195300D01*
X70250*
X85250Y200300D02*
Y190300D01*
Y200300D02*
Y205300D01*
X105250*
X95250Y80300D02*
Y75300D01*
X125250*
Y80300*
X95250Y90300D02*
Y80300D01*
Y100300D02*
Y90300D01*
Y110300D02*
Y100300D01*
Y120300D02*
Y110300D01*
Y130300D02*
Y120300D01*
Y140300D02*
Y130300D01*
Y150300D02*
Y140300D01*
Y160300D02*
Y150300D01*
Y170300D02*
Y160300D01*
Y180300D02*
Y170300D01*
Y190300D02*
Y180300D01*
Y200300D02*
Y190300D01*
X100250Y45300D02*
Y55300D01*
X120250*
X100250Y65300D02*
X140250D01*
Y40300*
X100250Y65300D02*
Y70300D01*
X67750*
Y62800*
X105250Y90300D02*
Y80300D01*
Y100300D02*
Y90300D01*
Y110300D02*
Y100300D01*
Y120300D02*
Y110300D01*
Y130300D02*
Y120300D01*
Y140300D02*
Y130300D01*
Y150300D02*
Y140300D01*
Y160300D02*
Y150300D01*
Y170300D02*
Y160300D01*
Y180300D02*
Y170300D01*
Y190300D02*
Y180300D01*
Y200300D02*
Y190300D01*
Y200300D02*
Y205300D01*
X115250*
X110250Y215300D02*
X47750D01*
Y170300*
X27750*
Y160300*
X20250*
Y52800*
X30250*
Y17800*
X35250*
X115250Y205300D02*
X135250D01*
Y200300*
X115250Y205300D02*
Y210300D01*
X120250*
Y215300*
X125250Y90300D02*
Y80300D01*
Y100300D02*
Y90300D01*
Y110300D02*
Y100300D01*
Y120300D02*
Y110300D01*
Y130300D02*
Y120300D01*
Y140300D02*
Y130300D01*
Y150300D02*
Y140300D01*
Y160300D02*
Y150300D01*
Y170300D02*
Y160300D01*
Y180300D02*
Y170300D01*
Y190300D02*
Y180300D01*
Y200300D02*
Y190300D01*
X130250Y215300D02*
X150250D01*
X135250Y90300D02*
Y80300D01*
Y100300D02*
Y90300D01*
Y110300D02*
Y100300D01*
Y110300D02*
Y120300D01*
Y130300*
Y140300*
Y150300D02*
Y140300D01*
Y150300D02*
Y160300D01*
Y170300*
Y180300*
Y190300*
Y200300D02*
Y190300D01*
X140250Y30300D02*
X125250D01*
Y55300*
X120250*
X150250Y215300D02*
X180250D01*
Y230300*
X315250*
Y225300*
X160250Y25300D02*
X170250D01*
Y10300*
X160250Y40300D02*
X170250D01*
X160250D02*
X150250D01*
Y215300*
X160250Y50300D02*
X170250D01*
X160250Y60300D02*
X170250D01*
X160250Y70300D02*
X170250D01*
X160250Y80300D02*
X170250D01*
X160250Y90300D02*
X170250D01*
X160250Y100300D02*
X170250D01*
X160250Y110300D02*
X170250D01*
X160250Y120300D02*
X170250D01*
X160250Y130300D02*
X170250D01*
X160250Y140300D02*
X170250D01*
X160250Y150300D02*
X170250D01*
X160250Y160300D02*
X170250D01*
X160250Y170300D02*
X170250D01*
X160250Y180300D02*
X170250D01*
X160250Y190300D02*
X170250D01*
X160250Y200300D02*
X170250D01*
X160250Y210300D02*
X170250D01*
X160250Y220300D02*
X170250D01*
X160250D02*
Y235300D01*
X340250*
Y215300*
X170250Y10300D02*
X90250D01*
Y57800*
X47750*
Y62800*
X170250Y90300D02*
X177750D01*
Y80300*
X170250Y210300D02*
X205250D01*
X177750Y80300D02*
Y185300D01*
X185250*
X187750Y80300D02*
X177750D01*
X207750D02*
Y97800D01*
X195250*
Y185300*
X215250Y200300D02*
X227750D01*
Y225300*
X295250*
X237750Y80300D02*
Y90300D01*
X245250*
Y130300*
X260250*
Y70300D02*
X265250D01*
Y22800*
X292750*
Y15300*
X297750*
X260250Y80300D02*
X270250D01*
Y42800*
X302750*
Y22800*
X307750*
Y15300*
X260250Y100300D02*
X280250D01*
Y60300*
X330250*
Y15300*
X317750*
X260250Y120300D02*
X250250D01*
Y55300*
X260250Y130300D02*
X267750D01*
Y165300*
X225250*
Y185300*
X260250Y140300D02*
X265250D01*
Y155300*
X205250*
Y185300*
X260250Y150300D02*
X232750D01*
Y97800*
X207750*
X260250Y210300D02*
X232750D01*
Y195300*
X215250*
Y185300*
X260250Y220300D02*
X275250D01*
Y210300*
X285250*
Y52800D02*
X310250D01*
X285250Y70300D02*
Y65300D01*
X315250*
Y70300*
X285250Y80300D02*
Y70300D01*
Y90300D02*
Y80300D01*
Y100300D02*
Y90300D01*
Y110300D02*
Y100300D01*
Y120300D02*
Y110300D01*
Y130300D02*
Y120300D01*
Y140300D02*
Y130300D01*
Y150300D02*
Y140300D01*
Y160300D02*
Y150300D01*
Y170300D02*
Y160300D01*
Y180300D02*
Y170300D01*
Y190300D02*
Y180300D01*
Y200300D02*
Y190300D01*
Y210300D02*
Y200300D01*
X295250Y80300D02*
Y70300D01*
Y90300D02*
Y80300D01*
Y100300D02*
Y90300D01*
Y110300D02*
Y100300D01*
Y110300D02*
Y120300D01*
Y130300*
Y140300*
Y150300*
Y160300*
Y170300D02*
Y160300D01*
Y170300D02*
Y180300D01*
Y190300*
Y200300*
Y210300*
Y215300*
X305250*
X325250*
Y210300*
X305250Y225300D02*
Y215300D01*
X310250Y32800D02*
Y37800D01*
X320250*
X310250Y52800D02*
Y47800D01*
X320250*
X315250Y80300D02*
Y70300D01*
Y90300D02*
Y80300D01*
Y100300D02*
Y90300D01*
Y110300D02*
Y100300D01*
Y120300D02*
Y110300D01*
Y130300D02*
Y120300D01*
Y140300D02*
Y130300D01*
Y150300D02*
Y140300D01*
Y160300D02*
Y150300D01*
Y170300D02*
Y160300D01*
Y180300D02*
Y170300D01*
Y190300D02*
Y180300D01*
Y200300D02*
Y190300D01*
Y210300D02*
Y200300D01*
X325250Y70300D02*
Y80300D01*
Y90300*
Y100300*
Y110300*
Y120300*
Y130300*
Y140300*
Y150300*
Y160300*
Y170300D02*
Y160300D01*
Y170300D02*
Y180300D01*
Y190300*
Y200300*
Y210300*
X332750Y145300D02*
X345250D01*
Y150300*
X350250*
X340250Y27800D02*
X345250D01*
Y65300*
X340250*
Y85300D02*
Y75300D01*
Y115300D02*
X360250D01*
X340250Y175300D02*
X370250D01*
Y180300*
X340250Y195300D02*
Y180300D01*
X360250*
X340250Y215300D02*
Y210300D01*
X345250Y127800D02*
Y132800D01*
X360250*
Y115300*
X350250Y27800D02*
Y95300D01*
X340250*
X350250Y165300D02*
Y150300D01*
Y210300D02*
Y200300D01*
X335250*
Y165300*
X340250*
X355250Y100300D02*
Y105300D01*
X340250*
X355250Y127800D02*
Y120300D01*
X335250*
Y45300*
X340250*
X360250Y27800D02*
Y95300D01*
X370250*
X360250Y115300D02*
X370250D01*
X360250Y165300D02*
Y150300D01*
Y180300D02*
Y190300D01*
X380250*
Y195300*
X370250Y27800D02*
X365250D01*
Y65300*
X370250*
Y45300D02*
X375250D01*
X370250Y85300D02*
Y75300D01*
Y115300D02*
X375250D01*
Y50300*
X370250Y165300D02*
Y150300D01*
Y180300D02*
Y187800D01*
X390250*
Y195300*
X375250Y45300D02*
Y10300D01*
X170250*
X375250Y50300D02*
Y45300D01*
X380250Y165300D02*
Y172800D01*
X395250*
Y215300*
X340250*
X380250Y165300D02*
Y150300D01*
Y195300D02*
Y202800D01*
X360250*
Y210300*
X390250Y42800D02*
X382750D01*
Y50300*
X375250*
X390250Y52800D02*
Y50300D01*
X382750*
Y150300*
X380250*
X390250Y62800D02*
X395250D01*
Y107800*
X390250D02*
X395250D01*
X390250Y195300D02*
Y202800D01*
X385250*
Y205300*
X370250*
Y210300*
X395250Y107800D02*
Y132800D01*
X390250*
D02*
D77*
X35250Y180300D03*
Y200300D03*
X50250Y17800D03*
Y42800D03*
X60250Y180300D03*
Y200300D03*
X70250Y17800D03*
Y42800D03*
X100250Y45300D03*
Y65300D03*
X120250Y55300D03*
X140250Y20300D03*
Y30300D03*
Y40300D03*
X285250Y32800D03*
X310250D03*
Y52800D03*
D02*
D92*
X332750Y145300D03*
X355250Y100300D03*
X0Y0D02*
M02*
