999
DXF file: baseplate.dxf
999
Pro/ENGINEER 2009440 by Parametric Technology Corporation
  0
SECTION
  2
HEADER
  9
$ACADVER
  1
AC1015
  9
$DWGCODEPAGE
  3
ANSI_1252
  9
$EXTMAX
 10
46.811023622
 20
33.1102362205
 30
0.0
  9
$EXTMIN
 10
0.0
 20
0.0
 30
0.0
  9
$LIMMIN
 10
0.0
 20
0.0
  9
$LIMMAX
 10
46.811023622
 20
33.1102362205
  9
$VIEWCTR
 10
23.405511811
 20
16.5551181102
  9
$VIEWSIZE
 40
33.1102362205
  9
$CLAYER
  8
0
  9
$LTSCALE
 40
2.5746062992
  9
$CELTYPE
  6
BYLAYER
  9
$DIMSCALE
 40
1.0
  9
$DIMASZ
 40
0.1875
  9
$DIMEXO
 40
0.2925688976
  9
$DIMDLI
 40
1.7788188976
  9
$DIMEXE
 40
0.8425984252
  9
$DIMCEN
 40
0.4212992126
  9
$DIMLFAC
 40
1.0
  9
$DIMBLK
  1
_CLOSED
  9
$DIMTXT
 40
0.15625
  9
$DIMTOL
 70
0
  9
$DIMLIM
 70
0
  9
$DIMTFAC
 40
1.0
  9
$PDMODE
 70
3
  9
$PDSIZE
 40
0.3125
  9
$HANDSEED
  5
32F
  9
$TILEMODE
 70
1
  9
$MEASUREMENT
 70
0
  9
$INSUNITS
 70
1
  0
ENDSEC
  0
SECTION
  2
CLASSES
  0
CLASS
  1
ACDBDICTIONARYWDFLT
  2
AcDbDictionaryWithDefault
  3
AutoCAD 2000
 90
0
280
0
281
0
  0
CLASS
  1
ACDBPLACEHOLDER
  2
AcDbPlaceHolder
  3
AutoCAD 2000
 90
0
280
0
281
0
  0
CLASS
  1
LAYOUT
  2
AcDbLayout
  3
AutoCAD 2000
 90
0
280
0
281
0
  0
ENDSEC
  0
SECTION
  2
TABLES
  0
TABLE
  2
VPORT
  5
8
100
AcDbSymbolTable
 70
2
  0
VPORT
  5
1F4
100
AcDbSymbolTableRecord
100
AcDbViewportTableRecord
  2
*ACTIVE
 70
0
 10
0.0
 20
0.0
 11
1.0
 21
1.0
 12
23.405511811
 22
16.5551181102
 13
0.0
 23
0.0
 14
1.0
 24
1.0
 15
0.0
 25
0.0
 16
0.0
 26
0.0
 36
1.0
 17
0.0
 27
0.0
 37
0.0
 40
33.1102362205
 41
1.4137931034
 42
50.0
 43
0.0
 44
0.0
 50
0.0
 51
0.0
 71
0
 72
100
 73
1
 74
1
 75
0
 76
0
 77
0
 78
0
  0
ENDTAB
  0
TABLE
  2
LTYPE
  5
5
100
AcDbSymbolTable
 70
6
  0
LTYPE
  5
14
100
AcDbSymbolTableRecord
100
AcDbLinetypeTableRecord
  2
BYBLOCK
 70
0
  3

 72
65
 73
0
 40
0.0
  0
LTYPE
  5
15
100
AcDbSymbolTableRecord
100
AcDbLinetypeTableRecord
  2
BYLAYER
 70
0
  3

 72
65
 73
0
 40
0.0
  0
LTYPE
  5
16
100
AcDbSymbolTableRecord
100
AcDbLinetypeTableRecord
  2
CONTINUOUS
 70
64
  3
Solid line
 72
65
 73
0
 40
0.0
  0
LTYPE
  5
1F5
100
AcDbSymbolTableRecord
100
AcDbLinetypeTableRecord
  2
CENTER
 70
64
  3
____ _ ____ _ ____ _ ____ _ ____ _ ____ _ ____
 72
65
 73
4
 40
0.6
 49
0.375
 74
0
 49
-0.075
 74
0
 49
0.075
 74
0
 49
-0.075
 74
0
  0
LTYPE
  5
1F6
100
AcDbSymbolTableRecord
100
AcDbLinetypeTableRecord
  2
HIDDEN
 70
64
  3
- - - - - - - - - - - - - - - - - - - -
 72
65
 73
2
 40
0.2
 49
0.1
 74
0
 49
-0.1
 74
0
  0
LTYPE
  5
1F7
100
AcDbSymbolTableRecord
100
AcDbLinetypeTableRecord
  2
PHANTOM
 70
64
  3
_____ _ _ _____ _ _ _____ _ _ _____
 72
65
 73
6
 40
0.8
 49
0.45
 74
0
 49
-0.05
 74
0
 49
0.1
 74
0
 49
-0.05
 74
0
 49
0.1
 74
0
 49
-0.05
 74
0
  0
LTYPE
  5
1F8
100
AcDbSymbolTableRecord
100
AcDbLinetypeTableRecord
  2
DOT
 70
64
  3
. . . . . . . . . . . . . . . . . . . .
 72
65
 73
2
 40
0.2
 49
0.1
 74
0
 49
-0.1
 74
0
  0
LTYPE
  5
1F9
100
AcDbSymbolTableRecord
100
AcDbLinetypeTableRecord
  2
DASHED
 70
64
  3
- - - - - - - - - - - - - - - - - - - -
 72
65
 73
2
 40
0.2
 49
0.1
 74
0
 49
-0.1
 74
0
  0
ENDTAB
  0
TABLE
  2
LAYER
  5
2
100
AcDbSymbolTable
 70
36
  0
LAYER
  5
10
100
AcDbSymbolTableRecord
100
AcDbLayerTableRecord
  2
0
 70
0
 62
7
  6
CONTINUOUS
370
-3
390
F
  0
LAYER
  5
1FA
100
AcDbSymbolTableRecord
100
AcDbLayerTableRecord
  2
DEFAULT_1
 70
0
 62
7
  6
CENTER
370
-3
390
F
  0
LAYER
  5
1FB
100
AcDbSymbolTableRecord
100
AcDbLayerTableRecord
  2
DEFAULT_2
 70
0
 62
8
  6
HIDDEN
370
-3
390
F
  0
LAYER
  5
1FC
100
AcDbSymbolTableRecord
100
AcDbLayerTableRecord
  2
DEFAULT_3
 70
0
 62
7
  6
PHANTOM
370
-3
390
F
  0
LAYER
  5
1FD
100
AcDbSymbolTableRecord
100
AcDbLayerTableRecord
  2
01___PRT_ALL_DTM_PLN
 70
0
 62
7
  6
CONTINUOUS
370
-3
390
F
  0
LAYER
  5
1FE
100
AcDbSymbolTableRecord
100
AcDbLayerTableRecord
  2
01___PRT_DEF_DTM_PLN
 70
0
 62
7
  6
CONTINUOUS
370
-3
390
F
  0
LAYER
  5
1FF
100
AcDbSymbolTableRecord
100
AcDbLayerTableRecord
  2
02___PRT_ALL_AXES
 70
0
 62
7
  6
CONTINUOUS
370
-3
390
F
  0
LAYER
  5
200
100
AcDbSymbolTableRecord
100
AcDbLayerTableRecord
  2
03___PRT_ALL_CURVES
 70
0
 62
7
  6
CONTINUOUS
370
-3
390
F
  0
LAYER
  5
201
100
AcDbSymbolTableRecord
100
AcDbLayerTableRecord
  2
04___PRT_ALL_DTM_PNT
 70
0
 62
7
  6
CONTINUOUS
370
-3
390
F
  0
LAYER
  5
202
100
AcDbSymbolTableRecord
100
AcDbLayerTableRecord
  2
05___PRT_ALL_DTM_CSYS
 70
0
 62
7
  6
CONTINUOUS
370
-3
390
F
  0
LAYER
  5
203
100
AcDbSymbolTableRecord
100
AcDbLayerTableRecord
  2
05___PRT_DEF_DTM_CSYS
 70
0
 62
7
  6
CONTINUOUS
370
-3
390
F
  0
LAYER
  5
204
100
AcDbSymbolTableRecord
100
AcDbLayerTableRecord
  2
06___PRT_ALL_SURFS
 70
0
 62
7
  6
CONTINUOUS
370
-3
390
F
  0
ENDTAB
  0
TABLE
  2
STYLE
  5
3
100
AcDbSymbolTable
 70
1
  0
STYLE
  5
11
100
AcDbSymbolTableRecord
100
AcDbTextStyleTableRecord
  2
STANDARD
 70
0
 40
0.0
 41
0.8
 50
0.0
 71
0
 42
0.2
  3
txt
  4

  0
STYLE
  5
205
100
AcDbSymbolTableRecord
100
AcDbTextStyleTableRecord
  2
TEXTSTYLE_1
 70
0
 40
0.0
 41
0.8
 50
0.0
 71
0
 42
0.2
  3
gdt
  4

  0
ENDTAB
  0
TABLE
  2
VIEW
  5
6
100
AcDbSymbolTable
 70
0
  0
ENDTAB
  0
TABLE
  2
UCS
  5
7
100
AcDbSymbolTable
 70
0
  0
ENDTAB
  0
TABLE
  2
APPID
  5
9
100
AcDbSymbolTable
 70
1
  0
APPID
  5
206
100
AcDbSymbolTableRecord
100
AcDbRegAppTableRecord
  2
ACAD
 70
0
  0
ENDTAB
  0
TABLE
  2
BLOCK_RECORD
  5
1
100
AcDbSymbolTable
 70
0
  0
BLOCK_RECORD
  5
207
100
AcDbSymbolTableRecord
100
AcDbBlockTableRecord
  2
*Model_Space
  0
BLOCK_RECORD
  5
208
100
AcDbSymbolTableRecord
100
AcDbBlockTableRecord
  2
*Paper_Space
  0
ENDTAB
  0
TABLE
  2
DIMSTYLE
  5
A
100
AcDbSymbolTable
 70
1
100
AcDbDimStyleTable
 71
0
  0
DIMSTYLE
105
209
100
AcDbSymbolTableRecord
100
AcDbDimStyleTableRecord
  2
STANDARD
 70
0
  3

  4

 40
1.0
 41
0.1875
 42
0.0625
 43
0.38
 44
0.18
 45
0.0
 46
0.0
 47
0.01
 48
0.01
140
0.15625
141
0.09
142
0.0
143
25.4
144
1.0
145
0.0
146
1.0
147
0.09
 71
0.0
 72
0.0
 73
1
 74
1
 75
0
 76
0
 77
0
 78
4
170
0
171
2
172
0
173
0
174
0
175
0
176
0
177
0
178
0
270
2
271
2
272
2
273
2
274
2
275
0
280
0
281
0
282
0
283
1
284
4
285
0
286
0
287
3
288
0
340
11
  0
ENDTAB
  0
ENDSEC
  0
SECTION
  2
BLOCKS
  0
BLOCK
  5
20
100
AcDbEntity
  8
0
100
AcDbBlockBegin
  2
*Model_Space
 70
0
 10
0.0
 20
0.0
 30
0.0
  3
*Model_Space
  1

  0
ENDBLK
  5
21
100
AcDbEntity
  8
0
100
AcDbBlockEnd
  0
BLOCK
  5
1C
100
AcDbEntity
  8
0
100
AcDbBlockBegin
  2
*Paper_Space
 70
0
 10
0.0
 20
0.0
 30
0.0
  3
*Paper_Space
  1

  0
ENDBLK
  5
1D
100
AcDbEntity
  8
0
100
AcDbBlockEnd
  0
ENDSEC
  0
SECTION
  2
ENTITIES
  0
MTEXT
  5
20A
100
AcDbEntity
  8
0
100
AcDbMText
 62
2
  6
CONTINUOUS
  7
STANDARD
 71
2
 72
1
 10
7.4615822437
 20
25.4679635558
 30
0.0
 11
1.0
 21
0.0
 31
0.0
 44
0.9
  1
Back View
 40
0.15625
 41
1.125
  0
MTEXT
  5
20B
100
AcDbEntity
  8
0
100
AcDbMText
 62
2
  6
CONTINUOUS
  7
STANDARD
 71
2
 72
1
 10
22.7372829712
 20
24.4427487419
 30
0.0
 11
1.0
 21
0.0
 31
0.0
 44
0.9
  1
Bottom View
 40
0.15625
 41
1.375
  0
MTEXT
  5
20C
100
AcDbEntity
  8
0
100
AcDbMText
 62
2
  6
CONTINUOUS
  7
STANDARD
 71
2
 72
1
 10
34.7376186008
 20
24.4683230458
 30
0.0
 11
1.0
 21
0.0
 31
0.0
 44
0.9
  1
Front View
 40
0.15625
 41
1.25
  0
MTEXT
  5
20D
100
AcDbEntity
  8
0
100
AcDbMText
 62
2
  6
CONTINUOUS
  7
STANDARD
 71
2
 72
1
 10
7.7357579619
 20
9.7641750842
 30
0.0
 11
1.0
 21
0.0
 31
0.0
 44
0.9
  1
Left View
 40
0.15625
 41
1.125
  0
MTEXT
  5
20E
100
AcDbEntity
  8
0
100
AcDbMText
 62
2
  6
CONTINUOUS
  7
STANDARD
 71
2
 72
1
 10
22.347278998
 20
9.6122384077
 30
0.0
 11
1.0
 21
0.0
 31
0.0
 44
0.9
  1
Right View
 40
0.15625
 41
1.25
  0
MTEXT
  5
20F
100
AcDbEntity
  8
0
100
AcDbMText
 62
2
  6
CONTINUOUS
  7
STANDARD
 71
2
 72
1
 10
35.7252706618
 20
8.683315894
 30
0.0
 11
1.0
 21
0.0
 31
0.0
 44
0.9
  1
Top View
 40
0.15625
 41
1.0
  0
MTEXT
  5
210
100
AcDbEntity
  8
0
100
AcDbMText
 62
2
  6
CONTINUOUS
  7
STANDARD
 71
3
 72
1
 10
6.7685863723
 20
25.8593840415
 30
0.0
 11
1.0
 21
0.0
 31
0.0
 44
0.9
  1
SCALE  1.000
 40
0.15625
 41
1.5
  0
MTEXT
  5
211
100
AcDbEntity
  8
0
100
AcDbMText
 62
2
  6
CONTINUOUS
  7
STANDARD
 71
3
 72
1
 10
35.1972637015
 20
26.0188421462
 30
0.0
 11
1.0
 21
0.0
 31
0.0
 44
0.9
  1
SCALE  1.000
 40
0.15625
 41
1.5
  0
MTEXT
  5
212
100
AcDbEntity
  8
0
100
AcDbMText
 62
2
  6
CONTINUOUS
  7
STANDARD
 71
3
 72
1
 10
7.8054269169
 20
10.4143319641
 30
0.0
 11
1.0
 21
0.0
 31
0.0
 44
0.9
  1
SCALE  1.000
 40
0.15625
 41
1.5
  0
MTEXT
  5
213
100
AcDbEntity
  8
0
100
AcDbMText
 62
2
  6
CONTINUOUS
  7
STANDARD
 71
3
 72
1
 10
22.2477930408
 20
10.1579440901
 30
0.0
 11
1.0
 21
0.0
 31
0.0
 44
0.9
  1
SCALE  1.000
 40
0.15625
 41
1.5
  0
MTEXT
  5
214
100
AcDbEntity
  8
0
100
AcDbMText
 62
2
  6
CONTINUOUS
  7
STANDARD
 71
3
 72
1
 10
35.6249551616
 20
9.2700167062
 30
0.0
 11
1.0
 21
0.0
 31
0.0
 44
0.9
  1
SCALE  1.000
 40
0.15625
 41
1.5
  0
LINE
  5
215
100
AcDbEntity
  8
0
100
AcDbLine
 62
7
  6
CONTINUOUS
 10
0.0
 20
0.0
 11
0.0
 21
33.1102362205
  0
LINE
  5
216
100
AcDbEntity
  8
0
100
AcDbLine
 62
7
  6
CONTINUOUS
 10
0.0
 20
0.0
 11
46.811023622
 21
0.0
  0
LINE
  5
217
100
AcDbEntity
  8
0
100
AcDbLine
 62
7
  6
CONTINUOUS
 10
0.0
 20
33.1102362205
 11
46.811023622
 21
33.1102362205
  0
LINE
  5
218
100
AcDbEntity
  8
0
100
AcDbLine
 62
7
  6
CONTINUOUS
 10
46.811023622
 20
0.0
 11
46.811023622
 21
33.1102362205
  0
LINE
  5
219
100
AcDbEntity
  8
0
100
AcDbLine
 62
7
  6
CONTINUOUS
 10
5.3207342445
 20
26.516700709
 11
5.3207342445
 21
26.3395353547
  0
LINE
  5
21A
100
AcDbEntity
  8
02___PRT_ALL_AXES
100
AcDbLine
 62
8
  6
HIDDEN
 10
5.4355767642
 20
26.3395353547
 11
5.4355767642
 21
26.516700709
  0
LINE
  5
21B
100
AcDbEntity
  8
02___PRT_ALL_AXES
100
AcDbLine
 62
7
  6
CONTINUOUS
 10
5.4495846382
 20
26.3395353547
 11
5.4495846382
 21
26.516700709
  0
LINE
  5
21C
100
AcDbEntity
  8
02___PRT_ALL_AXES
100
AcDbLine
 62
7
  6
CONTINUOUS
 10
5.5855846382
 20
26.3395353547
 11
5.5855846382
 21
26.516700709
  0
LINE
  5
21D
100
AcDbEntity
  8
02___PRT_ALL_AXES
100
AcDbLine
 62
8
  6
HIDDEN
 10
5.5995925122
 20
26.3395353547
 11
5.5995925122
 21
26.516700709
  0
LINE
  5
21E
100
AcDbEntity
  8
0
100
AcDbLine
 62
7
  6
CONTINUOUS
 10
5.7144350319
 20
26.6938660633
 11
5.7144350319
 21
26.516700709
  0
LINE
  5
21F
100
AcDbEntity
  8
0
100
AcDbLine
 62
7
  6
CONTINUOUS
 10
6.2459310949
 20
26.3395353547
 11
6.2459310949
 21
26.6938660633
  0
LINE
  5
220
100
AcDbEntity
  8
02___PRT_ALL_AXES
100
AcDbLine
 62
8
  6
HIDDEN
 10
6.3640413311
 20
26.3820550397
 11
6.3640413311
 21
26.6938660633
  0
LINE
  5
221
100
AcDbEntity
  8
02___PRT_ALL_AXES
100
AcDbLine
 62
7
  6
CONTINUOUS
 10
6.3778208587
 20
26.3395353547
 11
6.3778208587
 21
26.6938660633
  0
LINE
  5
222
100
AcDbEntity
  8
02___PRT_ALL_AXES
100
AcDbLine
 62
7
  6
CONTINUOUS
 10
6.5077421185
 20
26.3395353547
 11
6.5077421185
 21
26.6938660633
  0
LINE
  5
223
100
AcDbEntity
  8
02___PRT_ALL_AXES
100
AcDbLine
 62
8
  6
HIDDEN
 10
6.5215216461
 20
26.3820550397
 11
6.5215216461
 21
26.6938660633
  0
LINE
  5
224
100
AcDbEntity
  8
02___PRT_ALL_AXES
100
AcDbLine
 62
7
  6
CONTINUOUS
 10
9.404482276
 20
26.3395353547
 11
9.268482276
 21
26.3395353547
  0
LINE
  5
225
100
AcDbEntity
  8
02___PRT_ALL_AXES
100
AcDbLine
 62
8
  6
HIDDEN
 10
9.41849015
 20
26.3395353547
 11
9.404482276
 21
26.3395353547
  0
LINE
  5
226
100
AcDbEntity
  8
02___PRT_ALL_AXES
100
AcDbLine
 62
8
  6
HIDDEN
 10
9.268482276
 20
26.3395353547
 11
9.254474402
 21
26.3395353547
  0
LINE
  5
227
100
AcDbEntity
  8
02___PRT_ALL_AXES
100
AcDbLine
 62
7
  6
CONTINUOUS
 10
8.4762460555
 20
26.3395353547
 11
8.3447499925
 21
26.3395353547
  0
LINE
  5
228
100
AcDbEntity
  8
02___PRT_ALL_AXES
100
AcDbLine
 62
7
  6
CONTINUOUS
 10
7.491994087
 20
26.3395353547
 11
7.3620728272
 21
26.3395353547
  0
LINE
  5
229
100
AcDbEntity
  8
02___PRT_ALL_AXES
100
AcDbLine
 62
7
  6
CONTINUOUS
 10
6.5077421185
 20
26.3395353547
 11
6.3778208587
 21
26.3395353547
  0
LINE
  5
22A
100
AcDbEntity
  8
02___PRT_ALL_AXES
100
AcDbLine
 62
7
  6
CONTINUOUS
 10
5.5855846382
 20
26.3395353547
 11
5.4495846382
 21
26.3395353547
  0
LINE
  5
22B
100
AcDbEntity
  8
02___PRT_ALL_AXES
100
AcDbLine
 62
8
  6
HIDDEN
 10
5.5995925122
 20
26.3395353547
 11
5.5855846382
 21
26.3395353547
  0
LINE
  5
22C
100
AcDbEntity
  8
02___PRT_ALL_AXES
100
AcDbLine
 62
8
  6
HIDDEN
 10
5.4495846382
 20
26.3395353547
 11
5.4355767642
 21
26.3395353547
  0
LINE
  5
22D
100
AcDbEntity
  8
0
100
AcDbLine
 62
7
  6
CONTINUOUS
 10
5.3207342445
 20
26.3395353547
 11
9.5333326697
 21
26.3395353547
  0
LINE
  5
22E
100
AcDbEntity
  8
02___PRT_ALL_AXES
100
AcDbLine
 62
8
  6
HIDDEN
 10
6.3640413311
 20
26.3820550397
 11
6.5215216461
 21
26.3820550397
  0
LINE
  5
22F
100
AcDbEntity
  8
02___PRT_ALL_AXES
100
AcDbLine
 62
8
  6
HIDDEN
 10
7.3482932996
 20
26.3820550397
 11
7.5057736146
 21
26.3820550397
  0
LINE
  5
230
100
AcDbEntity
  8
02___PRT_ALL_AXES
100
AcDbLine
 62
8
  6
HIDDEN
 10
8.330970465
 20
26.3820550397
 11
8.4900255831
 21
26.3820550397
  0
LINE
  5
231
100
AcDbEntity
  8
02___PRT_ALL_AXES
100
AcDbLine
 62
8
  6
HIDDEN
 10
7.3482932996
 20
26.3820550397
 11
7.3482932996
 21
26.6938660633
  0
LINE
  5
232
100
AcDbEntity
  8
02___PRT_ALL_AXES
100
AcDbLine
 62
7
  6
CONTINUOUS
 10
7.3620728272
 20
26.3395353547
 11
7.3620728272
 21
26.6938660633
  0
LINE
  5
233
100
AcDbEntity
  8
02___PRT_ALL_AXES
100
AcDbLine
 62
7
  6
CONTINUOUS
 10
9.404482276
 20
26.516700709
 11
9.268482276
 21
26.516700709
  0
LINE
  5
234
100
AcDbEntity
  8
02___PRT_ALL_AXES
100
AcDbLine
 62
8
  6
HIDDEN
 10
9.41849015
 20
26.516700709
 11
9.404482276
 21
26.516700709
  0
LINE
  5
235
100
AcDbEntity
  8
02___PRT_ALL_AXES
100
AcDbLine
 62
8
  6
HIDDEN
 10
9.268482276
 20
26.516700709
 11
9.254474402
 21
26.516700709
  0
LINE
  5
236
100
AcDbEntity
  8
02___PRT_ALL_AXES
100
AcDbLine
 62
7
  6
CONTINUOUS
 10
5.5855846382
 20
26.516700709
 11
5.4495846382
 21
26.516700709
  0
LINE
  5
237
100
AcDbEntity
  8
02___PRT_ALL_AXES
100
AcDbLine
 62
8
  6
HIDDEN
 10
5.5995925122
 20
26.516700709
 11
5.5855846382
 21
26.516700709
  0
LINE
  5
238
100
AcDbEntity
  8
02___PRT_ALL_AXES
100
AcDbLine
 62
8
  6
HIDDEN
 10
5.4495846382
 20
26.516700709
 11
5.4355767642
 21
26.516700709
  0
LINE
  5
239
100
AcDbEntity
  8
0
100
AcDbLine
 62
7
  6
CONTINUOUS
 10
5.7144350319
 20
26.516700709
 11
5.3207342445
 21
26.516700709
  0
LINE
  5
23A
100
AcDbEntity
  8
0
100
AcDbLine
 62
7
  6
CONTINUOUS
 10
9.1396318823
 20
26.516700709
 11
9.5333326697
 21
26.516700709
  0
LINE
  5
23B
100
AcDbEntity
  8
02___PRT_ALL_AXES
100
AcDbLine
 62
7
  6
CONTINUOUS
 10
7.491994087
 20
26.3395353547
 11
7.491994087
 21
26.6938660633
  0
LINE
  5
23C
100
AcDbEntity
  8
02___PRT_ALL_AXES
100
AcDbLine
 62
8
  6
HIDDEN
 10
7.5057736146
 20
26.3820550397
 11
7.5057736146
 21
26.6938660633
  0
LINE
  5
23D
100
AcDbEntity
  8
02___PRT_ALL_AXES
100
AcDbLine
 62
7
  6
CONTINUOUS
 10
8.4762460555
 20
26.6938660633
 11
8.3447499925
 21
26.6938660633
  0
LINE
  5
23E
100
AcDbEntity
  8
02___PRT_ALL_AXES
100
AcDbLine
 62
8
  6
HIDDEN
 10
8.4900255831
 20
26.6938660633
 11
8.4762460555
 21
26.6938660633
  0
LINE
  5
23F
100
AcDbEntity
  8
02___PRT_ALL_AXES
100
AcDbLine
 62
8
  6
HIDDEN
 10
8.3447499925
 20
26.6938660633
 11
8.330970465
 21
26.6938660633
  0
LINE
  5
240
100
AcDbEntity
  8
02___PRT_ALL_AXES
100
AcDbLine
 62
7
  6
CONTINUOUS
 10
7.491994087
 20
26.6938660633
 11
7.3620728272
 21
26.6938660633
  0
LINE
  5
241
100
AcDbEntity
  8
02___PRT_ALL_AXES
100
AcDbLine
 62
8
  6
HIDDEN
 10
7.5057736146
 20
26.6938660633
 11
7.491994087
 21
26.6938660633
  0
LINE
  5
242
100
AcDbEntity
  8
02___PRT_ALL_AXES
100
AcDbLine
 62
8
  6
HIDDEN
 10
7.3620728272
 20
26.6938660633
 11
7.3482932996
 21
26.6938660633
  0
LINE
  5
243
100
AcDbEntity
  8
02___PRT_ALL_AXES
100
AcDbLine
 62
7
  6
CONTINUOUS
 10
6.5077421185
 20
26.6938660633
 11
6.3778208587
 21
26.6938660633
  0
LINE
  5
244
100
AcDbEntity
  8
02___PRT_ALL_AXES
100
AcDbLine
 62
8
  6
HIDDEN
 10
6.5215216461
 20
26.6938660633
 11
6.5077421185
 21
26.6938660633
  0
LINE
  5
245
100
AcDbEntity
  8
02___PRT_ALL_AXES
100
AcDbLine
 62
8
  6
HIDDEN
 10
6.3778208587
 20
26.6938660633
 11
6.3640413311
 21
26.6938660633
  0
LINE
  5
246
100
AcDbEntity
  8
0
100
AcDbLine
 62
7
  6
CONTINUOUS
 10
5.7144350319
 20
26.6938660633
 11
9.1396318823
 21
26.6938660633
  0
LINE
  5
247
100
AcDbEntity
  8
02___PRT_ALL_AXES
100
AcDbLine
 62
8
  6
HIDDEN
 10
8.330970465
 20
26.3820550397
 11
8.330970465
 21
26.6938660633
  0
LINE
  5
248
100
AcDbEntity
  8
02___PRT_ALL_AXES
100
AcDbLine
 62
8
  6
HIDDEN
 10
8.3325452681
 20
26.3820550397
 11
8.3325452681
 21
26.6938660633
  0
LINE
  5
249
100
AcDbEntity
  8
02___PRT_ALL_AXES
100
AcDbLine
 62
7
  6
CONTINUOUS
 10
8.3447499925
 20
26.3395353547
 11
8.3447499925
 21
26.6938660633
  0
LINE
  5
24A
100
AcDbEntity
  8
02___PRT_ALL_AXES
100
AcDbLine
 62
7
  6
CONTINUOUS
 10
8.3463247957
 20
26.3395353547
 11
8.3463247957
 21
26.6938660633
  0
LINE
  5
24B
100
AcDbEntity
  8
02___PRT_ALL_AXES
100
AcDbLine
 62
7
  6
CONTINUOUS
 10
8.4746712524
 20
26.3395353547
 11
8.4746712524
 21
26.6938660633
  0
LINE
  5
24C
100
AcDbEntity
  8
02___PRT_ALL_AXES
100
AcDbLine
 62
7
  6
CONTINUOUS
 10
8.4762460555
 20
26.3395353547
 11
8.4762460555
 21
26.6938660633
  0
LINE
  5
24D
100
AcDbEntity
  8
02___PRT_ALL_AXES
100
AcDbLine
 62
8
  6
HIDDEN
 10
8.4884507799
 20
26.3820550397
 11
8.4884507799
 21
26.6938660633
  0
LINE
  5
24E
100
AcDbEntity
  8
02___PRT_ALL_AXES
100
AcDbLine
 62
8
  6
HIDDEN
 10
8.4900255831
 20
26.3820550397
 11
8.4900255831
 21
26.6938660633
  0
LINE
  5
24F
100
AcDbEntity
  8
0
100
AcDbLine
 62
7
  6
CONTINUOUS
 10
8.6081358193
 20
26.3395353547
 11
8.6081358193
 21
26.6938660633
  0
LINE
  5
250
100
AcDbEntity
  8
0
100
AcDbLine
 62
7
  6
CONTINUOUS
 10
9.1396318823
 20
26.6938660633
 11
9.1396318823
 21
26.516700709
  0
LINE
  5
251
100
AcDbEntity
  8
02___PRT_ALL_AXES
100
AcDbLine
 62
8
  6
HIDDEN
 10
9.254474402
 20
26.3395353547
 11
9.254474402
 21
26.516700709
  0
LINE
  5
252
100
AcDbEntity
  8
02___PRT_ALL_AXES
100
AcDbLine
 62
7
  6
CONTINUOUS
 10
9.268482276
 20
26.3395353547
 11
9.268482276
 21
26.516700709
  0
LINE
  5
253
100
AcDbEntity
  8
02___PRT_ALL_AXES
100
AcDbLine
 62
7
  6
CONTINUOUS
 10
9.404482276
 20
26.3395353547
 11
9.404482276
 21
26.516700709
  0
LINE
  5
254
100
AcDbEntity
  8
02___PRT_ALL_AXES
100
AcDbLine
 62
8
  6
HIDDEN
 10
9.41849015
 20
26.3395353547
 11
9.41849015
 21
26.516700709
  0
LINE
  5
255
100
AcDbEntity
  8
0
100
AcDbLine
 62
7
  6
CONTINUOUS
 10
9.5333326697
 20
26.516700709
 11
9.5333326697
 21
26.3395353547
  0
LINE
  5
256
100
AcDbEntity
  8
0
100
AcDbLine
 62
7
  6
CONTINUOUS
 10
20.6937161417
 20
26.1749363903
 11
20.6937161417
 21
26.6769048943
  0
LINE
  5
257
100
AcDbEntity
  8
0
100
AcDbLine
 62
7
  6
CONTINUOUS
 10
21.0874169291
 20
26.6769048943
 11
21.0874169291
 21
26.1749363903
  0
LINE
  5
258
100
AcDbEntity
  8
0
100
AcDbLine
 62
7
  6
CONTINUOUS
 10
21.618912992
 20
25.2448182801
 11
21.618912992
 21
26.1749363903
  0
LINE
  5
259
100
AcDbEntity
  8
0
100
AcDbLine
 62
7
  6
CONTINUOUS
 10
21.618912992
 20
26.6769048943
 11
21.618912992
 21
27.6070230045
  0
LINE
  5
25A
100
AcDbEntity
  8
0
100
AcDbLine
 62
7
  6
CONTINUOUS
 10
23.9811177165
 20
25.2448182801
 11
21.618912992
 21
25.2448182801
  0
LINE
  5
25B
100
AcDbEntity
  8
0
100
AcDbLine
 62
7
  6
CONTINUOUS
 10
21.618912992
 20
26.1749363903
 11
20.6937161417
 21
26.1749363903
  0
LINE
  5
25C
100
AcDbEntity
  8
0
100
AcDbLine
 62
7
  6
CONTINUOUS
 10
23.9811177165
 20
26.1749363903
 11
24.9063145669
 21
26.1749363903
  0
LINE
  5
25D
100
AcDbEntity
  8
0
100
AcDbLine
 62
7
  6
CONTINUOUS
 10
21.618912992
 20
26.6769048943
 11
20.6937161417
 21
26.6769048943
  0
LINE
  5
25E
100
AcDbEntity
  8
0
100
AcDbLine
 62
7
  6
CONTINUOUS
 10
23.9811177165
 20
26.6769048943
 11
24.9063145669
 21
26.6769048943
  0
LINE
  5
25F
100
AcDbEntity
  8
0
100
AcDbLine
 62
7
  6
CONTINUOUS
 10
23.9811177165
 20
27.6070230045
 11
23.9811177165
 21
26.6769048943
  0
LINE
  5
260
100
AcDbEntity
  8
0
100
AcDbLine
 62
7
  6
CONTINUOUS
 10
23.9811177165
 20
26.1749363903
 11
23.9811177165
 21
25.2448182801
  0
LINE
  5
261
100
AcDbEntity
  8
0
100
AcDbLine
 62
7
  6
CONTINUOUS
 10
21.618912992
 20
27.6070230045
 11
23.9811177165
 21
27.6070230045
  0
LINE
  5
262
100
AcDbEntity
  8
0
100
AcDbLine
 62
7
  6
CONTINUOUS
 10
24.5126137794
 20
26.1749363903
 11
24.5126137794
 21
26.6769048943
  0
LINE
  5
263
100
AcDbEntity
  8
0
100
AcDbLine
 62
7
  6
CONTINUOUS
 10
24.9063145669
 20
26.6769048943
 11
24.9063145669
 21
26.1749363903
  0
LINE
  5
264
100
AcDbEntity
  8
0
100
AcDbLine
 62
7
  6
CONTINUOUS
 10
33.0909644889
 20
26.5081876186
 11
33.0909644889
 21
26.3310222643
  0
LINE
  5
265
100
AcDbEntity
  8
02___PRT_ALL_AXES
100
AcDbLine
 62
8
  6
HIDDEN
 10
33.2058070086
 20
26.3310222643
 11
33.2058070086
 21
26.5081876186
  0
LINE
  5
266
100
AcDbEntity
  8
02___PRT_ALL_AXES
100
AcDbLine
 62
7
  6
CONTINUOUS
 10
33.2198148826
 20
26.3310222643
 11
33.2198148826
 21
26.5081876186
  0
LINE
  5
267
100
AcDbEntity
  8
02___PRT_ALL_AXES
100
AcDbLine
 62
7
  6
CONTINUOUS
 10
33.3558148826
 20
26.3310222643
 11
33.3558148826
 21
26.5081876186
  0
LINE
  5
268
100
AcDbEntity
  8
02___PRT_ALL_AXES
100
AcDbLine
 62
8
  6
HIDDEN
 10
33.3698227566
 20
26.3310222643
 11
33.3698227566
 21
26.5081876186
  0
LINE
  5
269
100
AcDbEntity
  8
0
100
AcDbLine
 62
7
  6
CONTINUOUS
 10
33.4846652763
 20
26.685352973
 11
33.4846652763
 21
26.5081876186
  0
LINE
  5
26A
100
AcDbEntity
  8
0
100
AcDbLine
 62
7
  6
CONTINUOUS
 10
34.0161613393
 20
26.3310222643
 11
34.0161613393
 21
26.685352973
  0
LINE
  5
26B
100
AcDbEntity
  8
02___PRT_ALL_AXES
100
AcDbLine
 62
8
  6
HIDDEN
 10
34.1342715755
 20
26.3735419493
 11
34.1342715755
 21
26.685352973
  0
LINE
  5
26C
100
AcDbEntity
  8
02___PRT_ALL_AXES
100
AcDbLine
 62
8
  6
HIDDEN
 10
34.1358463787
 20
26.3735419493
 11
34.1358463787
 21
26.685352973
  0
LINE
  5
26D
100
AcDbEntity
  8
02___PRT_ALL_AXES
100
AcDbLine
 62
7
  6
CONTINUOUS
 10
34.1480511031
 20
26.3310222643
 11
34.1480511031
 21
26.685352973
  0
LINE
  5
26E
100
AcDbEntity
  8
02___PRT_ALL_AXES
100
AcDbLine
 62
7
  6
CONTINUOUS
 10
34.1496259062
 20
26.3310222643
 11
34.1496259062
 21
26.685352973
  0
LINE
  5
26F
100
AcDbEntity
  8
02___PRT_ALL_AXES
100
AcDbLine
 62
7
  6
CONTINUOUS
 10
34.2779723629
 20
26.3310222643
 11
34.2779723629
 21
26.685352973
  0
LINE
  5
270
100
AcDbEntity
  8
02___PRT_ALL_AXES
100
AcDbLine
 62
7
  6
CONTINUOUS
 10
34.2795471661
 20
26.3310222643
 11
34.2795471661
 21
26.685352973
  0
LINE
  5
271
100
AcDbEntity
  8
02___PRT_ALL_AXES
100
AcDbLine
 62
8
  6
HIDDEN
 10
34.2917518905
 20
26.3735419493
 11
34.2917518905
 21
26.685352973
  0
LINE
  5
272
100
AcDbEntity
  8
02___PRT_ALL_AXES
100
AcDbLine
 62
8
  6
HIDDEN
 10
34.2933266936
 20
26.3735419493
 11
34.2933266936
 21
26.685352973
  0
LINE
  5
273
100
AcDbEntity
  8
02___PRT_ALL_AXES
100
AcDbLine
 62
7
  6
CONTINUOUS
 10
37.1747125204
 20
26.3310222643
 11
37.0387125204
 21
26.3310222643
  0
LINE
  5
274
100
AcDbEntity
  8
02___PRT_ALL_AXES
100
AcDbLine
 62
8
  6
HIDDEN
 10
37.1887203944
 20
26.3310222643
 11
37.1747125204
 21
26.3310222643
  0
LINE
  5
275
100
AcDbEntity
  8
02___PRT_ALL_AXES
100
AcDbLine
 62
8
  6
HIDDEN
 10
37.0387125204
 20
26.3310222643
 11
37.0247046464
 21
26.3310222643
  0
LINE
  5
276
100
AcDbEntity
  8
02___PRT_ALL_AXES
100
AcDbLine
 62
7
  6
CONTINUOUS
 10
36.2464762999
 20
26.3310222643
 11
36.1165550401
 21
26.3310222643
  0
LINE
  5
277
100
AcDbEntity
  8
02___PRT_ALL_AXES
100
AcDbLine
 62
7
  6
CONTINUOUS
 10
35.2622243314
 20
26.3310222643
 11
35.1323030716
 21
26.3310222643
  0
LINE
  5
278
100
AcDbEntity
  8
02___PRT_ALL_AXES
100
AcDbLine
 62
7
  6
CONTINUOUS
 10
34.2795471661
 20
26.3310222643
 11
34.1480511031
 21
26.3310222643
  0
LINE
  5
279
100
AcDbEntity
  8
02___PRT_ALL_AXES
100
AcDbLine
 62
7
  6
CONTINUOUS
 10
33.3558148826
 20
26.3310222643
 11
33.2198148826
 21
26.3310222643
  0
LINE
  5
27A
100
AcDbEntity
  8
02___PRT_ALL_AXES
100
AcDbLine
 62
8
  6
HIDDEN
 10
33.3698227566
 20
26.3310222643
 11
33.3558148826
 21
26.3310222643
  0
LINE
  5
27B
100
AcDbEntity
  8
02___PRT_ALL_AXES
100
AcDbLine
 62
8
  6
HIDDEN
 10
33.2198148826
 20
26.3310222643
 11
33.2058070086
 21
26.3310222643
  0
LINE
  5
27C
100
AcDbEntity
  8
0
100
AcDbLine
 62
7
  6
CONTINUOUS
 10
33.0909644889
 20
26.3310222643
 11
37.3035629141
 21
26.3310222643
  0
LINE
  5
27D
100
AcDbEntity
  8
02___PRT_ALL_AXES
100
AcDbLine
 62
8
  6
HIDDEN
 10
36.2602558275
 20
26.3735419493
 11
36.1027755125
 21
26.3735419493
  0
LINE
  5
27E
100
AcDbEntity
  8
02___PRT_ALL_AXES
100
AcDbLine
 62
8
  6
HIDDEN
 10
35.276003859
 20
26.3735419493
 11
35.118523544
 21
26.3735419493
  0
LINE
  5
27F
100
AcDbEntity
  8
02___PRT_ALL_AXES
100
AcDbLine
 62
8
  6
HIDDEN
 10
34.2933266936
 20
26.3735419493
 11
34.1342715755
 21
26.3735419493
  0
LINE
  5
280
100
AcDbEntity
  8
02___PRT_ALL_AXES
100
AcDbLine
 62
8
  6
HIDDEN
 10
35.118523544
 20
26.3735419493
 11
35.118523544
 21
26.685352973
  0
LINE
  5
281
100
AcDbEntity
  8
02___PRT_ALL_AXES
100
AcDbLine
 62
7
  6
CONTINUOUS
 10
35.1323030716
 20
26.3310222643
 11
35.1323030716
 21
26.685352973
  0
LINE
  5
282
100
AcDbEntity
  8
02___PRT_ALL_AXES
100
AcDbLine
 62
7
  6
CONTINUOUS
 10
37.1747125204
 20
26.5081876186
 11
37.0387125204
 21
26.5081876186
  0
LINE
  5
283
100
AcDbEntity
  8
02___PRT_ALL_AXES
100
AcDbLine
 62
8
  6
HIDDEN
 10
37.1887203944
 20
26.5081876186
 11
37.1747125204
 21
26.5081876186
  0
LINE
  5
284
100
AcDbEntity
  8
02___PRT_ALL_AXES
100
AcDbLine
 62
8
  6
HIDDEN
 10
37.0387125204
 20
26.5081876186
 11
37.0247046464
 21
26.5081876186
  0
LINE
  5
285
100
AcDbEntity
  8
02___PRT_ALL_AXES
100
AcDbLine
 62
7
  6
CONTINUOUS
 10
33.3558148826
 20
26.5081876186
 11
33.2198148826
 21
26.5081876186
  0
LINE
  5
286
100
AcDbEntity
  8
02___PRT_ALL_AXES
100
AcDbLine
 62
8
  6
HIDDEN
 10
33.3698227566
 20
26.5081876186
 11
33.3558148826
 21
26.5081876186
  0
LINE
  5
287
100
AcDbEntity
  8
02___PRT_ALL_AXES
100
AcDbLine
 62
8
  6
HIDDEN
 10
33.2198148826
 20
26.5081876186
 11
33.2058070086
 21
26.5081876186
  0
LINE
  5
288
100
AcDbEntity
  8
0
100
AcDbLine
 62
7
  6
CONTINUOUS
 10
33.4846652763
 20
26.5081876186
 11
33.0909644889
 21
26.5081876186
  0
LINE
  5
289
100
AcDbEntity
  8
0
100
AcDbLine
 62
7
  6
CONTINUOUS
 10
36.9098621267
 20
26.5081876186
 11
37.3035629141
 21
26.5081876186
  0
LINE
  5
28A
100
AcDbEntity
  8
02___PRT_ALL_AXES
100
AcDbLine
 62
7
  6
CONTINUOUS
 10
35.2622243314
 20
26.3310222643
 11
35.2622243314
 21
26.685352973
  0
LINE
  5
28B
100
AcDbEntity
  8
02___PRT_ALL_AXES
100
AcDbLine
 62
8
  6
HIDDEN
 10
35.276003859
 20
26.3735419493
 11
35.276003859
 21
26.685352973
  0
LINE
  5
28C
100
AcDbEntity
  8
02___PRT_ALL_AXES
100
AcDbLine
 62
7
  6
CONTINUOUS
 10
36.2464762999
 20
26.685352973
 11
36.1165550401
 21
26.685352973
  0
LINE
  5
28D
100
AcDbEntity
  8
02___PRT_ALL_AXES
100
AcDbLine
 62
8
  6
HIDDEN
 10
36.2602558275
 20
26.685352973
 11
36.2464762999
 21
26.685352973
  0
LINE
  5
28E
100
AcDbEntity
  8
02___PRT_ALL_AXES
100
AcDbLine
 62
8
  6
HIDDEN
 10
36.1165550401
 20
26.685352973
 11
36.1027755125
 21
26.685352973
  0
LINE
  5
28F
100
AcDbEntity
  8
02___PRT_ALL_AXES
100
AcDbLine
 62
7
  6
CONTINUOUS
 10
35.2622243314
 20
26.685352973
 11
35.1323030716
 21
26.685352973
  0
LINE
  5
290
100
AcDbEntity
  8
02___PRT_ALL_AXES
100
AcDbLine
 62
8
  6
HIDDEN
 10
35.276003859
 20
26.685352973
 11
35.2622243314
 21
26.685352973
  0
LINE
  5
291
100
AcDbEntity
  8
02___PRT_ALL_AXES
100
AcDbLine
 62
8
  6
HIDDEN
 10
35.1323030716
 20
26.685352973
 11
35.118523544
 21
26.685352973
  0
LINE
  5
292
100
AcDbEntity
  8
02___PRT_ALL_AXES
100
AcDbLine
 62
7
  6
CONTINUOUS
 10
34.2795471661
 20
26.685352973
 11
34.1480511031
 21
26.685352973
  0
LINE
  5
293
100
AcDbEntity
  8
02___PRT_ALL_AXES
100
AcDbLine
 62
8
  6
HIDDEN
 10
34.2933266936
 20
26.685352973
 11
34.2795471661
 21
26.685352973
  0
LINE
  5
294
100
AcDbEntity
  8
02___PRT_ALL_AXES
100
AcDbLine
 62
8
  6
HIDDEN
 10
34.1480511031
 20
26.685352973
 11
34.1342715755
 21
26.685352973
  0
LINE
  5
295
100
AcDbEntity
  8
0
100
AcDbLine
 62
7
  6
CONTINUOUS
 10
33.4846652763
 20
26.685352973
 11
36.9098621267
 21
26.685352973
  0
LINE
  5
296
100
AcDbEntity
  8
02___PRT_ALL_AXES
100
AcDbLine
 62
8
  6
HIDDEN
 10
36.1027755125
 20
26.3735419493
 11
36.1027755125
 21
26.685352973
  0
LINE
  5
297
100
AcDbEntity
  8
02___PRT_ALL_AXES
100
AcDbLine
 62
7
  6
CONTINUOUS
 10
36.1165550401
 20
26.3310222643
 11
36.1165550401
 21
26.685352973
  0
LINE
  5
298
100
AcDbEntity
  8
02___PRT_ALL_AXES
100
AcDbLine
 62
7
  6
CONTINUOUS
 10
36.2464762999
 20
26.3310222643
 11
36.2464762999
 21
26.685352973
  0
LINE
  5
299
100
AcDbEntity
  8
02___PRT_ALL_AXES
100
AcDbLine
 62
8
  6
HIDDEN
 10
36.2602558275
 20
26.3735419493
 11
36.2602558275
 21
26.685352973
  0
LINE
  5
29A
100
AcDbEntity
  8
0
100
AcDbLine
 62
7
  6
CONTINUOUS
 10
36.3783660637
 20
26.3310222643
 11
36.3783660637
 21
26.685352973
  0
LINE
  5
29B
100
AcDbEntity
  8
0
100
AcDbLine
 62
7
  6
CONTINUOUS
 10
36.9098621267
 20
26.685352973
 11
36.9098621267
 21
26.5081876186
  0
LINE
  5
29C
100
AcDbEntity
  8
02___PRT_ALL_AXES
100
AcDbLine
 62
8
  6
HIDDEN
 10
37.0247046464
 20
26.3310222643
 11
37.0247046464
 21
26.5081876186
  0
LINE
  5
29D
100
AcDbEntity
  8
02___PRT_ALL_AXES
100
AcDbLine
 62
7
  6
CONTINUOUS
 10
37.0387125204
 20
26.3310222643
 11
37.0387125204
 21
26.5081876186
  0
LINE
  5
29E
100
AcDbEntity
  8
02___PRT_ALL_AXES
100
AcDbLine
 62
7
  6
CONTINUOUS
 10
37.1747125204
 20
26.3310222643
 11
37.1747125204
 21
26.5081876186
  0
LINE
  5
29F
100
AcDbEntity
  8
02___PRT_ALL_AXES
100
AcDbLine
 62
8
  6
HIDDEN
 10
37.1887203944
 20
26.3310222643
 11
37.1887203944
 21
26.5081876186
  0
LINE
  5
2A0
100
AcDbEntity
  8
0
100
AcDbLine
 62
7
  6
CONTINUOUS
 10
37.3035629141
 20
26.5081876186
 11
37.3035629141
 21
26.3310222643
  0
LINE
  5
2A1
100
AcDbEntity
  8
0
100
AcDbLine
 62
7
  6
CONTINUOUS
 10
6.6243245547
 20
10.7265120822
 11
6.6243245547
 21
11.0808427908
  0
LINE
  5
2A2
100
AcDbEntity
  8
02___PRT_ALL_AXES
100
AcDbLine
 62
8
  6
HIDDEN
 10
6.7424347909
 20
10.7690317672
 11
6.7424347909
 21
11.0808427908
  0
LINE
  5
2A3
100
AcDbEntity
  8
02___PRT_ALL_AXES
100
AcDbLine
 62
7
  6
CONTINUOUS
 10
6.7562143185
 20
10.7265120822
 11
6.7562143185
 21
11.0808427908
  0
LINE
  5
2A4
100
AcDbEntity
  8
02___PRT_ALL_AXES
100
AcDbLine
 62
7
  6
CONTINUOUS
 10
6.8861355783
 20
10.7265120822
 11
6.8861355783
 21
11.0808427908
  0
LINE
  5
2A5
100
AcDbEntity
  8
02___PRT_ALL_AXES
100
AcDbLine
 62
8
  6
HIDDEN
 10
6.8999151059
 20
10.7690317672
 11
6.8999151059
 21
11.0808427908
  0
LINE
  5
2A6
100
AcDbEntity
  8
0
100
AcDbLine
 62
7
  6
CONTINUOUS
 10
7.5544426649
 20
11.0808427908
 11
7.5544426649
 21
10.7265120822
  0
LINE
  5
2A7
100
AcDbEntity
  8
0
100
AcDbLine
 62
7
  6
CONTINUOUS
 10
8.9865292791
 20
10.7265120822
 11
6.6243245547
 21
10.7265120822
  0
LINE
  5
2A8
100
AcDbEntity
  8
02___PRT_ALL_AXES
100
AcDbLine
 62
7
  6
CONTINUOUS
 10
6.7562143185
 20
10.7265120822
 11
6.8861355783
 21
10.7265120822
  0
LINE
  5
2A9
100
AcDbEntity
  8
02___PRT_ALL_AXES
100
AcDbLine
 62
8
  6
HIDDEN
 10
7.7236158933
 20
10.7265120822
 11
7.7376237673
 21
10.7265120822
  0
LINE
  5
2AA
100
AcDbEntity
  8
02___PRT_ALL_AXES
100
AcDbLine
 62
7
  6
CONTINUOUS
 10
7.7376237673
 20
10.7265120822
 11
7.8736237673
 21
10.7265120822
  0
LINE
  5
2AB
100
AcDbEntity
  8
02___PRT_ALL_AXES
100
AcDbLine
 62
8
  6
HIDDEN
 10
7.8736237673
 20
10.7265120822
 11
7.8876316413
 21
10.7265120822
  0
LINE
  5
2AC
100
AcDbEntity
  8
02___PRT_ALL_AXES
100
AcDbLine
 62
7
  6
CONTINUOUS
 10
8.7247182555
 20
10.7265120822
 11
8.8546395153
 21
10.7265120822
  0
LINE
  5
2AD
100
AcDbEntity
  8
02___PRT_ALL_AXES
100
AcDbLine
 62
8
  6
HIDDEN
 10
7.7236158933
 20
10.7265120822
 11
7.7236158933
 21
10.9036774365
  0
LINE
  5
2AE
100
AcDbEntity
  8
02___PRT_ALL_AXES
100
AcDbLine
 62
8
  6
HIDDEN
 10
7.7266867594
 20
10.7690317672
 11
7.7266867594
 21
11.0808427908
  0
LINE
  5
2AF
100
AcDbEntity
  8
02___PRT_ALL_AXES
100
AcDbLine
 62
8
  6
HIDDEN
 10
6.7424347909
 20
10.7690317672
 11
6.8999151059
 21
10.7690317672
  0
LINE
  5
2B0
100
AcDbEntity
  8
02___PRT_ALL_AXES
100
AcDbLine
 62
8
  6
HIDDEN
 10
7.7266867594
 20
10.7690317672
 11
7.8841670744
 21
10.7690317672
  0
LINE
  5
2B1
100
AcDbEntity
  8
02___PRT_ALL_AXES
100
AcDbLine
 62
8
  6
HIDDEN
 10
8.7109387279
 20
10.7690317672
 11
8.8684190429
 21
10.7690317672
  0
LINE
  5
2B2
100
AcDbEntity
  8
02___PRT_ALL_AXES
100
AcDbLine
 62
7
  6
CONTINUOUS
 10
7.7376237673
 20
10.7265120822
 11
7.7376237673
 21
10.9036774365
  0
LINE
  5
2B3
100
AcDbEntity
  8
02___PRT_ALL_AXES
100
AcDbLine
 62
7
  6
CONTINUOUS
 10
7.740466287
 20
10.7265120822
 11
7.740466287
 21
11.0808427908
  0
LINE
  5
2B4
100
AcDbEntity
  8
0
100
AcDbLine
 62
7
  6
CONTINUOUS
 10
8.0564111689
 20
10.9036774365
 11
7.5544426649
 21
10.9036774365
  0
LINE
  5
2B5
100
AcDbEntity
  8
02___PRT_ALL_AXES
100
AcDbLine
 62
8
  6
HIDDEN
 10
7.7236158933
 20
10.9036774365
 11
7.7376237673
 21
10.9036774365
  0
LINE
  5
2B6
100
AcDbEntity
  8
02___PRT_ALL_AXES
100
AcDbLine
 62
7
  6
CONTINUOUS
 10
7.7376237673
 20
10.9036774365
 11
7.8736237673
 21
10.9036774365
  0
LINE
  5
2B7
100
AcDbEntity
  8
02___PRT_ALL_AXES
100
AcDbLine
 62
8
  6
HIDDEN
 10
7.8736237673
 20
10.9036774365
 11
7.8876316413
 21
10.9036774365
  0
LINE
  5
2B8
100
AcDbEntity
  8
02___PRT_ALL_AXES
100
AcDbLine
 62
7
  6
CONTINUOUS
 10
7.8703875468
 20
10.7265120822
 11
7.8703875468
 21
11.0808427908
  0
LINE
  5
2B9
100
AcDbEntity
  8
02___PRT_ALL_AXES
100
AcDbLine
 62
7
  6
CONTINUOUS
 10
7.8736237673
 20
10.7265120822
 11
7.8736237673
 21
10.9036774365
  0
LINE
  5
2BA
100
AcDbEntity
  8
02___PRT_ALL_AXES
100
AcDbLine
 62
8
  6
HIDDEN
 10
7.8841670744
 20
10.7690317672
 11
7.8841670744
 21
11.0808427908
  0
LINE
  5
2BB
100
AcDbEntity
  8
02___PRT_ALL_AXES
100
AcDbLine
 62
8
  6
HIDDEN
 10
7.8876316413
 20
10.7265120822
 11
7.8876316413
 21
10.9036774365
  0
LINE
  5
2BC
100
AcDbEntity
  8
0
100
AcDbLine
 62
7
  6
CONTINUOUS
 10
8.9865292791
 20
11.0808427908
 11
6.6243245547
 21
11.0808427908
  0
LINE
  5
2BD
100
AcDbEntity
  8
02___PRT_ALL_AXES
100
AcDbLine
 62
8
  6
HIDDEN
 10
6.7424347909
 20
11.0808427908
 11
6.7562143185
 21
11.0808427908
  0
LINE
  5
2BE
100
AcDbEntity
  8
02___PRT_ALL_AXES
100
AcDbLine
 62
7
  6
CONTINUOUS
 10
6.7562143185
 20
11.0808427908
 11
6.8861355783
 21
11.0808427908
  0
LINE
  5
2BF
100
AcDbEntity
  8
02___PRT_ALL_AXES
100
AcDbLine
 62
8
  6
HIDDEN
 10
6.8861355783
 20
11.0808427908
 11
6.8999151059
 21
11.0808427908
  0
LINE
  5
2C0
100
AcDbEntity
  8
02___PRT_ALL_AXES
100
AcDbLine
 62
8
  6
HIDDEN
 10
7.7266867594
 20
11.0808427908
 11
7.740466287
 21
11.0808427908
  0
LINE
  5
2C1
100
AcDbEntity
  8
02___PRT_ALL_AXES
100
AcDbLine
 62
7
  6
CONTINUOUS
 10
7.740466287
 20
11.0808427908
 11
7.8703875468
 21
11.0808427908
  0
LINE
  5
2C2
100
AcDbEntity
  8
02___PRT_ALL_AXES
100
AcDbLine
 62
8
  6
HIDDEN
 10
7.8703875468
 20
11.0808427908
 11
7.8841670744
 21
11.0808427908
  0
LINE
  5
2C3
100
AcDbEntity
  8
02___PRT_ALL_AXES
100
AcDbLine
 62
8
  6
HIDDEN
 10
8.7109387279
 20
11.0808427908
 11
8.7247182555
 21
11.0808427908
  0
LINE
  5
2C4
100
AcDbEntity
  8
02___PRT_ALL_AXES
100
AcDbLine
 62
7
  6
CONTINUOUS
 10
8.7247182555
 20
11.0808427908
 11
8.8546395153
 21
11.0808427908
  0
LINE
  5
2C5
100
AcDbEntity
  8
02___PRT_ALL_AXES
100
AcDbLine
 62
8
  6
HIDDEN
 10
8.8546395153
 20
11.0808427908
 11
8.8684190429
 21
11.0808427908
  0
LINE
  5
2C6
100
AcDbEntity
  8
0
100
AcDbLine
 62
7
  6
CONTINUOUS
 10
8.0564111689
 20
11.0808427908
 11
8.0564111689
 21
10.7265120822
  0
LINE
  5
2C7
100
AcDbEntity
  8
02___PRT_ALL_AXES
100
AcDbLine
 62
8
  6
HIDDEN
 10
8.7109387279
 20
10.7690317672
 11
8.7109387279
 21
11.0808427908
  0
LINE
  5
2C8
100
AcDbEntity
  8
02___PRT_ALL_AXES
100
AcDbLine
 62
7
  6
CONTINUOUS
 10
8.7247182555
 20
10.7265120822
 11
8.7247182555
 21
11.0808427908
  0
LINE
  5
2C9
100
AcDbEntity
  8
02___PRT_ALL_AXES
100
AcDbLine
 62
7
  6
CONTINUOUS
 10
8.8546395153
 20
10.7265120822
 11
8.8546395153
 21
11.0808427908
  0
LINE
  5
2CA
100
AcDbEntity
  8
02___PRT_ALL_AXES
100
AcDbLine
 62
8
  6
HIDDEN
 10
8.8684190429
 20
10.7690317672
 11
8.8684190429
 21
11.0808427908
  0
LINE
  5
2CB
100
AcDbEntity
  8
0
100
AcDbLine
 62
7
  6
CONTINUOUS
 10
8.9865292791
 20
10.7265120822
 11
8.9865292791
 21
11.0808427908
  0
LINE
  5
2CC
100
AcDbEntity
  8
0
100
AcDbLine
 62
7
  6
CONTINUOUS
 10
21.0666906785
 20
10.4701242082
 11
21.0666906785
 21
10.8244549168
  0
LINE
  5
2CD
100
AcDbEntity
  8
02___PRT_ALL_AXES
100
AcDbLine
 62
8
  6
HIDDEN
 10
21.1848009148
 20
10.5126438932
 11
21.1848009148
 21
10.8244549168
  0
LINE
  5
2CE
100
AcDbEntity
  8
02___PRT_ALL_AXES
100
AcDbLine
 62
7
  6
CONTINUOUS
 10
21.1985804423
 20
10.4701242082
 11
21.1985804423
 21
10.8244549168
  0
LINE
  5
2CF
100
AcDbEntity
  8
02___PRT_ALL_AXES
100
AcDbLine
 62
7
  6
CONTINUOUS
 10
21.3285017022
 20
10.4701242082
 11
21.3285017022
 21
10.8244549168
  0
LINE
  5
2D0
100
AcDbEntity
  8
02___PRT_ALL_AXES
100
AcDbLine
 62
8
  6
HIDDEN
 10
21.3422812297
 20
10.5126438932
 11
21.3422812297
 21
10.8244549168
  0
LINE
  5
2D1
100
AcDbEntity
  8
0
100
AcDbLine
 62
7
  6
CONTINUOUS
 10
21.9968087888
 20
10.8244549168
 11
21.9968087888
 21
10.4701242082
  0
LINE
  5
2D2
100
AcDbEntity
  8
0
100
AcDbLine
 62
7
  6
CONTINUOUS
 10
23.428895403
 20
10.4701242082
 11
21.0666906785
 21
10.4701242082
  0
LINE
  5
2D3
100
AcDbEntity
  8
02___PRT_ALL_AXES
100
AcDbLine
 62
7
  6
CONTINUOUS
 10
21.1985804423
 20
10.4701242082
 11
21.3285017022
 21
10.4701242082
  0
LINE
  5
2D4
100
AcDbEntity
  8
02___PRT_ALL_AXES
100
AcDbLine
 62
8
  6
HIDDEN
 10
22.1655883163
 20
10.4701242082
 11
22.1795961904
 21
10.4701242082
  0
LINE
  5
2D5
100
AcDbEntity
  8
02___PRT_ALL_AXES
100
AcDbLine
 62
7
  6
CONTINUOUS
 10
22.1795961904
 20
10.4701242082
 11
22.3155961904
 21
10.4701242082
  0
LINE
  5
2D6
100
AcDbEntity
  8
02___PRT_ALL_AXES
100
AcDbLine
 62
8
  6
HIDDEN
 10
22.3155961904
 20
10.4701242082
 11
22.3296040644
 21
10.4701242082
  0
LINE
  5
2D7
100
AcDbEntity
  8
02___PRT_ALL_AXES
100
AcDbLine
 62
7
  6
CONTINUOUS
 10
23.1670843793
 20
10.4701242082
 11
23.2970056392
 21
10.4701242082
  0
LINE
  5
2D8
100
AcDbEntity
  8
02___PRT_ALL_AXES
100
AcDbLine
 62
8
  6
HIDDEN
 10
22.1655883163
 20
10.4701242082
 11
22.1655883163
 21
10.6472895625
  0
LINE
  5
2D9
100
AcDbEntity
  8
02___PRT_ALL_AXES
100
AcDbLine
 62
8
  6
HIDDEN
 10
22.1690528833
 20
10.5126438932
 11
22.1690528833
 21
10.8244549168
  0
LINE
  5
2DA
100
AcDbEntity
  8
02___PRT_ALL_AXES
100
AcDbLine
 62
8
  6
HIDDEN
 10
21.1848009148
 20
10.5126438932
 11
21.3422812297
 21
10.5126438932
  0
LINE
  5
2DB
100
AcDbEntity
  8
02___PRT_ALL_AXES
100
AcDbLine
 62
8
  6
HIDDEN
 10
22.1690528833
 20
10.5126438932
 11
22.3265331982
 21
10.5126438932
  0
LINE
  5
2DC
100
AcDbEntity
  8
02___PRT_ALL_AXES
100
AcDbLine
 62
8
  6
HIDDEN
 10
23.1533048518
 20
10.5126438932
 11
23.3107851667
 21
10.5126438932
  0
LINE
  5
2DD
100
AcDbEntity
  8
02___PRT_ALL_AXES
100
AcDbLine
 62
7
  6
CONTINUOUS
 10
22.1795961904
 20
10.4701242082
 11
22.1795961904
 21
10.6472895625
  0
LINE
  5
2DE
100
AcDbEntity
  8
02___PRT_ALL_AXES
100
AcDbLine
 62
7
  6
CONTINUOUS
 10
22.1828324108
 20
10.4701242082
 11
22.1828324108
 21
10.8244549168
  0
LINE
  5
2DF
100
AcDbEntity
  8
0
100
AcDbLine
 62
7
  6
CONTINUOUS
 10
22.4987772927
 20
10.6472895625
 11
21.9968087888
 21
10.6472895625
  0
LINE
  5
2E0
100
AcDbEntity
  8
02___PRT_ALL_AXES
100
AcDbLine
 62
8
  6
HIDDEN
 10
22.1655883163
 20
10.6472895625
 11
22.1795961904
 21
10.6472895625
  0
LINE
  5
2E1
100
AcDbEntity
  8
02___PRT_ALL_AXES
100
AcDbLine
 62
7
  6
CONTINUOUS
 10
22.1795961904
 20
10.6472895625
 11
22.3155961904
 21
10.6472895625
  0
LINE
  5
2E2
100
AcDbEntity
  8
02___PRT_ALL_AXES
100
AcDbLine
 62
8
  6
HIDDEN
 10
22.3155961904
 20
10.6472895625
 11
22.3296040644
 21
10.6472895625
  0
LINE
  5
2E3
100
AcDbEntity
  8
02___PRT_ALL_AXES
100
AcDbLine
 62
7
  6
CONTINUOUS
 10
22.3127536707
 20
10.4701242082
 11
22.3127536707
 21
10.8244549168
  0
LINE
  5
2E4
100
AcDbEntity
  8
02___PRT_ALL_AXES
100
AcDbLine
 62
7
  6
CONTINUOUS
 10
22.3155961904
 20
10.4701242082
 11
22.3155961904
 21
10.6472895625
  0
LINE
  5
2E5
100
AcDbEntity
  8
02___PRT_ALL_AXES
100
AcDbLine
 62
8
  6
HIDDEN
 10
22.3265331982
 20
10.5126438932
 11
22.3265331982
 21
10.8244549168
  0
LINE
  5
2E6
100
AcDbEntity
  8
02___PRT_ALL_AXES
100
AcDbLine
 62
8
  6
HIDDEN
 10
22.3296040644
 20
10.4701242082
 11
22.3296040644
 21
10.6472895625
  0
LINE
  5
2E7
100
AcDbEntity
  8
0
100
AcDbLine
 62
7
  6
CONTINUOUS
 10
23.428895403
 20
10.8244549168
 11
21.0666906785
 21
10.8244549168
  0
LINE
  5
2E8
100
AcDbEntity
  8
02___PRT_ALL_AXES
100
AcDbLine
 62
8
  6
HIDDEN
 10
21.1848009148
 20
10.8244549168
 11
21.1985804423
 21
10.8244549168
  0
LINE
  5
2E9
100
AcDbEntity
  8
02___PRT_ALL_AXES
100
AcDbLine
 62
7
  6
CONTINUOUS
 10
21.1985804423
 20
10.8244549168
 11
21.3285017022
 21
10.8244549168
  0
LINE
  5
2EA
100
AcDbEntity
  8
02___PRT_ALL_AXES
100
AcDbLine
 62
8
  6
HIDDEN
 10
21.3285017022
 20
10.8244549168
 11
21.3422812297
 21
10.8244549168
  0
LINE
  5
2EB
100
AcDbEntity
  8
02___PRT_ALL_AXES
100
AcDbLine
 62
8
  6
HIDDEN
 10
22.1690528833
 20
10.8244549168
 11
22.1828324108
 21
10.8244549168
  0
LINE
  5
2EC
100
AcDbEntity
  8
02___PRT_ALL_AXES
100
AcDbLine
 62
7
  6
CONTINUOUS
 10
22.1828324108
 20
10.8244549168
 11
22.3127536707
 21
10.8244549168
  0
LINE
  5
2ED
100
AcDbEntity
  8
02___PRT_ALL_AXES
100
AcDbLine
 62
8
  6
HIDDEN
 10
22.3127536707
 20
10.8244549168
 11
22.3265331982
 21
10.8244549168
  0
LINE
  5
2EE
100
AcDbEntity
  8
02___PRT_ALL_AXES
100
AcDbLine
 62
8
  6
HIDDEN
 10
23.1533048518
 20
10.8244549168
 11
23.1670843793
 21
10.8244549168
  0
LINE
  5
2EF
100
AcDbEntity
  8
02___PRT_ALL_AXES
100
AcDbLine
 62
7
  6
CONTINUOUS
 10
23.1670843793
 20
10.8244549168
 11
23.2970056392
 21
10.8244549168
  0
LINE
  5
2F0
100
AcDbEntity
  8
02___PRT_ALL_AXES
100
AcDbLine
 62
8
  6
HIDDEN
 10
23.2970056392
 20
10.8244549168
 11
23.3107851667
 21
10.8244549168
  0
LINE
  5
2F1
100
AcDbEntity
  8
0
100
AcDbLine
 62
7
  6
CONTINUOUS
 10
22.4987772927
 20
10.8244549168
 11
22.4987772927
 21
10.4701242082
  0
LINE
  5
2F2
100
AcDbEntity
  8
02___PRT_ALL_AXES
100
AcDbLine
 62
8
  6
HIDDEN
 10
23.1533048518
 20
10.5126438932
 11
23.1533048518
 21
10.8244549168
  0
LINE
  5
2F3
100
AcDbEntity
  8
02___PRT_ALL_AXES
100
AcDbLine
 62
7
  6
CONTINUOUS
 10
23.1670843793
 20
10.4701242082
 11
23.1670843793
 21
10.8244549168
  0
LINE
  5
2F4
100
AcDbEntity
  8
02___PRT_ALL_AXES
100
AcDbLine
 62
7
  6
CONTINUOUS
 10
23.2970056392
 20
10.4701242082
 11
23.2970056392
 21
10.8244549168
  0
LINE
  5
2F5
100
AcDbEntity
  8
02___PRT_ALL_AXES
100
AcDbLine
 62
8
  6
HIDDEN
 10
23.3107851667
 20
10.5126438932
 11
23.3107851667
 21
10.8244549168
  0
LINE
  5
2F6
100
AcDbEntity
  8
0
100
AcDbLine
 62
7
  6
CONTINUOUS
 10
23.428895403
 20
10.4701242082
 11
23.428895403
 21
10.8244549168
  0
LINE
  5
2F7
100
AcDbEntity
  8
0
100
AcDbLine
 62
7
  6
CONTINUOUS
 10
33.518655949
 20
11.0142834384
 11
33.518655949
 21
10.5123149345
  0
LINE
  5
2F8
100
AcDbEntity
  8
0
100
AcDbLine
 62
7
  6
CONTINUOUS
 10
33.9123567364
 20
10.5123149345
 11
33.9123567364
 21
11.0142834384
  0
LINE
  5
2F9
100
AcDbEntity
  8
0
100
AcDbLine
 62
7
  6
CONTINUOUS
 10
34.4438527994
 20
11.9444015487
 11
34.4438527994
 21
11.0142834384
  0
LINE
  5
2FA
100
AcDbEntity
  8
0
100
AcDbLine
 62
7
  6
CONTINUOUS
 10
34.4438527994
 20
10.5123149345
 11
34.4438527994
 21
9.5821968243
  0
LINE
  5
2FB
100
AcDbEntity
  8
0
100
AcDbLine
 62
7
  6
CONTINUOUS
 10
34.4438527994
 20
9.5821968243
 11
36.8060575238
 21
9.5821968243
  0
LINE
  5
2FC
100
AcDbEntity
  8
0
100
AcDbLine
 62
7
  6
CONTINUOUS
 10
34.4438527994
 20
10.5123149345
 11
33.518655949
 21
10.5123149345
  0
LINE
  5
2FD
100
AcDbEntity
  8
0
100
AcDbLine
 62
7
  6
CONTINUOUS
 10
36.8060575238
 20
10.5123149345
 11
37.7312543742
 21
10.5123149345
  0
LINE
  5
2FE
100
AcDbEntity
  8
0
100
AcDbLine
 62
7
  6
CONTINUOUS
 10
34.4438527994
 20
11.0142834384
 11
33.518655949
 21
11.0142834384
  0
LINE
  5
2FF
100
AcDbEntity
  8
0
100
AcDbLine
 62
7
  6
CONTINUOUS
 10
36.8060575238
 20
11.0142834384
 11
37.7312543742
 21
11.0142834384
  0
LINE
  5
300
100
AcDbEntity
  8
0
100
AcDbLine
 62
7
  6
CONTINUOUS
 10
36.8060575238
 20
9.5821968243
 11
36.8060575238
 21
10.5123149345
  0
LINE
  5
301
100
AcDbEntity
  8
0
100
AcDbLine
 62
7
  6
CONTINUOUS
 10
36.8060575238
 20
11.0142834384
 11
36.8060575238
 21
11.9444015487
  0
LINE
  5
302
100
AcDbEntity
  8
0
100
AcDbLine
 62
7
  6
CONTINUOUS
 10
36.8060575238
 20
11.9444015487
 11
34.4438527994
 21
11.9444015487
  0
LINE
  5
303
100
AcDbEntity
  8
0
100
AcDbLine
 62
7
  6
CONTINUOUS
 10
37.3375535868
 20
11.0142834384
 11
37.3375535868
 21
10.5123149345
  0
LINE
  5
304
100
AcDbEntity
  8
0
100
AcDbLine
 62
7
  6
CONTINUOUS
 10
37.7312543742
 20
10.5123149345
 11
37.7312543742
 21
11.0142834384
  0
CIRCLE
  5
305
100
AcDbEntity
  8
02___PRT_ALL_AXES
100
AcDbCircle
 62
8
  6
HIDDEN
 10
20.8905665354
 20
26.4257237919
 40
0.082007874
  0
CIRCLE
  5
306
100
AcDbEntity
  8
02___PRT_ALL_AXES
100
AcDbCircle
 62
8
  6
HIDDEN
 10
21.8157633857
 20
25.4416686738
 40
0.0787401575
  0
CIRCLE
  5
307
100
AcDbEntity
  8
02___PRT_ALL_AXES
100
AcDbCircle
 62
7
  6
CONTINUOUS
 10
20.8905665354
 20
26.4257237919
 40
0.068
  0
CIRCLE
  5
308
100
AcDbEntity
  8
02___PRT_ALL_AXES
100
AcDbCircle
 62
7
  6
CONTINUOUS
 10
21.8157633857
 20
25.4416686738
 40
0.0649606299
  0
CIRCLE
  5
309
100
AcDbEntity
  8
02___PRT_ALL_AXES
100
AcDbCircle
 62
8
  6
HIDDEN
 10
21.8157633857
 20
27.4101726108
 40
0.0787401575
  0
CIRCLE
  5
30A
100
AcDbEntity
  8
02___PRT_ALL_AXES
100
AcDbCircle
 62
8
  6
HIDDEN
 10
21.8157633857
 20
26.4259206423
 40
0.0787401575
  0
CIRCLE
  5
30B
100
AcDbEntity
  8
02___PRT_ALL_AXES
100
AcDbCircle
 62
7
  6
CONTINUOUS
 10
21.8157633857
 20
27.4101726108
 40
0.0649606299
  0
CIRCLE
  5
30C
100
AcDbEntity
  8
02___PRT_ALL_AXES
100
AcDbCircle
 62
7
  6
CONTINUOUS
 10
21.8157633857
 20
26.4259206423
 40
0.0649606299
  0
CIRCLE
  5
30D
100
AcDbEntity
  8
02___PRT_ALL_AXES
100
AcDbCircle
 62
8
  6
HIDDEN
 10
24.7094641732
 20
26.4257237919
 40
0.082007874
  0
CIRCLE
  5
30E
100
AcDbEntity
  8
02___PRT_ALL_AXES
100
AcDbCircle
 62
8
  6
HIDDEN
 10
23.7826925196
 20
25.4416686738
 40
0.0787401575
  0
CIRCLE
  5
30F
100
AcDbEntity
  8
02___PRT_ALL_AXES
100
AcDbCircle
 62
8
  6
HIDDEN
 10
22.8000153543
 20
25.4416686738
 40
0.0787401575
  0
CIRCLE
  5
310
100
AcDbEntity
  8
02___PRT_ALL_AXES
100
AcDbCircle
 62
7
  6
CONTINUOUS
 10
24.7094641732
 20
26.4257237919
 40
0.068
  0
CIRCLE
  5
311
100
AcDbEntity
  8
02___PRT_ALL_AXES
100
AcDbCircle
 62
7
  6
CONTINUOUS
 10
23.7826925196
 20
25.4416686738
 40
0.0649606299
  0
CIRCLE
  5
312
100
AcDbEntity
  8
02___PRT_ALL_AXES
100
AcDbCircle
 62
7
  6
CONTINUOUS
 10
22.8000153543
 20
25.4416686738
 40
0.0649606299
  0
CIRCLE
  5
313
100
AcDbEntity
  8
02___PRT_ALL_AXES
100
AcDbCircle
 62
8
  6
HIDDEN
 10
23.7842673228
 20
27.4101726108
 40
0.0787401575
  0
CIRCLE
  5
314
100
AcDbEntity
  8
02___PRT_ALL_AXES
100
AcDbCircle
 62
8
  6
HIDDEN
 10
23.7842673228
 20
26.4259206423
 40
0.0787401575
  0
CIRCLE
  5
315
100
AcDbEntity
  8
02___PRT_ALL_AXES
100
AcDbCircle
 62
8
  6
HIDDEN
 10
22.8000153543
 20
27.4101726108
 40
0.0787401575
  0
CIRCLE
  5
316
100
AcDbEntity
  8
02___PRT_ALL_AXES
100
AcDbCircle
 62
7
  6
CONTINUOUS
 10
23.7842673228
 20
27.4101726108
 40
0.0649606299
  0
CIRCLE
  5
317
100
AcDbEntity
  8
02___PRT_ALL_AXES
100
AcDbCircle
 62
7
  6
CONTINUOUS
 10
23.7842673228
 20
26.4259206423
 40
0.0649606299
  0
CIRCLE
  5
318
100
AcDbEntity
  8
02___PRT_ALL_AXES
100
AcDbCircle
 62
7
  6
CONTINUOUS
 10
22.8000153543
 20
27.4101726108
 40
0.0649606299
  0
CIRCLE
  5
319
100
AcDbEntity
  8
02___PRT_ALL_AXES
100
AcDbCircle
 62
8
  6
HIDDEN
 10
33.7155063427
 20
10.7631023361
 40
0.082007874
  0
CIRCLE
  5
31A
100
AcDbEntity
  8
02___PRT_ALL_AXES
100
AcDbCircle
 62
8
  6
HIDDEN
 10
34.6422779962
 20
9.779047218
 40
0.0787401575
  0
CIRCLE
  5
31B
100
AcDbEntity
  8
02___PRT_ALL_AXES
100
AcDbCircle
 62
7
  6
CONTINUOUS
 10
33.7155063427
 20
10.7631023361
 40
0.068
  0
CIRCLE
  5
31C
100
AcDbEntity
  8
02___PRT_ALL_AXES
100
AcDbCircle
 62
7
  6
CONTINUOUS
 10
34.6422779962
 20
9.779047218
 40
0.0649606299
  0
CIRCLE
  5
31D
100
AcDbEntity
  8
02___PRT_ALL_AXES
100
AcDbCircle
 62
8
  6
HIDDEN
 10
34.6407031931
 20
11.747551155
 40
0.0787401575
  0
CIRCLE
  5
31E
100
AcDbEntity
  8
02___PRT_ALL_AXES
100
AcDbCircle
 62
8
  6
HIDDEN
 10
34.6407031931
 20
10.7632991865
 40
0.0787401575
  0
CIRCLE
  5
31F
100
AcDbEntity
  8
02___PRT_ALL_AXES
100
AcDbCircle
 62
7
  6
CONTINUOUS
 10
34.6407031931
 20
11.747551155
 40
0.0649606299
  0
CIRCLE
  5
320
100
AcDbEntity
  8
02___PRT_ALL_AXES
100
AcDbCircle
 62
7
  6
CONTINUOUS
 10
34.6407031931
 20
10.7632991865
 40
0.0649606299
  0
CIRCLE
  5
321
100
AcDbEntity
  8
02___PRT_ALL_AXES
100
AcDbCircle
 62
8
  6
HIDDEN
 10
37.5344039805
 20
10.7631023361
 40
0.082007874
  0
CIRCLE
  5
322
100
AcDbEntity
  8
02___PRT_ALL_AXES
100
AcDbCircle
 62
8
  6
HIDDEN
 10
36.6092071301
 20
9.779047218
 40
0.0787401575
  0
CIRCLE
  5
323
100
AcDbEntity
  8
02___PRT_ALL_AXES
100
AcDbCircle
 62
8
  6
HIDDEN
 10
35.6249551616
 20
9.779047218
 40
0.0787401575
  0
CIRCLE
  5
324
100
AcDbEntity
  8
02___PRT_ALL_AXES
100
AcDbCircle
 62
7
  6
CONTINUOUS
 10
37.5344039805
 20
10.7631023361
 40
0.068
  0
CIRCLE
  5
325
100
AcDbEntity
  8
02___PRT_ALL_AXES
100
AcDbCircle
 62
7
  6
CONTINUOUS
 10
36.6092071301
 20
9.779047218
 40
0.0649606299
  0
CIRCLE
  5
326
100
AcDbEntity
  8
02___PRT_ALL_AXES
100
AcDbCircle
 62
7
  6
CONTINUOUS
 10
35.6249551616
 20
9.779047218
 40
0.0649606299
  0
CIRCLE
  5
327
100
AcDbEntity
  8
02___PRT_ALL_AXES
100
AcDbCircle
 62
8
  6
HIDDEN
 10
36.6092071301
 20
11.747551155
 40
0.0787401575
  0
CIRCLE
  5
328
100
AcDbEntity
  8
02___PRT_ALL_AXES
100
AcDbCircle
 62
8
  6
HIDDEN
 10
36.6092071301
 20
10.7632991865
 40
0.0787401575
  0
CIRCLE
  5
329
100
AcDbEntity
  8
02___PRT_ALL_AXES
100
AcDbCircle
 62
8
  6
HIDDEN
 10
35.6249551616
 20
11.747551155
 40
0.0787401575
  0
CIRCLE
  5
32A
100
AcDbEntity
  8
02___PRT_ALL_AXES
100
AcDbCircle
 62
7
  6
CONTINUOUS
 10
36.6092071301
 20
11.747551155
 40
0.0649606299
  0
CIRCLE
  5
32B
100
AcDbEntity
  8
02___PRT_ALL_AXES
100
AcDbCircle
 62
7
  6
CONTINUOUS
 10
36.6092071301
 20
10.7632991865
 40
0.0649606299
  0
CIRCLE
  5
32C
100
AcDbEntity
  8
02___PRT_ALL_AXES
100
AcDbCircle
 62
7
  6
CONTINUOUS
 10
35.6249551616
 20
11.747551155
 40
0.0649606299
  0
ENDSEC
  0
SECTION
  2
OBJECTS
  0
DICTIONARY
  5
C
100
AcDbDictionary
280
0
281
1
  3
ACAD_GROUP
350
D
  3
ACAD_MLINESTYLE
350
17
  3
ACAD_LAYOUT
350
1A
  3
ACAD_PLOTSETTINGS
350
19
  3
ACAD_PLOTSTYLENAME
350
E
  0
DICTIONARY
  5
D
102
{ACAD_REACTORS
330
C
102
}
100
AcDbDictionary
280
0
281
1
  0
ACDBDICTIONARYWDFLT
  5
E
102
{ACAD_REACTORS
330
C
102
}
100
AcDbDictionary
281
1
  3
Normal
350
F
100
AcDbDictionaryWithDefault
340
F
  0
DICTIONARY
  5
17
102
{ACAD_REACTORS
330
C
102
}
100
AcDbDictionary
280
0
281
1
  3
Standard
350
18
  0
DICTIONARY
  5
19
102
{ACAD_REACTORS
330
C
102
}
100
AcDbDictionary
281
1
  0
DICTIONARY
  5
1A
102
{ACAD_REACTORS
330
C
102
}
100
AcDbDictionary
281
1
  3
Model
350
32D
  3
Layout1
350
32E
  0
ACDBPLACEHOLDER
  5
F
102
{ACAD_REACTORS
330
E
102
}
  0
MLINESTYLE
  5
18
102
{ACAD_REACTORS
330
17
102
}
100
AcDbMlineStyle
  2
STANDARD
 70
0
  3

 62
256
 51
90.0
 52
90.0
 71
2
 49
0.5
 62
256
  6
BYLAYER
 49
-0.5
 62
256
  6
BYLAYER
  0
LAYOUT
  5
32D
102
{ACAD_REACTORS
330
1A
102
}
100
AcDbPlotSettings
  1

  2
none_device
  4
ISO_A0_(1189.00_x_841.00_MM)
  6

 40
0.0
 41
0.0
 42
0.0
 43
0.0
 44
1189.0
 45
841.0
 46
0.0
 47
0.0
 48
0.0
 49
0.0
140
0.0
141
0.0
142
1.0
143
1.0
 70
1024
 72
0
 73
0
 74
0
  7

 75
0
147
1.0
148
0.0
149
0.0
100
AcDbLayout
  1
Model
 70
0
 71
0
 10
0.0
 20
0.0
 11
46.811023622
 21
33.1102362205
 12
0.0
 22
0.0
 32
0.0
 14
0.0
 24
0.0
 34
0.0
 15
0.0
 25
0.0
 35
0.0
146
0.0
 13
0.0
 23
0.0
 33
0.0
 16
1.0
 26
0.0
 36
0.0
 17
0.0
 27
1.0
 37
0.0
 76
0
330
207
345
0
346
0
  0
LAYOUT
  5
32E
102
{ACAD_REACTORS
330
1A
102
}
100
AcDbPlotSettings
  1

  2
none_device
  4
ISO_A0_(1189.00_x_841.00_MM)
  6

 40
0.0
 41
0.0
 42
0.0
 43
0.0
 44
1189.0
 45
841.0
 46
0.0
 47
0.0
 48
0.0
 49
0.0
140
0.0
141
0.0
142
1.0
143
1.0
 70
0
 72
0
 73
0
 74
0
  7

 75
0
147
1.0
148
0.0
149
0.0
100
AcDbLayout
  1
Layout1
 70
0
 71
1
 10
0.0
 20
0.0
 11
46.811023622
 21
33.1102362205
 12
0.0
 22
0.0
 32
0.0
 14
0.0
 24
0.0
 34
0.0
 15
0.0
 25
0.0
 35
0.0
146
0.0
 13
0.0
 23
0.0
 33
0.0
 16
1.0
 26
0.0
 36
0.0
 17
0.0
 27
1.0
 37
0.0
 76
0
330
208
345
0
346
0
  0
ENDSEC
  0
EOF
